<svg width="197" height="339" viewBox="0 0 197 339" fill="none" xmlns="http://www.w3.org/2000/svg">
<path d="M28.3332 110.043C28.3332 110.043 23.385 112.42 25.1628 113.608C26.9406 114.796 28.3332 110.043 28.3332 110.043Z" fill="white"/>
<path d="M45.4883 105.053C46.3772 105.409 41.4883 103.508 41.6364 100.449C41.7846 97.6568 43.355 96.5281 43.355 96.5281C43.355 96.5281 39.829 100.3 38.9105 99.4984C37.9624 98.6964 38.5253 97.5677 38.5253 97.5677C38.5253 97.5677 34.9698 104.073 29.8142 103.805C25.7846 103.627 25.3994 103.122 25.3994 103.122C25.3994 103.122 31.1772 105.588 30.4957 106.806C29.8142 107.994 27.1772 108.677 27.1772 108.677C27.1772 108.677 31.0883 107.637 31.2364 109.36C31.3846 111.083 30.7031 112.33 30.7031 112.33C30.7031 112.33 32.9253 108.855 34.9105 109.152C36.8957 109.449 45.4883 105.053 45.4883 105.053Z" fill="white"/>
<path d="M24.8362 88.0922C24.7473 88.2704 23.8584 90.6764 23.8584 90.6764C23.8584 90.6764 25.0436 92.9042 29.1621 94.6864C33.2806 96.4686 34.6436 95.4884 34.6436 95.4884L35.6806 92.5774C35.6806 92.5774 34.2288 89.9338 29.7547 88.5674C25.2806 87.201 24.8362 88.0922 24.8362 88.0922Z" fill="#F5FF2A"/>
<path d="M153.459 333.118C176.958 333.118 196.007 330.738 196.007 327.801C196.007 324.865 176.958 322.484 153.459 322.484C129.961 322.484 110.911 324.865 110.911 327.801C110.911 330.738 129.961 333.118 153.459 333.118Z" fill="black"/>
<path d="M138.23 279.146C138.23 279.146 136.363 276.473 132.955 277.186C129.548 277.899 130.911 281.374 130.911 281.374L137.785 287.909C137.785 287.909 137.074 290.582 137.074 293.077C137.074 295.573 137.074 297.889 137.074 297.889C137.074 297.889 137.163 298.691 136.185 299.493C135.207 300.295 135.118 300.919 135.829 301.365C136.541 301.81 136.718 302.523 136.718 302.523C136.718 302.523 136.185 303.058 135.118 304.573C134.052 306.088 133.607 306.979 133.607 306.979C133.607 306.979 125.133 310.098 120.511 313.959C115.889 317.791 113.281 321.118 113.281 321.118C113.281 321.118 111.948 323.346 112.392 324.86C112.837 326.375 114.081 327.801 114.081 327.801C114.081 327.801 132.096 328.425 137.252 327.801C142.407 327.177 144.481 327.088 146.17 325.484C147.859 323.88 148.481 323.346 149.104 321.385C149.726 319.425 149.37 317.197 152.126 315.563C154.881 313.929 161.489 312.712 161.489 312.712C161.489 312.712 170.496 307.543 175.385 302.256C180.274 296.969 181.459 297.444 182.792 293.939C184.126 290.434 184.392 290.374 185.104 285.978C185.815 281.612 185.37 280.424 185.37 280.424C185.37 280.424 182.792 278.82 181.37 278.82C179.948 278.82 179.504 278.552 179.504 278.552C179.504 278.552 171.918 276.414 167.741 276.325C163.563 276.235 159.533 275.879 159.267 275.879C159 275.879 150.348 275.701 150.348 275.701C150.348 275.701 150.259 273.919 148.837 273.74C147.415 273.562 146.17 275.79 146.17 275.79C146.17 275.79 147.83 277.335 144.6 279.473C141.37 281.612 140.274 281.463 140.274 281.463L138.23 279.146Z" fill="white"/>
<path d="M59.444 338.227C91.8938 338.227 118.2 335.847 118.2 332.91C118.2 329.974 91.8938 327.593 59.444 327.593C26.9942 327.593 0.688477 329.974 0.688477 332.91C0.688477 335.847 26.9942 338.227 59.444 338.227Z" fill="black"/>
<path d="M134.199 273.711L140.244 281.493C140.244 281.493 143.147 281.374 144.57 279.503C146.021 277.661 146.14 275.82 146.14 275.82L141.547 268.958L134.199 273.711Z" fill="white"/>
<path d="M148.837 309.801C148.837 309.801 150.97 298.721 152.6 293.375C154.23 288.058 154.229 286.186 157.607 284.76C160.985 283.335 168.244 284.463 168.244 284.463L164.452 292.988C164.452 292.988 162.615 294.414 159.859 295.454C157.104 296.464 156.155 298.394 157.992 298.81C159.829 299.226 160.155 298.929 160.155 298.929L154.111 306.712L148.837 309.801Z" fill="#B5D096"/>
<path d="M146.97 305.999C146.703 305.761 145.844 304.662 143.592 305.167C141.34 305.672 139.296 309.89 139.088 310.187C138.881 310.484 136.54 313.662 135.622 315.207C134.703 316.751 134.288 317.88 133.073 318.088C131.859 318.296 131.947 318.801 131.118 317.078C130.288 315.355 129.992 315.444 128.984 315.444C127.977 315.444 125.725 316.454 125.725 316.454C125.725 316.454 121.933 318.92 119.592 319.009C117.251 319.098 117.34 317.048 117.34 317.048C117.34 317.048 113.992 319.959 113.31 321.118C112.629 322.276 112.54 323.613 112.54 323.613L118.584 323.702C118.584 323.702 125.014 320.316 129.518 319.692C134.022 319.068 132.688 322.157 132.688 322.157L132.184 323.999H134.733L148.836 309.325C148.807 309.385 148.392 307.335 146.97 305.999Z" fill="#B5D096"/>
<path d="M140.214 280.661C140.629 280.661 142.407 281.612 144.57 279.503C146.733 277.394 146.14 275.82 146.14 275.82C146.14 275.82 146.822 274.839 148.244 274.334C149.666 273.83 150.555 275.315 149.103 277.988C147.651 280.661 147.148 282.206 144.511 282.592C141.844 283.008 139.296 283.305 139.296 283.305V280.75L140.214 280.661Z" fill="#B5D096"/>
<path d="M153.814 275.137C153.814 275.137 151.355 273.503 152.274 271.661C153.192 269.82 155.74 271.869 155.74 271.869L159.237 275.939L160.955 275.463C160.955 275.463 159.118 271.661 156.451 269.523C153.785 267.384 151.74 268.81 150.94 269.82C150.14 270.829 149.903 271.869 150.318 273.087C150.733 274.305 151.533 275.344 151.533 275.344L153.814 275.137Z" fill="#B5D096"/>
<path d="M140.422 283.84C140.718 283.84 145.933 284.048 149.726 284.968C153.518 285.889 154.437 287.315 154.437 287.315L151.266 297.266C151.266 297.266 151.978 291.83 148.511 290.909C145.044 289.988 141.666 293.582 141.666 293.582C141.666 293.582 142.881 291.622 142.17 288.563C141.459 285.503 139.711 285.295 139.711 285.295C139.711 285.295 138.17 287.048 138.378 286.721C138.585 286.394 139.296 283.335 139.296 283.335L140.422 283.84Z" fill="#00EFBF"/>
<path d="M139.503 305.494C139.503 305.494 140.007 306.504 141.044 306.919L139.089 310.187L137.548 307.929L139.503 305.494Z" fill="#00EFBF"/>
<path d="M122.229 312.652C122.733 312.652 125.814 312.949 126.525 314.078C127.236 315.207 125.696 316.425 125.696 316.425C125.696 316.425 121.399 319.306 119.562 318.979C117.725 318.652 117.311 317.345 117.311 317.019C117.311 316.692 122.229 312.652 122.229 312.652Z" fill="#00EFBF"/>
<path d="M119.385 323.019C119.385 323.019 125.903 320.138 129.459 319.722C133.014 319.306 132.629 322.187 132.629 322.187L132.125 324.029L118.525 323.732L119.385 323.019Z" fill="#00EFBF"/>
<path d="M134.2 327.742C134.2 327.742 133.163 328.365 133.37 326.732C133.578 325.098 137.666 324.058 142.466 323.969C147.266 323.88 147.267 323.88 147.267 323.88C147.267 323.88 146.852 325.93 142.259 326.761C137.666 327.593 134.2 327.742 134.2 327.742Z" fill="#00EFBF"/>
<path d="M149.014 319.93C148.718 319.841 145.636 320.345 145.636 320.345C145.636 320.345 144.421 317.078 147.384 314.405C150.347 311.731 150.851 312.266 153.014 311.019C155.177 309.771 156.392 310.514 156.807 311.108C157.221 311.702 157.518 313.454 157.221 313.454C156.925 313.454 155.888 313.157 152.836 314.999C149.784 316.84 149.014 319.93 149.014 319.93Z" fill="#00EFBF"/>
<path d="M161.489 312.741C161.489 312.741 159.948 311.642 161.37 309.682C162.793 307.721 165.163 305.999 166.289 304.157C167.415 302.315 167.118 301.9 167.918 302.107C168.718 302.315 169.044 304.781 170.585 303.444C172.126 302.107 172.333 299.048 174.378 295.038C176.422 291.028 177.43 288.978 179.504 287.85C181.548 286.721 181.844 290.82 181.844 290.82C181.844 290.82 183.978 287.434 183.267 283.751C182.556 280.067 181.37 278.879 181.37 278.879L185.37 280.483C185.37 280.483 186.644 288.978 182.141 295.543C177.637 302.107 168.244 307.751 168.244 307.751L161.489 312.741Z" fill="#00EFBF"/>
<path d="M176.836 278.315C176.836 278.315 177.547 284.166 171.414 288.77C165.281 293.374 159.651 294.711 157.725 296.672C155.769 298.632 161.518 298.929 161.518 298.929C161.518 298.929 166.199 299.196 162.495 302.048C158.821 304.929 154.525 307.365 151.266 308.494C148.007 309.622 140.451 318.088 140.451 318.088L134.732 324.029C134.732 324.029 139.118 324.237 144.747 319.098C150.377 313.959 155.266 310.989 161.014 306.593C166.762 302.196 167.769 298.394 171.147 295.424C174.525 292.454 175.444 289.78 177.577 285.265C179.71 280.75 179.532 278.582 179.532 278.582L176.836 278.315Z" fill="#00EFBF"/>
<path d="M58.6144 293.018C58.6144 293.018 55.6514 288.949 56.4218 285.354C57.1921 281.76 60.481 283.335 60.481 283.335C60.481 283.335 62.5255 284.76 63.2959 286.632C64.0662 288.503 64.3922 290.077 64.3922 290.077C64.3922 290.077 67.3551 289.127 69.0736 290.553C70.7921 291.978 75.4736 291.176 77.9921 291.176C80.5107 291.176 81.7551 293.671 81.7551 293.671L99.4144 307.781C99.4144 307.781 104.422 311.702 105.814 314.048C107.237 316.395 108.481 320.642 108.481 320.642L109.577 324.088C109.577 324.088 111.296 326.583 110.525 329.257C109.755 331.93 108.511 332.227 108.511 332.227L64.5996 334.425C64.5996 334.425 57.2514 331.276 52.5699 331.603C47.8884 331.93 45.2218 335.049 41.6366 335.049C38.0514 335.049 14.5255 333.415 14.5255 333.415C14.5255 333.415 9.93289 330.504 8.98474 324.712C8.03659 318.92 13.9922 317.048 17.4292 315.147C20.8662 313.276 32.1255 308.553 32.1255 308.553C32.1255 308.553 32.8959 306.058 36.0366 305.107C39.1477 304.157 40.7181 304.632 40.7181 304.632C40.7181 304.632 39.4736 302.909 40.244 301.959C41.0144 301.008 43.681 301.187 43.681 301.187L45.3996 302.137L46.644 301.81C46.644 301.81 47.1181 300.088 51.1773 297.741C55.2366 295.394 57.281 296.642 57.281 296.642C57.281 296.642 56.807 295.394 57.1329 294.622C57.3699 293.82 58.6144 293.018 58.6144 293.018Z" fill="white"/>
<path d="M69.1627 283.721C69.0442 284.107 67.9775 292.929 67.9775 292.929C67.9775 292.929 69.9331 293.998 72.5701 294.384C75.2072 294.771 75.5924 293.85 75.5924 293.85L77.5479 284.642L69.1627 283.721Z" fill="white"/>
<path d="M45.666 325.128C45.666 325.128 49.7253 319.187 58.0216 313.217C66.3179 307.276 69.903 304.454 73.0142 303.83C76.1253 303.206 79.7401 306.177 82.7031 308.048C85.666 309.919 90.5253 314.939 90.0512 314.939C89.5771 314.939 81.3105 317.613 81.3105 317.613C81.3105 317.613 78.1993 316.365 75.6808 316.514C73.1919 316.662 74.7327 319.484 74.7327 319.484L68.4808 321.682C68.4808 321.682 65.3697 320.435 58.466 322.306C51.5919 324.207 45.666 325.128 45.666 325.128Z" fill="#B5D096"/>
<path d="M15.1777 316.514C15.1777 316.514 15.7999 320.108 19.0888 319.811C22.3777 319.484 22.8518 318.712 25.1925 316.989C27.5333 315.266 28.0962 315.296 29.1036 315.89C30.3481 316.632 30.0518 319.425 32.5703 319.276C35.0888 319.128 34.2592 318.088 37.2222 316.365C40.1851 314.642 41.4296 315.266 43.7703 314.939C46.111 314.613 47.0592 315.712 46.111 318.385C45.1629 321.058 45.637 325.128 45.637 325.128L39.237 327.474L32.837 327.148C32.837 327.148 31.8888 325.9 32.6888 324.326C33.4592 322.751 33.311 321.029 29.2518 321.029C29.2518 321.029 24.5703 323.227 22.3777 324.177C20.1851 325.128 16.274 326.197 16.274 326.197L8.92586 324.623C8.92586 324.623 6.58512 323.197 9.69623 319.93C12.837 316.692 15.1777 316.514 15.1777 316.514Z" fill="#B5D096"/>
<path d="M64.3926 290.048L68.1555 289.721L68.0074 292.929C68.0074 292.929 70.4963 293.879 72.6 294.384C74.7333 294.889 75.6222 293.85 75.6222 293.85L76.2741 290.968C76.2741 290.968 78.7629 290.018 80.4815 291.295C82.2 292.543 81.7259 294.444 80.0074 295.84C78.2889 297.266 75.2963 299.018 72.1852 298.068C69.0741 297.117 66.8815 295.365 66.4074 295.365C65.9333 295.365 65.1629 294.592 65.1629 294.592L64.3926 290.048Z" fill="#B5D096"/>
<path d="M85.9621 296.315C85.9621 296.315 85.488 290.374 88.6288 289.721C91.7399 289.097 92.5399 298.335 92.5399 298.335L92.3918 300.682L94.4066 302.702C94.4066 302.702 95.8288 296.286 93.9325 291.592C92.0362 286.899 89.1029 287.374 87.0584 287.998C85.014 288.622 83.7695 291.592 83.7695 291.592V294.266L85.9621 296.315Z" fill="#B5D096"/>
<path d="M62.6738 333.445C62.6738 333.445 62.6738 331.098 64.8664 331.098C67.059 331.098 67.6812 331.722 70.9701 330.148C74.259 328.574 76.5109 327.207 78.3183 327.95C80.9849 329.049 77.5479 331.247 79.7405 331.871C81.9331 332.494 83.5035 331.544 86.4664 329.999C89.4294 328.425 92.2442 326.851 96.0072 326.227C99.7701 325.603 100.066 326.227 100.392 327.653C100.718 329.079 100.541 330.326 100.541 330.326C100.541 330.326 102.555 330.326 105.548 327.653C108.54 324.979 109.607 324.059 109.607 324.059C109.607 324.059 111.622 326.732 110.555 329.227C109.459 331.722 108.541 332.197 108.541 332.197L64.6294 334.395L62.6738 333.445Z" fill="#00EFBF"/>
<path d="M47.207 327.653L45.8145 330.92L48.007 332.346C48.007 332.346 48.3033 331.247 52.5404 331.574C56.7478 331.9 59.4144 332.524 59.4144 332.524C59.4144 332.524 63.4737 332.049 63.6219 329.851C63.77 327.653 58.7626 326.078 55.3256 326.257C51.8885 326.405 47.207 327.653 47.207 327.653Z" fill="#00EFBF"/>
<path d="M45.6659 333.445C45.6659 333.445 39.1177 329.375 33.4881 329.851C27.8585 330.326 24.8955 334.247 24.8955 334.247C24.8955 334.247 31.2955 334.574 35.3548 334.722C39.414 334.841 45.6659 333.445 45.6659 333.445Z" fill="#00EFBF"/>
<path d="M106.111 315.118C106.111 315.118 106.111 319.959 97.5185 319.811C88.9259 319.662 86.437 318.86 81.2814 317.613C76.1259 316.365 73.2518 316.425 75.1185 319.395C76.9851 322.365 76.4518 323.88 72.3925 322.306C68.3333 320.732 66.7629 321.207 60.837 321.831C54.9111 322.454 43.0296 326.049 39.2666 327.474C39.2666 327.474 57.874 328.425 72.3925 326.702C86.9111 324.979 94.2592 324.831 99.7407 322.93C105.222 321.058 108.185 320.019 108.185 320.019L106.111 315.118Z" fill="#00EFBF"/>
<path d="M19.088 314.494C19.088 314.494 21.2806 313.722 22.3769 315.92C23.4732 318.118 20.6584 319.989 20.6584 319.989C20.6584 319.989 17.2213 320.761 15.651 318.563C14.0806 316.365 15.1769 316.543 15.1769 316.543L19.088 314.494Z" fill="#00EFBF"/>
<path d="M18.4658 325.752C18.4658 325.752 21.8732 324.296 25.7843 322.276C29.6954 320.256 34.3177 321.771 33.0732 323.821C31.8288 325.841 32.8362 327.177 32.8362 327.177C32.8362 327.177 22.5251 326.227 18.4658 325.752Z" fill="#00EFBF"/>
<path d="M53.459 302.731C54.0812 302.583 60.3331 301.632 61.1034 304.306C61.8738 306.979 57.1923 314.019 57.9923 313.246C58.7627 312.474 69.2516 305.108 69.2516 305.108C69.2516 305.108 67.5331 301.424 64.5701 298.068C61.6368 294.741 60.1849 294.86 57.7257 294.058C57.7257 294.058 56.2145 294.266 57.0145 295.81C57.7849 297.385 60.2738 296.731 59.0294 298.632C57.7553 300.503 53.459 302.731 53.459 302.731Z" fill="#00EFBF"/>
<path d="M39.711 308.82C39.4444 309.088 37.8147 310.395 38.8518 312.563C39.8888 314.731 40.6888 315.058 40.4221 315.118C40.1555 315.177 38.1999 315.385 36.837 316.365C36.837 316.365 36.1258 315.504 35.7407 313.098C35.3555 310.662 35.6221 310.276 35.6221 310.276L39.711 308.82Z" fill="#00EFBF"/>
<path d="M69.3996 167.163C69.3996 167.163 63.6811 169.748 63.5922 174.619C63.5033 179.49 63.7107 194.639 63.5922 198.709C63.4737 202.778 62.5848 227.432 61.4589 238.957C60.3329 250.482 57.8441 269.938 57.8441 269.938L56.5996 280.899C56.5996 280.899 67.207 283.84 74.0811 284.642C80.9552 285.444 86.9403 284.523 86.9403 284.523L96.4218 249.354L122.14 280.572L149.34 264.057L122.94 233.967L120.777 185.699C120.777 185.699 116.6 182.431 113.785 180.708C110.97 179.015 107.474 176.401 107.474 176.401L95.6218 171.411L69.3996 167.163Z" fill="#B5D096"/>
<path d="M104.096 174.589C104.096 174.589 111.74 178.54 115.77 181.807C119.799 185.075 120.57 186.53 123.236 185.936C125.903 185.342 126.496 183.946 126.496 183.946C126.496 183.946 125.37 180.857 121.162 177.233C116.955 173.609 112.836 172.065 112.836 172.065L108.925 169.956L104.096 174.589Z" fill="white"/>
<path d="M82.3184 57.7053L82.4961 52.9824L93.4295 46.0317L95.5628 49.8932C95.5628 49.8932 94.111 53.0418 89.8739 54.9428C85.5776 56.8439 82.3184 57.7053 82.3184 57.7053Z" fill="white"/>
<path d="M70.555 173.045C70.4069 172.659 70.2884 179.966 74.8513 183.233C79.4143 186.501 84.6291 183.501 84.6291 183.501C84.6291 183.501 71.8587 176.164 70.555 173.045Z" fill="#A28ADD"/>
<path d="M56.3919 112.657C55.4141 112.479 54.2289 107.37 50.1993 105.825C46.1697 104.281 43.7993 105.825 40.54 105.558C37.2808 105.291 33.6363 105.023 33.6363 106.211C33.6363 107.4 35.5919 109.627 35.5919 109.627L37.8141 111.202C37.8141 111.202 33.3697 112.509 31.9475 114.469C30.5252 116.429 30.5252 119.311 30.5252 119.311L31.4437 121.271C31.4437 121.271 29.3697 123.766 30.2586 126.499C31.1771 129.232 34.0512 130.687 34.0512 130.687C34.0512 130.687 33.7845 135.143 37.5771 137.371C41.3697 139.598 45.1326 140.519 47.7697 139.331C50.4067 138.143 50.5845 136.747 50.8808 135.173C50.8808 135.173 55.2067 133.836 56.6586 130.836C58.1104 127.836 58.9993 124.687 58.6141 121.539C58.1697 118.36 56.3919 112.657 56.3919 112.657Z" fill="white"/>
<path d="M82.1408 54.6755C82.1408 54.6755 78.7927 55.9528 78.1408 60.2004C77.489 64.448 76.3038 80.0722 73.1334 91.0922C69.963 102.112 67.4445 108.647 67.4445 108.647L66.2593 111.172C66.2593 111.172 63.5927 110.518 61.2223 110.786C58.8519 111.053 56.4519 112.657 56.4519 112.657C56.4519 112.657 59.2371 120.38 58.5853 124.242C57.9334 128.103 57.6667 130.242 55.6519 132.232C53.6371 134.222 50.8815 135.143 50.8815 135.143L50.7334 137.4C50.7334 137.4 51.0297 141.024 52.6001 141.529C55.5038 142.48 56.7186 142.331 56.7186 142.331C56.7186 142.331 53.9334 155.223 56.4519 159.767C58.9704 164.282 62.6741 165.352 64.689 166.421C66.6741 167.49 68.0075 167.758 68.0075 167.758L69.4593 167.223C69.4593 167.223 69.3112 173.074 76.2149 178.51C83.1186 183.976 88.4223 184.748 92.2741 183.174C96.126 181.57 100.245 178.926 103.296 175.867C106.348 172.807 108.985 170.015 108.985 170.015C108.985 170.015 115.207 172.272 118.526 175.065C121.845 177.857 124.215 179.312 125.43 181.837C126.615 184.362 128.867 187.303 131.919 186.233C134.97 185.164 135.622 180.382 135.237 174.53C134.852 168.678 134.319 161.906 132.719 156.44C131.119 150.975 129.4 147.797 129.4 147.797C129.4 147.797 132.067 146.074 132.067 144.47C132.067 142.866 131.415 140.222 131.415 140.222L124.926 122.4L123.326 112.568C123.326 112.568 118.822 94.4785 113.37 80.1316C107.919 65.7847 104.6 58.4776 102.052 53.8141C99.5038 49.1506 99.1778 47.6357 97.0445 46.8337C95.0297 46.0614 94.3778 47.9922 94.3778 47.9922L95.5927 49.9526C95.5927 49.9526 93.726 52.7448 89.9038 55.0022C86.0519 57.2597 82.3482 57.6756 82.3482 57.6756L82.1408 54.6755Z" fill="#00EFBF"/>
<path d="M69.933 26.2788L70.0219 32.873L71.7997 32.9621C71.7997 32.9621 71.7108 34.2097 71.4441 34.6552C71.1774 35.1008 70.2886 35.8137 70.2886 35.8137C70.2886 35.8137 70.733 36.883 70.9108 37.2395C71.0886 37.5959 71.4441 38.2197 71.3552 38.9326C71.2663 39.6455 71.1774 42.5861 72.5997 43.0317C74.0219 43.4772 80.2441 42.8535 80.2441 42.8535C80.2441 42.8535 79.8886 46.4179 80.8663 48.2892C81.8441 50.1606 83.2663 52.2992 83.2663 52.2992L92.4219 46.4179C92.4219 46.4179 90.9108 44.3981 90.7923 41.0118C90.6737 37.5365 91.3552 34.7741 91.3552 34.7741C91.3552 34.7741 93.3997 36.7345 96.8663 34.1503C100.333 31.5661 100.689 29.2492 101.222 26.4867C101.755 23.7243 102.111 21.6747 100.511 17.9321C98.9108 14.1894 99.533 15.5261 97.3108 15.4369C95.0886 15.3478 70.2293 18.0806 70.0515 18.437C69.8441 18.7935 69.933 26.2788 69.933 26.2788Z" fill="white"/>
<path d="M102.555 8.3378C102.555 8.3378 103.918 10.2091 102.911 11.9319C101.874 13.6548 99.5033 15.6746 99.5033 15.6746L96.7773 14.6647V12.6151C96.7773 12.6151 99.1477 10.8923 100.185 9.52594C101.192 8.18928 102.555 8.3378 102.555 8.3378Z" fill="#00EFBF"/>
<path d="M67.6219 13.8033C67.6219 13.8033 70.8515 7.98133 77.1626 3.55548C83.4737 -0.870375 91.1478 1.14948 93.3404 2.36733C95.5626 3.55548 96.57 10.3873 96.57 10.3873L96.7478 14.6647C96.7478 14.6647 94.5256 15.1696 92.8367 16.536C91.1478 17.9024 90.4367 19.5955 90.4367 19.5955C90.4367 19.5955 82.2589 20.4569 78.5256 20.2787C74.7922 20.1004 69.9923 18.4073 69.9923 18.4073L65.7256 16.8627L67.6219 13.8033Z" fill="#B5D096"/>
<path d="M65.7553 16.8925L34.585 38.7544C34.585 38.7544 45.4887 43.8634 53.8442 39.4376C62.1998 35.0117 66.1109 30.3779 69.0146 27.3185C71.9183 24.259 73.6072 19.4767 73.6072 19.4767L65.7553 16.8925Z" fill="#00EFBF"/>
<path d="M66.2297 16.8925L34.6445 38.7544C34.6445 38.7544 46.3779 45.2298 58.1112 37.388C69.8445 29.5462 73.7556 19.5955 73.7556 19.5955L66.2297 16.8925Z" stroke="black" stroke-width="1.5" stroke-miterlimit="10" stroke-linecap="round" stroke-linejoin="round"/>
<path d="M89.5186 23.2192C89.5186 23.2192 90.1112 15.823 97.0445 15.0804C103.978 14.3378 103.059 35.7245 93.2815 34.9819C92.0667 34.8928 91.0297 34.5067 90.1408 33.9126" stroke="black" stroke-width="1.5" stroke-miterlimit="10" stroke-linecap="round" stroke-linejoin="round"/>
<path d="M70.1113 25.8332V32.8135H75.0298L74.7632 20.2786" stroke="black" stroke-width="1.5" stroke-miterlimit="10" stroke-linecap="round" stroke-linejoin="round"/>
<path d="M90.8219 19.2093C82.4071 21.3479 73.7256 19.6251 73.7256 19.6251C73.7256 19.6251 74.5256 8.93178 82.5552 5.15941C90.5552 1.38704 95.9478 4.44652 97.0441 15.1101" stroke="black" stroke-width="1.5" stroke-miterlimit="10" stroke-linecap="round" stroke-linejoin="round"/>
<path d="M96.4221 11.2784C96.3628 11.0705 96.4517 2.51582 90.585 1.35737C73.7258 -1.99915 66.2295 16.8924 66.2295 16.8924" stroke="black" stroke-width="1.5" stroke-miterlimit="10" stroke-linecap="round" stroke-linejoin="round"/>
<path d="M72.5703 7.65454L77.6666 8.39713" stroke="black" stroke-width="1.5" stroke-miterlimit="10" stroke-linecap="round" stroke-linejoin="round"/>
<path d="M97.0449 12.6447C97.0449 12.6447 99.5931 10.1496 100.541 8.93178C101.519 7.71393 104.215 8.2783 103.178 11.1893C102.141 14.1002 99.5931 15.4072 99.5931 15.4072" stroke="black" stroke-width="1.5" stroke-miterlimit="10" stroke-linecap="round" stroke-linejoin="round"/>
<path d="M71.8591 32.8136C71.8591 32.8136 72.1554 35.576 70.1406 35.784L72.5999 36.5563" stroke="black" stroke-width="1.5" stroke-miterlimit="10" stroke-linecap="round" stroke-linejoin="round"/>
<path d="M70.9995 36.081C70.9995 36.081 70.2588 37.4474 71.3551 37.8039V40.9822C71.3551 42.2 72.3032 43.2099 73.5477 43.2396C78.4366 43.4179 89.8736 42.7941 89.9329 33.2295" stroke="black" stroke-width="1.5" stroke-miterlimit="10" stroke-linecap="round" stroke-linejoin="round"/>
<path d="M73.7263 34.8037C73.7263 34.8037 72.067 36.2295 73.0448 38.9028" stroke="black" stroke-width="1.5" stroke-miterlimit="10" stroke-linecap="round" stroke-linejoin="round"/>
<path d="M91.5632 29.4273C91.5632 29.4273 91.1484 25.9817 94.378 23.843" stroke="black" stroke-width="1.5" stroke-miterlimit="10" stroke-linecap="round" stroke-linejoin="round"/>
<path d="M92.0967 26.5462C92.0967 26.5462 94.3485 25.2986 95.5634 26.962" stroke="black" stroke-width="1.5" stroke-miterlimit="10" stroke-linecap="round" stroke-linejoin="round"/>
<path d="M84.6891 12.6151C85.2454 12.6151 85.6965 12.1629 85.6965 11.6051C85.6965 11.0474 85.2454 10.5952 84.6891 10.5952C84.1327 10.5952 83.6816 11.0474 83.6816 11.6051C83.6816 12.1629 84.1327 12.6151 84.6891 12.6151Z" stroke="black" stroke-width="1.5" stroke-miterlimit="10" stroke-linecap="round" stroke-linejoin="round"/>
<path d="M89.2223 12.6151C89.7786 12.6151 90.2297 12.1629 90.2297 11.6051C90.2297 11.0474 89.7786 10.5952 89.2223 10.5952C88.6659 10.5952 88.2148 11.0474 88.2148 11.6051C88.2148 12.1629 88.6659 12.6151 89.2223 12.6151Z" stroke="black" stroke-width="1.5" stroke-miterlimit="10" stroke-linecap="round" stroke-linejoin="round"/>
<path d="M91.563 34.6255C91.563 34.6255 88.8963 38.9028 92.4815 46.7446" stroke="black" stroke-width="1.5" stroke-miterlimit="10" stroke-linecap="round" stroke-linejoin="round"/>
<path d="M80.3331 42.7941C80.3331 42.7941 79.2664 48.2596 83.1775 52.329" stroke="black" stroke-width="1.5" stroke-miterlimit="10" stroke-linecap="round" stroke-linejoin="round"/>
<path d="M82.2588 57.527V53.1012L93.2514 46.2396L95.5329 49.6853" stroke="black" stroke-width="1.5" stroke-miterlimit="10" stroke-linecap="round" stroke-linejoin="round"/>
<path d="M81.1631 57.6756C81.1631 57.6756 91.9779 57.141 96.3927 48.2299" stroke="black" stroke-width="1.5" stroke-miterlimit="10" stroke-linecap="round" stroke-linejoin="round"/>
<path d="M81.7856 54.4675C81.7856 54.4675 78.0226 56.428 77.9337 61.8341C77.8448 66.6461 74.467 88.7159 70.7337 99.4686C67.0004 110.221 56.8078 130.42 55.2967 151.896C55.2967 151.896 52.5707 164.431 68.4819 167.817" stroke="black" stroke-width="1.5" stroke-miterlimit="10" stroke-linecap="round" stroke-linejoin="round"/>
<path d="M94.3184 47.4873C94.3184 47.4873 97.6369 44.3387 101.104 51.7943C104.096 58.1806 117.548 87.8546 121.459 104.905C125.37 121.954 125.607 123.974 125.607 123.974" stroke="black" stroke-width="1.5" stroke-miterlimit="10" stroke-linecap="round" stroke-linejoin="round"/>
<path d="M95.5337 131.044C95.5337 131.044 88.0374 97.4489 85.9041 81.8841C83.7708 66.3194 84.5411 59.844 92.4523 57.5271C101.015 55.032 109.341 73.0324 114.615 90.9735C119.03 105.944 128.541 132.945 131.563 141.499C132.156 143.163 131.8 145.005 130.674 146.341C125.786 152.044 112.245 167.639 103.919 175.391C93.5782 184.986 86.9115 187.659 74.9411 177.53C62.9708 167.401 73.5486 154.034 78.5856 149.371C83.6226 144.707 95.9189 135.499 95.9189 135.499" stroke="black" stroke-width="1.5" stroke-miterlimit="10" stroke-linecap="round" stroke-linejoin="round"/>
<path d="M102.052 143.282C102.052 143.282 96.0079 135.202 94.1116 132.41C92.2153 129.618 102.319 134.43 106.2 137.846" stroke="black" stroke-width="1.5" stroke-miterlimit="10" stroke-linecap="round" stroke-linejoin="round"/>
<path d="M70.8812 172.599C71.059 172.956 69.459 179.401 75.059 183.203C79.7108 186.352 84.9256 183.441 84.9256 183.441" stroke="black" stroke-width="1.5" stroke-miterlimit="10" stroke-linecap="round" stroke-linejoin="round"/>
<path d="M69.4595 167.312C69.4595 167.312 63.4743 168.56 63.5928 177.025C63.7113 185.491 64.4521 215.521 60.9261 242.878C57.4002 270.235 56.8076 281.137 56.8076 281.137C56.8076 281.137 75.8891 286.424 86.7632 284.374L114.348 183.619" stroke="black" stroke-width="1.5" stroke-miterlimit="10" stroke-linecap="round" stroke-linejoin="round"/>
<path d="M111.533 171.381C111.533 171.381 120.333 175.094 124.067 180.292C127.77 185.491 130.911 189.055 133.963 184.689C136.985 180.292 134.911 157.539 129.548 147.737" stroke="black" stroke-width="1.5" stroke-miterlimit="10" stroke-linecap="round" stroke-linejoin="round"/>
<path d="M107.504 176.461C107.8 176.461 114.734 180.649 118.259 183.946C121.785 187.243 126.793 186.144 126.526 183.56" stroke="black" stroke-width="1.5" stroke-miterlimit="10" stroke-linecap="round" stroke-linejoin="round"/>
<path d="M120.66 186.025L122.882 233.848L149.371 264.087L122.23 280.572L96.3633 249.324" stroke="black" stroke-width="1.5" stroke-miterlimit="10" stroke-linecap="round" stroke-linejoin="round"/>
<path d="M84.9256 192.917C84.9256 192.917 79.4145 206.788 73.5479 207.947" stroke="black" stroke-width="1.5" stroke-miterlimit="10" stroke-linecap="round" stroke-linejoin="round"/>
<path d="M49.0147 121.895C43.6517 117.588 46.5258 112.865 46.5258 112.865C38.7036 112.538 34.1999 109.152 33.6962 106.924C33.4887 105.914 34.348 104.994 35.385 105.142C38.6443 105.617 44.8665 105.439 47.0887 105.172C48.6591 104.994 50.2591 105.439 51.5036 106.479C53.9036 108.499 57.311 112.776 58.4073 121.39C59.711 131.608 51.6221 134.876 51.6221 134.876" stroke="black" stroke-width="1.5" stroke-miterlimit="10" stroke-linecap="round" stroke-linejoin="round"/>
<path d="M39.0884 111.41C38.1403 111.41 31.1773 111.974 30.4366 118.063C29.7255 124.152 44.1551 126.291 44.6884 123.291C45.1921 120.41 45.8143 117.766 38.4366 114.855" stroke="black" stroke-width="1.5" stroke-miterlimit="10" stroke-linecap="round" stroke-linejoin="round"/>
<path d="M31.5923 121.241C31.5923 121.241 27.4737 124.954 32.0367 129.054C36.5997 133.153 42.5256 135.38 46.3774 132.262C50.2293 129.143 46.1997 125.341 43.77 124.242" stroke="black" stroke-width="1.5" stroke-miterlimit="10" stroke-linecap="round" stroke-linejoin="round"/>
<path d="M33.9333 130.598C33.9333 130.598 33.1629 137.163 41.637 139.183C50.111 141.202 50.7629 137.163 50.8518 135.648C50.9407 134.133 49.9333 132.38 47.3555 131.252" stroke="black" stroke-width="1.5" stroke-miterlimit="10" stroke-linecap="round" stroke-linejoin="round"/>
<path d="M35.605 93.149C35.9768 92.3453 33.8713 90.5746 30.9022 89.1939C27.9332 87.8133 25.2248 87.3456 24.853 88.1492C24.4811 88.9529 26.5866 90.7236 29.5557 92.1042C32.5248 93.4849 35.2331 93.9526 35.605 93.149Z" stroke="black" stroke-width="1.5" stroke-miterlimit="10.0004" stroke-linecap="round" stroke-linejoin="round"/>
<path d="M24.8375 88.1516L23.8301 90.32C23.4449 91.122 25.5783 92.9042 28.5412 94.2706C31.5042 95.6369 34.2005 96.1122 34.5857 95.3102L35.5931 93.1418" stroke="black" stroke-width="1.5" stroke-miterlimit="10" stroke-linecap="round" stroke-linejoin="round"/>
<path d="M28.7778 109.509C28.5111 109.568 23.8889 112.776 25.2519 113.726C26.6148 114.677 28.7778 109.509 28.7778 109.509Z" fill="white" stroke="black" stroke-width="1.5" stroke-miterlimit="10" stroke-linecap="round" stroke-linejoin="round"/>
<path d="M56.1855 112.717C56.1855 112.717 60.5707 108.707 65.9633 111.469" stroke="black" stroke-width="1.5" stroke-miterlimit="10" stroke-linecap="round" stroke-linejoin="round"/>
<path d="M50.7335 137.074C50.7335 137.074 50.6446 142.391 56.2742 142.569" stroke="black" stroke-width="1.5" stroke-miterlimit="10" stroke-linecap="round" stroke-linejoin="round"/>
<path d="M68.9554 284.077L67.7998 292.81C67.7998 292.81 72.0961 295.899 75.6517 294.087L77.5776 284.82" stroke="black" stroke-width="1.5" stroke-miterlimit="10" stroke-linecap="round" stroke-linejoin="round"/>
<path d="M76.3926 290.969C76.3926 290.969 81.2519 290.493 81.7556 293.256C81.7556 293.256 93.2519 301.305 97.1037 305.791C97.1037 305.791 105.163 312.028 106.348 315.266C106.437 315.563 109.4 324.029 109.4 324.029C109.4 324.029 111.03 324.445 110.941 326.969C110.852 329.524 109.726 331.158 108.511 332.257L64.6 334.306C64.6 334.306 57.4889 331.039 52.5111 331.455C47.5333 331.871 47.0296 334.009 41.2222 334.722C35.4148 335.435 14.3778 333.296 14.3778 333.296C14.3778 333.296 9.60742 330.029 8.57039 324.029C8.57039 324.029 6.94075 320.464 15.2667 316.187C23.5926 311.91 32.3333 308.553 32.3333 308.553L57.1334 296.434C57.1334 296.434 55.9185 294.087 59.3556 292.959C62.8222 291.83 66.6741 296.731 71.3556 297.86C76.0371 298.989 79.8 296.523 81.6074 293.464" stroke="black" stroke-width="1.5" stroke-miterlimit="10" stroke-linecap="round" stroke-linejoin="round"/>
<path d="M58.8815 293.107C58.8815 293.107 56.9852 289.246 56.6 285.859C56.2148 282.473 59.8 282.651 61.4297 283.958C63.0593 285.265 64.5111 287.107 65.4 294.83" stroke="black" stroke-width="1.5" stroke-miterlimit="10" stroke-linecap="round" stroke-linejoin="round"/>
<path d="M66.3184 291.473C66.3184 291.473 68.5998 294.087 72.0072 294.473C75.4147 294.86 78.1406 292.899 78.1406 292.899" stroke="black" stroke-width="1.5" stroke-miterlimit="10" stroke-linecap="round" stroke-linejoin="round"/>
<path d="M68.2151 290.256C68.2151 290.256 67.0299 289.543 64.6299 289.988" stroke="black" stroke-width="1.5" stroke-miterlimit="10" stroke-linecap="round" stroke-linejoin="round"/>
<path d="M86.3485 296.196C86.3485 296.196 84.4819 289.988 88.63 290.048C93.1041 290.107 92.3337 301.038 92.3337 301.038" stroke="black" stroke-width="1.5" stroke-miterlimit="10" stroke-linecap="round" stroke-linejoin="round"/>
<path d="M83.9187 294.503C83.9187 294.503 82.4373 287.107 89.4891 287.76C95.741 288.325 94.1706 300.058 94.2891 302.939" stroke="black" stroke-width="1.5" stroke-miterlimit="10" stroke-linecap="round" stroke-linejoin="round"/>
<path d="M37.9619 309.464C40.6018 308.486 42.3783 306.707 41.93 305.492C41.4817 304.276 38.9782 304.084 36.3384 305.063C33.6986 306.041 31.922 307.82 32.3704 309.035C32.8187 310.251 35.3221 310.443 37.9619 309.464Z" fill="white" stroke="black" stroke-width="1.5" stroke-miterlimit="9.9996" stroke-linecap="round" stroke-linejoin="round"/>
<path d="M35.4741 308.464C35.785 308.464 36.0371 308.211 36.0371 307.9C36.0371 307.588 35.785 307.335 35.4741 307.335C35.1632 307.335 34.9111 307.588 34.9111 307.9C34.9111 308.211 35.1632 308.464 35.4741 308.464Z" fill="white" stroke="black" stroke-width="1.5" stroke-miterlimit="10" stroke-linecap="round" stroke-linejoin="round"/>
<path d="M38.23 307.424C38.5409 307.424 38.7929 307.172 38.7929 306.86C38.7929 306.548 38.5409 306.296 38.23 306.296C37.919 306.296 37.667 306.548 37.667 306.86C37.667 307.172 37.919 307.424 38.23 307.424Z" fill="white" stroke="black" stroke-width="1.5" stroke-miterlimit="10" stroke-linecap="round" stroke-linejoin="round"/>
<path d="M53.7433 302.364C57.0741 301.13 59.3695 299.032 58.8703 297.678C58.371 296.324 55.2661 296.227 51.9353 297.461C48.6045 298.695 46.309 300.793 46.8083 302.147C47.3075 303.501 50.4124 303.599 53.7433 302.364Z" fill="white" stroke="black" stroke-width="1.5" stroke-miterlimit="10.0002" stroke-linecap="round" stroke-linejoin="round"/>
<path d="M49.8735 301.603C50.1844 301.603 50.4365 301.35 50.4365 301.038C50.4365 300.726 50.1844 300.474 49.8735 300.474C49.5626 300.474 49.3105 300.726 49.3105 301.038C49.3105 301.35 49.5626 301.603 49.8735 301.603Z" fill="white" stroke="black" stroke-width="1.5" stroke-miterlimit="10" stroke-linecap="round" stroke-linejoin="round"/>
<path d="M52.6001 300.533C52.911 300.533 53.163 300.28 53.163 299.969C53.163 299.657 52.911 299.404 52.6001 299.404C52.2892 299.404 52.0371 299.657 52.0371 299.969C52.0371 300.28 52.2892 300.533 52.6001 300.533Z" fill="white" stroke="black" stroke-width="1.5" stroke-miterlimit="10" stroke-linecap="round" stroke-linejoin="round"/>
<path d="M55.355 299.345C55.6659 299.345 55.9179 299.092 55.9179 298.781C55.9179 298.469 55.6659 298.216 55.355 298.216C55.044 298.216 54.792 298.469 54.792 298.781C54.792 299.092 55.044 299.345 55.355 299.345Z" fill="white" stroke="black" stroke-width="1.5" stroke-miterlimit="10" stroke-linecap="round" stroke-linejoin="round"/>
<path d="M41.252 302.612C41.252 302.612 44.8371 301.84 46.289 305.672L41.252 302.612Z" fill="white"/>
<path d="M41.252 302.612C41.252 302.612 44.8371 301.84 46.289 305.672" stroke="black" stroke-width="1.5" stroke-miterlimit="10" stroke-linecap="round" stroke-linejoin="round"/>
<path d="M46.2894 306.86C45.8153 306.86 45.3708 306.563 45.1634 306.088C44.0968 303.236 41.6079 303.741 41.4894 303.771C40.8375 303.919 40.2153 303.503 40.0671 302.85C39.919 302.196 40.3338 301.573 40.9857 301.424C42.5857 301.068 45.9634 301.424 47.356 305.256C47.5931 305.88 47.2671 306.563 46.6449 306.801C46.556 306.83 46.4079 306.86 46.2894 306.86Z" fill="white" stroke="black" stroke-width="1.5" stroke-miterlimit="10" stroke-linecap="round" stroke-linejoin="round"/>
<path d="M9.13379 325.247C9.13379 325.247 36.4523 328.098 46.6449 328.009L9.13379 325.247Z" fill="white"/>
<path d="M9.13379 325.247C9.13379 325.247 36.4523 328.098 46.6449 328.009" stroke="black" stroke-width="1.5" stroke-miterlimit="10" stroke-linecap="round" stroke-linejoin="round"/>
<path d="M25.0146 334.009C25.0146 334.009 27.6813 330.296 33.5776 329.91C39.4739 329.524 45.7554 333.237 45.7554 333.237" stroke="black" stroke-width="1.5" stroke-miterlimit="10" stroke-linecap="round" stroke-linejoin="round"/>
<path d="M48.1849 332.554L46.7034 331.781C46.0515 331.455 45.7849 330.623 46.1108 329.969L47.3256 327.504C47.3256 327.504 55.0293 325.87 59.4737 326.583C63.9182 327.296 66.4663 331.544 59.1478 332.346" stroke="black" stroke-width="1.5" stroke-miterlimit="10" stroke-linecap="round" stroke-linejoin="round"/>
<path d="M62.2588 327.534C62.2588 327.534 78.5551 326.553 89.3403 325.039C100.125 323.524 107.948 320.019 107.948 320.019" stroke="black" stroke-width="1.5" stroke-miterlimit="10" stroke-linecap="round" stroke-linejoin="round"/>
<path d="M62.7334 333.029C62.7334 332.821 64.0371 330.742 66.2001 330.861C68.363 330.979 70.5852 331.068 73.5186 329.346C76.4519 327.623 78.0223 327.771 79.2075 328.573C80.3927 329.346 78.1112 332.643 80.5704 332.049C83.0593 331.455 86.763 329.88 92.1852 327.801C97.6075 325.692 97.7853 325.841 99.4149 326.494C101.045 327.148 100.274 330.682 100.274 330.682C100.274 330.682 107.237 326.969 109.459 324.058" stroke="black" stroke-width="1.5" stroke-miterlimit="10" stroke-linecap="round" stroke-linejoin="round"/>
<path d="M106.378 315.266C106.378 315.266 106.585 319.157 96.9854 319.93C87.3854 320.702 81.252 317.434 77.3409 316.781C73.4298 316.128 73.815 318.296 75.4446 320.108C77.0743 321.949 76.3039 323.167 73.2224 322.395C70.1409 321.623 64.9261 320.494 57.3113 322.336C49.6965 324.177 38.2002 327.712 38.2002 327.712" stroke="black" stroke-width="1.5" stroke-miterlimit="10" stroke-linecap="round" stroke-linejoin="round"/>
<path d="M14.9111 316.722C14.9111 316.722 15.7704 320.256 19.8593 319.722C23.9778 319.187 24.363 316.573 27.8889 315.92C31.4148 315.266 29.3111 319.128 32.3333 319.128C35.3556 319.128 36.0371 315.801 41.3408 315.058C46.6148 314.345 47.4741 315.771 46.1704 318.118C44.8667 320.464 45.3111 324.148 45.7259 325.187C45.7259 325.187 48.8074 320.167 57.8741 313.276C66.9408 306.414 67.6519 306.028 72.3037 303.919C76.9556 301.81 86.4667 311.316 89.9926 314.91" stroke="black" stroke-width="1.5" stroke-miterlimit="10" stroke-linecap="round" stroke-linejoin="round"/>
<path d="M16.5996 325.811C16.8663 325.751 20.2441 325.157 23.9774 323.078C27.7107 320.999 31.4737 320.85 32.9848 322.484C34.4959 324.118 30.3181 325.9 32.9255 327.266" stroke="black" stroke-width="1.5" stroke-miterlimit="10" stroke-linecap="round" stroke-linejoin="round"/>
<path d="M18.4668 314.672C18.4668 314.672 21.6075 314.256 22.4668 315.83C23.3261 317.405 20.8964 319.603 20.8964 319.603" stroke="black" stroke-width="1.5" stroke-miterlimit="10" stroke-linecap="round" stroke-linejoin="round"/>
<path d="M68.541 321.355L74.5262 319.484" stroke="black" stroke-width="1.5" stroke-miterlimit="10" stroke-linecap="round" stroke-linejoin="round"/>
<path d="M80.4814 317.553L94.6444 314.197C95.4444 313.989 96.0963 313.425 96.4222 312.652C97.0148 311.256 97.6963 308.791 97.1037 305.761" stroke="black" stroke-width="1.5" stroke-miterlimit="10" stroke-linecap="round" stroke-linejoin="round"/>
<path d="M84.3923 295.276C84.4516 295.483 88.6886 300.385 88.3627 304.632C88.0368 308.88 82.7627 308.375 82.7627 308.375" stroke="black" stroke-width="1.5" stroke-miterlimit="10" stroke-linecap="round" stroke-linejoin="round"/>
<path d="M52.8369 302.701C53.1036 302.701 59.0591 301.751 60.8962 304.038C62.7332 306.325 57.8147 313.335 57.8147 313.335" stroke="black" stroke-width="1.5" stroke-miterlimit="10" stroke-linecap="round" stroke-linejoin="round"/>
<path d="M57.7559 294.028C57.9633 294.028 61.9929 294.622 65.1929 298.988C68.3929 303.355 69.3114 305.345 69.3114 305.345" stroke="black" stroke-width="1.5" stroke-miterlimit="10" stroke-linecap="round" stroke-linejoin="round"/>
<path d="M39.7107 308.761C39.7107 308.761 38.3478 310.929 38.7922 312.682C39.2367 314.434 40.6293 315.177 40.6293 315.177" stroke="black" stroke-width="1.5" stroke-miterlimit="10" stroke-linecap="round" stroke-linejoin="round"/>
<path d="M35.5923 310.127C35.5923 310.454 34.733 312.147 36.7775 316.484" stroke="black" stroke-width="1.5" stroke-miterlimit="10" stroke-linecap="round" stroke-linejoin="round"/>
<path d="M133.845 273.592L140.304 281.255C140.304 281.255 142.526 281.463 144.66 279.651C146.793 277.84 146.556 276.028 146.556 276.028L141.371 268.899" stroke="black" stroke-width="1.5" stroke-miterlimit="10" stroke-linecap="round" stroke-linejoin="round"/>
<path d="M140.037 283.127C140.037 283.127 144.6 283.335 147.267 280.572C149.933 277.81 150.733 275.196 148.985 274.364C147.119 273.443 146.556 276.028 146.556 276.028" stroke="black" stroke-width="1.5" stroke-miterlimit="10" stroke-linecap="round" stroke-linejoin="round"/>
<path d="M150.082 275.523C150.082 275.523 168.363 275.79 175.919 277.75C175.919 277.75 178.793 278.136 179.978 278.998C179.978 278.998 182.082 278.731 183.889 279.473C184.867 279.859 185.519 280.81 185.578 281.879C185.726 284.939 185.4 292.543 179.652 298.365C172.274 305.82 161.045 313.157 161.045 313.157C161.045 313.157 154.852 313.425 151.919 316.157C148.985 318.89 149.311 321.92 147.859 323.94C146.407 325.959 142.763 327.088 142.763 327.088C142.763 327.088 128.659 328.455 122.793 328.395C116.926 328.336 114.111 327.801 114.111 327.801C114.111 327.801 109.933 324.593 113.993 320.286C118.052 315.979 120.985 313.365 127.682 309.89C134.378 306.414 135.059 305.909 135.059 305.909C135.059 305.909 136.956 303.622 136.956 301.127C136.956 298.632 137.607 289.543 137.874 288.236C138.141 286.929 138.467 287.137 139.119 284.255C139.77 281.374 139.385 279.859 136.126 278.107C132.867 276.354 129.667 278.701 130.437 280.721C131.207 282.741 137.756 288.058 137.756 288.058" stroke="black" stroke-width="1.5" stroke-miterlimit="10" stroke-linecap="round" stroke-linejoin="round"/>
<path d="M161.044 313.128C161.044 313.128 160.274 310.692 162.289 308.613C164.303 306.504 166.2 305.078 167.118 303.058C168.037 301.038 168.748 302.791 169.459 303.385C170.17 303.979 171.681 303.117 173.044 298.989C174.407 294.86 176.096 291.978 178.2 289.038C180.274 286.097 181.014 287.79 181.251 288.592C181.489 289.394 181.844 291.087 181.844 291.087C181.844 291.087 183.533 287.166 183.266 284.077C183 281.018 181.37 279.057 181.37 279.057" stroke="black" stroke-width="1.5" stroke-miterlimit="10" stroke-linecap="round" stroke-linejoin="round"/>
<path d="M133.755 327.771C133.755 327.771 131.859 326.524 135.977 325.157C140.096 323.791 145.163 324.296 147.859 323.91" stroke="black" stroke-width="1.5" stroke-miterlimit="10" stroke-linecap="round" stroke-linejoin="round"/>
<path d="M112.244 323.524C112.244 323.524 130.526 325.276 136.185 323.85C141.844 322.425 145.281 318.474 145.281 318.474" stroke="black" stroke-width="1.5" stroke-miterlimit="10" stroke-linecap="round" stroke-linejoin="round"/>
<path d="M148.985 320.197L145.726 320.405C145.726 320.405 144.541 318.296 146.17 315.83C147.8 313.365 149.815 312.622 152.748 311.137C155.681 309.652 157.904 311.672 157.044 313.751" stroke="black" stroke-width="1.5" stroke-miterlimit="10" stroke-linecap="round" stroke-linejoin="round"/>
<path d="M155.622 310.573C155.622 310.573 161.696 306.444 164.422 302.909C167.148 299.375 172.718 294.266 175.504 289.513C178.318 284.731 179.681 281.018 179.948 278.998" stroke="black" stroke-width="1.5" stroke-miterlimit="10" stroke-linecap="round" stroke-linejoin="round"/>
<path d="M117.281 317.108C117.281 317.108 117.074 319.93 120.689 318.742C124.274 317.553 128.126 314.613 129.963 315.355C131.8 316.068 131.059 319.336 133.43 317.91C135.77 316.484 135.711 314.167 139.119 310.127C142.526 306.058 142.822 304.959 145.519 305.286C148.215 305.612 149.222 308.939 147.03 311.494C144.807 314.048 134.319 323.999 134.319 323.999" stroke="black" stroke-width="1.5" stroke-miterlimit="10" stroke-linecap="round" stroke-linejoin="round"/>
<path d="M118.17 323.969C118.17 323.969 125.163 320.138 129.992 319.811C134.822 319.484 132.214 324.207 132.214 324.207" stroke="black" stroke-width="1.5" stroke-miterlimit="10" stroke-linecap="round" stroke-linejoin="round"/>
<path d="M121.726 313.395C121.933 313.335 124.689 312.415 125.992 313.781C127.296 315.147 126.318 316.127 126.318 316.127" stroke="black" stroke-width="1.5" stroke-miterlimit="10" stroke-linecap="round" stroke-linejoin="round"/>
<path d="M145.43 313.157C145.43 313.157 148.985 309.325 154.2 307.038C159.415 304.751 163.474 302.404 163.919 300.117C164.363 297.83 158.585 299.672 157.578 298.484C156.6 297.295 158.17 295.751 163.267 293.642C168.363 291.533 172.867 288.265 174.763 285.147C176.659 281.998 176.778 279.443 176.837 278.018" stroke="black" stroke-width="1.5" stroke-miterlimit="10" stroke-linecap="round" stroke-linejoin="round"/>
<path d="M148.511 309.89C148.511 309.89 149.814 301.543 152.037 295.335C154.259 289.127 153.607 286.572 157.518 284.998C161.429 283.424 168.244 284.642 168.244 284.642" stroke="black" stroke-width="1.5" stroke-miterlimit="10" stroke-linecap="round" stroke-linejoin="round"/>
<path d="M154.526 306.593C154.526 306.593 158.912 301.038 160.275 299.018" stroke="black" stroke-width="1.5" stroke-miterlimit="10" stroke-linecap="round" stroke-linejoin="round"/>
<path d="M163.711 293.375C163.711 293.375 167.918 286.543 169.992 281.79C170.704 280.127 170.141 278.196 168.659 277.186C168.274 276.919 167.8 276.651 167.237 276.414" stroke="black" stroke-width="1.5" stroke-miterlimit="10" stroke-linecap="round" stroke-linejoin="round"/>
<path d="M141.726 293.582C141.726 293.582 144.807 290.434 147.8 290.582C150.792 290.701 151.266 297.771 151.266 297.771" stroke="black" stroke-width="1.5" stroke-miterlimit="10" stroke-linecap="round" stroke-linejoin="round"/>
<path d="M139.444 283.84C139.444 283.84 150.052 284.048 154.555 287.137" stroke="black" stroke-width="1.5" stroke-miterlimit="10" stroke-linecap="round" stroke-linejoin="round"/>
<path d="M160.007 284.315C160.007 284.315 162.97 283.929 162.852 280.75C162.733 277.097 154.674 275.641 154.674 275.641" stroke="black" stroke-width="1.5" stroke-miterlimit="10" stroke-linecap="round" stroke-linejoin="round"/>
<path d="M152.038 275.523C152.038 275.523 148.808 273.473 150.675 270.414C152.482 267.414 155.712 268.81 158.023 271.721C159.208 273.235 160.926 275.79 160.926 275.79" stroke="black" stroke-width="1.5" stroke-miterlimit="10" stroke-linecap="round" stroke-linejoin="round"/>
<path d="M154.704 275.612C154.704 275.612 150.467 273.324 152.482 271.364C154.497 269.433 158.408 274.513 159 275.671" stroke="black" stroke-width="1.5" stroke-miterlimit="10" stroke-linecap="round" stroke-linejoin="round"/>
<path d="M138.18 307.185C139.621 305.275 140.07 303.181 139.182 302.508C138.295 301.835 136.407 302.838 134.966 304.749C133.525 306.659 133.076 308.753 133.963 309.426C134.851 310.099 136.739 309.096 138.18 307.185Z" fill="white" stroke="black" stroke-width="1.5" stroke-miterlimit="10.0001" stroke-linecap="round" stroke-linejoin="round"/>
<path d="M135.652 307.662C135.914 307.662 136.126 307.449 136.126 307.187C136.126 306.924 135.914 306.712 135.652 306.712C135.39 306.712 135.178 306.924 135.178 307.187C135.178 307.449 135.39 307.662 135.652 307.662Z" fill="white" stroke="black" stroke-width="1.5" stroke-miterlimit="10" stroke-linecap="round" stroke-linejoin="round"/>
<path d="M137.133 305.642C137.395 305.642 137.607 305.429 137.607 305.167C137.607 304.904 137.395 304.692 137.133 304.692C136.871 304.692 136.659 304.904 136.659 305.167C136.659 305.429 136.871 305.642 137.133 305.642Z" fill="white" stroke="black" stroke-width="1.5" stroke-miterlimit="10" stroke-linecap="round" stroke-linejoin="round"/>
<path d="M136.719 300.652C136.719 300.652 138.704 297.563 142.437 299.256L136.719 300.652Z" fill="white"/>
<path d="M136.719 300.652C136.719 300.652 138.704 297.563 142.437 299.256" stroke="black" stroke-width="1.5" stroke-miterlimit="10" stroke-linecap="round" stroke-linejoin="round"/>
<path d="M143.266 300.088C142.941 300.444 142.407 300.533 141.933 300.325C139.148 299.078 137.755 301.187 137.696 301.276C137.341 301.84 136.6 301.989 136.066 301.632C135.503 301.276 135.355 300.533 135.711 299.998C136.6 298.632 139.207 296.464 142.911 298.157C143.503 298.424 143.77 299.137 143.503 299.731C143.444 299.85 143.355 299.969 143.266 300.088Z" fill="white" stroke="black" stroke-width="1.5" stroke-miterlimit="10" stroke-linecap="round" stroke-linejoin="round"/>
<path d="M141.969 291.508C142.302 288.244 141.503 285.488 140.185 285.353C138.866 285.218 137.527 287.754 137.194 291.018C136.861 294.282 137.66 297.037 138.978 297.173C140.297 297.308 141.636 294.772 141.969 291.508Z" fill="white" stroke="black" stroke-width="1.5" stroke-miterlimit="10" stroke-linecap="round" stroke-linejoin="round"/>
<path d="M139.297 294.681C139.575 294.681 139.8 294.455 139.8 294.176C139.8 293.898 139.575 293.672 139.297 293.672C139.018 293.672 138.793 293.898 138.793 294.176C138.793 294.455 139.018 294.681 139.297 294.681Z" fill="white" stroke="black" stroke-width="1.5" stroke-miterlimit="9.9995" stroke-linecap="round" stroke-linejoin="round"/>
<path d="M139.534 291.978C139.812 291.978 140.038 291.752 140.038 291.473C140.038 291.194 139.812 290.968 139.534 290.968C139.256 290.968 139.03 291.194 139.03 291.473C139.03 291.752 139.256 291.978 139.534 291.978Z" fill="white" stroke="black" stroke-width="1.5" stroke-miterlimit="9.9995" stroke-linecap="round" stroke-linejoin="round"/>
<path d="M139.652 289.216C139.93 289.216 140.156 288.99 140.156 288.711C140.156 288.432 139.93 288.206 139.652 288.206C139.374 288.206 139.148 288.432 139.148 288.711C139.148 288.99 139.374 289.216 139.652 289.216Z" fill="white" stroke="black" stroke-width="1.5" stroke-miterlimit="9.9995" stroke-linecap="round" stroke-linejoin="round"/>
<path d="M137.578 308.137L139.119 309.504" stroke="black" stroke-width="1.5" stroke-miterlimit="10" stroke-linecap="round" stroke-linejoin="round"/>
<path d="M139.355 305.642C139.355 305.642 140.541 307.127 141.4 307.127L139.355 305.642Z" fill="white"/>
<path d="M139.355 305.642C139.355 305.642 140.541 307.127 141.4 307.127" stroke="black" stroke-width="1.5" stroke-miterlimit="10" stroke-linecap="round" stroke-linejoin="round"/>
<path d="M70.4658 26.2194C70.4658 26.2194 72.1547 22.8926 74.4658 25.1204L74.7621 19.9519L73.6658 19.6549L70.4658 26.2194Z" fill="black"/>
<path d="M75.1182 22.8035C75.1182 22.8035 83.9479 24.5263 89.4294 21.9718L90.5849 19.4172C90.5849 19.4172 86.259 20.3083 81.4294 20.4272C76.5997 20.546 74.7627 19.9519 74.7627 19.9519L75.1182 22.8035Z" fill="black"/>
<path d="M69.874 33.1404C69.874 33.1404 70.4666 33.8236 71.4444 33.9127C72.4222 34.0018 74.7629 33.675 75.2666 33.1701L69.874 33.1404Z" fill="black"/>
<path d="M80.4512 43.7445C80.4512 43.7445 88.629 44.1307 90.6735 39.3781C90.6735 39.3781 91.7105 34.6552 91.5624 34.6552C91.4142 34.6552 90.229 34.269 90.229 34.269C90.229 34.269 89.8142 37.7147 86.8512 40.2395C83.3253 43.2693 80.1846 42.9722 80.1846 42.9722L80.4512 43.7445Z" fill="black"/>
<path d="M85.0146 73.0621C85.0146 73.0621 85.0147 121.034 94.4072 131.638L96.1258 131.846L94.8221 125.311C94.8221 125.311 85.548 79.1217 85.6369 78.9435C85.7258 78.7653 85.0146 73.0621 85.0146 73.0621Z" fill="black"/>
<path d="M65.6363 111.142C65.6363 111.142 57.0141 133.212 55.0585 135.381C53.103 137.549 52.7178 141.381 52.7178 141.381L56.4215 142.569C56.4215 142.569 59.3548 128.935 61.3104 124.034C63.2659 119.073 65.6363 111.142 65.6363 111.142Z" fill="black"/>
<path d="M38.5254 111.499C38.555 111.647 40.6884 115.628 45.7254 115.538L46.1106 113.014L38.5254 111.499Z" fill="black"/>
<path d="M45.3995 116.162C45.3995 116.162 43.5625 120.321 48.3328 124.598C48.8365 125.044 49.6662 124.717 49.6662 124.034C49.6662 123.38 49.3699 122.459 48.3032 121.271C45.8736 118.539 45.3995 116.162 45.3995 116.162Z" fill="black"/>
<path d="M31.6221 121.568C31.6221 121.568 38.4665 129.826 46.0517 126.143L44.0665 124.36C44.0665 124.36 41.6369 124.925 38.0517 124.301C34.4665 123.677 31.6221 121.568 31.6221 121.568Z" fill="black"/>
<path d="M34.3184 131.014C34.3184 131.014 41.1035 138.202 49.8443 133.331C49.8443 133.331 49.1035 132.083 47.5924 131.43C47.5924 131.43 44.8369 133.658 42.1998 133.836C39.5628 133.984 34.3184 131.014 34.3184 131.014Z" fill="black"/>
<path d="M45.222 119.697C45.3701 119.786 47.3553 123.024 45.4886 125.103L44.0664 124.36C44.0664 124.36 45.3108 122.578 45.1627 121.479C45.0442 120.351 45.222 119.697 45.222 119.697Z" fill="black"/>
<path d="M48.0959 129.826C48.1848 129.974 49.0144 131.192 48.4811 131.875C47.9478 132.529 47.2959 131.519 47.2959 131.519L48.0959 129.826Z" fill="black"/>
<path d="M50.9698 135.796L50.6143 134.786L50.8809 134.668L52.2439 134.044L52.718 134.757C52.718 134.757 52.3328 137.282 51.0883 138.381L50.6439 136.747L50.9698 135.796Z" fill="black"/>
<path d="M129.815 148.42C129.459 148.599 105.192 181.718 97.9035 187.54C90.6146 193.362 83.9775 183.203 83.9775 183.203C83.9775 183.203 90.259 186.916 98.1701 180.322C106.111 173.758 127.059 150.529 127.059 150.529L129.637 147.381L129.815 148.42Z" fill="black"/>
<path d="M71.0586 172.837C71.0586 172.837 74.466 184.035 83.9771 183.204C83.9771 183.204 78.703 180.708 75.9475 178.392C73.1919 176.075 71.0586 172.837 71.0586 172.837Z" fill="black"/>
<path d="M110.525 171.708C110.525 171.708 121.696 177.916 125.459 185.312C125.459 185.312 126.851 184.748 126.466 183.649C126.111 182.55 123.799 178.837 120.096 176.164C116.392 173.49 111.059 171.084 111.059 171.084L110.525 171.708Z" fill="black"/>
<path d="M106.199 176.52C106.199 176.52 114.051 183.56 117.37 190.303C120.688 197.045 121.073 195.115 121.073 195.115L120.718 185.491C120.718 185.491 118.584 184.184 115.562 181.778C112.51 179.372 107.533 176.312 107.533 176.312L106.199 176.52Z" fill="black"/>
<path d="M83.4739 195.679C83.4739 195.679 84.0072 205.481 78.6442 212.016C73.2813 218.551 73.9331 207.947 73.9331 207.947C73.9331 207.947 76.2739 208.214 79.1479 203.877C82.022 199.6 83.4739 195.679 83.4739 195.679Z" fill="black"/>
<path d="M121.429 204.947L98.9996 252.562L96.5107 249.294L114.526 183.887L120.777 193.451L121.429 204.947Z" fill="black"/>
<path d="M95.207 134.549C95.207 134.549 98.0515 142.391 99.4441 143.638C100.57 144.618 102.17 144.262 100.985 141.886C99.7996 139.509 95.207 134.549 95.207 134.549Z" fill="black"/>
<path d="M68.5996 287.464C68.5996 287.464 71.7996 288.919 76.6589 288.919L77.4885 284.968L68.8663 283.691L68.5996 287.464Z" fill="black"/>
<path d="M136.689 276.443C136.689 276.443 140.718 275.79 143.918 272.493L141.459 268.988L134.052 273.503L136.689 276.443Z" fill="black"/>
<path d="M77.963 36.3187C78.9285 36.3187 79.7111 35.308 79.7111 34.0612C79.7111 32.8144 78.9285 31.8037 77.963 31.8037C76.9975 31.8037 76.2148 32.8144 76.2148 34.0612C76.2148 35.308 76.9975 36.3187 77.963 36.3187Z" fill="white"/>
</svg>
