<svg width="58" height="10" viewBox="0 0 58 10" fill="none" xmlns="http://www.w3.org/2000/svg">
<path d="M57.9979 7.21806C57.9917 7.26474 57.9814 7.31142 57.9793 7.3581C57.9648 7.67709 57.8924 7.98246 57.7559 8.27227C57.5014 8.81299 57.0546 9.15143 56.4609 9.32454C56.0844 9.43541 55.6975 9.47042 55.3065 9.47042C54.8101 9.47042 54.3136 9.47042 53.8171 9.47042C52.9648 9.47042 52.1145 9.47431 51.2622 9.47431C51.1691 9.47431 51.074 9.47625 50.983 9.46847C50.7513 9.44513 50.6106 9.31092 50.5837 9.09114C50.5775 9.04251 50.5754 8.99388 50.5754 8.94526C50.5754 8.50957 50.5754 8.07388 50.5754 7.63624C50.5754 7.57011 50.5837 7.50203 50.5982 7.43785C50.6354 7.28224 50.7451 7.19083 50.9064 7.15971C50.9788 7.14609 51.0533 7.14026 51.1278 7.14026C52.2531 7.14026 53.3785 7.14026 54.5039 7.14026C54.5639 7.14026 54.6259 7.13248 54.6859 7.12081C54.8328 7.08968 54.9197 7.00021 54.9528 6.86406C54.9569 6.84655 54.959 6.82905 54.9611 6.8096C54.9859 6.52368 54.8742 6.38169 54.5722 6.33501C54.3156 6.29611 54.055 6.26693 53.7964 6.23386C53.4137 6.18329 53.031 6.12689 52.6483 6.07826C52.3917 6.0452 52.1394 6.0024 51.8932 5.9246C51.5643 5.81957 51.2705 5.66202 51.045 5.40722C50.8444 5.1816 50.7306 4.91707 50.6623 4.63309C50.594 4.35495 50.5734 4.06903 50.5713 3.78505C50.5671 3.39799 50.5734 3.00898 50.5878 2.62192C50.5961 2.37101 50.6478 2.12399 50.7326 1.8828C50.9457 1.26817 51.3864 0.87527 52.0442 0.692436C52.3214 0.614634 52.6048 0.583513 52.8924 0.566008C53.5875 0.525162 54.2846 0.517382 54.9818 0.521272C55.6686 0.525162 56.3554 0.530997 57.0422 0.534887C57.0546 0.534887 57.067 0.534887 57.0815 0.534887C57.3608 0.546557 57.5097 0.68271 57.5139 0.947236C57.518 1.18648 57.5118 1.42572 57.5139 1.66496C57.5139 1.87308 57.5242 2.08314 57.5263 2.29126C57.5263 2.36712 57.5263 2.44297 57.5118 2.51689C57.4725 2.72695 57.3235 2.85921 57.0836 2.88839C56.9532 2.90395 56.8208 2.9059 56.6884 2.9059C55.863 2.90784 55.0376 2.90979 54.2122 2.91173C54.0612 2.91173 53.9184 2.93507 53.7798 2.99537C53.633 3.05955 53.5895 3.17626 53.5833 3.31241C53.5771 3.44662 53.6412 3.55165 53.7674 3.60806C53.8522 3.64696 53.9495 3.6703 54.0426 3.68391C54.5246 3.75004 55.0066 3.81034 55.4886 3.87453C55.8237 3.91926 56.163 3.94455 56.4878 4.03597C56.6347 4.07681 56.7836 4.12349 56.9222 4.18379C57.4435 4.40747 57.7621 4.79064 57.9028 5.30997C57.9504 5.48891 57.9834 5.67175 57.9834 5.85653C57.9834 5.89154 57.9938 5.92655 58 5.96156V7.21611L57.9979 7.21806Z" fill="white"/>
<path d="M25.1035 5.11158C25.0766 5.09601 25.0559 5.08434 25.0331 5.07267C24.4746 4.80815 24.1188 4.38996 23.9409 3.82979C23.8374 3.50497 23.7899 3.17431 23.7485 2.83976C23.7361 2.74057 23.7237 2.64137 23.7154 2.54217C23.6864 2.18817 23.8023 1.87891 24.0443 1.6105C24.2491 1.38293 24.5015 1.21176 24.7746 1.06394C25.5089 0.665205 26.2909 0.377338 27.1143 0.196449C27.6563 0.0758567 28.2086 0 28.7692 0C28.9099 0 29.0526 0.0116703 29.1933 0.0311207C29.7663 0.105032 30.1842 0.390954 30.4449 0.87138C30.5276 1.02504 30.5959 1.18648 30.658 1.34792C30.7428 1.57549 30.8152 1.80889 30.8917 2.04035C30.9765 2.29321 30.9952 2.5519 30.9372 2.81253C30.8938 3.01482 30.84 3.21321 30.7903 3.41355C30.7759 3.46801 30.7635 3.52442 30.751 3.58472C30.7779 3.58861 30.7945 3.5925 30.8131 3.59444C31.4565 3.64501 31.9199 3.95233 32.2384 4.47166C32.3708 4.68756 32.4701 4.91902 32.5467 5.15631C32.6708 5.53948 32.7887 5.92266 32.9066 6.30778C32.9832 6.55674 33.0308 6.8096 33.0204 7.06829C32.9977 7.58762 32.7618 8.0058 32.3253 8.3209C31.9033 8.62627 31.4461 8.88301 30.9641 9.09502C30.4304 9.32843 29.8801 9.5171 29.3154 9.67076C28.5334 9.88471 27.739 10.0092 26.9219 9.99947C26.6985 9.99752 26.4792 9.97808 26.2599 9.93528C25.6662 9.81858 25.24 9.50154 24.9773 8.99194C24.8883 8.82077 24.8139 8.64183 24.7518 8.46094C24.6215 8.06999 24.5015 7.67709 24.3836 7.28419C24.3153 7.05662 24.2801 6.82321 24.2781 6.58397C24.2739 6.05492 24.487 5.61923 24.9049 5.26718C24.9359 5.24189 24.9669 5.21466 25 5.18938C25.0311 5.16409 25.0642 5.14075 25.1035 5.11158ZM28.8996 7.43785C29.0526 7.38339 29.2099 7.33282 29.3609 7.27252C29.4788 7.22584 29.5884 7.15971 29.6815 7.07412C29.787 6.97493 29.8512 6.85822 29.8429 6.71818C29.8325 6.5334 29.8036 6.35057 29.7374 6.17551C29.6236 5.87987 29.4271 5.75149 29.0919 5.75733C28.9968 5.75733 28.8975 5.76511 28.8044 5.78651C28.5644 5.84097 28.3224 5.90126 28.0866 5.96934C27.9231 6.01602 27.7659 6.07826 27.6211 6.16773C27.4163 6.29416 27.3315 6.47116 27.3646 6.69679C27.3977 6.91852 27.4784 7.1247 27.5818 7.32503C27.6563 7.46897 27.7845 7.55066 27.9542 7.56622C28.0266 7.574 28.1031 7.574 28.1755 7.56622C28.4217 7.54871 28.6596 7.49231 28.8975 7.43785H28.8996ZM27.3087 2.48966C27.3087 2.48966 27.3108 2.49938 27.3129 2.50327C27.2198 2.52856 27.1267 2.55384 27.0357 2.58107C26.9963 2.59274 26.9591 2.61219 26.9219 2.6297C26.6881 2.73473 26.5992 2.88256 26.6343 3.11791C26.6674 3.3377 26.7336 3.54971 26.8329 3.75199C26.9384 3.96205 27.0791 4.03791 27.3273 4.02235C27.3501 4.02235 27.3728 4.02235 27.3935 4.01457C27.5963 3.964 27.799 3.91537 27.9997 3.86091C28.0617 3.84341 28.1176 3.81229 28.1755 3.78505C28.37 3.69169 28.4444 3.53998 28.4175 3.34353C28.3844 3.10818 28.3141 2.88061 28.2086 2.66665C28.1031 2.45659 27.9562 2.38073 27.71 2.4138C27.5777 2.4313 27.4453 2.46437 27.3129 2.48966H27.3087Z" fill="white"/>
<path d="M40.6539 4.95986C40.6539 5.62896 40.6539 6.29805 40.6539 6.96715C40.6539 7.2803 40.6188 7.58956 40.5443 7.89493C40.3829 8.54069 39.9775 8.98999 39.33 9.25063C38.999 9.38289 38.6535 9.46653 38.2997 9.52488C37.7391 9.62019 37.1764 9.6727 36.6075 9.67659C35.7676 9.68243 34.9402 9.59879 34.1313 9.379C33.9493 9.33037 33.7734 9.26035 33.6017 9.18255C33.0328 8.92386 32.6791 8.49595 32.526 7.92216C32.4536 7.64986 32.4246 7.37366 32.4226 7.09357C32.4226 6.59953 32.4205 6.10549 32.4184 5.6134C32.4184 4.884 32.4143 4.15267 32.4143 3.42328C32.4143 3.18404 32.4184 2.9448 32.4288 2.70556C32.4391 2.47604 32.4763 2.24847 32.5405 2.02479C32.7039 1.45684 33.0721 1.05421 33.6348 0.799413C33.9741 0.645755 34.3361 0.558228 34.7043 0.492096C35.2919 0.385119 35.8835 0.326767 36.4813 0.324822C37.3068 0.322877 38.1218 0.406514 38.9183 0.622414C39.1024 0.672985 39.2844 0.741062 39.4582 0.818863C40.0499 1.08339 40.4098 1.52491 40.5567 2.12399C40.625 2.39629 40.6498 2.67444 40.6519 2.95258C40.6519 3.62167 40.6519 4.29077 40.6519 4.95986H40.6539ZM35.4284 4.95986C35.4284 5.17771 35.4284 5.39555 35.4284 5.6134C35.4284 5.90126 35.4284 6.18913 35.4305 6.477C35.4305 6.6112 35.4491 6.74347 35.4925 6.87184C35.5442 7.0255 35.6518 7.13248 35.8194 7.1811C35.8628 7.19472 35.9062 7.20639 35.9497 7.21417C36.3655 7.27835 36.7792 7.26279 37.1909 7.18888C37.4867 7.13442 37.644 6.9477 37.6564 6.66372C37.6564 6.62676 37.6564 6.59175 37.6564 6.5548C37.6564 6.41281 37.6543 6.27082 37.6543 6.12689C37.6543 5.33914 37.6564 4.5514 37.6543 3.76366C37.6543 3.60417 37.6398 3.44273 37.615 3.28518C37.5674 2.98953 37.4185 2.85143 37.1061 2.79308C37.0709 2.78725 37.0358 2.77947 37.0006 2.77752C36.7627 2.77169 36.5248 2.76196 36.2848 2.76585C36.1173 2.76974 35.9518 2.80086 35.7925 2.85143C35.5959 2.91368 35.4842 3.04205 35.4511 3.23266C35.4387 3.30463 35.4305 3.3766 35.4305 3.44856C35.4305 3.95038 35.4305 4.45415 35.4305 4.95597L35.4284 4.95986Z" fill="white"/>
<path d="M14.6855 4.59225C14.7724 4.61753 14.8469 4.63893 14.9193 4.66227C15.5688 4.87233 15.9536 5.29635 16.0881 5.92655C16.1419 6.17357 16.1522 6.42448 16.1501 6.67734C16.1481 7.40478 16.1501 8.13028 16.146 8.85773C16.146 8.94526 16.1439 9.03473 16.1253 9.12031C16.0839 9.32843 15.9412 9.44708 15.7157 9.47042C15.6619 9.47625 15.6061 9.4782 15.5523 9.4782C14.9358 9.4782 14.3214 9.4782 13.7049 9.4782C13.647 9.4782 13.5891 9.4782 13.5312 9.46847C13.316 9.43541 13.1878 9.31287 13.1505 9.11059C13.1402 9.05029 13.134 8.98999 13.134 8.9297C13.134 8.3384 13.134 7.74905 13.134 7.15776C13.134 7.0819 13.1257 7.00605 13.1091 6.93214C13.0636 6.73569 12.9271 6.62482 12.714 6.60148C12.6623 6.59564 12.6106 6.5937 12.5589 6.5937C11.9982 6.5937 11.4356 6.59759 10.8749 6.59759C10.8439 6.59759 10.8108 6.59759 10.7674 6.59759C10.7674 6.63843 10.7653 6.67345 10.7653 6.70846C10.7653 7.36199 10.7653 8.01747 10.7653 8.67101C10.7653 8.81105 10.755 8.94915 10.7488 9.08919C10.7488 9.11642 10.7425 9.14365 10.7363 9.16894C10.695 9.34982 10.6081 9.42957 10.4116 9.45291C10.2895 9.46653 10.1674 9.47236 10.0454 9.47431C9.47029 9.47625 8.89726 9.4782 8.32216 9.47431C8.24769 9.47431 8.17322 9.46653 8.10288 9.45291C7.93118 9.4179 7.82567 9.31287 7.79051 9.15338C7.77396 9.07752 7.76775 8.99777 7.76775 8.91803C7.76775 7.92411 7.76775 6.93019 7.76982 5.93822C7.76982 4.5125 7.76982 3.08484 7.76982 1.65912C7.76982 1.46267 7.76982 1.26622 7.76982 1.06783C7.76982 1.01337 7.77189 0.958907 7.78223 0.904445C7.82361 0.669095 7.96428 0.548502 8.21873 0.530997C8.31182 0.525162 8.40491 0.529052 8.50007 0.529052C9.35445 0.529052 10.2088 0.523217 11.0653 0.527107C11.719 0.529052 12.3748 0.538777 13.0285 0.546557C13.316 0.550447 13.5994 0.585458 13.8787 0.65548C14.5696 0.830534 15.002 1.24483 15.182 1.89447C15.2461 2.12399 15.2771 2.35739 15.2875 2.59469C15.302 2.91173 15.304 3.23072 15.2627 3.54776C15.2337 3.77727 15.1551 3.98928 15.0165 4.18184C14.9317 4.30049 14.8386 4.41136 14.7476 4.52612C14.731 4.54751 14.7124 4.56891 14.6896 4.59808L14.6855 4.59225ZM10.7777 2.86894C10.7777 3.08095 10.7777 3.29296 10.7777 3.50497C10.7777 3.68975 10.7777 3.87453 10.7839 4.05931C10.7881 4.1799 10.8418 4.2791 10.966 4.32578C11.1521 4.39774 11.3487 4.43275 11.5514 4.42108C11.8948 4.39969 12.1286 4.23631 12.2568 3.93677C12.321 3.78506 12.3417 3.62556 12.3396 3.46412C12.3396 3.3338 12.3313 3.20349 12.2899 3.07706C12.2424 2.93118 12.141 2.83976 11.9858 2.79892C11.9527 2.78919 11.9176 2.78141 11.8824 2.77752C11.7376 2.7678 11.5928 2.75807 11.448 2.75418C11.2287 2.75029 11.0094 2.75418 10.7777 2.75418V2.86894Z" fill="white"/>
<path d="M44.4128 6.60148C44.4128 6.64232 44.4128 6.67733 44.4128 6.71429C44.4128 7.41062 44.4128 8.10694 44.4107 8.80327C44.4107 8.9083 44.4045 9.01528 44.3921 9.12031C44.3672 9.33426 44.27 9.43346 44.0425 9.45097C43.7984 9.46847 43.5522 9.46847 43.3081 9.47042C42.8881 9.47431 42.4702 9.47236 42.0503 9.47236C41.982 9.47236 41.9138 9.47236 41.8476 9.46847C41.6055 9.44708 41.4587 9.31092 41.4338 9.0853C41.4276 9.02306 41.4276 8.95887 41.4276 8.89468C41.4276 6.73763 41.4276 4.58252 41.4297 2.42547C41.4297 1.97811 41.4297 1.5288 41.4276 1.08144C41.4276 1.03282 41.4276 0.984192 41.4338 0.935566C41.4566 0.69049 41.6076 0.550447 41.8683 0.529052C41.9138 0.525162 41.9593 0.525162 42.0027 0.525162C42.8902 0.525162 43.7756 0.521272 44.6631 0.525162C45.3333 0.527107 46.0036 0.536832 46.6759 0.544612C46.9676 0.548502 47.2552 0.581568 47.5365 0.653535C48.2295 0.830534 48.6557 1.24872 48.8274 1.89836C48.8853 2.11426 48.9205 2.33211 48.9225 2.55384C48.9225 2.87672 48.9184 3.20154 48.906 3.52442C48.8956 3.84535 48.7715 4.12544 48.5315 4.35884C48.4591 4.43081 48.3867 4.50278 48.3061 4.58252C48.3495 4.59614 48.3826 4.60392 48.4136 4.61559C48.5522 4.66616 48.695 4.70701 48.8274 4.7673C49.3259 4.99876 49.6176 5.38388 49.7376 5.88959C49.7955 6.1405 49.81 6.39336 49.8017 6.64816C49.7769 7.38339 49.7873 8.11861 49.7976 8.85578C49.7976 8.94526 49.7976 9.03862 49.779 9.12614C49.7376 9.33037 49.6052 9.44124 49.3839 9.46653C49.3301 9.47236 49.2742 9.47431 49.2204 9.47431C48.6205 9.47431 48.0206 9.47431 47.4207 9.47042C47.3317 9.47042 47.2386 9.46847 47.1517 9.45291C46.9614 9.41985 46.8559 9.30314 46.8187 9.13003C46.8083 9.07752 46.8 9.02111 46.8 8.9686C46.8 8.36369 46.8042 7.75683 46.8063 7.15193C46.8063 7.09746 46.8042 7.043 46.7959 6.98854C46.7628 6.76097 46.6139 6.62482 46.3698 6.59759C46.3222 6.59175 46.2725 6.58981 46.2249 6.58981C45.654 6.58981 45.083 6.59175 44.5121 6.5937C44.4831 6.5937 44.4562 6.59759 44.419 6.59953L44.4128 6.60148ZM44.4748 4.32772C44.6217 4.33356 44.7562 4.33745 44.8906 4.34328C45.0354 4.35106 45.1802 4.37051 45.323 4.37051C45.6581 4.37051 45.8671 4.22074 45.9581 3.91732C45.985 3.82396 46.0015 3.72865 46.0077 3.6314C46.0222 3.44856 45.9995 3.26962 45.925 3.09845C45.836 2.89617 45.6809 2.76585 45.443 2.74057C45.3375 2.7289 45.232 2.73084 45.1265 2.73279C44.9217 2.73862 44.7148 2.75029 44.51 2.76196C44.4976 2.76196 44.4872 2.7678 44.4748 2.76974V4.32772Z" fill="white"/>
<path d="M19.9214 2.85727V3.84146C19.9586 3.84146 19.9959 3.84535 20.0331 3.84535C20.7716 3.84535 21.5101 3.84535 22.2487 3.84535C22.3873 3.84535 22.5259 3.85119 22.6624 3.87064C22.8217 3.89203 22.8941 3.96594 22.9169 4.11377C22.9313 4.20713 22.9376 4.30049 22.9376 4.39385C22.9417 4.78481 22.9417 5.17576 22.9417 5.56672C22.9417 5.59395 22.9417 5.62118 22.9376 5.64841C22.921 5.88376 22.7741 6.02769 22.5217 6.04909C22.4452 6.05687 22.3666 6.05492 22.29 6.05492C21.655 6.05492 21.0199 6.05492 20.3848 6.05881C20.2689 6.05881 20.1531 6.06659 20.0372 6.07437C19.9565 6.07826 19.9193 6.10549 19.909 6.18329C19.8841 6.37196 19.8531 6.56258 19.8469 6.75125C19.8366 6.99632 19.9421 7.10525 20.2027 7.12081C20.4758 7.13637 20.7509 7.14026 21.024 7.14026C21.8184 7.14026 22.6107 7.13637 23.4051 7.13637C23.4982 7.13637 23.5933 7.1422 23.6823 7.16165C23.8643 7.19666 23.9781 7.30558 24.0133 7.47675C24.0257 7.53899 24.0319 7.60318 24.0319 7.66542C24.0319 8.08555 24.0257 8.50762 24.0236 8.92775C24.0236 8.97832 24.0236 9.03084 24.0195 9.08141C23.9967 9.30898 23.8498 9.44513 23.6078 9.46458C23.5664 9.46847 23.523 9.46653 23.4816 9.46653C22.6376 9.46653 21.7915 9.46653 20.9475 9.46653C19.9131 9.46653 18.8767 9.46653 17.8423 9.46653C17.7265 9.46653 17.6106 9.46653 17.4948 9.46653C17.4534 9.46653 17.41 9.46653 17.3686 9.46264C17.1038 9.44708 16.9466 9.30509 16.9238 9.05807C16.9197 9.01528 16.9197 8.97249 16.9197 8.93164C16.9197 6.30194 16.9197 3.67419 16.9197 1.04449C16.9197 1.01337 16.9197 0.984192 16.9197 0.953071C16.9342 0.69049 17.0893 0.540722 17.3686 0.521272C17.41 0.519327 17.4534 0.519327 17.4948 0.519327C18.6078 0.519327 19.7207 0.519327 20.8337 0.519327C21.686 0.519327 22.5362 0.517382 23.3885 0.517382C23.4775 0.517382 23.5706 0.517382 23.6575 0.532942C23.8892 0.571843 24.0112 0.704106 24.0236 0.925841C24.0298 1.05616 24.0236 1.18648 24.0236 1.31679C24.0236 1.63773 24.0236 1.95866 24.0257 2.27959C24.0257 2.32822 24.0257 2.37684 24.0257 2.42547C24.0133 2.68222 23.8643 2.83198 23.5913 2.8456C23.4175 2.85532 23.2437 2.84949 23.0699 2.84949C22.3728 2.84949 21.6756 2.84949 20.9806 2.84949C20.6682 2.84949 20.3558 2.84949 20.0414 2.84949C20.0062 2.84949 19.971 2.84949 19.9235 2.84949L19.9214 2.85727Z" fill="white"/>
<path d="M0.00390755 5.00654C0.00390755 4.3958 -0.000229856 3.78311 0.00390755 3.17237C0.00597625 2.8242 0.0370068 2.47604 0.136305 2.1376C0.250083 1.75248 0.440404 1.4121 0.76519 1.14563C1.05688 0.90639 1.40028 0.770237 1.77472 0.69049C2.03124 0.636029 2.29189 0.618524 2.55048 0.599073C3.4876 0.532942 4.42473 0.534887 5.36392 0.536832C5.74456 0.536832 6.1252 0.542667 6.50584 0.542667C6.56997 0.542667 6.62583 0.558228 6.67961 0.589348C6.77064 0.641864 6.84718 0.711886 6.90717 0.795523C6.94648 0.849984 6.96303 0.908335 6.96923 0.974467C7.01061 1.43155 6.99199 1.88864 6.98578 2.34572C6.98578 2.42741 6.98164 2.50911 6.9713 2.5908C6.94854 2.74835 6.84511 2.84949 6.68375 2.88645C6.5948 2.90784 6.49964 2.91562 6.40654 2.91562C5.81696 2.91562 5.22531 2.91368 4.63573 2.91562C4.32543 2.91562 4.01719 2.92146 3.70689 2.93118C3.61379 2.93313 3.5207 2.95063 3.42968 2.97008C3.23936 3.01287 3.11731 3.12763 3.078 3.30657C3.05111 3.43106 3.03456 3.55749 3.03456 3.68391C3.03042 4.57474 3.03042 5.46363 3.03456 6.35446C3.03456 6.477 3.05111 6.60148 3.07593 6.72402C3.11317 6.89713 3.22902 7.01188 3.41313 7.05078C3.54966 7.07996 3.69241 7.09941 3.83308 7.1033C4.27785 7.11108 4.72262 7.11108 5.16739 7.11303C5.58113 7.11303 5.9928 7.11303 6.40654 7.11497C6.50584 7.11497 6.60514 7.12859 6.70444 7.14609C6.83683 7.16943 6.92372 7.24529 6.95061 7.37172C6.96716 7.44563 6.98164 7.52148 6.98164 7.5954C6.98578 8.07388 6.98371 8.55236 6.98371 9.03084C6.98371 9.0639 6.97958 9.09697 6.97337 9.13004C6.92993 9.35566 6.7996 9.46458 6.55549 9.46264C5.63078 9.45875 4.704 9.4568 3.77929 9.44319C3.3097 9.43541 2.83803 9.40429 2.36844 9.37706C2.07261 9.35955 1.77885 9.31676 1.49544 9.22923C0.779671 9.0075 0.3349 8.54458 0.134236 7.8677C0.0390755 7.55066 0.00390755 7.22584 0.00183885 6.89713C-0.00229856 6.26693 0.00183885 5.63674 0.00183885 5.00849L0.00390755 5.00654Z" fill="white"/>
</svg>
