<svg width="396" height="754" viewBox="0 0 396 754" fill="none" xmlns="http://www.w3.org/2000/svg">
<mask id="mask0_2158_473" style="mask-type:luminance" maskUnits="userSpaceOnUse" x="0" y="0" width="396" height="754">
<path d="M396 0.737366H0V754H396V0.737366Z" fill="white"/>
</mask>
<g mask="url(#mask0_2158_473)">
<path d="M205.153 412.262L227.653 423.228L284.033 518.758L274.015 617.119L227.025 620.873L217.635 620.565C217.635 620.565 100.327 621.654 101.428 620.565C102.529 619.476 105.81 620.565 105.81 620.565H-15.0391C-15.0391 620.565 1.87151 561.674 4.06229 542.573C6.25308 523.472 15.3359 477.441 15.3359 477.441L82.978 422.92L205.153 412.262Z" fill="#004C93"/>
<path d="M10.078 509.154L-4.53516 583.914L19.6938 587.253L63.1188 545.072L15.3359 477.418L10.078 509.154Z" fill="#E93F45"/>
<path d="M7.50876 790.014L6.66797 818.21C6.66797 818.21 70.9943 831.982 153.676 831.982C236.357 831.982 278.551 820.294 278.551 820.294L271.031 749.715L26.3022 747.204L7.50876 790.014Z" fill="#F2C443"/>
<path d="M46.9785 758.383C46.9785 758.383 71.4088 775.922 153.155 775.922C234.901 775.922 265.655 746.482 265.655 746.482L243.676 644.368H102.104L46.9785 758.383Z" fill="#F2C443"/>
<path d="M238.359 606.461C229.303 612.092 222.702 620.929 219.873 631.211C217.067 641.533 217.505 652.469 221.129 662.533C221.129 662.533 243.368 718.914 247.75 739.898C252.131 760.882 252.759 776.857 255.269 784.685C257.78 792.512 280.019 829.791 295.367 832.929C310.714 836.068 326.369 827.008 332.634 820.708C338.898 814.408 347.058 806.308 348.301 784.697C349.544 763.085 348.609 753.066 345.483 744.611C342.356 736.156 337.015 700.795 339.218 675.702C341.421 650.608 344.227 636.86 338.59 619.629C332.954 602.399 325.434 601.464 320.733 599.273C316.031 597.082 309.767 599.273 309.767 599.273L238.359 606.461Z" fill="#E93F45"/>
<path d="M106.414 373.989H203.152C203.152 373.989 205.721 390.307 205.402 402.931C205.082 415.554 203.791 419.095 200.274 422.778C196.757 426.461 196.283 426.947 190.528 429.504C184.773 432.062 175.133 436.254 175.133 436.254C175.133 436.254 158.436 445.622 148.524 446.095C138.612 446.569 116.456 433.543 116.456 433.069C116.456 432.595 102.245 398.147 102.245 398.147L106.414 373.989Z" fill="#E93F45"/>
<path d="M76.8327 250.227L51.1472 259.416C51.1472 259.416 47.5946 259.618 47.3933 256.906C47.3162 256.164 47.4291 255.416 47.7212 254.73C48.0133 254.044 48.475 253.444 49.063 252.986L51.1472 250.274L61.8051 233.352C61.8051 233.352 54.4867 223.12 41.7564 228.97C29.0262 234.82 30.2696 270.737 38.8314 284.522C47.3933 298.306 54.4867 303.729 64.8841 303.315C70.9567 303.139 76.8706 301.336 82.0077 298.093L87.4906 346.539C87.4906 346.539 88.9472 355.515 90.6169 358.227C92.2867 360.939 98.9064 364.491 98.9064 364.491L107.267 362.407L106.012 367.002C106.012 367.002 129.601 375.99 164.689 372.852C199.777 369.714 204.787 357.599 204.787 357.599L206.243 353.004L213.242 296.577L215.539 299.087L218.464 300.97C218.464 300.97 218.666 295.949 222.846 295.949C227.026 295.949 226.399 303.895 226.399 303.895C226.399 303.895 235.588 305.979 245.346 298.045C255.104 290.111 260.61 279.879 263.524 258.789C266.437 237.698 257.875 229.183 249.526 227.253C241.177 225.323 233.871 234.145 233.871 234.145L246.814 252.726C246.814 252.726 250.367 256.065 247.643 258.362C244.92 260.66 238.88 256.065 238.88 256.065L218.618 250.014L215.693 254.608L215.077 266.095L172.268 257.948L166.004 257.747C166.004 257.747 167.46 242.92 148.466 242.92C129.471 242.92 127.789 256.278 127.789 256.278L82.2683 265.882L79.9709 251.482L76.8327 250.227Z" fill="#06EEF4"/>
<path d="M106.699 290.94C112.578 290.94 117.345 286.174 117.345 280.294C117.345 274.414 112.578 269.648 106.699 269.648C100.819 269.648 96.0527 274.414 96.0527 280.294C96.0527 286.174 100.819 290.94 106.699 290.94Z" fill="white"/>
<path d="M189.806 290.94C195.686 290.94 200.452 286.174 200.452 280.294C200.452 274.414 195.686 269.648 189.806 269.648C183.927 269.648 179.16 274.414 179.16 280.294C179.16 286.174 183.927 290.94 189.806 290.94Z" fill="white"/>
<path d="M314.787 523.152C314.787 523.152 327.624 562.302 331.07 578.277C334.516 594.252 337.335 613.353 337.335 613.353L338.59 619.618C338.59 619.618 333.581 602.079 324.178 599.889C314.775 597.698 309.766 599.261 309.766 599.261L301.003 582.978L314.787 523.152Z" fill="#E93F45"/>
<path d="M36.3204 564.801C31.8466 565.259 27.5305 566.706 23.6843 569.036C19.8382 571.367 16.558 574.523 14.081 578.277C5.6257 591.114 0.308597 607.716 -0.319035 614.3C-0.946666 620.885 -14.1269 617.427 -14.1269 618.362C-14.1269 619.298 -22.2743 642.485 -33.2401 661.278C-44.2059 680.072 -45.7454 719.565 -47.6164 733.633C-49.4875 747.702 -51.3822 781.002 -26.3006 793.566C-8.67956 802.377 0.936231 794.395 7.53228 790.014C14.1283 785.632 31.6546 774.619 40.4178 761.51C49.181 748.4 57.3165 726.433 64.5165 714.828C71.7165 703.223 102.411 665.968 110.559 652.503C118.706 639.039 127.789 632.454 128.724 618.67C129.66 604.886 129.352 599.877 123.407 594.548C119.929 591.396 115.544 589.423 110.878 588.911L36.3204 564.801Z" fill="#E93F45"/>
<path d="M83.9375 248.131C83.9375 248.131 113.164 242.494 123.822 242.293C123.822 242.293 125.491 257.32 107.326 260.245C89.1599 263.17 83.9375 248.131 83.9375 248.131Z" fill="white"/>
<path d="M184.619 538.677C184.856 539.376 186.751 561.769 186.751 561.769L236.488 581.818L235.209 560.395L184.619 538.677Z" fill="#07F29C"/>
<path d="M171.013 242.707C171.013 242.707 198.155 245.004 210.269 248.557C210.269 248.557 206.302 264.627 189.178 261.086C172.055 257.545 171.013 242.707 171.013 242.707Z" fill="white"/>
<path d="M302.259 576.394C302.259 576.394 308.523 576.714 310.714 582.315C312.905 587.916 314.788 604.554 314.788 604.554L316.351 623.644C316.351 623.644 308.523 623.016 303.502 626.782C298.481 630.548 294.739 641.502 294.739 641.502C294.739 641.502 289.41 634.61 278.16 635.865C266.91 637.12 263.441 644.32 263.441 644.32C263.441 644.32 257.519 637.108 250.592 634.29C243.664 631.472 242.137 633.106 242.137 633.106C242.137 633.106 236.216 622.448 237.4 615.876C238.584 609.303 302.259 576.394 302.259 576.394Z" fill="#E93F45"/>
<mask id="mask1_2158_473" style="mask-type:luminance" maskUnits="userSpaceOnUse" x="237" y="576" width="80" height="69">
<path d="M302.259 576.394C302.259 576.394 308.523 576.714 310.714 582.315C312.905 587.916 314.788 604.554 314.788 604.554L316.351 623.644C316.351 623.644 308.523 623.016 303.502 626.782C298.481 630.548 294.739 641.502 294.739 641.502C294.739 641.502 289.41 634.61 278.16 635.865C266.91 637.12 263.441 644.32 263.441 644.32C263.441 644.32 257.519 637.108 250.592 634.29C243.664 631.472 242.137 633.106 242.137 633.106C242.137 633.106 236.216 622.448 237.4 615.876C238.584 609.303 302.259 576.394 302.259 576.394Z" fill="white"/>
</mask>
<g mask="url(#mask1_2158_473)">
<path d="M302.838 592.345C302.838 592.345 302.838 597.627 303.477 608.865C304.117 620.103 304.531 626.474 304.531 626.474" stroke="#991922" stroke-width="1.6" stroke-linecap="round" stroke-linejoin="round"/>
<path d="M293.341 599.924L294.608 639.512" stroke="#991922" stroke-width="1.6" stroke-linecap="round" stroke-linejoin="round"/>
<path d="M282.492 603.69V636.374" stroke="#991922" stroke-width="1.6" stroke-linecap="round" stroke-linejoin="round"/>
<path d="M270.485 600.351L270.153 640.377" stroke="#991922" stroke-width="1.6" stroke-linecap="round" stroke-linejoin="round"/>
<path d="M260.822 596.348L258.82 640.708" stroke="#991922" stroke-width="1.6" stroke-linecap="round" stroke-linejoin="round"/>
<path d="M254.878 593.826C254.878 593.826 253.528 601.049 251.811 612.027C250.765 619.091 250.097 626.207 249.81 633.343" stroke="#991922" stroke-width="1.6" stroke-linecap="round" stroke-linejoin="round"/>
<path d="M248.91 588.52C246.791 594.308 245.206 600.278 244.173 606.354C242.723 614.237 241.725 622.196 241.188 630.193" stroke="#991922" stroke-width="1.6" stroke-linecap="round" stroke-linejoin="round"/>
</g>
<path d="M75.3757 214.511L49.0625 252.986C49.0625 252.986 101.262 235.448 149.507 235.448C197.752 235.448 246.814 252.773 246.814 252.773L219.873 214.31C219.873 214.31 191.262 205.748 150.135 206.577C125.037 207.124 100.029 209.778 75.3757 214.511Z" fill="#004C93"/>
<path d="M112.121 557.601C112.121 557.601 114.939 568.874 114.312 578.916C113.684 588.958 112.749 598.645 111.185 603.027C109.622 607.408 101.783 615.556 101.783 615.556C101.783 615.556 95.2105 612.11 90.2013 612.737C85.192 613.365 77.6723 618.658 77.6723 618.658C77.6723 618.658 73.9065 607.065 66.0789 603.619C58.2512 600.173 49.1684 603.939 49.1684 603.939C49.1684 603.939 52.9223 588.899 43.5315 583.57C34.1407 578.241 36.6394 580.136 36.6394 580.136C36.6394 580.136 34.1289 573.244 36.0118 568.851C37.8947 564.457 40.3934 557.577 40.3934 557.577L112.121 557.601Z" fill="#E93F45"/>
<mask id="mask2_2158_473" style="mask-type:luminance" maskUnits="userSpaceOnUse" x="35" y="557" width="80" height="62">
<path d="M112.121 557.601C112.121 557.601 114.939 568.874 114.312 578.916C113.684 588.958 112.749 598.645 111.185 603.027C109.622 607.408 101.783 615.556 101.783 615.556C101.783 615.556 95.2105 612.11 90.2013 612.737C85.192 613.365 77.6723 618.658 77.6723 618.658C77.6723 618.658 73.9065 607.065 66.0789 603.619C58.2512 600.173 49.1684 603.939 49.1684 603.939C49.1684 603.939 52.9223 588.899 43.5315 583.57C34.1407 578.241 36.6394 580.136 36.6394 580.136C36.6394 580.136 34.1289 573.244 36.0118 568.851C37.8947 564.457 40.3934 557.577 40.3934 557.577L112.121 557.601Z" fill="white"/>
</mask>
<g mask="url(#mask2_2158_473)">
<path d="M45.0592 554.001L41.7197 582.351" stroke="#991922" stroke-width="2" stroke-miterlimit="10"/>
<path d="M52.058 565.333L49.3936 598.018" stroke="#991922" stroke-width="2" stroke-miterlimit="10"/>
<path d="M61.7321 563.001L57.7295 604.022" stroke="#991922" stroke-width="2" stroke-miterlimit="10"/>
<path d="M71.7393 571.681L68.7314 609.031" stroke="#991922" stroke-width="2" stroke-miterlimit="10"/>
<path d="M80.7391 577.341L79.0693 621.702" stroke="#991922" stroke-width="2" stroke-miterlimit="10"/>
<path d="M91.0777 580.018L90.083 614.691" stroke="#991922" stroke-width="2" stroke-miterlimit="10"/>
<path d="M102.41 575.34L101.084 614.36" stroke="#991922" stroke-width="2" stroke-miterlimit="10"/>
<path d="M111.091 560.999L110.072 604.033" stroke="#991922" stroke-width="2" stroke-miterlimit="10"/>
</g>
<path d="M169.733 381.674V478.886C169.733 478.886 169.26 483.362 171.498 483.362C173.736 483.362 174.162 479.526 174.162 479.526V381.354C174.102 380.768 173.85 380.219 173.445 379.79C173.041 379.362 172.506 379.079 171.924 378.986C169.899 378.631 169.733 381.674 169.733 381.674Z" fill="#F2C443"/>
<path d="M121.37 381.674V478.886C121.37 478.886 120.885 483.362 123.135 483.362C125.385 483.362 125.847 479.526 125.847 479.526V381.354C125.786 380.768 125.534 380.219 125.13 379.79C124.725 379.362 124.19 379.079 123.608 378.986C121.536 378.631 121.37 381.674 121.37 381.674Z" fill="#F2C443"/>
<path d="M53.6574 257.32C53.6574 257.32 98.764 241.037 150.135 241.037C201.506 241.037 240.336 256.693 240.336 256.693C240.336 256.693 245.346 261.287 247.643 258.362C249.94 255.437 249.111 254.608 244.303 252.524C239.496 250.44 194.401 235.223 145.327 235.223C96.2534 235.223 49.0627 252.986 49.0627 252.986C49.0627 252.986 46.5522 255.07 47.393 256.953C48.2337 258.836 51.1469 259.464 51.1469 259.464L53.6574 257.32Z" fill="#F2C443"/>
<path d="M23.3772 400.053C23.1404 393.682 24.5614 380.253 24.5614 380.253L107.338 362.36C107.338 362.36 103.892 378.939 105.372 393.398C106.852 407.857 67.0035 431.174 67.0035 431.174C67.0035 431.174 28.5759 425.751 28.3391 424.803C28.1022 423.856 25.0351 411.599 24.5614 407.123C24.335 404.741 23.9393 402.379 23.3772 400.053Z" fill="#07F29C"/>
<path d="M76.0036 192.591C76.0036 193.219 75.376 214.511 75.376 214.511C75.376 214.511 97.2957 205.949 150.135 206.577C202.975 207.204 219.873 214.31 219.873 214.31L220.501 196.547L174.565 163.554L77.6733 166.065L76.0036 192.591Z" fill="#D33A4D"/>
<path d="M64.2678 397.614L7.10598 439.227C7.10598 439.227 -2.9006 443.715 0.521773 457.404C0.521773 457.404 4.21651 464.782 6.84546 471.615C9.4744 478.448 13.9507 490.053 15.0165 498.485C15.9765 506.505 17.9214 514.376 20.8073 521.92C23.1757 527.451 36.6047 538.251 49.2284 548.79C61.852 559.329 89.7876 576.974 93.4823 578.549C97.177 580.124 100.588 581.19 100.588 581.19C100.588 581.19 111.648 569.597 111.388 553.006C111.058 542.757 107.46 532.881 101.12 524.822L104.01 510.611C104.01 510.611 120.589 502.973 126.143 490.065C131.697 477.157 129.032 471.887 126.924 469.779C124.817 467.672 119.286 471.106 119.286 471.106L89.2902 485.849C89.2902 485.849 115.343 461.881 121.157 449.766C126.972 437.652 123.265 431.861 121.951 428.699C120.636 425.537 115.888 423.69 115.888 423.69L112.726 424.744C112.726 424.744 121.418 414.737 116.42 402.623C111.423 390.508 108.51 391.823 105.36 393.398C102.21 394.973 73.7534 417.899 73.7534 417.899C73.7534 417.899 75.3284 408.947 74.0139 402.883C72.6994 396.82 71.906 397.093 69.0047 396.039C68.1502 395.764 67.2306 395.769 66.379 396.052C65.5274 396.336 64.788 396.882 64.2678 397.614Z" fill="#06EEF4"/>
<path d="M240.479 447.919L209.689 438.706C207.549 438.925 205.503 439.694 203.749 440.939C201.995 442.185 200.594 443.863 199.682 445.811C195.206 455.036 204.692 462.141 204.692 462.141C204.692 462.141 184.406 455.297 180.451 455.557C180.451 455.557 169.923 457.926 168.609 466.097C168.184 468.388 168.347 470.75 169.082 472.962C169.817 475.173 171.101 477.163 172.813 478.744L191.76 490.586L182.535 488.999C180.116 488.743 177.686 489.378 175.7 490.783C173.715 492.189 172.309 494.27 171.747 496.637C169.379 505.329 174.376 507.97 176.484 510.066C178.73 512.065 181.103 513.916 183.589 515.608L192.814 519.291C192.814 519.291 186.23 520.866 183.861 527.19C181.493 533.514 187.284 540.098 187.284 540.098C187.284 540.098 199.126 548.269 210.719 552.745C218.739 555.742 226.919 558.292 235.221 560.383C235.221 560.383 239.697 580.929 252.072 589.882C264.447 598.835 266.282 597.26 266.282 597.26C266.282 597.26 271.019 606.212 284.2 603.051C297.38 599.889 298.943 594.619 298.943 594.619L312.384 531.145C312.384 531.145 319.75 501.374 317.381 493.476C315.013 485.577 311.851 482.154 311.851 482.154L258.384 491.368L244.422 451.341L242.847 448.973L240.479 447.919Z" fill="#06EEF4"/>
<path d="M74.0613 357.623L6.39551 374.829L8.0534 386.376C8.0534 386.376 14.1758 404.529 18.4271 413.494C22.6784 422.458 25.5323 424.329 25.5323 424.329L28.3626 421.511C28.3626 421.511 22.9389 404.293 23.1758 396.051C23.353 390.763 23.8235 385.489 24.585 380.253L76.2166 369.406L74.0613 357.623Z" fill="#07F29C"/>
<path d="M-8.92871 391.799L5.93313 388.27L28.3266 424.803L18.6634 429.516L-2.32082 404.766L-8.92871 391.799Z" fill="#07F29C"/>
<path d="M122.389 451.685C123.1 452.158 154.209 487.519 154.209 487.519C154.209 487.519 147.376 500.711 128.512 512.506C109.647 524.301 101.145 524.833 101.145 524.833C101.145 524.833 105.42 512.506 106.355 512.032C107.291 511.558 121.217 503.222 126.167 490.065C131.117 476.908 128.926 471.864 126.948 469.779C124.971 467.695 119.31 471.106 119.31 471.106L106.592 477.145L122.389 451.685Z" fill="#07F29C"/>
<path d="M145.967 501.895L149.97 507.319C142.792 514.955 133.784 520.633 123.798 523.815C107.302 529.002 104.235 528.552 104.235 528.552L101.145 524.845C109.001 523.363 116.472 520.293 123.1 515.822C133.758 508.503 143.835 500.498 143.835 500.498L145.967 501.895Z" fill="#07F29C"/>
<path d="M5.93313 388.27C5.69629 387.797 -8.92871 391.823 -8.92871 391.823C-4.58909 400.35 0.625822 408.403 6.63182 415.851C16.5318 428.107 18.6634 429.516 18.6634 429.516C18.6634 429.516 25.7687 425.04 25.4963 424.329C25.2239 423.619 5.93313 388.27 5.93313 388.27Z" fill="#00AA6A"/>
<path d="M103.524 525.947L104.235 528.54C104.235 528.54 116.077 529.002 130.169 520.76C144.261 512.518 149.969 507.319 149.969 507.319C149.969 507.319 144.048 498.828 143.835 500.486C143.622 502.144 126.628 513.915 117.676 519.102C113.19 521.833 108.451 524.125 103.524 525.947Z" fill="#00AA6A"/>
<path d="M224.941 441.785L291.885 432.11C291.885 432.11 306.273 411.599 305.562 411.599C304.852 411.599 298.729 412.073 298.729 412.073L300.139 407.833L299.902 403.357L228.47 410.901L227.286 413.02H222.099L214.556 439.191L224.941 441.785Z" fill="#00AA6A"/>
<path d="M224.941 441.785L241.97 448.381L260.302 490.562L325.362 474.303C325.362 474.303 320.626 458.032 310.276 446.486C299.926 434.94 291.885 432.098 291.885 432.098L224.941 441.785Z" fill="#07F29C"/>
<path d="M214.568 439.191L211.974 438.718C211.974 438.718 218.333 403.12 211.737 388.27C211.737 388.27 233.42 385.677 246.861 382.61C260.302 379.543 267.372 377.423 270.912 376.002C273.254 375.043 275.536 373.944 277.745 372.71C280.138 377.729 281.499 383.177 281.748 388.732C281.985 397.46 281.748 405.477 281.748 405.477L228.458 410.901L227.274 413.02H222.087L214.568 439.191Z" fill="#07F29C"/>
<path d="M180.38 517.456L162.463 558.24L198.771 570.733L191.938 564.362L186.751 561.769L182.973 518.628L180.38 517.456Z" fill="#00AA6A"/>
<path d="M153.486 375.753C150.525 374.095 144.261 375.043 144.261 375.043C144.261 375.043 138.814 375.872 137.629 380.478C136.445 385.085 139.998 388.649 139.998 388.649V420.694H155.973V387.986C155.973 387.986 157.856 383.368 157.856 380.999C157.856 378.631 156.399 377.411 153.486 375.753ZM152.894 394.203C152.775 397.637 151.71 398.348 150.052 399.295C148.947 399.778 147.721 399.912 146.538 399.679C145.355 399.446 144.272 398.858 143.432 397.993C141.893 396.098 142.603 385.807 142.603 385.807L144.498 385.215L144.971 391.361L150.289 391.48L150.407 385.333L152.775 385.452C152.775 385.452 153.012 390.769 152.846 394.203H152.894ZM152.385 418.207H143.207V408.26H152.385V418.207Z" fill="white"/>
<path d="M145.209 392.723V476.944L150.171 481.906V392.782L145.209 392.723Z" fill="white"/>
<path d="M145.09 499.112L150.881 493.795L149.969 507.319L144.616 500.889L145.09 499.112Z" fill="white"/>
<path d="M145.563 511.772L150.525 508.456V619.772H145.326C145.326 619.772 145.563 511.653 145.563 511.772Z" fill="white"/>
<path d="M169.58 385.618C169.58 385.618 166.027 385.144 166.382 380.822C166.396 380.067 166.58 379.325 166.919 378.65C167.259 377.976 167.746 377.387 168.344 376.926C168.942 376.466 169.636 376.146 170.375 375.99C171.114 375.834 171.878 375.846 172.611 376.026C174.85 376.511 177.088 377.79 176.934 380.987C176.905 381.897 176.692 382.791 176.307 383.615C175.922 384.44 175.374 385.177 174.696 385.783C174.696 385.783 175.015 379.069 171.972 378.903C168.928 378.737 169.58 385.618 169.58 385.618Z" fill="white"/>
<path d="M121.217 385.618C121.217 385.618 117.664 385.144 118.008 380.822C118.023 380.066 118.209 379.324 118.549 378.65C118.89 377.976 119.378 377.387 119.977 376.926C120.576 376.466 121.271 376.146 122.011 375.99C122.75 375.834 123.515 375.846 124.249 376.026C126.487 376.511 128.725 377.79 128.571 380.987C128.542 381.897 128.329 382.791 127.944 383.615C127.56 384.44 127.011 385.177 126.333 385.783C126.333 385.783 126.652 379.069 123.609 378.903C120.566 378.737 121.217 385.618 121.217 385.618Z" fill="white"/>
<path d="M122.46 646.558H217.055C216.986 642.177 217.729 637.821 219.245 633.71C221.756 627.137 224.255 620.873 224.255 620.873H128.724C128.724 620.873 125.906 629.328 123.987 631.839C122.069 634.349 118.351 642.804 118.351 642.804L122.46 646.558Z" fill="#F2C443"/>
<path d="M129.068 242.328H124.189C124.189 242.328 122.437 259.215 105.55 260.968C88.6628 262.72 84.8733 248.723 84.8733 248.723L78.751 250.76L79.3431 269.103C79.3431 269.103 99.7352 261.276 129.79 258.789L129.068 242.328Z" fill="black"/>
<path d="M96.0049 246.864C96.981 248.56 98.4118 249.951 100.136 250.878C101.86 251.805 103.809 252.231 105.763 252.11C112.169 251.518 112.608 243.82 112.608 243.82C112.608 243.82 98.0536 246.129 96.0049 246.864Z" fill="black"/>
<path d="M166.95 242.328H171.794C171.794 242.328 173.546 259.215 190.433 260.968C207.32 262.72 211.109 248.735 211.109 248.735L217.232 250.772L215.692 269.115C215.692 269.115 196.248 261.287 166.192 258.801L166.95 242.328Z" fill="black"/>
<path d="M200.002 246.864C199.026 248.56 197.595 249.951 195.871 250.878C194.147 251.805 192.198 252.231 190.244 252.11C183.838 251.518 183.399 243.82 183.399 243.82C183.399 243.82 197.965 246.129 200.002 246.864Z" fill="black"/>
<path d="M130.762 258.339C130.762 258.339 128.855 243.347 148.016 243.927V241.144L129.068 242.328L130.762 258.339Z" fill="black"/>
<path d="M165.258 258.339C165.258 258.339 167.164 243.347 148.016 243.927V241.144L166.963 242.328L165.258 258.339Z" fill="black"/>
<path d="M131.78 288.927C131.78 288.927 134.67 295.914 147.957 295.914C161.243 295.914 164.216 288.512 164.216 288.512L131.78 288.927Z" fill="black"/>
<path d="M148.016 316.282C148.016 316.282 151.663 319.598 158.567 316.756C164.002 314.506 162.356 310.243 162.356 310.243L148.016 316.282Z" fill="black"/>
<path d="M123.775 453.52C120.583 464.374 113.387 473.61 103.643 479.36L89.0654 486.157L108.96 466.026L121.702 450.903L123.775 453.52Z" fill="black"/>
<path d="M130.631 481.539C130.084 486.621 128.519 491.541 126.028 496.005C123.538 500.469 120.174 504.385 116.136 507.52C101.926 518.758 102.423 516.887 102.423 516.887L103.11 511.144C103.11 511.144 116.941 503.802 123.241 496.27C126.852 492.024 129.386 486.971 130.631 481.539Z" fill="black"/>
<path d="M106.521 510.954C106.998 515.375 106.595 519.846 105.337 524.111L102.531 525.295L100.812 523.46L103.016 514.827L106.521 510.954Z" fill="black"/>
<path d="M145.386 502.748C145.386 502.748 121.88 521.908 103.11 525.887L101.926 525.272C107.278 523.786 112.405 521.583 117.167 518.723C125.314 513.891 137.192 506.17 138.719 505.069C140.318 503.781 141.852 502.413 143.314 500.972L145.386 502.748Z" fill="black"/>
<path d="M103.571 525.094L106.52 527.664L104.069 528.208L102.541 525.331L103.571 525.094Z" fill="black"/>
<path d="M75.1748 405.003C75.1748 405.003 78.5971 412.618 76.1458 416.454L73.3984 418.314C73.3984 418.314 75.4234 406.779 75.1748 405.003Z" fill="black"/>
<path d="M3.22168 388.862C3.37563 389.158 9.26115 411.078 24.8572 424.756L26.0414 424.247C26.0414 424.247 21.1862 416.822 16.994 411.007C12.8019 405.193 8.24273 387.536 8.24273 387.536L3.22168 388.862Z" fill="black"/>
<path d="M24.3828 410.995C24.3828 410.995 26.3841 422.352 26.8341 423.714L28.1604 422.707L24.3828 410.995Z" fill="black"/>
<path d="M241.663 448.239L255.98 498.248C256.089 498.63 256.339 498.957 256.68 499.162C257.021 499.367 257.427 499.434 257.816 499.349L314.859 487.223C314.859 487.223 312.574 479.869 309.092 478.377L260.658 488.715L241.663 448.239Z" fill="black"/>
<path d="M214.047 408.461L209.772 409.254C210.716 414.008 211.251 418.833 211.371 423.678C211.265 429.599 210.578 438.197 210.578 438.197L212.662 438.599L214.047 408.461Z" fill="black"/>
<path d="M150.17 392.699H145.658V395.257H150.17V392.699Z" fill="black"/>
<path d="M150.608 421.736H145.113V424.791H150.608V421.736Z" fill="black"/>
<path d="M150.36 408.674H144.865V411.729H150.36V408.674Z" fill="black"/>
<path d="M183.637 516.035C183.637 516.189 183.956 525.568 183.956 525.568C185.015 523.719 186.759 522.362 188.812 521.79C192.589 520.452 194.614 519.552 194.614 519.552L183.637 516.035Z" fill="black"/>
<path d="M180.972 514.697L182.097 530.257L184.441 525.568L183.423 515.549L180.972 514.697Z" fill="black"/>
<path d="M186.834 489.378L187.213 487.993L190.884 490.503L186.834 489.378Z" fill="black"/>
<path d="M184.654 537.564C184.654 537.564 182.677 543.366 190.943 548.222C199.208 553.077 231.715 561.248 234.96 561.177L234.806 560.265C234.806 560.265 219.506 556.002 210.34 552.639C201.174 549.276 194.945 544.491 190.943 541.981C188.724 540.692 186.62 539.214 184.654 537.564Z" fill="black"/>
<path d="M188.433 563.356L188.598 567.512L211.513 575.719L211.773 572.261L188.433 563.356Z" fill="black"/>
<path d="M178.899 557.494L178.626 561.118C178.612 561.317 178.664 561.515 178.776 561.68C178.888 561.846 179.052 561.969 179.242 562.029L189.663 565.487L189.77 563.569L186.3 561.923L185.554 558.56L178.899 557.494Z" fill="black"/>
<path d="M116.243 645.291H216.866L217.375 648.489H114.064L116.243 645.291Z" fill="black"/>
<path d="M39.8372 761.439C39.8372 761.439 47.4517 751.74 49.5359 746.802C51.6201 741.864 61.378 716.853 71.0767 704.881C80.7754 692.908 91.2083 677.064 100.587 666.654C109.966 656.245 121.418 637.854 121.418 637.854C121.418 637.854 131.685 644.403 125.835 664.653C120.458 683.293 86.3412 707.001 71.9293 725.415C60.7149 739.697 50.8149 758.727 50.8149 758.727C50.8149 758.727 42.8688 799.57 7.55566 808.381L7.86356 789.765C7.86356 789.765 22.0741 780.623 27.4149 775.898C31.9267 771.943 39.8372 761.439 39.8372 761.439Z" fill="black"/>
<path d="M217.978 651.058C217.978 651.058 210.967 653.427 210.943 664.618C210.943 680.415 235.539 710.932 247.654 754.049C249.916 762.09 253.575 774.181 253.575 774.181C253.575 774.181 251.147 759.97 250.579 753.078C249.712 743.45 247.651 733.967 244.445 724.847C240.774 714.662 217.978 651.058 217.978 651.058Z" fill="black"/>
<path d="M39.1631 560.111C39.1631 560.111 65.2157 582.812 100.908 582.611C100.908 582.611 72.7591 566.802 61.7223 559.235C50.6855 551.668 42.7157 544.929 42.7157 544.929L39.1631 560.111Z" fill="black"/>
<path d="M266.531 598.231C266.531 598.231 259.331 620.482 237.293 619.037C237.466 612.945 238.32 606.892 239.839 600.99C241.119 595.474 243.21 590.178 246.044 585.276C246.044 585.276 253.907 593.802 257.673 595.235C260.127 596.132 262.702 596.655 265.311 596.786L266.531 598.231Z" fill="black"/>
<path d="M125.87 165.698C125.87 165.698 123.785 191.964 114.951 207.844L102.304 209.289C102.304 209.289 117.023 188.162 120.422 178.973C123.821 169.783 125.87 165.698 125.87 165.698Z" fill="black"/>
<path d="M85.3467 208.578C85.3467 208.578 87.9283 218.715 98.9414 213.469C107.716 209.301 111.222 195.978 111.222 195.978H110.878C110.878 195.978 102.731 205.854 98.373 207.891C95.3961 209.281 92.1798 210.085 88.8993 210.26C87.7151 210.272 85.3467 208.578 85.3467 208.578Z" fill="black"/>
<path d="M158.447 164.881C158.447 164.881 184.903 178.535 193.831 192.674C202.5 206.399 212.779 209.111 219.825 201.343L219.292 190.685C219.292 190.685 216.035 197.908 208.634 196.997C201.233 196.085 194.021 185.083 194.021 185.083C194.021 185.083 181.196 175.704 174.517 171.726C169.939 169.073 165.192 166.724 160.306 164.691L158.447 164.881Z" fill="black"/>
<path d="M76.8086 195.339C77.3976 196.416 78.2741 197.308 79.3405 197.917C80.4068 198.525 81.6211 198.826 82.8481 198.785L83.2152 194.226L76.927 192.129L76.8086 195.339Z" fill="black"/>
<path d="M158.897 373.633C158.897 373.633 177.063 371.336 187.094 367.997C197.124 364.657 200.866 362.147 200.866 362.147L200.451 373.847L158.897 373.633Z" fill="black"/>
<path d="M94.9972 362.987L94.7959 365.285L97.9222 364.029L94.9972 362.987Z" fill="black"/>
<path d="M106.283 367.997L105.655 374.048L136.978 373.42C136.978 373.42 115.259 370.708 112.583 369.453C110.573 368.639 108.446 368.148 106.283 367.997Z" fill="black"/>
<path d="M77.9102 252.832L78.4904 300.141L82.2562 298.104L77.9102 252.832Z" fill="black"/>
<path d="M217.209 251.968V300.141L213.443 298.104L217.209 251.968Z" fill="black"/>
<path d="M142.389 129.52C143.103 131.17 144.272 132.583 145.758 133.594C147.245 134.605 148.989 135.171 150.785 135.228C172.61 135.951 181.753 138.781 194.4 142.76C196.2 143.328 198.047 143.944 200.001 144.501C211.938 148.124 234.545 170.387 239.803 174.686C241.748 176.28 244.247 177.036 246.75 176.787C249.253 176.538 251.555 175.305 253.149 173.36C254.743 171.414 255.498 168.915 255.25 166.412C255.001 163.909 253.768 161.608 251.822 160.014C250.934 159.291 225.095 133.701 205.508 126.347C203.66 125.648 201.813 125.162 200.06 124.665C187.034 120.591 175.808 117.074 151.401 116.269C150.155 116.226 148.913 116.43 147.745 116.869C146.578 117.307 145.509 117.972 144.599 118.824C143.689 119.677 142.957 120.701 142.443 121.837C141.93 122.974 141.646 124.2 141.608 125.447C141.561 126.846 141.828 128.238 142.389 129.52Z" fill="url(#paint0_linear_2158_473)" stroke="black" stroke-width="1.6" stroke-linecap="round" stroke-linejoin="round"/>
<path d="M148.974 145.578C151.282 145.579 153.511 144.737 155.242 143.211C156.974 141.684 158.088 139.579 158.377 137.289C160.403 123.56 163.378 109.988 167.282 96.6703C173.878 73.886 193.856 58.136 194.057 57.9703C195.078 57.2222 195.939 56.2771 196.589 55.1907C197.239 54.1044 197.664 52.8988 197.84 51.6453C198.016 50.3917 197.939 49.1156 197.614 47.8923C197.288 46.669 196.721 45.5233 195.946 44.5229C195.17 43.5226 194.202 42.6877 193.098 42.0678C191.994 41.4479 190.778 41.0555 189.52 40.9137C188.262 40.7719 186.988 40.8836 185.774 41.2423C184.56 41.6009 183.431 42.1992 182.452 43.0018C181.433 43.7953 157.382 62.7663 149.093 91.3887C144.91 105.649 141.744 120.188 139.619 134.897C139.453 136.137 139.534 137.398 139.858 138.606C140.182 139.815 140.742 140.948 141.507 141.939C142.271 142.93 143.224 143.759 144.31 144.38C145.397 145.001 146.596 145.4 147.837 145.554C148.215 145.588 148.595 145.596 148.974 145.578Z" fill="url(#paint1_linear_2158_473)" stroke="black" stroke-width="1.6" stroke-linecap="round" stroke-linejoin="round"/>
<path d="M143.835 45.8913C143.835 45.8913 155.677 98.9084 153.202 134.541L143.835 45.8913Z" fill="white"/>
<path d="M143.835 45.8913C143.835 45.8913 155.677 98.9084 153.202 134.541" stroke="black" stroke-width="1.6" stroke-linecap="round" stroke-linejoin="round"/>
<path d="M152.705 144.039H152.527C151.285 143.952 150.072 143.62 148.958 143.064C147.844 142.508 146.851 141.738 146.035 140.798C145.219 139.857 144.596 138.765 144.202 137.584C143.808 136.403 143.651 135.156 143.74 133.914C146.108 100.069 134.693 48.5321 134.586 48.0229C134.035 45.57 134.481 42.9986 135.825 40.8744C137.17 38.7501 139.304 37.2471 141.757 36.6959C144.209 36.1447 146.781 36.5905 148.905 37.9352C151.029 39.2799 152.532 41.4134 153.083 43.8663C153.593 46.0808 165.269 98.6597 162.664 135.252C162.487 137.73 161.345 140.039 159.482 141.683C157.619 143.326 155.185 144.172 152.705 144.039Z" fill="url(#paint2_linear_2158_473)" stroke="black" stroke-width="1.6" stroke-linecap="round" stroke-linejoin="round"/>
<path d="M156.399 139.018C158.069 139.682 159.893 139.857 161.658 139.524C163.424 139.19 165.058 138.362 166.37 137.135C182.369 122.226 190.86 117.797 202.584 111.662L207.782 108.939C218.795 103.018 238.749 100.057 245.511 99.3939C248.014 99.149 250.318 97.9196 251.914 95.9764C253.511 94.0332 254.271 91.5353 254.026 89.0321C253.781 86.5289 252.551 84.2256 250.608 82.6289C248.665 81.0321 246.167 80.2726 243.664 80.5176C242.48 80.6242 215.48 83.3479 198.865 92.1939L193.809 94.8466C181.73 101.158 171.309 106.606 153.439 123.268C152.528 124.118 151.793 125.139 151.278 126.273C150.762 127.407 150.475 128.632 150.433 129.877C150.391 131.122 150.595 132.363 151.034 133.529C151.473 134.696 152.137 135.764 152.989 136.673C153.933 137.703 155.1 138.504 156.399 139.018Z" fill="url(#paint3_linear_2158_473)" stroke="black" stroke-width="1.6" stroke-linecap="round" stroke-linejoin="round"/>
<path d="M147.66 153.276C149.449 153.191 151.178 152.601 152.645 151.574C154.112 150.547 155.258 149.125 155.95 147.473C164.393 127.341 170.326 119.81 178.533 109.412C179.717 107.92 180.901 106.404 182.145 104.794C189.795 94.9295 206.764 84.011 212.662 80.636C213.743 80.014 214.692 79.185 215.453 78.1964C216.214 77.2078 216.773 76.0789 217.098 74.8743C217.423 73.6696 217.508 72.4127 217.347 71.1754C217.186 69.9381 216.783 68.7446 216.161 67.663C215.539 66.5814 214.71 65.6329 213.721 64.8717C212.733 64.1105 211.604 63.5515 210.399 63.2265C209.195 62.9016 207.938 62.8171 206.701 62.9779C205.463 63.1387 204.27 63.5416 203.188 64.1637C202.193 64.7321 178.639 78.3031 167.105 93.1768C165.921 94.74 164.737 96.2202 163.553 97.665C155.109 108.323 147.826 117.619 138.376 140.131C137.755 141.605 137.516 143.213 137.684 144.804C137.852 146.395 138.419 147.918 139.335 149.231C140.25 150.543 141.482 151.602 142.918 152.31C144.353 153.017 145.944 153.349 147.542 153.276H147.66Z" fill="url(#paint4_linear_2158_473)" stroke="black" stroke-width="1.6" stroke-linecap="round" stroke-linejoin="round"/>
<path d="M251.516 162.086C253.285 162.089 255.02 161.596 256.524 160.664C258.028 159.731 259.24 158.396 260.024 156.809C260.808 155.223 261.132 153.449 260.96 151.688C260.787 149.927 260.124 148.249 259.047 146.845C255.968 142.807 228.139 107.411 199.837 107.411C170.101 107.411 142.213 133.31 141.041 134.411C139.206 136.138 138.133 138.524 138.058 141.042C137.982 143.561 138.911 146.006 140.638 147.84C142.365 149.674 144.751 150.747 147.269 150.823C149.787 150.898 152.233 149.97 154.067 148.243C154.363 147.958 177.751 126.382 199.884 126.382C216.001 126.382 237.696 150.066 244.031 158.356C244.91 159.509 246.042 160.445 247.34 161.091C248.637 161.738 250.066 162.078 251.516 162.086Z" fill="url(#paint5_linear_2158_473)" stroke="black" stroke-width="1.6" stroke-linecap="round" stroke-linejoin="round"/>
<path d="M155.24 373.989H106.367" stroke="black" stroke-width="1.6" stroke-linecap="round" stroke-linejoin="round"/>
<path d="M139.595 373.989H199.433" stroke="black" stroke-width="1.6" stroke-linecap="round" stroke-linejoin="round"/>
<path d="M247.121 253.673C245.463 252.939 205.923 235.685 148.015 235.685C90.1068 235.685 50.5542 252.986 48.8963 253.673C48.5542 253.828 48.246 254.05 47.9895 254.324C47.7329 254.599 47.5329 254.921 47.401 255.273C47.269 255.625 47.2076 256 47.2204 256.375C47.2331 256.751 47.3197 257.12 47.4753 257.462C47.6308 257.804 47.8521 258.113 48.1268 258.369C48.4014 258.626 48.7238 258.826 49.0757 258.958C49.4276 259.09 49.802 259.151 50.1776 259.138C50.5532 259.126 50.9226 259.039 51.2647 258.883C51.6555 258.706 91.4332 241.369 148.074 241.369C204.715 241.369 244.481 258.706 244.871 258.883C245.245 259.046 245.648 259.126 246.056 259.12C246.713 259.132 247.354 258.915 247.869 258.507C248.384 258.099 248.742 257.525 248.882 256.882C249.022 256.24 248.934 255.569 248.635 254.984C248.335 254.399 247.842 253.935 247.24 253.673H247.121Z" stroke="black" stroke-width="1.6" stroke-linecap="round" stroke-linejoin="round"/>
<path d="M48.8965 253.673L75.7662 214.523" stroke="black" stroke-width="1.6" stroke-linecap="round" stroke-linejoin="round"/>
<path d="M83.3219 203.498C82.5759 202.752 84.068 185.533 86.318 173.549C86.318 173.549 115.414 164.336 147.98 164.336" stroke="black" stroke-width="1.6" stroke-linecap="round" stroke-linejoin="round"/>
<path d="M62.2779 233.92C56.0371 228.52 49.2516 225.702 42.1464 228.579C18.1898 238.326 36.9003 326.679 82.2082 298.223" stroke="black" stroke-width="1.6" stroke-linecap="round" stroke-linejoin="round"/>
<path d="M78.3833 253.448C77.9333 252.465 77.9451 252.891 76.3701 250.558" stroke="black" stroke-width="1.6" stroke-linecap="round" stroke-linejoin="round"/>
<path d="M80.7287 281.052C80.7287 281.052 74.334 260.624 58.1104 261.856" stroke="black" stroke-width="1.6" stroke-linecap="round" stroke-linejoin="round"/>
<path d="M74.3328 270.228C74.3328 270.228 65.4631 269.482 59.0684 275.889" stroke="black" stroke-width="1.6" stroke-linecap="round" stroke-linejoin="round"/>
<path d="M233.658 233.506C239.899 228.118 246.4 225.749 253.505 228.579C277.474 238.326 258.751 326.679 213.443 298.223" stroke="black" stroke-width="1.6" stroke-linecap="round" stroke-linejoin="round"/>
<path d="M216.202 254.668C216.734 253.078 217.658 251.648 218.89 250.511" stroke="black" stroke-width="1.6" stroke-linecap="round" stroke-linejoin="round"/>
<path d="M214.888 280.697C214.888 280.697 220.714 260.565 236.961 261.856" stroke="black" stroke-width="1.6" stroke-linecap="round" stroke-linejoin="round"/>
<path d="M220.714 270.228C220.714 270.228 229.572 269.482 235.978 275.889" stroke="black" stroke-width="1.6" stroke-linecap="round" stroke-linejoin="round"/>
<path d="M166.761 242.423L164.321 285.706C164.261 286.751 163.802 287.733 163.041 288.451C162.279 289.169 161.271 289.568 160.224 289.566H135.438C134.391 289.568 133.384 289.169 132.622 288.451C131.86 287.733 131.401 286.751 131.341 285.706L128.89 242.115" stroke="black" stroke-width="1.6" stroke-linecap="round" stroke-linejoin="round"/>
<path d="M146.736 289.697C146.736 289.697 142.816 306.465 156.139 305.837" stroke="black" stroke-width="1.6" stroke-linecap="round" stroke-linejoin="round"/>
<path d="M165.873 302.095C165.411 302.095 135.498 314.624 135.498 314.624" stroke="black" stroke-width="1.6" stroke-linecap="round" stroke-linejoin="round"/>
<path d="M162.225 309.662C158.151 311.332 152.218 313.795 147.091 315.927" stroke="black" stroke-width="1.6" stroke-linecap="round" stroke-linejoin="round"/>
<path d="M123.75 242.743C123.264 247.208 121.315 251.387 118.206 254.63C115.098 257.873 111.005 259.997 106.565 260.673C102.124 261.348 97.5847 260.537 93.6529 258.365C89.7212 256.193 86.6176 252.782 84.8252 248.664" stroke="black" stroke-width="1.6" stroke-linecap="round" stroke-linejoin="round"/>
<path d="M112.643 244.472C112.446 246.394 111.617 248.197 110.287 249.599C108.956 251 107.199 251.921 105.289 252.217C103.38 252.514 101.425 252.169 99.7327 251.237C98.0399 250.304 96.7039 248.837 95.9336 247.065" stroke="black" stroke-width="1.6" stroke-linecap="round" stroke-linejoin="round"/>
<path d="M171.912 242.743C172.399 247.208 174.348 251.387 177.456 254.63C180.564 257.873 184.657 259.997 189.098 260.673C193.538 261.348 198.078 260.537 202.009 258.365C205.941 256.193 209.045 252.782 210.837 248.664" stroke="black" stroke-width="1.6" stroke-linecap="round" stroke-linejoin="round"/>
<path d="M183.021 244.472C183.217 246.394 184.046 248.197 185.376 249.599C186.707 251 188.464 251.921 190.374 252.217C192.284 252.514 194.238 252.169 195.931 251.237C197.623 250.304 198.959 248.837 199.73 247.065" stroke="black" stroke-width="1.6" stroke-linecap="round" stroke-linejoin="round"/>
<path d="M150.254 117.785C149.771 119.517 148.806 121.076 147.47 122.279C146.134 123.483 144.483 124.282 142.711 124.582C121.17 128.229 112.501 132.303 100.505 137.928C98.8 138.733 97.0355 139.562 95.1881 140.403C83.8552 145.614 69.3605 159.658 64.7302 164.632C63.0186 166.474 60.6452 167.561 58.1324 167.653C55.6195 167.745 53.1729 166.835 51.3309 165.124C49.4889 163.412 48.4023 161.039 48.3101 158.526C48.2179 156.013 49.1278 153.566 50.8395 151.724C51.621 150.883 70.1776 131.024 87.2776 123.173L92.4526 120.804C104.792 115.014 115.45 110.016 139.525 105.931C141.095 105.663 142.708 105.796 144.213 106.316C145.718 106.837 147.068 107.729 148.138 108.909C149.207 110.089 149.962 111.52 150.332 113.07C150.702 114.619 150.675 116.237 150.254 117.773V117.785Z" fill="url(#paint6_linear_2158_473)" stroke="black" stroke-width="1.6" stroke-linecap="round" stroke-linejoin="round"/>
<path d="M146.062 145.578C143.756 145.576 141.529 144.733 139.801 143.207C138.072 141.681 136.959 139.577 136.671 137.289C134.638 123.561 131.662 109.989 127.765 96.6702C121.169 73.886 101.18 58.136 100.979 57.9702C99.0703 56.4055 97.8478 54.1579 97.5714 51.7056C97.2949 49.2533 97.9863 46.7899 99.4984 44.8396C101.011 42.8892 103.224 41.6059 105.668 41.2627C108.112 40.9195 110.593 41.5435 112.584 43.0018C113.614 43.7952 137.654 62.7663 145.943 91.3887C150.122 105.65 153.288 120.189 155.417 134.897C155.583 136.137 155.501 137.398 155.177 138.606C154.853 139.815 154.293 140.948 153.529 141.939C152.765 142.93 151.812 143.759 150.725 144.38C149.639 145.001 148.44 145.4 147.198 145.554C146.82 145.588 146.441 145.596 146.062 145.578Z" fill="url(#paint7_linear_2158_473)" stroke="black" stroke-width="1.6" stroke-linecap="round" stroke-linejoin="round"/>
<path d="M136.516 140.273C134.846 140.935 133.021 141.109 131.256 140.773C129.49 140.438 127.856 139.607 126.545 138.378C110.582 123.481 102.091 119.04 90.3438 112.918C88.6623 112.041 86.9452 111.141 85.1452 110.182C74.132 104.261 54.1781 101.312 47.4162 100.708C46.1721 100.587 44.9641 100.222 43.8611 99.6338C42.7581 99.0456 41.7818 98.246 40.9878 97.2805C40.1939 96.315 39.5979 95.2026 39.2339 94.0068C38.8698 92.811 38.7449 91.5551 38.8662 90.311C38.9875 89.0669 39.3527 87.8589 39.9408 86.7559C40.529 85.6529 41.3286 84.6766 42.2941 83.8827C44.244 82.2792 46.751 81.5161 49.2636 81.761C50.4478 81.8795 77.4478 84.6031 94.0623 93.4492L99.1188 96.1018C111.198 102.402 121.619 107.849 139.489 124.523C140.4 125.373 141.134 126.394 141.65 127.528C142.166 128.662 142.452 129.887 142.494 131.132C142.536 132.377 142.332 133.619 141.893 134.785C141.455 135.951 140.791 137.019 139.939 137.928C138.982 138.949 137.814 139.75 136.516 140.273Z" fill="url(#paint8_linear_2158_473)" stroke="black" stroke-width="1.6" stroke-linecap="round" stroke-linejoin="round"/>
<path d="M147.387 153.276C145.598 153.191 143.87 152.601 142.403 151.574C140.936 150.547 139.79 149.125 139.098 147.473C130.642 127.341 124.709 119.81 116.503 109.412C115.319 107.92 114.134 106.404 112.95 104.794C105.3 94.9295 88.3306 84.011 82.445 80.636C80.2607 79.3797 78.6648 77.3072 78.0086 74.8743C77.3523 72.4414 77.6894 69.8474 78.9457 67.663C80.202 65.4786 82.2746 63.8828 84.7075 63.2265C87.1404 62.5703 89.7343 62.9074 91.9187 64.1637C92.9135 64.7321 116.467 78.3031 128.002 93.1768C129.186 94.74 130.37 96.2202 131.554 97.665C139.998 108.323 147.292 117.619 156.742 140.131C157.227 141.28 157.479 142.513 157.486 143.76C157.493 145.007 157.253 146.243 156.781 147.397C156.309 148.551 155.614 149.6 154.736 150.485C153.857 151.37 152.813 152.073 151.662 152.553C150.314 153.126 148.849 153.374 147.387 153.276Z" fill="url(#paint9_linear_2158_473)" stroke="black" stroke-width="1.6" stroke-linecap="round" stroke-linejoin="round"/>
<path d="M19.1969 517.929C19.1969 517.929 10.4337 471.153 1.26792 460.294C1.26792 460.294 -4.99656 449.02 8.78765 437.794C20.0377 428.581 53.7877 405.714 65.535 396.726C66.089 396.31 66.7308 396.028 67.411 395.9C68.0912 395.772 68.7918 395.802 69.4587 395.987C70.1256 396.172 70.7411 396.508 71.2578 396.969C71.7745 397.43 72.1786 398.003 72.439 398.644C73.8218 401.861 74.5181 405.33 74.4835 408.832C74.4488 412.333 73.6839 415.788 72.2377 418.977" stroke="black" stroke-width="1.6" stroke-linecap="round" stroke-linejoin="round"/>
<path d="M47.6064 516.674C47.6064 515.774 49.3117 496.081 50.2828 484.937C50.7086 480.119 53.0195 475.663 56.713 472.539L113.555 424.46C114.306 423.827 115.273 423.512 116.253 423.581C117.232 423.649 118.146 424.096 118.801 424.827C123.005 429.564 129.53 440.47 117.795 455.285C108.083 467.49 97.1473 478.668 85.1578 488.644" stroke="black" stroke-width="1.6" stroke-linecap="round" stroke-linejoin="round"/>
<path d="M71.8232 524.608L77.4246 497.372C77.7626 495.719 78.471 494.164 79.4966 492.825C80.5222 491.485 81.8382 490.396 83.3456 489.639L122.851 469.697C123.373 469.43 123.946 469.278 124.531 469.25C125.116 469.223 125.701 469.321 126.246 469.537C126.79 469.753 127.283 470.083 127.69 470.505C128.097 470.926 128.409 471.43 128.606 471.982C131.235 479.301 132.348 495.287 103.146 511.274" stroke="black" stroke-width="1.6" stroke-linecap="round" stroke-linejoin="round"/>
<path d="M101.925 501.67C101.925 501.67 106.106 516.295 98.5859 525.058" stroke="black" stroke-width="1.6" stroke-linecap="round" stroke-linejoin="round"/>
<path d="M100.067 523.46C100.067 523.46 125.278 550.507 101.061 581.829C101.061 581.829 93.6363 580.645 68.8981 563.865C44.16 547.085 30.8731 533.383 30.8731 533.383L29.4521 532.022C23.7205 526.503 18.4626 521.707 18.7942 513.749L22.3468 464.889C22.5279 462.399 23.2385 459.976 24.4312 457.783C25.6238 455.589 27.271 453.676 29.2626 452.17C46.0073 439.511 91.1139 405.276 104.946 393.422C105.402 393.03 105.934 392.736 106.508 392.558C107.083 392.379 107.687 392.32 108.285 392.385C108.883 392.449 109.462 392.635 109.985 392.932C110.509 393.228 110.966 393.629 111.328 394.108C115.461 399.603 122.424 415.507 110.523 426.887" stroke="black" stroke-width="1.6" stroke-linecap="round" stroke-linejoin="round"/>
<path d="M36.2968 169.594C34.5273 169.597 32.7923 169.104 31.2885 168.172C29.7846 167.239 28.572 165.904 27.7881 164.317C27.0041 162.731 26.6801 160.957 26.8529 159.196C27.0256 157.435 27.688 155.757 28.7653 154.353C31.8442 150.315 66.9087 107.411 95.2113 107.411C124.947 107.411 152.847 133.31 154.019 134.411C155.853 136.138 156.926 138.524 157.002 141.042C157.077 143.561 156.149 146.006 154.422 147.84C152.694 149.674 150.309 150.747 147.791 150.823C145.272 150.898 142.827 149.97 140.993 148.243C140.697 147.958 117.309 126.382 95.1758 126.382C79.0587 126.382 50.1758 157.562 43.8047 165.864C42.9234 167.02 41.7878 167.958 40.4859 168.604C39.1839 169.251 37.7506 169.59 36.2968 169.594Z" fill="url(#paint10_linear_2158_473)" stroke="black" stroke-width="1.6" stroke-linecap="round" stroke-linejoin="round"/>
<path d="M101.712 615.26C106.258 611.632 109.537 606.657 111.079 601.049C111.079 601.049 116.929 579.733 111.493 558.868" stroke="black" stroke-width="1.6" stroke-linecap="round" stroke-linejoin="round"/>
<path d="M43.0109 545.072L37.2557 566.387C35.9102 570.862 35.6785 575.598 36.5807 580.183" stroke="black" stroke-width="1.6" stroke-linecap="round" stroke-linejoin="round"/>
<path d="M169.26 438.291C163.303 441.391 157.09 443.974 150.691 446.012" stroke="black" stroke-width="1.6" stroke-linecap="round" stroke-linejoin="round"/>
<path d="M199.434 373.989H203.247C203.247 373.989 207.984 394.333 204.053 415.566C202.253 425.206 187.616 431.328 174.353 436.124" stroke="black" stroke-width="1.6" stroke-linecap="round" stroke-linejoin="round"/>
<path d="M124.959 437.806C131.547 440.917 138.317 443.626 145.233 445.918" stroke="black" stroke-width="1.6" stroke-linecap="round" stroke-linejoin="round"/>
<path d="M121.453 450.216L154.611 487.673C154.611 487.673 140.01 511.665 102.15 525.354" stroke="black" stroke-width="1.6" stroke-linecap="round" stroke-linejoin="round"/>
<path d="M28.7889 422.151C28.7889 422.151 19.9428 401.64 24.7626 379.933L107.574 363.118C105.284 373.066 104.411 383.288 104.981 393.481" stroke="black" stroke-width="1.6" stroke-linecap="round" stroke-linejoin="round"/>
<path d="M25.9698 423.761C25.9698 423.761 9.48558 404.458 6.27637 374.308L74.9606 357.422C74.9606 357.422 74.9606 365.06 76.1448 369.489" stroke="black" stroke-width="1.6" stroke-linecap="round" stroke-linejoin="round"/>
<path d="M18.7354 429.789C17.5275 428.178 1.44588 412.854 -9.38965 392.403L7.88798 387.169" stroke="black" stroke-width="1.6" stroke-linecap="round" stroke-linejoin="round"/>
<path d="M242.278 448.002L212.566 439.286C212.566 439.286 204.277 435.733 199.409 446.297C194.542 456.86 207.32 462.958 207.32 462.958L256.844 480.568" stroke="black" stroke-width="1.6" stroke-linecap="round" stroke-linejoin="round"/>
<path d="M207.32 462.958C204.253 463.397 184.962 456.374 184.962 456.374C184.962 456.374 173.57 453.307 169.188 464.664C164.357 477.216 180.142 483.954 195.49 491.841C210.837 499.728 259.437 512.885 259.437 512.885" stroke="black" stroke-width="1.6" stroke-linecap="round" stroke-linejoin="round"/>
<path d="M210.802 498.023C209.488 498.023 183.186 488.822 183.186 488.822C183.186 488.822 173.878 487.46 171.344 497.111C168.715 507.201 180.107 514.649 191.476 518.593C202.844 522.536 253.718 540.512 253.718 540.512" stroke="black" stroke-width="1.6" stroke-linecap="round" stroke-linejoin="round"/>
<path d="M197.847 520.89C197.847 520.89 186.644 518.19 183.636 527.841C180.628 537.493 189.782 541.424 197.231 546.244C204.68 551.064 223.094 558.086 235.374 560.277C235.374 560.277 238.051 579.651 252.51 591.126C255.565 593.505 259.062 595.253 262.799 596.27C266.535 597.286 270.436 597.55 274.276 597.047C276.582 596.814 278.839 596.227 280.967 595.306" stroke="black" stroke-width="1.6" stroke-linecap="round" stroke-linejoin="round"/>
<path d="M242.302 633.224C239.129 628.69 237.497 623.255 237.648 617.723C237.984 606.263 240.933 595.032 246.269 584.885" stroke="black" stroke-width="1.6" stroke-linecap="round" stroke-linejoin="round"/>
<path d="M238.654 605.739C214.401 624.39 217.338 647.186 217.338 647.186C226.871 686.514 246.742 720.785 250.413 749.514C254.084 778.243 251.503 790.558 282.28 824.119C296.893 840.07 311.968 833.415 321.999 828.145C330.845 823.491 340.792 816.303 343.918 804.343C355.761 759.343 344.001 750.094 340.141 721.649C337.571 702.607 339.691 672.493 341.609 652.858C342.912 639.429 340.176 613.779 330.632 604.199C324.308 597.876 314.053 598.515 314.053 598.515" stroke="black" stroke-width="1.6" stroke-linecap="round" stroke-linejoin="round"/>
<path d="M241.485 446.095L260.61 488.845L325.493 474.339C325.493 474.339 315.569 442.661 291.909 432.358L223.994 442.46" stroke="black" stroke-width="1.6" stroke-linecap="round" stroke-linejoin="round"/>
<path d="M222.384 441.394L235.801 417.094L306.013 411.374L291.897 432.358" stroke="black" stroke-width="1.6" stroke-linecap="round" stroke-linejoin="round"/>
<path d="M218.238 439.997L228.162 410.983L300.671 403.736L299.013 407.881" stroke="black" stroke-width="1.6" stroke-linecap="round" stroke-linejoin="round"/>
<path d="M212.566 439.286C212.566 439.286 217.481 401.06 210.991 388.093C210.991 388.093 265.56 381.224 278.16 372.828C281.759 383.238 282.934 394.331 281.594 405.264" stroke="black" stroke-width="1.6" stroke-linecap="round" stroke-linejoin="round"/>
<path d="M184.679 536.723L186.183 561.733L236.559 581.581L235.363 560.277" stroke="black" stroke-width="1.6" stroke-linecap="round" stroke-linejoin="round"/>
<path d="M183.506 515.549L184.122 526.006" stroke="black" stroke-width="1.6" stroke-linecap="round" stroke-linejoin="round"/>
<path d="M185.105 558.512L177.277 556.641C177.277 556.641 180.723 515.608 181.031 514.353L181.872 557.79" stroke="black" stroke-width="1.6" stroke-linecap="round" stroke-linejoin="round"/>
<path d="M180.723 516.568C180.403 518.131 162.237 558.228 162.237 558.228L211.418 575.766L212.045 572.64" stroke="black" stroke-width="1.6" stroke-linecap="round" stroke-linejoin="round"/>
<path d="M210.482 437.948C210.482 437.948 212.353 418.847 209.227 409.136L213.963 408.508" stroke="black" stroke-width="1.6" stroke-linecap="round" stroke-linejoin="round"/>
<path d="M215.077 439.416L222.171 412.689L227.18 413.103" stroke="black" stroke-width="1.6" stroke-linecap="round" stroke-linejoin="round"/>
<path d="M144.071 500.806L150.75 507.911C150.75 507.911 130.346 525.047 104.128 528.315" stroke="black" stroke-width="1.6" stroke-linecap="round" stroke-linejoin="round"/>
<path d="M220.288 440.458L231.147 414.145L300.897 407.466L299.228 411.433" stroke="black" stroke-width="1.6" stroke-linecap="round" stroke-linejoin="round"/>
<path d="M150.526 377.482H144.996V391.894H150.526V377.482Z" stroke="black" stroke-width="1.6" stroke-linecap="round" stroke-linejoin="round"/>
<path d="M150.679 382.302H155.511V421.274H140.294V382.302H145.019" stroke="black" stroke-width="1.6" stroke-linecap="round" stroke-linejoin="round"/>
<path d="M152.954 408.118H143.065V418.764H152.954V408.118Z" stroke="black" stroke-width="1.6" stroke-linecap="round" stroke-linejoin="round"/>
<path d="M151.295 385.31H152.846V393.907C152.846 397.46 151.058 399.414 147.92 399.414C144.793 399.414 142.614 397.46 142.614 393.907V385.298H144.983" stroke="black" stroke-width="1.6" stroke-linecap="round" stroke-linejoin="round"/>
<path d="M140.022 389.064C139.146 387.654 132.538 375.031 147.755 375.031" stroke="black" stroke-width="1.6" stroke-linecap="round" stroke-linejoin="round"/>
<path d="M155.712 389.064C156.589 387.654 163.197 375.031 147.979 375.031" stroke="black" stroke-width="1.6" stroke-linecap="round" stroke-linejoin="round"/>
<path d="M145.374 398.691V395.565V392.178" stroke="black" stroke-width="1.6" stroke-linecap="round" stroke-linejoin="round"/>
<path d="M145.374 418.527V413.518V408.295" stroke="black" stroke-width="1.6" stroke-linecap="round" stroke-linejoin="round"/>
<path d="M145.374 476.873V421.345" stroke="black" stroke-width="1.6" stroke-linecap="round" stroke-linejoin="round"/>
<path d="M145.374 501.812V499.314" stroke="black" stroke-width="1.6" stroke-linecap="round" stroke-linejoin="round"/>
<path d="M150.549 493.523V616.172H145.374V512.032" stroke="black" stroke-width="1.6" stroke-linecap="round" stroke-linejoin="round"/>
<path d="M150.549 421.452V482.806" stroke="black" stroke-width="1.6" stroke-linecap="round" stroke-linejoin="round"/>
<path d="M150.549 408.402V413.731V418.42" stroke="black" stroke-width="1.6" stroke-linecap="round" stroke-linejoin="round"/>
<path d="M150.549 392.012V395.873V398.798" stroke="black" stroke-width="1.6" stroke-linecap="round" stroke-linejoin="round"/>
<path d="M231.94 204.362C233.677 204.624 235.452 204.436 237.095 203.817C238.738 203.197 240.195 202.166 241.326 200.822C242.457 199.478 243.225 197.867 243.555 196.142C243.886 194.417 243.768 192.636 243.214 190.969C239.661 180.074 233.124 169.168 223.946 158.557C217.818 151.483 210.242 145.808 201.731 141.916C193.22 138.024 183.971 136.006 174.612 135.998H154.315C151.651 136.088 149.126 137.21 147.273 139.127C145.42 141.044 144.385 143.605 144.385 146.271C144.385 148.937 145.42 151.498 147.273 153.415C149.126 155.332 151.651 156.453 154.315 156.544H174.624C181.046 156.548 187.391 157.931 193.232 160.599C199.073 163.268 204.273 167.159 208.481 172.01C215.882 180.548 221.021 189.098 223.769 197.423C224.357 199.221 225.432 200.822 226.874 202.047C228.316 203.272 230.07 204.073 231.94 204.362Z" fill="url(#paint11_linear_2158_473)" stroke="black" stroke-width="1.6" stroke-linecap="round" stroke-linejoin="round"/>
<path d="M168.787 385.914C167.81 385.269 167.072 384.321 166.685 383.216C166.299 382.112 166.285 380.911 166.645 379.797C167.006 378.684 167.722 377.72 168.683 377.052C169.645 376.384 170.798 376.05 171.967 376.1C173.137 376.15 174.257 376.582 175.158 377.33C176.058 378.078 176.688 379.1 176.952 380.241C177.216 381.381 177.099 382.576 176.619 383.644C176.139 384.711 175.322 385.592 174.294 386.151" stroke="black" stroke-width="1.6" stroke-linecap="round" stroke-linejoin="round"/>
<path d="M169.426 463.231V381.698C169.426 379.602 170.492 378.974 171.794 378.974C173.097 378.974 174.163 379.602 174.163 381.698V457.949" stroke="black" stroke-width="1.6" stroke-linecap="round" stroke-linejoin="round"/>
<path d="M174.163 479.691C174.163 481.787 173.097 483.481 171.794 483.481C170.492 483.481 169.426 481.787 169.426 479.691V474.291" stroke="black" stroke-width="1.6" stroke-linecap="round" stroke-linejoin="round"/>
<path d="M210.021 197.068C211.771 197.021 213.475 196.491 214.942 195.535C216.409 194.579 217.582 193.235 218.332 191.653C219.082 190.07 219.378 188.311 219.188 186.57C218.998 184.829 218.329 183.175 217.256 181.791C216.38 180.666 195.336 153.939 158.815 144.773C156.375 144.16 153.791 144.543 151.633 145.835C149.474 147.128 147.917 149.225 147.305 151.665C146.692 154.105 147.075 156.689 148.367 158.848C149.66 161.006 151.757 162.563 154.197 163.176C184.169 170.695 202.098 193.207 202.276 193.432C203.191 194.603 204.369 195.542 205.715 196.174C207.06 196.805 208.535 197.112 210.021 197.068Z" fill="url(#paint12_linear_2158_473)" stroke="black" stroke-width="1.6" stroke-linecap="round" stroke-linejoin="round"/>
<path d="M171.817 483.481V491.143" stroke="black" stroke-width="1.6" stroke-linecap="round" stroke-linejoin="round"/>
<path d="M126.865 385.914C127.84 385.268 128.577 384.32 128.963 383.216C129.348 382.111 129.362 380.911 129 379.798C128.639 378.686 127.923 377.722 126.962 377.055C126.001 376.387 124.848 376.053 123.68 376.103C122.511 376.154 121.391 376.585 120.491 377.332C119.591 378.08 118.96 379.101 118.695 380.24C118.431 381.38 118.547 382.575 119.026 383.642C119.504 384.709 120.32 385.591 121.347 386.151" stroke="black" stroke-width="1.6" stroke-linecap="round" stroke-linejoin="round"/>
<path d="M126.203 455.569V381.698C126.203 379.602 125.137 378.974 123.834 378.974C122.532 378.974 121.466 379.602 121.466 381.698V428.249" stroke="black" stroke-width="1.6" stroke-linecap="round" stroke-linejoin="round"/>
<path d="M129.068 310.029C129.068 310.029 135.262 312.031 137.891 320.391" stroke="black" stroke-width="1.6" stroke-linecap="round" stroke-linejoin="round"/>
<path d="M12.8026 489.757C12.8026 489.757 -4.49875 611.873 -26.5724 648.512C-48.6461 685.152 -49.2856 747.536 -47.3908 764.565" stroke="black" stroke-width="1.6" stroke-linecap="round" stroke-linejoin="round"/>
<path d="M205.461 411.765L210.281 414.429" stroke="black" stroke-width="1.6" stroke-linecap="round" stroke-linejoin="round"/>
<path d="M84.364 194.237C82.607 194.346 80.8546 193.962 79.3033 193.13C77.7521 192.298 76.4633 191.05 75.5816 189.527C74.6999 188.003 74.2602 186.264 74.3117 184.504C74.3632 182.745 74.9039 181.034 75.8732 179.565C76.6548 178.381 95.4364 149.96 131.081 137.857C133.471 137.044 136.087 137.213 138.352 138.328C140.617 139.443 142.347 141.412 143.16 143.802C143.974 146.192 143.804 148.807 142.689 151.073C141.574 153.338 139.605 155.067 137.215 155.881C107.965 165.84 91.943 189.749 91.789 189.986C90.9717 191.227 89.8737 192.259 88.5838 192.998C87.2939 193.736 85.8484 194.161 84.364 194.237Z" fill="url(#paint13_linear_2158_473)" stroke="black" stroke-width="1.6" stroke-linecap="round" stroke-linejoin="round"/>
<path d="M55.5164 205.476C53.7648 205.586 52.014 205.246 50.4314 204.487C48.8487 203.728 47.487 202.577 46.4762 201.142C45.4654 199.707 44.8393 198.037 44.6577 196.291C44.476 194.546 44.745 192.782 45.4388 191.17C49.9624 180.619 62.0177 160.807 72.048 151.026C78.757 144.502 86.7895 139.497 95.6015 136.348C104.414 133.2 113.799 131.982 123.123 132.777L143.373 134.482C146.023 134.792 148.448 136.12 150.137 138.185C151.826 140.251 152.645 142.892 152.422 145.55C152.199 148.209 150.951 150.677 148.942 152.432C146.933 154.187 144.32 155.093 141.656 154.957L121.418 153.252C115.019 152.706 108.579 153.542 102.531 155.701C96.4836 157.861 90.9706 161.294 86.3651 165.769C78.2414 173.644 67.7493 191.218 64.3032 199.27C63.558 201.018 62.3416 202.523 60.7899 203.619C59.2382 204.715 57.4124 205.358 55.5164 205.476Z" fill="url(#paint14_linear_2158_473)" stroke="black" stroke-width="1.6" stroke-linecap="round" stroke-linejoin="round"/>
<path d="M128.7 620.47H224.361" stroke="black" stroke-width="1.6" stroke-linecap="round" stroke-linejoin="round"/>
<path d="M116.444 644.723H216.688" stroke="black" stroke-width="1.6" stroke-linecap="round" stroke-linejoin="round"/>
<path d="M150.561 616.172H145.374V620.103H150.561V616.172Z" stroke="black" stroke-width="1.6" stroke-linecap="round" stroke-linejoin="round"/>
<path d="M22.3584 581.143C25.2267 579.879 28.3521 579.31 31.4816 579.48C34.6111 579.65 37.6565 580.554 40.3712 582.12C43.086 583.686 45.3936 585.87 47.1072 588.494C48.8209 591.118 49.8923 594.109 50.2347 597.224C50.4879 599.308 50.3228 601.422 49.7492 603.441" stroke="black" stroke-width="1.6" stroke-linecap="round" stroke-linejoin="round"/>
<path d="M41.8857 609.433C44.7925 605.867 48.842 603.414 53.3491 602.489C57.8563 601.564 62.5446 602.224 66.6211 604.358C70.6976 606.491 73.912 609.968 75.7208 614.198C77.5295 618.429 77.8216 623.154 76.5476 627.576" stroke="black" stroke-width="1.6" stroke-linecap="round" stroke-linejoin="round"/>
<path d="M77.3896 619.487C79.4277 617.319 81.9245 615.633 84.6977 614.553C87.4708 613.473 90.4503 613.026 93.4183 613.245C96.3863 613.464 99.2678 614.343 101.852 615.819C104.437 617.294 106.659 619.328 108.357 621.773" stroke="black" stroke-width="1.6" stroke-linecap="round" stroke-linejoin="round"/>
<path d="M109.269 606.52C110.628 606.498 111.972 606.81 113.182 607.43C114.392 608.049 115.431 608.957 116.208 610.073" stroke="black" stroke-width="1.6" stroke-linecap="round" stroke-linejoin="round"/>
<path d="M30.0557 571.787C32.1111 571.751 34.101 572.511 35.6096 573.907" stroke="black" stroke-width="1.6" stroke-linecap="round" stroke-linejoin="round"/>
<path d="M227.973 643.041C229.552 640.34 231.745 638.049 234.373 636.351C237.001 634.653 239.992 633.597 243.104 633.267C246.215 632.938 249.361 633.344 252.286 634.454C255.212 635.563 257.836 637.345 259.946 639.654C261.376 641.191 262.484 642.999 263.203 644.972" stroke="black" stroke-width="1.6" stroke-linecap="round" stroke-linejoin="round"/>
<path d="M260.373 654.433C260.625 649.837 262.458 645.468 265.561 642.068C268.665 638.667 272.848 636.444 277.402 635.774C281.957 635.103 286.603 636.028 290.555 638.39C294.506 640.753 297.519 644.408 299.085 648.737" stroke="black" stroke-width="1.6" stroke-linecap="round" stroke-linejoin="round"/>
<path d="M295.035 641.703C295.407 638.751 296.435 635.919 298.042 633.416C299.65 630.912 301.796 628.799 304.325 627.231C306.854 625.663 309.702 624.681 312.659 624.355C315.617 624.03 318.61 624.369 321.419 625.349" stroke="black" stroke-width="1.6" stroke-linecap="round" stroke-linejoin="round"/>
<path d="M316.268 613.353C317.44 612.665 318.762 612.273 320.12 612.211C321.477 612.149 322.83 612.419 324.06 612.998" stroke="black" stroke-width="1.6" stroke-linecap="round" stroke-linejoin="round"/>
<path d="M230.732 626.794C231.609 625.756 232.728 624.95 233.99 624.446C235.251 623.942 236.617 623.756 237.968 623.904" stroke="black" stroke-width="1.6" stroke-linecap="round" stroke-linejoin="round"/>
<path d="M-47.829 758.419C-47.8387 763.474 -46.8522 768.481 -44.926 773.154C-42.9997 777.828 -40.1714 782.076 -36.6027 785.656C-28.6093 793.649 -16.329 803.952 2.07357 793.306C41.5197 770.474 48.021 749.324 60.0999 723.011C71.2197 698.853 100.363 668.881 121.193 637.31C126.546 629.309 129.327 619.864 129.163 610.239C128.95 600.765 125.61 590.699 113.437 588.769" stroke="black" stroke-width="1.6" stroke-linecap="round" stroke-linejoin="round"/>
<path d="M37.0784 565.179C31.9982 563.486 26.4205 567.548 23.2587 569.691C4.87978 582.386 1.94294 604.329 1.52846 606.177C-2.60443 625.432 -9.33075 652.929 -17.1347 669.532C-20.6874 677.076 -24.761 683.814 -28.7637 690.718" stroke="black" stroke-width="1.6" stroke-linecap="round" stroke-linejoin="round"/>
<path d="M314.195 522.56C314.195 522.56 332.255 572.297 338.732 620.506" stroke="black" stroke-width="1.6" stroke-linecap="round" stroke-linejoin="round"/>
<path d="M266.531 597.591C266.531 597.591 269.302 602.92 278.172 603.512C278.172 603.512 292.892 606.011 305.74 587.976" stroke="black" stroke-width="1.6" stroke-linecap="round" stroke-linejoin="round"/>
<path d="M303.337 576.808C303.716 577.093 311.082 575.115 313.154 591.445C315.226 607.776 316.079 623.916 316.079 623.916" stroke="black" stroke-width="1.6" stroke-linecap="round" stroke-linejoin="round"/>
<path d="M298.635 595.779C298.635 595.779 310.477 543.082 311.661 536.166C317.357 503.281 323.503 492.351 309.032 478.294" stroke="black" stroke-width="1.6" stroke-linecap="round" stroke-linejoin="round"/>
<path d="M92.1324 210.354C90.0609 210.369 88.0418 209.703 86.3843 208.461C84.7269 207.218 83.5225 205.466 82.9555 203.474C82.3885 201.481 82.4902 199.358 83.2451 197.429C84 195.5 85.3664 193.871 87.135 192.793C96.8574 186.777 104.436 173.49 107.622 162.986C111.399 150.576 122.46 149.391 132.171 149.226L148.371 148.941C153.593 148.882 156.66 151.665 156.66 156.911C156.66 162.157 153.652 163.495 148.371 163.59C148.371 163.59 130.015 163.779 129.423 163.803C126.392 163.898 125.717 165.058 125.717 165.058C125.612 165.205 125.536 165.37 125.492 165.544C121.394 179.068 111.944 199.732 97.0705 208.933C95.5868 209.853 93.8779 210.345 92.1324 210.354Z" fill="url(#paint15_linear_2158_473)" stroke="black" stroke-width="1.6" stroke-linecap="round" stroke-linejoin="round"/>
<path d="M147.802 206.222C104.839 206.222 75.7664 214.511 75.7664 214.511C75.7664 214.511 75.2927 199.424 76.5598 190.756" stroke="black" stroke-width="1.6" stroke-linecap="round" stroke-linejoin="round"/>
<path d="M247.252 253.673L220.37 214.523" stroke="black" stroke-width="1.6" stroke-linecap="round" stroke-linejoin="round"/>
<path d="M148.348 206.222C191.311 206.222 220.371 214.511 220.371 214.511C220.371 214.511 220.738 198.631 219.471 189.962" stroke="black" stroke-width="1.6" stroke-linecap="round" stroke-linejoin="round"/>
<path d="M147.979 164.336L159.17 164.514" stroke="black" stroke-width="1.6" stroke-linecap="round" stroke-linejoin="round"/>
<path d="M147.233 373.041C203.803 372.71 205.745 355.586 205.745 354.615C205.745 354.615 212.211 326.194 216.498 250.487" stroke="black" stroke-width="1.6" stroke-linecap="round" stroke-linejoin="round"/>
<path d="M98.2657 364.539C89.9762 359.944 89.4078 355.124 89.4078 354.615C89.4078 354.615 82.942 326.194 78.667 250.487" stroke="black" stroke-width="1.6" stroke-linecap="round" stroke-linejoin="round"/>
<path d="M147.92 373.041C128.191 372.923 115.319 370.59 106.639 367.783" stroke="black" stroke-width="1.6" stroke-linecap="round" stroke-linejoin="round"/>
<path d="M200.902 362.372V373.041" stroke="black" stroke-width="1.6" stroke-linecap="round" stroke-linejoin="round"/>
<path d="M94.9023 362.372V364.953" stroke="black" stroke-width="1.6" stroke-linecap="round" stroke-linejoin="round"/>
<path d="M145.694 421.795L150.147 426.248" stroke="black" stroke-width="1.6" stroke-linecap="round" stroke-linejoin="round"/>
<path d="M147.602 422.186L148.49 421.322" stroke="black" stroke-width="1.6" stroke-linecap="round" stroke-linejoin="round"/>
<path d="M145.694 414.216L149.377 417.627" stroke="black" stroke-width="1.6" stroke-linecap="round" stroke-linejoin="round"/>
<path d="M147.602 414.595L150.148 412.049" stroke="black" stroke-width="1.6" stroke-linecap="round" stroke-linejoin="round"/>
<path d="M145.694 428.439L150.147 432.891" stroke="black" stroke-width="1.6" stroke-linecap="round" stroke-linejoin="round"/>
<path d="M147.602 428.818L150.148 426.272" stroke="black" stroke-width="1.6" stroke-linecap="round" stroke-linejoin="round"/>
<path d="M145.694 435.082L150.147 439.535" stroke="black" stroke-width="1.6" stroke-linecap="round" stroke-linejoin="round"/>
<path d="M147.602 435.461L150.148 432.915" stroke="black" stroke-width="1.6" stroke-linecap="round" stroke-linejoin="round"/>
<path d="M145.694 441.714L150.147 446.166" stroke="black" stroke-width="1.6" stroke-linecap="round" stroke-linejoin="round"/>
<path d="M147.602 442.104L150.148 439.558" stroke="black" stroke-width="1.6" stroke-linecap="round" stroke-linejoin="round"/>
<path d="M145.694 448.357L150.147 452.81" stroke="black" stroke-width="1.6" stroke-linecap="round" stroke-linejoin="round"/>
<path d="M147.602 448.736L150.148 446.19" stroke="black" stroke-width="1.6" stroke-linecap="round" stroke-linejoin="round"/>
<path d="M145.694 454.989L150.147 459.441" stroke="black" stroke-width="1.6" stroke-linecap="round" stroke-linejoin="round"/>
<path d="M147.602 455.379L150.148 452.833" stroke="black" stroke-width="1.6" stroke-linecap="round" stroke-linejoin="round"/>
<path d="M145.694 461.632L150.147 466.085" stroke="black" stroke-width="1.6" stroke-linecap="round" stroke-linejoin="round"/>
<path d="M147.602 462.011L150.148 459.465" stroke="black" stroke-width="1.6" stroke-linecap="round" stroke-linejoin="round"/>
<path d="M145.694 468.276L150.147 472.728" stroke="black" stroke-width="1.6" stroke-linecap="round" stroke-linejoin="round"/>
<path d="M147.602 468.654L150.148 466.108" stroke="black" stroke-width="1.6" stroke-linecap="round" stroke-linejoin="round"/>
<path d="M145.694 474.907L150.147 479.36" stroke="black" stroke-width="1.6" stroke-linecap="round" stroke-linejoin="round"/>
<path d="M147.602 475.286L150.148 472.752" stroke="black" stroke-width="1.6" stroke-linecap="round" stroke-linejoin="round"/>
<path d="M145.694 514.744L150.147 519.197" stroke="black" stroke-width="1.6" stroke-linecap="round" stroke-linejoin="round"/>
<path d="M147.602 515.123L150.148 512.577" stroke="black" stroke-width="1.6" stroke-linecap="round" stroke-linejoin="round"/>
<path d="M147.624 510.303L150.146 512.553" stroke="black" stroke-width="1.6" stroke-linecap="round" stroke-linejoin="round"/>
<path d="M145.694 499.562L150.147 504.015" stroke="black" stroke-width="1.6" stroke-linecap="round" stroke-linejoin="round"/>
<path d="M147.602 499.953L150.148 497.407" stroke="black" stroke-width="1.6" stroke-linecap="round" stroke-linejoin="round"/>
<path d="M145.694 521.376L150.147 525.828" stroke="black" stroke-width="1.6" stroke-linecap="round" stroke-linejoin="round"/>
<path d="M147.602 521.766L150.148 519.22" stroke="black" stroke-width="1.6" stroke-linecap="round" stroke-linejoin="round"/>
<path d="M145.694 528.019L150.147 532.472" stroke="black" stroke-width="1.6" stroke-linecap="round" stroke-linejoin="round"/>
<path d="M147.602 528.398L150.148 525.852" stroke="black" stroke-width="1.6" stroke-linecap="round" stroke-linejoin="round"/>
<path d="M145.694 534.662L150.147 539.115" stroke="black" stroke-width="1.6" stroke-linecap="round" stroke-linejoin="round"/>
<path d="M147.602 535.041L150.148 532.495" stroke="black" stroke-width="1.6" stroke-linecap="round" stroke-linejoin="round"/>
<path d="M145.694 541.294L150.147 545.747" stroke="black" stroke-width="1.6" stroke-linecap="round" stroke-linejoin="round"/>
<path d="M147.602 541.673L150.148 539.139" stroke="black" stroke-width="1.6" stroke-linecap="round" stroke-linejoin="round"/>
<path d="M145.694 547.937L150.147 552.39" stroke="black" stroke-width="1.6" stroke-linecap="round" stroke-linejoin="round"/>
<path d="M147.602 548.316L150.148 545.77" stroke="black" stroke-width="1.6" stroke-linecap="round" stroke-linejoin="round"/>
<path d="M145.694 554.569L150.147 559.022" stroke="black" stroke-width="1.6" stroke-linecap="round" stroke-linejoin="round"/>
<path d="M147.602 554.96L150.148 552.414" stroke="black" stroke-width="1.6" stroke-linecap="round" stroke-linejoin="round"/>
<path d="M145.694 561.212L150.147 565.665" stroke="black" stroke-width="1.6" stroke-linecap="round" stroke-linejoin="round"/>
<path d="M147.602 561.591L150.148 559.045" stroke="black" stroke-width="1.6" stroke-linecap="round" stroke-linejoin="round"/>
<path d="M145.694 567.856L150.147 572.308" stroke="black" stroke-width="1.6" stroke-linecap="round" stroke-linejoin="round"/>
<path d="M147.602 568.235L150.148 565.689" stroke="black" stroke-width="1.6" stroke-linecap="round" stroke-linejoin="round"/>
<path d="M145.694 574.487L150.147 578.94" stroke="black" stroke-width="1.6" stroke-linecap="round" stroke-linejoin="round"/>
<path d="M147.602 574.866L150.148 572.332" stroke="black" stroke-width="1.6" stroke-linecap="round" stroke-linejoin="round"/>
<path d="M145.694 581.131L150.147 585.583" stroke="black" stroke-width="1.6" stroke-linecap="round" stroke-linejoin="round"/>
<path d="M147.602 581.51L150.148 578.964" stroke="black" stroke-width="1.6" stroke-linecap="round" stroke-linejoin="round"/>
<path d="M145.694 587.762L150.147 592.215" stroke="black" stroke-width="1.6" stroke-linecap="round" stroke-linejoin="round"/>
<path d="M147.602 588.153L150.148 585.607" stroke="black" stroke-width="1.6" stroke-linecap="round" stroke-linejoin="round"/>
<path d="M145.694 594.406L150.147 598.858" stroke="black" stroke-width="1.6" stroke-linecap="round" stroke-linejoin="round"/>
<path d="M147.602 594.785L150.148 592.239" stroke="black" stroke-width="1.6" stroke-linecap="round" stroke-linejoin="round"/>
<path d="M145.694 601.049L150.147 605.502" stroke="black" stroke-width="1.6" stroke-linecap="round" stroke-linejoin="round"/>
<path d="M147.602 601.428L150.148 598.882" stroke="black" stroke-width="1.6" stroke-linecap="round" stroke-linejoin="round"/>
<path d="M145.694 607.681L150.147 612.133" stroke="black" stroke-width="1.6" stroke-linecap="round" stroke-linejoin="round"/>
<path d="M147.602 608.06L150.148 605.526" stroke="black" stroke-width="1.6" stroke-linecap="round" stroke-linejoin="round"/>
<path d="M145.954 615.864L150.146 612.157" stroke="black" stroke-width="1.6" stroke-linecap="round" stroke-linejoin="round"/>
<path d="M146.073 394.606L149.946 398.478" stroke="black" stroke-width="1.6" stroke-linecap="round" stroke-linejoin="round"/>
<path d="M222.549 307.886C222.113 307.886 221.681 307.8 221.278 307.632C220.875 307.465 220.508 307.22 220.2 306.911C219.892 306.602 219.648 306.235 219.482 305.831C219.316 305.427 219.232 304.995 219.233 304.558V299.04C219.233 298.161 219.583 297.317 220.205 296.695C220.826 296.074 221.67 295.724 222.549 295.724C223.429 295.724 224.272 296.074 224.894 296.695C225.516 297.317 225.865 298.161 225.865 299.04V304.558C225.867 304.995 225.782 305.427 225.616 305.831C225.45 306.235 225.206 306.602 224.898 306.911C224.59 307.22 224.224 307.465 223.821 307.632C223.418 307.8 222.986 307.886 222.549 307.886Z" fill="#E1E514" stroke="black" stroke-width="1.6" stroke-linecap="round" stroke-linejoin="round"/>
<path d="M89.0656 126.951C89.0656 126.951 63.1906 145.898 52.2604 166.029L48.9209 160.618C54.2876 153.782 60.2562 147.441 66.7551 141.67C73.5212 135.816 81.0212 130.867 89.0656 126.951Z" fill="black"/>
<path d="M91.7408 161.079C91.7408 161.079 79.0223 178.251 76.121 189.181C76.121 189.181 72.3315 184.716 75.4579 179.814C78.5842 174.911 91.7408 161.079 91.7408 161.079Z" fill="black"/>
<path d="M219.529 135.204C219.529 135.204 235.22 149.557 239.389 158.178C242.503 164.644 251.432 168.208 254.783 166.207L253.67 162.193C253.67 162.193 250.769 163.756 246.091 160.629C241.414 157.503 229.82 142.783 229.82 142.783L219.529 135.204Z" fill="black"/>
<path d="M203.035 90.8203C202.36 91.0453 184.087 110.229 184.087 110.229L171.582 114.433L190.743 95.9479L195.894 93.1176L203.035 90.8203Z" fill="black"/>
<path d="M288.936 432.418L291.305 427.598C286.876 428.012 286.26 425.916 286.011 423.276C285.81 421.061 287.456 417.745 287.456 417.745L246.127 421.144C244.943 431.968 232.899 431.008 232.899 431.008L227.369 441.583" stroke="black" stroke-width="1.6" stroke-linecap="round" stroke-linejoin="round"/>
<path d="M188.16 544.006L188.646 549.785C188.646 549.785 195.858 551.229 194.898 559.401L224.243 570.947C224.243 570.947 224.48 562.29 230.969 564.931V559.886" stroke="black" stroke-width="1.6" stroke-linecap="round" stroke-linejoin="round"/>
<path d="M179.989 525.011L169.888 549.536C169.888 549.536 174.932 550.72 173.736 557.482L180.711 560.608" stroke="black" stroke-width="1.6" stroke-linecap="round" stroke-linejoin="round"/>
<path d="M242.042 446.604L256.951 472.823C256.951 472.823 268.971 468.252 271.162 481.479L308.926 473.06C308.926 473.06 303.147 462.958 312.479 457.179C312.479 457.179 308.275 444.651 289.399 432.891" stroke="black" stroke-width="1.6" stroke-linecap="round" stroke-linejoin="round"/>
<path d="M216.794 431.447C217.87 422.185 218.432 412.871 218.476 403.547C231.952 401.865 229.062 390.082 229.062 390.082C240.904 388.637 264.66 382.385 264.66 382.385C264.66 382.385 267.301 393.208 277.402 389.597C277.402 389.597 279.77 395.612 278.361 404.991" stroke="black" stroke-width="1.6" stroke-linecap="round" stroke-linejoin="round"/>
<path d="M100.86 396.572C100.374 392.012 99.9003 384.315 99.9003 384.315C86.6727 386.47 87.8686 372.473 87.8686 372.473L39.5293 382.337C42.4188 397.732 28.4688 398.218 28.4688 398.218C28.4688 398.218 29.1793 411.919 32.0214 419.853" stroke="black" stroke-width="1.6" stroke-linecap="round" stroke-linejoin="round"/>
<path d="M121.784 457.665L138.861 476.423C138.861 476.423 131.163 487.01 140.305 497.348C140.305 497.348 129.719 510.102 104.708 520.203" stroke="black" stroke-width="1.6" stroke-linecap="round" stroke-linejoin="round"/>
<path d="M26.539 418.468C17.6456 404.991 13.5127 387.678 13.5127 387.678C22.418 383.829 17.8469 375.41 17.8469 375.41L64.0311 364.112C64.0311 364.112 63.3087 369.643 69.8101 370.602" stroke="black" stroke-width="1.6" stroke-linecap="round" stroke-linejoin="round"/>
<path d="M6.09977 392.972C6.09977 392.972 6.33662 398.016 0.0839844 400.183C5.43113 410.382 12.6038 419.514 21.2458 427.124" stroke="black" stroke-width="1.6" stroke-linecap="round" stroke-linejoin="round"/>
<path d="M138.636 505.531C138.636 505.531 137.926 509.083 138.885 511.061C138.885 511.061 129.258 519.954 102.565 525.272" stroke="black" stroke-width="1.6" stroke-linecap="round" stroke-linejoin="round"/>
<path d="M283.311 434.727C283.95 439.144 280.836 443.099 270.865 444.864C260.894 446.628 249.312 444.141 248.673 439.724" stroke="black" stroke-width="1.6" stroke-linecap="round" stroke-linejoin="round"/>
<path d="M278.966 453.189L284.816 465.718" stroke="black" stroke-width="1.6" stroke-linecap="round" stroke-linejoin="round"/>
<path d="M251.823 397.235L254.334 407.668" stroke="black" stroke-width="1.6" stroke-linecap="round" stroke-linejoin="round"/>
<path d="M65.5586 388.46L66.3994 395.139" stroke="black" stroke-width="1.6" stroke-linecap="round" stroke-linejoin="round"/>
<path d="M266.329 428.889L265.571 435.011" stroke="black" stroke-width="1.6" stroke-linecap="round" stroke-linejoin="round"/>
<path d="M210.482 554.155V558.536" stroke="black" stroke-width="1.6" stroke-linecap="round" stroke-linejoin="round"/>
<path d="M170.006 453.437L167.034 449.885C166.712 449.485 166.537 448.988 166.536 448.476C166.536 448.168 166.6 447.863 166.724 447.582C166.849 447.3 167.031 447.048 167.259 446.841C167.461 446.657 167.7 446.516 167.959 446.428C168.219 446.34 168.493 446.306 168.766 446.328C169.04 446.35 169.305 446.428 169.547 446.557C169.789 446.686 170.001 446.864 170.172 447.078L173.156 450.714L170.006 453.437Z" fill="#F2C443" stroke="black" stroke-width="1.6" stroke-linecap="round" stroke-linejoin="round"/>
<path d="M169.2 456.54C168.892 456.54 168.588 456.476 168.307 456.352C168.025 456.228 167.773 456.046 167.566 455.818C167.382 455.615 167.241 455.376 167.153 455.117C167.064 454.858 167.03 454.583 167.052 454.31C167.075 454.037 167.153 453.771 167.282 453.529C167.411 453.287 167.588 453.075 167.803 452.904L173.783 447.99C174.225 447.636 174.784 447.462 175.349 447.503C175.914 447.545 176.442 447.799 176.826 448.215C177.011 448.418 177.151 448.656 177.24 448.916C177.328 449.175 177.362 449.45 177.34 449.723C177.318 449.996 177.24 450.262 177.111 450.503C176.982 450.745 176.804 450.958 176.59 451.128L170.609 456.043C170.21 456.364 169.713 456.54 169.2 456.54Z" fill="#F2C443" stroke="black" stroke-width="1.6" stroke-linecap="round" stroke-linejoin="round"/>
<mask id="mask3_2158_473" style="mask-type:luminance" maskUnits="userSpaceOnUse" x="122" y="443" width="13" height="14">
<path d="M124.875 443.064C124.215 445.359 123.359 447.593 122.317 449.743L128.381 456.587L134.017 444.994L124.875 443.064Z" fill="white"/>
</mask>
<g mask="url(#mask3_2158_473)">
<path d="M123.585 451.779L120.612 448.156C120.255 447.715 120.079 447.155 120.121 446.589C120.163 446.024 120.419 445.496 120.837 445.112C121.041 444.93 121.28 444.79 121.539 444.703C121.798 444.616 122.072 444.582 122.345 444.604C122.617 444.626 122.883 444.704 123.124 444.832C123.366 444.96 123.579 445.136 123.75 445.349L126.735 448.985L123.585 451.779Z" fill="#F2C443" stroke="black" stroke-width="1.6" stroke-linecap="round" stroke-linejoin="round"/>
<path d="M122.78 454.87C122.471 454.874 122.166 454.811 121.884 454.686C121.602 454.562 121.35 454.378 121.145 454.148C120.961 453.947 120.819 453.71 120.73 453.452C120.641 453.194 120.606 452.92 120.627 452.648C120.648 452.376 120.725 452.111 120.853 451.87C120.981 451.629 121.157 451.417 121.37 451.247L127.362 446.332C127.803 445.975 128.363 445.799 128.929 445.841C129.494 445.883 130.023 446.139 130.406 446.557C130.588 446.761 130.728 446.999 130.815 447.259C130.902 447.518 130.936 447.792 130.914 448.065C130.892 448.337 130.814 448.602 130.686 448.844C130.558 449.086 130.382 449.299 130.169 449.47L124.248 454.373C123.833 454.707 123.312 454.884 122.78 454.87Z" fill="#F2C443" stroke="black" stroke-width="1.6" stroke-linecap="round" stroke-linejoin="round"/>
</g>
<path d="M140.341 188.447C140.379 187.279 140.654 186.132 141.149 185.074C141.645 184.016 142.351 183.071 143.224 182.295C144.097 181.519 145.12 180.93 146.228 180.562C147.337 180.195 148.509 180.057 149.673 180.157C151.681 180.145 153.635 180.804 155.227 182.028C155.284 182.082 155.327 182.149 155.351 182.223C155.376 182.298 155.382 182.377 155.369 182.454C155.275 183.067 155.078 183.659 154.788 184.207C154.374 185.048 153.829 185.829 153.415 185.818C153.356 185.804 153.299 185.78 153.249 185.747C152.168 184.935 150.868 184.469 149.519 184.408C148.335 184.37 147.185 184.799 146.314 185.601C145.444 186.404 144.924 187.516 144.866 188.699C144.809 189.881 145.219 191.039 146.007 191.922C146.795 192.805 147.899 193.344 149.081 193.42C150.425 193.479 151.759 193.146 152.917 192.461C152.979 192.439 153.046 192.439 153.107 192.461C153.474 192.461 153.936 193.124 154.291 194.095C154.527 194.68 154.663 195.301 154.694 195.931C154.694 196.144 154.634 196.322 154.504 196.381C152.799 197.44 150.794 197.91 148.796 197.719C147.62 197.703 146.46 197.446 145.387 196.964C144.314 196.482 143.352 195.784 142.559 194.915C141.767 194.046 141.161 193.024 140.779 191.911C140.398 190.798 140.249 189.619 140.341 188.447Z" fill="white"/>
<path d="M147.708 169.606L148.892 172.732L152.219 172.543L149.626 174.639L150.822 177.765L148.039 175.929L145.446 178.037L146.322 174.816L143.527 173.004L146.843 172.839L147.708 169.606Z" fill="white"/>
</g>
<defs>
<linearGradient id="paint0_linear_2158_473" x1="156.434" y1="133.831" x2="266.66" y2="161.672" gradientUnits="userSpaceOnUse">
<stop offset="0.32"/>
<stop offset="0.44" stop-color="#040304"/>
<stop offset="0.54" stop-color="#0F0E0E"/>
<stop offset="0.65" stop-color="#211F20"/>
<stop offset="0.75" stop-color="#3C383A"/>
<stop offset="0.84" stop-color="#5E585B"/>
<stop offset="0.94" stop-color="#877E82"/>
<stop offset="0.99" stop-color="#9E9499"/>
</linearGradient>
<linearGradient id="paint1_linear_2158_473" x1="150.857" y1="118.732" x2="186.395" y2="50.7703" gradientUnits="userSpaceOnUse">
<stop offset="0.25"/>
<stop offset="0.35" stop-color="#0D0C0D"/>
<stop offset="0.53" stop-color="#302D2E"/>
<stop offset="0.78" stop-color="#676164"/>
<stop offset="1" stop-color="#9E9499"/>
</linearGradient>
<linearGradient id="paint2_linear_2158_473" x1="148.714" y1="90.2281" x2="148.584" y2="40.4084" gradientUnits="userSpaceOnUse">
<stop offset="0.08"/>
<stop offset="0.24" stop-color="#040304"/>
<stop offset="0.39" stop-color="#0F0E0E"/>
<stop offset="0.53" stop-color="#211F20"/>
<stop offset="0.66" stop-color="#3C383A"/>
<stop offset="0.8" stop-color="#5E585B"/>
<stop offset="0.93" stop-color="#877E82"/>
<stop offset="1" stop-color="#9E9499"/>
</linearGradient>
<linearGradient id="paint3_linear_2158_473" x1="163.019" y1="121.87" x2="260.432" y2="86.4979" gradientUnits="userSpaceOnUse">
<stop offset="0.3"/>
<stop offset="0.38" stop-color="#070707"/>
<stop offset="0.49" stop-color="#1C1A1B"/>
<stop offset="0.62" stop-color="#3D393B"/>
<stop offset="0.76" stop-color="#6A6467"/>
<stop offset="0.91" stop-color="#9E9499"/>
</linearGradient>
<linearGradient id="paint4_linear_2158_473" x1="137.749" y1="108.098" x2="217.47" y2="108.098" gradientUnits="userSpaceOnUse">
<stop offset="0.4"/>
<stop offset="0.5" stop-color="#040304"/>
<stop offset="0.6" stop-color="#0F0E0E"/>
<stop offset="0.69" stop-color="#211F20"/>
<stop offset="0.78" stop-color="#3C383A"/>
<stop offset="0.87" stop-color="#5E585B"/>
<stop offset="0.96" stop-color="#877E82"/>
<stop offset="1" stop-color="#9E9499"/>
</linearGradient>
<linearGradient id="paint5_linear_2158_473" x1="144.072" y1="134.754" x2="267.029" y2="134.754" gradientUnits="userSpaceOnUse">
<stop offset="0.09"/>
<stop offset="0.23" stop-color="#171516"/>
<stop offset="0.53" stop-color="#514C4E"/>
<stop offset="0.89" stop-color="#9E9499"/>
</linearGradient>
<linearGradient id="paint6_linear_2158_473" x1="42.4789" y1="158.782" x2="99.0131" y2="134.127" gradientUnits="userSpaceOnUse">
<stop stop-color="#9E9499"/>
<stop offset="0.09" stop-color="#877E82"/>
<stop offset="0.32" stop-color="#4D484B"/>
<stop offset="0.52" stop-color="#232122"/>
<stop offset="0.67" stop-color="#0A0909"/>
<stop offset="0.77"/>
</linearGradient>
<linearGradient id="paint7_linear_2158_473" x1="97.3194" y1="93.2952" x2="155.559" y2="93.2952" gradientUnits="userSpaceOnUse">
<stop stop-color="#9E9499"/>
<stop offset="0.6"/>
</linearGradient>
<linearGradient id="paint8_linear_2158_473" x1="33.9991" y1="92.2768" x2="133.035" y2="122.782" gradientUnits="userSpaceOnUse">
<stop stop-color="#9E9499"/>
<stop offset="0.08" stop-color="#837B7F"/>
<stop offset="0.23" stop-color="#554F52"/>
<stop offset="0.37" stop-color="#302D2E"/>
<stop offset="0.51" stop-color="#161415"/>
<stop offset="0.63" stop-color="#060505"/>
<stop offset="0.72"/>
</linearGradient>
<linearGradient id="paint9_linear_2158_473" x1="82.1371" y1="70.3926" x2="154.942" y2="141.386" gradientUnits="userSpaceOnUse">
<stop stop-color="#9E9499"/>
<stop offset="0.03" stop-color="#978D92"/>
<stop offset="0.3" stop-color="#575154"/>
<stop offset="0.53" stop-color="#282526"/>
<stop offset="0.7" stop-color="#0B0A0A"/>
<stop offset="0.81"/>
</linearGradient>
<linearGradient id="paint10_linear_2158_473" x1="31.9508" y1="140.723" x2="161.847" y2="132.09" gradientUnits="userSpaceOnUse">
<stop stop-color="#9E9499"/>
<stop offset="0.14" stop-color="#7E767A"/>
<stop offset="0.39" stop-color="#484446"/>
<stop offset="0.61" stop-color="#211F20"/>
<stop offset="0.79" stop-color="#090809"/>
<stop offset="0.89"/>
</linearGradient>
<linearGradient id="paint11_linear_2158_473" x1="148.465" y1="147.757" x2="241.923" y2="182.49" gradientUnits="userSpaceOnUse">
<stop offset="0.19"/>
<stop offset="0.3" stop-color="#0E0D0D"/>
<stop offset="0.5" stop-color="#322F30"/>
<stop offset="0.77" stop-color="#6C6569"/>
<stop offset="0.97" stop-color="#9E9499"/>
</linearGradient>
<linearGradient id="paint12_linear_2158_473" x1="217.102" y1="194.569" x2="156.068" y2="148.882" gradientUnits="userSpaceOnUse">
<stop stop-color="#9E9499"/>
<stop offset="0.21" stop-color="#6B6468"/>
<stop offset="0.55" stop-color="#1E1C1D"/>
<stop offset="0.71"/>
</linearGradient>
<linearGradient id="paint13_linear_2158_473" x1="74.3693" y1="165.828" x2="143.646" y2="165.828" gradientUnits="userSpaceOnUse">
<stop stop-color="#9E9499"/>
<stop offset="0.6"/>
</linearGradient>
<linearGradient id="paint14_linear_2158_473" x1="44.6098" y1="169.026" x2="152.764" y2="169.026" gradientUnits="userSpaceOnUse">
<stop stop-color="#9E9499"/>
<stop offset="0.6"/>
</linearGradient>
<linearGradient id="paint15_linear_2158_473" x1="80.8942" y1="210.414" x2="168.751" y2="123.801" gradientUnits="userSpaceOnUse">
<stop stop-color="#9E9499"/>
<stop offset="0.1" stop-color="#9A9095"/>
<stop offset="0.2" stop-color="#8D8488"/>
<stop offset="0.31" stop-color="#776F73"/>
<stop offset="0.42" stop-color="#595356"/>
<stop offset="0.53" stop-color="#322E30"/>
<stop offset="0.64" stop-color="#030202"/>
<stop offset="0.65"/>
</linearGradient>
</defs>
</svg>
