<svg width="64" height="64" viewBox="0 0 64 64" fill="none" xmlns="http://www.w3.org/2000/svg">
<g filter="url(#filter0_d_2176_902)">
<path d="M29.4999 4.91666C24.6377 4.91666 19.8848 6.35844 15.8421 9.0597C11.7994 11.7609 8.64846 15.6003 6.78781 20.0924C4.92716 24.5844 4.44032 29.5273 5.38888 34.296C6.33743 39.0647 8.67877 43.445 12.1168 46.883C15.5548 50.3211 19.9352 52.6624 24.7039 53.611C29.4726 54.5595 34.4155 54.0727 38.9075 52.212C43.3995 50.3514 47.2389 47.2005 49.9401 43.1578C52.6414 39.1151 54.0832 34.3621 54.0832 29.5C54.0832 26.2717 53.4473 23.0749 52.2119 20.0924C50.9765 17.1098 49.1657 14.3997 46.8829 12.1169C44.6001 9.83418 41.8901 8.02338 38.9075 6.78795C35.9249 5.55252 32.7282 4.91666 29.4999 4.91666ZM31.9582 39.3333C31.9582 39.9853 31.6992 40.6106 31.2382 41.0716C30.7771 41.5327 30.1518 41.7917 29.4999 41.7917C28.8479 41.7917 28.2226 41.5327 27.7615 41.0716C27.3005 40.6106 27.0415 39.9853 27.0415 39.3333V27.0417C27.0415 26.3897 27.3005 25.7644 27.7615 25.3034C28.2226 24.8423 28.8479 24.5833 29.4999 24.5833C30.1518 24.5833 30.7771 24.8423 31.2382 25.3034C31.6992 25.7644 31.9582 26.3897 31.9582 27.0417V39.3333ZM29.4999 22.125C29.0136 22.125 28.5383 21.9808 28.1341 21.7107C27.7298 21.4406 27.4147 21.0566 27.2286 20.6074C27.0426 20.1582 26.9939 19.6639 27.0888 19.1871C27.1836 18.7102 27.4177 18.2722 27.7615 17.9284C28.1054 17.5846 28.5434 17.3504 29.0203 17.2556C29.4971 17.1607 29.9914 17.2094 30.4406 17.3955C30.8898 17.5815 31.2738 17.8966 31.5439 18.3009C31.814 18.7052 31.9582 19.1804 31.9582 19.6667C31.9582 20.3186 31.6992 20.9439 31.2382 21.405C30.7771 21.866 30.1518 22.125 29.4999 22.125Z" fill="white"/>
</g>
<defs>
<filter id="filter0_d_2176_902" x="3.9165" y="3.91666" width="59.1665" height="59.1667" filterUnits="userSpaceOnUse" color-interpolation-filters="sRGB">
<feFlood flood-opacity="0" result="BackgroundImageFix"/>
<feColorMatrix in="SourceAlpha" type="matrix" values="0 0 0 0 0 0 0 0 0 0 0 0 0 0 0 0 0 0 127 0" result="hardAlpha"/>
<feOffset dx="4" dy="4"/>
<feGaussianBlur stdDeviation="2.5"/>
<feComposite in2="hardAlpha" operator="out"/>
<feColorMatrix type="matrix" values="0 0 0 0 0 0 0 0 0 0 0 0 0 0 0 0 0 0 0.46 0"/>
<feBlend mode="normal" in2="BackgroundImageFix" result="effect1_dropShadow_2176_902"/>
<feBlend mode="normal" in="SourceGraphic" in2="effect1_dropShadow_2176_902" result="shape"/>
</filter>
</defs>
</svg>
