<svg width="228" height="318" viewBox="0 0 228 318" fill="none" xmlns="http://www.w3.org/2000/svg">
<path d="M132.95 314.276C174.611 314.276 208.383 305.572 208.383 294.835C208.383 284.098 174.611 275.395 132.95 275.395C91.2893 275.395 57.5166 284.098 57.5166 294.835C57.5166 305.572 91.2893 314.276 132.95 314.276Z" fill="black"/>
<path d="M155.779 311.728C168.302 311.442 178.396 308.71 178.326 305.627C178.255 302.544 168.046 300.277 155.523 300.563C143.001 300.85 132.906 303.582 132.976 306.665C133.047 309.748 143.256 312.015 155.779 311.728Z" fill="black"/>
<path d="M107.721 292.73C125.31 291.952 139.504 289.877 139.425 288.094C139.347 286.311 125.025 285.496 107.436 286.274C89.848 287.051 75.6537 289.127 75.7324 290.91C75.8111 292.693 90.1331 293.508 107.721 292.73Z" fill="black"/>
<path d="M94.2777 176.64L93.916 184.732C93.916 184.732 106.239 189.463 132.589 188.868C158.939 188.274 165.319 183.44 165.319 183.44V176.279L94.2777 176.64Z" fill="white"/>
<path d="M46.0206 127.574L69.2189 108.185C69.2189 108.185 72.4481 109.348 74.9797 111.235C76.5814 112.45 78.0797 113.769 79.4747 115.191L73.4039 163.896C73.4039 163.896 58.2914 149.884 52.6339 140.913C46.9764 131.943 45.5039 128.892 45.5039 128.892L46.0206 127.574Z" fill="#FA8B17"/>
<path d="M79.3711 40.6857L110.552 28.8972L110.965 28.1992L95.5428 28.3026L79.3711 40.6857Z" fill="#EA8B1E"/>
<path d="M96.0859 28.1991L111.767 27.9665V22.124L98.6434 21.7103L96.8351 24.9677L96.0859 28.1991Z" fill="#8C1C2F" stroke="#8C1C2F" stroke-linecap="round" stroke-linejoin="round"/>
<path d="M99.6243 20.211C99.6243 20.211 103.629 14.0841 107.607 14.0065C111.585 13.929 114.608 18.7633 114.608 18.7633C114.608 18.7633 113.161 20.7022 112.851 21.2451C112.644 21.5811 112.309 21.7879 111.921 21.8138L98.9785 21.6845L99.6243 20.211Z" fill="#EA8B1E"/>
<path d="M116.649 27.0617C117.011 26.6739 117.321 26.2603 117.631 25.8467C117.631 25.8467 116.624 22.7961 116.055 21.1158C115.487 19.4354 114.893 19.1769 114.893 19.1769C113.73 19.8232 112.878 20.8831 112.464 22.1498C111.767 24.2697 111.922 27.6304 111.922 27.6304L114.609 28.3284" fill="#EA8B1E"/>
<path d="M116.494 27.7598C117.321 27.7598 117.321 26.4672 116.494 26.4672C115.667 26.4672 115.667 27.7598 116.494 27.7598Z" fill="black"/>
<path d="M118.974 25.7175C120.757 25.1229 122.487 24.3215 124.115 23.3908C126.362 22.0206 127.783 18.0653 125.82 17.1346C123.857 16.204 122.152 18.4014 120.653 20.392C119.155 22.3826 117.527 22.8479 117.527 22.8479L118.974 25.7175Z" fill="black"/>
<path d="M95.0264 39.1345L98.5397 50.6386L100.555 51.1815C100.555 51.1815 102.802 50.0181 105.127 49.7596C106.471 49.6045 107.84 49.527 109.209 49.527C109.209 49.527 117.476 46.2696 120.576 45.9594C122.358 45.7784 124.115 45.4941 125.846 45.1063L124.683 42.2109C124.683 42.2109 133.699 41.1251 132.795 32.594C131.891 24.0629 121.17 25.4589 119.723 28.6387C118.276 31.8184 118.225 32.594 118.225 32.594L115.745 31.9218L107.401 34.4295C107.401 34.4295 104.843 32.4906 102.828 33.292C100.813 34.0934 101.795 37.0664 101.795 37.0664L95.0264 39.1345Z" fill="#00EFBF"/>
<path d="M101.511 35.5411L104.947 46.373L109.648 44.7443L105.696 33.0076L101.511 34.0158V35.5411Z" fill="#00EFBF"/>
<path d="M95.6982 34.8948L100.555 33.4471L101.433 36.8596C101.433 36.8596 98.9274 37.7127 97.4032 37.5059C95.8791 37.2991 95.6982 34.8948 95.6982 34.8948Z" fill="white"/>
<path d="M105.799 31.1205L112.515 28.5612C112.515 28.5612 114.22 32.6458 110.655 33.4213C106.16 34.4037 105.799 31.1205 105.799 31.1205Z" fill="white"/>
<path d="M97.248 34.4295C97.248 34.4295 97.2997 36.1874 99.5989 35.4377C101.898 34.688 99.8314 33.3179 99.8314 33.3179L97.248 34.4295Z" fill="#72F7B4"/>
<path d="M97.4287 34.4553C97.4287 34.4553 97.5837 36.2649 99.3662 35.6186C100.4 35.2309 99.6504 33.4988 99.6504 33.4988L97.4287 34.4553Z" fill="black"/>
<path d="M107.607 30.4224C107.607 30.4224 107.969 32.0769 109.338 31.715C110.707 31.3531 110.191 29.5176 110.191 29.5176L107.607 30.4224Z" fill="black"/>
<path d="M134.604 47.5106L181.439 19.5647C181.439 19.5647 187.123 16.1523 191.85 19.9783C196.578 23.8044 193.374 29.802 190.662 31.3532C187.949 32.9043 135.301 60.5399 135.301 60.5399L134.604 47.5106Z" fill="white"/>
<path d="M66.6098 96.448L102.079 77.8347L98.9789 68.8124L61.8564 90.6313L63.0189 93.2941L66.6098 96.448Z" fill="white"/>
<path d="M22.4085 114.415L20.3419 115.32C20.3419 115.32 18.0944 112.631 14.6069 113.898C11.1194 115.165 14.2452 121.783 15.7694 124.032C17.2935 126.281 21.6077 128.168 23.0027 124.756C23.6744 123.127 23.726 121.318 23.106 119.689L25.3794 118.164L22.4085 114.415Z" fill="white"/>
<path d="M102.777 75.9217L96.1634 55.3436L98.2301 53.7925L97.9976 53.0687C97.9976 53.0687 99.1859 51.259 102.544 50.3025C104.585 49.7338 106.678 49.4494 108.796 49.4753C108.796 49.4753 115.59 46.7867 121.222 45.9336C126.853 45.0804 131.09 44.8478 131.09 44.8478C131.09 44.8478 132.563 49.0358 133.183 51.8278C133.803 54.6198 134.009 61.3671 134.138 62.3495C134.268 63.3319 134.733 66.9253 134.733 66.9253C134.733 66.9253 141.423 67.1062 155.838 72.6902C170.253 78.2742 167.618 78.6362 167.618 78.6362C167.618 78.6362 160.075 85.1767 158.473 94.8453C156.872 104.514 156.2 112.683 158.887 126.385C161.573 140.086 168.419 153.245 168.419 153.245C168.419 153.245 165.681 162.034 165.061 166.145C164.441 170.255 163.614 176.279 163.614 176.279C163.614 176.279 142.379 181.139 122.488 180.751C102.596 180.363 93.2184 176.304 93.2184 176.304L82.9367 173.073L80.25 171.858C80.25 171.858 78.1575 141.404 78.5967 134.166C79.0359 126.927 79.1134 111.106 79.1134 111.106L82.3425 99.4727L84.3059 90.6831L102.777 75.9217Z" fill="#FA8B17"/>
<path d="M60.0482 124.342C60.0482 124.342 68.5215 119.198 68.1599 106.479C67.7982 93.7595 60.6165 94.0439 60.6165 94.0439C60.6165 94.0439 59.3249 84.1943 51.704 83.6514C44.0832 83.1085 46.8732 95.4657 46.8732 95.4657L45.6332 88.4857C45.6332 88.4857 43.334 86.9346 40.3632 88.8735C37.3924 90.8124 38.4774 94.7419 38.4774 94.7419C38.4774 94.7419 36.359 91.4587 32.1224 94.3541C27.8857 97.2495 30.5465 104.229 30.5465 104.229C30.5465 104.229 30.0815 100.662 28.7124 100.481C27.3432 100.3 20.9107 99.3693 22.2799 109.736C23.649 120.103 33.3882 121.24 33.3882 121.24L34.5507 121.473C34.5507 121.473 39.459 127.005 47.984 127.367C56.509 127.729 60.0482 124.342 60.0482 124.342Z" fill="#00EFBF"/>
<path d="M163.873 147.273C163.873 147.273 155.451 112.838 158.06 98.6713C161.16 81.8676 168.574 78.8429 168.574 78.8429C168.574 78.8429 190.92 89.1061 206.188 115.682C221.455 142.257 220.913 161.233 216.185 178.476C211.742 194.737 205.8 200.683 205.8 200.683C205.8 200.683 201.279 205.284 186.838 202.699C172.398 200.114 165.81 195.409 164.854 188.222C163.898 181.035 163.95 172.582 164.983 167.592C166.017 162.603 163.873 147.273 163.873 147.273Z" fill="#FA8B17"/>
<path d="M78.3902 141.534L87.251 141.637L85.081 147.505H75.9102L77.6152 141.534H78.3902Z" fill="#8C1C2F" stroke="#8C1C2F" stroke-linecap="round" stroke-linejoin="round"/>
<path d="M81.1026 150.634L81.2318 148.359H87.0959V163.042C87.0959 163.042 88.0776 168.471 82.3168 168.652C76.5559 168.833 76.7626 163.715 76.6851 162.448C76.6076 161.181 76.4268 148.074 76.4268 148.074H77.5376C77.5376 148.074 77.2276 150.763 77.5893 150.763C77.9509 150.763 81.1026 150.634 81.1026 150.634Z" fill="#8C1C2F" stroke="#8C1C2F" stroke-linecap="round" stroke-linejoin="round"/>
<path d="M80.7144 102.135L89.1102 102.161V120.801C89.1102 123.334 87.3019 127.315 83.4785 127.393C79.6552 127.47 77.9502 127.134 77.9502 127.134L80.0944 109.167L80.1202 107.642L79.5777 107.228C79.5777 107.228 79.6035 104.385 79.9135 103.609C80.146 103.118 80.4044 102.627 80.7144 102.135Z" fill="#8C1C2F" stroke="#8C1C2F" stroke-linecap="round" stroke-linejoin="round"/>
<path d="M119.542 102.911H146.771L147.003 108.081H145.66V122.429C145.66 122.429 146.099 127.031 140.622 127.651C135.146 128.272 125.51 127.703 125.51 127.703C125.51 127.703 120.55 127.574 120.395 119.56C120.24 111.546 120.446 108.056 120.446 108.056L119.413 107.745L119.542 102.911Z" fill="#8C1C2F" stroke="#8C1C2F" stroke-linecap="round" stroke-linejoin="round"/>
<path d="M119.439 149.082V143.059H155.735V149.082H119.724" fill="#8C1C2F"/>
<path d="M119.439 149.082V143.059H155.735V149.082H119.724" stroke="#8C1C2F" stroke-linecap="round" stroke-linejoin="round"/>
<path d="M143.825 149.961H154.417V165.24C154.417 165.24 155.45 172.349 146.021 172.349C136.592 172.349 125.535 172.013 125.535 172.013C125.535 172.013 120.575 170.798 120.575 164.981V150.478H132.846V152.185H142.43V150.478L143.825 149.961Z" fill="#8C1C2F" stroke="#8C1C2F" stroke-linecap="round" stroke-linejoin="round"/>
<path d="M132.873 149.315H142.431V152.159H132.847L132.873 149.315Z" fill="white"/>
<path d="M77.7955 147.79L81.2314 147.764L81.1022 150.634L77.5889 150.763L77.7955 147.79Z" fill="white"/>
<path d="M171.106 201.51C171.106 201.51 165.732 226.509 182.705 231.86C199.677 237.211 203.139 227.155 203.139 227.155L203.578 222.864C203.578 222.864 207.686 220.899 207.686 217.978V215.082C207.686 215.082 208.9 210.61 207.143 208.309C205.386 206.008 203.578 205.31 203.578 205.31L201.976 203.475C196.345 204.354 190.584 204.173 184.978 203.009C175.988 201.019 171.906 200.424 171.906 200.424L171.106 201.51Z" fill="#00EFBF"/>
<path d="M127.344 193.031L131.89 215.315L145.479 262.727C145.479 262.727 150.103 267.691 161.005 266.657C171.906 265.623 175.781 260.22 175.781 260.22L167.773 234.704L171.183 200.398L163.588 187.033L127.344 193.031Z" fill="#C69A69"/>
<path d="M102.028 190.42L100.865 221.545L111.044 253.524C111.044 253.524 117.734 257.686 122.72 256.781C125.924 256.161 129.075 255.178 132.072 253.886L131.116 211.153L127.034 191.841L102.028 190.42Z" fill="#C69A69"/>
<path d="M165.035 267.949L168.703 282.478H167.928C167.928 282.478 165.655 280.487 164.105 279.221C162.555 277.954 162.245 277.85 162.245 277.85C162.245 277.85 163.097 274.955 162.942 273.714C162.787 272.473 161.263 270.767 159.506 270.25C158.602 269.966 157.672 269.733 156.742 269.552L157.026 268.699L165.035 267.949Z" fill="white"/>
<path d="M117.76 264.511C119.129 266.165 121.092 267.251 123.236 267.51C126.776 267.898 126.621 264.175 126.621 264.175L125.277 256.755L116.675 256.497L117.76 264.511Z" fill="white"/>
<path d="M100.271 46.3213C101.384 46.3213 102.286 45.4185 102.286 44.3049C102.286 43.1912 101.384 42.2885 100.271 42.2885C99.158 42.2885 98.2559 43.1912 98.2559 44.3049C98.2559 45.4185 99.158 46.3213 100.271 46.3213Z" fill="#8C1C2F" stroke="#8C1C2F" stroke-linecap="round" stroke-linejoin="round"/>
<path d="M116.021 40.2212C116.447 39.1923 115.958 38.0127 114.93 37.5865C113.902 37.1603 112.723 37.6489 112.298 38.6778C111.872 39.7067 112.36 40.8863 113.388 41.3125C114.416 41.7387 115.595 41.2501 116.021 40.2212Z" fill="#8C1C2F" stroke="#8C1C2F" stroke-miterlimit="4.0001" stroke-linecap="round" stroke-linejoin="round"/>
<path d="M123.469 189.411L127.473 189.541" stroke="black" stroke-miterlimit="10"/>
<path d="M133.26 106.737C133.959 106.737 134.526 106.182 134.526 105.496C134.526 104.811 133.959 104.255 133.26 104.255C132.561 104.255 131.994 104.811 131.994 105.496C131.994 106.182 132.561 106.737 133.26 106.737Z" fill="white" stroke="black" stroke-miterlimit="10"/>
<path d="M80.9477 105.703C81.4328 105.703 81.826 105.136 81.826 104.436C81.826 103.737 81.4328 103.17 80.9477 103.17C80.4626 103.17 80.0693 103.737 80.0693 104.436C80.0693 105.136 80.4626 105.703 80.9477 105.703Z" fill="white" stroke="black" stroke-miterlimit="10"/>
<path d="M189.913 30.3966L189.835 30.4224C192.031 28.1991 192.005 24.6057 189.783 22.4083C188.724 21.3484 187.278 20.7797 185.805 20.7797C184.591 20.7797 182.447 21.7362 182.447 21.7362L134.836 48.6221L136.773 58.5751C136.773 58.5751 189.086 31.1204 189.68 30.5775L189.913 30.3966Z" fill="black"/>
<path d="M185.701 26.1569C188.07 26.1569 189.99 24.8953 189.99 23.3391C189.99 21.7828 188.07 20.5212 185.701 20.5212C183.333 20.5212 181.413 21.7828 181.413 23.3391C181.413 24.8953 183.333 26.1569 185.701 26.1569Z" fill="white"/>
<path d="M178.985 28.8455C180.369 28.8455 181.491 28.1048 181.491 27.191C181.491 26.2773 180.369 25.5365 178.985 25.5365C177.601 25.5365 176.479 26.2773 176.479 27.191C176.479 28.1048 177.601 28.8455 178.985 28.8455Z" fill="white"/>
<path d="M97.584 71.0615C97.3257 71.2683 76.5557 83.5997 76.5557 83.5997L80.5857 89.0803L101.64 77.964L97.584 71.0615Z" fill="black"/>
<path d="M76.4004 82.1003C76.4004 82.1003 76.5554 83.9617 78.0796 86.1849C79.6812 88.5374 80.7921 89.132 80.7921 89.132" stroke="black" stroke-linecap="round" stroke-linejoin="round"/>
<path d="M81.0765 87.5033C81.0765 87.5033 80.1981 87.8652 80.5081 88.3823C80.8181 88.8993 81.5156 88.3306 81.5156 88.3306C81.5156 88.3306 80.844 88.8476 80.7923 88.8217C80.7406 88.7959 79.8623 87.9945 79.8623 87.9945L81.0765 87.5033Z" fill="black"/>
<path d="M77.3045 81.8677C77.3045 81.8677 76.7361 82.1779 76.8911 82.7208C77.0461 83.2637 77.7695 82.8759 77.7695 82.8759L76.9945 83.4188L76.6328 82.152L77.3045 81.8677Z" fill="black"/>
<path d="M131.865 69.1743L161.057 87.3482L167.696 79.5151C167.696 79.5151 162.865 74.0086 148.915 70.2084C134.965 66.4082 135.301 67.1062 135.301 67.1062L131.865 69.1743Z" fill="#BE523C"/>
<path d="M157.956 100.455C157.956 100.455 166.223 92.1825 170.614 89.3388C175.006 86.4951 178.106 85.461 178.106 85.461C178.106 85.461 173.456 80.5492 169.839 80.2907C166.223 80.0321 162.27 84.944 160.281 89.6749C158.292 94.4058 157.956 100.455 157.956 100.455Z" fill="#BE523C"/>
<path d="M101.614 36.4459C101.408 36.4976 99.5477 37.9453 98.2044 37.6092C96.861 37.2732 95.4144 35.1533 95.4144 35.1533L94.2002 35.8513L95.5177 40.7115C95.5177 40.7115 96.1119 39.3413 101.873 37.0922L101.614 36.4459Z" fill="black"/>
<path d="M106.522 35.4377C113.239 33.2403 117.966 32.2321 117.966 32.2321L118.612 30.3449C118.612 30.3449 118.948 29.3884 118.922 29.2591C118.896 29.1299 117.837 26.674 117.682 26.674C117.527 26.674 112.516 28.5611 112.516 28.5611C112.516 28.5611 113.084 33.0077 110.113 33.6022C107.142 34.1968 105.282 31.4565 105.282 31.4565L106.522 35.4377Z" fill="black"/>
<path d="M117.759 22.7444L119.697 25.7173L117.682 26.2085C117.682 26.2085 116.7 22.9771 116.804 22.9512C116.907 22.9253 117.759 22.7444 117.759 22.7444Z" fill="black"/>
<path d="M118.87 22.4601C118.612 22.6152 118.431 22.8737 118.379 23.1581C118.405 23.4683 118.483 23.7785 118.638 24.0629L117.553 22.822L118.87 22.4601Z" fill="black"/>
<path d="M118.974 24.6316C119.129 24.8643 119.361 25.0194 119.619 25.0969C119.929 25.1486 120.265 25.0969 120.549 24.9935L119.361 25.7174L118.974 24.6316Z" fill="black"/>
<path d="M108.228 28.4577C108.228 28.4577 109.597 28.4836 109.623 28.7679C109.648 29.1299 108.718 29.4918 108.718 29.4918C108.718 29.4918 112.438 28.3026 112.387 28.3026C112.335 28.3026 108.228 28.4577 108.228 28.4577Z" fill="black"/>
<path d="M110.449 22.1757C110.837 22.2532 111.198 22.4083 111.483 22.6669C111.844 23.0288 111.638 24.0629 111.638 24.0629C111.638 24.0629 112.309 22.0464 112.258 22.0723C112.206 22.0981 110.449 22.1757 110.449 22.1757Z" fill="black"/>
<path d="M113.575 20.6504C113.575 20.6504 114.066 20.03 114.505 19.9783C114.944 19.9266 115.332 20.7797 115.332 20.7797L114.583 19.151L113.575 20.6504Z" fill="black"/>
<path d="M100.529 19.5647C100.529 19.5647 100.038 20.392 100.271 20.9607C100.503 21.5036 101.33 21.4519 101.33 21.4519L99.0566 21.5811L100.529 19.5647Z" fill="black"/>
<path d="M96.9638 25.5365C96.9638 25.5365 96.473 26.8549 96.9121 27.4495C97.4546 28.1992 98.9788 28.0183 98.9788 28.0183L95.543 28.3026L96.9638 25.5365Z" fill="black"/>
<path d="M116.855 24.6575C116.933 25.097 116.881 25.5364 116.7 25.9242C116.468 26.312 116.132 26.6222 115.719 26.829C115.719 26.829 117.579 26.3637 117.553 26.3378C117.527 26.312 116.855 24.6575 116.855 24.6575Z" fill="black"/>
<path d="M102.105 36.8337C102.105 36.8337 101.278 34.5846 103.5 33.8349C105.127 33.292 106.083 35.3602 106.083 35.3602L105.515 31.9219L104.895 31.3531L100.451 33.2145L102.105 36.8337Z" fill="black"/>
<path d="M99.625 37.997C99.625 37.997 100.607 37.6092 101.201 37.8419C101.873 38.1004 102.131 39.212 102.131 39.212L101.537 37.118L99.625 37.997Z" fill="black"/>
<path d="M108.228 34.8948C107.866 35.0757 107.608 35.386 107.504 35.7737C107.427 36.2649 107.427 36.782 107.53 37.2731L106.678 35.2309L108.228 34.8948Z" fill="black"/>
<path d="M115.073 32.8784C115.073 32.8784 116.623 32.6199 117.192 33.1369C117.76 33.654 117.734 34.6622 117.734 34.6622C117.734 34.6622 117.992 31.9478 117.915 31.9478C117.837 31.9478 115.073 32.8784 115.073 32.8784Z" fill="black"/>
<path d="M121.894 41.7197C121.894 41.7197 122.281 42.7279 123.676 43.4001C124.89 43.9688 125.278 43.8913 125.278 43.8913L124.658 42.1851L121.894 41.7197Z" fill="black"/>
<path d="M124.683 43.7361C124.683 43.7361 124.967 44.46 124.605 44.8219C124.244 45.1838 123.185 45.3648 123.185 45.3648C123.185 45.3648 125.768 45.2097 125.69 45.1838C125.613 45.158 125.174 43.6586 125.122 43.6844C125.07 43.7103 124.683 43.7361 124.683 43.7361Z" fill="black"/>
<path d="M98.6172 49.5786C98.6172 49.5786 98.9272 50.2766 100.012 50.4317C101.097 50.5868 101.536 50.3283 101.536 50.3283L99.1339 51.8277L98.6172 49.5786Z" fill="black"/>
<path d="M104.688 46.6833C104.688 46.6833 105.644 47.5105 108.098 46.8125C110.088 46.2438 110.088 44.8737 110.036 44.8737C109.984 44.8737 104.688 46.6833 104.688 46.6833Z" fill="black"/>
<path d="M97.0934 57.0499C97.6101 56.8172 98.2301 56.8172 98.7468 57.0499C99.5993 57.4376 100.555 59.6867 100.555 59.6867L98.2301 54.1803L96.3701 55.2919L97.0934 57.0499Z" fill="black"/>
<path d="M110.139 27.6305C110.526 27.6046 110.914 27.4754 111.224 27.2169C111.534 26.9583 111.534 26.1052 111.534 26.1052C111.534 26.1052 111.792 27.6822 111.766 27.6822L110.139 27.6305Z" fill="black"/>
<path d="M112.309 26.4929C112.309 26.4929 112.361 27.1909 112.8 27.3977C113.007 27.5011 113.239 27.5528 113.498 27.5528L112.206 27.6821L112.309 26.4929Z" fill="black"/>
<path d="M103.655 77.4469L84.1504 92.7512L86.2687 86.4433L103.655 77.4469Z" fill="black"/>
<path d="M96.7832 70.0533L101.459 78.2484L103.448 77.4211L100.322 68.0627L96.7832 70.0533Z" fill="black"/>
<path d="M63.7168 89.5715C63.5618 89.6749 62.9935 91.4329 64.5435 93.4493C66.3518 95.776 70.6143 94.1732 70.6143 94.1732L65.5768 96.991C65.5768 96.991 64.6468 95.3365 63.1485 94.7936C62.3993 94.5351 61.676 94.2249 60.9526 93.8629L60.126 91.4846L63.5101 89.5974" fill="black"/>
<path d="M38.3479 106.453C38.3479 106.453 38.0379 109.943 41.2671 111.727C46.1237 114.389 51.3421 112.295 51.3421 112.295C51.3421 112.295 51.5746 115.785 54.1837 116.949C56.7929 118.112 58.4462 117.388 58.4462 117.388C58.4462 117.388 54.1321 115.785 53.3054 112.812C52.4787 109.839 52.7629 108.883 52.7629 108.883C52.7629 108.883 48.8362 110.692 45.6329 110.718C42.4296 110.744 39.3296 107.745 39.3296 107.745L38.3479 106.453Z" fill="black"/>
<path d="M45.4521 88.5632C45.3746 90.7606 45.6071 92.9839 46.1237 95.1296C47.0021 98.4903 47.4929 99.1625 47.4929 99.1625C47.4929 99.1625 49.1462 98.1801 48.9912 98.1801C48.8362 98.1801 47.1571 94.3282 46.5629 92.441C46.2012 91.2518 46.0462 90.0109 46.0721 88.7959L45.4521 88.5632Z" fill="black"/>
<path d="M37.9094 93.8112C37.8319 95.9052 37.9094 97.9992 38.116 100.067C38.426 102.782 38.6844 103.557 38.6844 103.557L40.1052 102.523C40.1052 102.523 38.8652 99.1108 38.7619 96.8876C38.6585 94.6643 38.5035 93.7336 38.5035 93.7336L37.9094 93.8112Z" fill="black"/>
<path d="M41.0088 111.132C41.2413 112.063 41.6805 112.916 42.3005 113.665C42.7655 114.182 43.3596 114.544 44.0571 114.7L45.0388 113.614L45.0905 112.58L41.0088 111.132Z" fill="black"/>
<path d="M29.1777 100.972C29.1777 100.972 29.4361 105.677 31.1927 109.633C32.9494 113.588 36.8761 117.078 36.8761 117.078C36.8761 117.078 36.8761 115.217 36.1011 114.622C35.3261 114.027 33.3111 111.778 32.1744 109.064C31.0377 106.349 29.8494 101.179 29.8494 101.179L29.1777 100.972Z" fill="black"/>
<path d="M22.667 114.105C22.667 114.105 23.1837 115.915 23.5712 116.897C23.9587 117.879 24.3462 118.707 24.3462 118.707L26.1545 117.931C26.1545 117.931 24.7337 115.863 24.2945 115.139C23.8553 114.415 23.4678 113.717 23.4678 113.717L22.667 114.105Z" fill="black"/>
<path d="M35.4549 122.507C35.4549 122.507 38.1674 121.473 38.1674 118.887C38.1674 116.302 36.7466 115.01 36.7466 115.01C36.7466 115.01 37.5216 117.388 36.6949 119.017C35.8683 120.645 33.9824 121.473 33.9824 121.473L35.4549 122.507Z" fill="black"/>
<path d="M37.4439 116.096C37.4439 116.096 40.3631 118.888 43.5148 117.647C47.4414 116.096 46.0464 112.425 46.0464 112.425C46.0464 112.425 44.2381 115.656 41.7064 115.915C39.1748 116.173 36.6689 114.751 36.6689 114.751L37.4439 116.096Z" fill="black"/>
<path d="M134.965 47.2778L137.807 58.9112C137.807 58.9112 134.138 61.1861 134.138 60.9793C134.138 60.7725 133.673 55.6021 133.363 53.0169L132.795 48.3636L134.965 47.2778Z" fill="black"/>
<path d="M138.866 45.2614C138.866 45.2614 136.515 46.8125 136.102 48.467C135.766 49.8113 136.231 52.474 136.231 52.474L134.604 47.5105L138.866 45.2614Z" fill="black"/>
<path d="M136.566 53.9476C136.566 53.9476 137.574 56.7396 139.021 57.1533C140.286 57.5152 142.327 56.4036 142.327 56.4036L142.353 56.7396L137.651 59.1697L136.618 55.0334L136.566 53.9476Z" fill="black"/>
<path d="M94.5098 71.682C94.5098 71.682 95.6981 70.984 96.8348 71.32C97.6873 71.5786 98.3331 72.716 98.3331 72.716L97.0414 69.8982L94.5098 71.682Z" fill="black"/>
<path d="M98.54 79.3083C98.54 79.3083 100.633 78.1449 100.348 77.0592C100.038 76.0768 99.6509 75.1203 99.1859 74.2155C99.1859 74.2155 102.183 77.8606 102.105 77.8606C102.028 77.8606 98.54 79.3083 98.54 79.3083Z" fill="black"/>
<path d="M48.1387 95.4398C48.1387 95.4398 48.707 96.3188 49.5078 96.6032C50.2312 96.8617 51.2128 96.2412 51.2128 96.2412L49.0687 97.9733L48.1387 95.4398Z" fill="black"/>
<path d="M58.7051 93.5268C59.0926 93.4492 59.4542 93.2166 59.6609 92.8547C59.8159 92.4669 59.7901 92.0274 59.6092 91.6138L60.6167 93.7336L58.7051 93.5268Z" fill="black"/>
<path d="M46.486 96.4481C46.486 96.4481 47.1577 97.9217 46.486 98.8006C45.8143 99.6796 45.1943 99.8347 45.1943 99.8347L47.571 99.0592L46.486 96.4481Z" fill="black"/>
<path d="M39.8467 99.964C39.8467 99.964 40.1567 100.998 40.9058 101.153C41.3192 101.257 41.7583 101.205 42.1458 101.024L40.1308 102.136L39.8467 99.964Z" fill="black"/>
<path d="M44.3154 88.3306C44.6513 88.5115 44.9613 88.7442 45.1938 89.0544C45.4263 89.3905 45.4263 90.1919 45.4263 90.1919C45.4263 90.1919 45.6846 88.6408 45.6329 88.6408C45.5813 88.6408 44.3154 88.3306 44.3154 88.3306Z" fill="black"/>
<path d="M36.2812 93.4492C36.2812 93.4492 37.2887 93.7077 37.6246 94.3799C37.8054 94.7677 37.9087 95.2071 37.9087 95.6466C37.9087 95.6466 38.1929 93.837 38.1154 93.8628C38.0379 93.8887 36.2812 93.4492 36.2812 93.4492Z" fill="black"/>
<path d="M28.1182 100.714C28.454 100.817 28.764 101.024 28.9965 101.308C29.1773 101.593 29.3065 101.903 29.3065 102.239L29.4098 100.946L28.1182 100.714Z" fill="black"/>
<path d="M21.6602 114.984C22.0218 114.958 22.3835 115.036 22.6935 115.242C23.0293 115.475 23.236 115.837 23.3135 116.251L22.7968 114.131L21.6602 114.984Z" fill="black"/>
<path d="M23.7011 117.181C23.7011 117.181 23.9594 117.957 23.7269 118.422C23.5719 118.707 23.3394 118.965 23.0811 119.146L24.5794 118.551L23.7011 117.181Z" fill="black"/>
<path d="M18.1985 114.338C18.1985 114.338 17.6301 114.182 17.4493 114.363C17.2685 114.544 17.7593 114.932 17.7593 114.932C17.7593 114.932 15.6668 114.001 15.7443 113.976C15.8218 113.95 17.0876 113.82 17.6301 113.95C18.1726 114.079 18.1985 114.338 18.1985 114.338Z" fill="black"/>
<path d="M22.357 122.869C22.357 122.869 22.4603 123.851 22.7445 123.851C23.0286 123.851 23.132 122.739 23.132 122.739C23.132 122.739 23.3645 123.308 22.977 124.265C22.5895 125.221 22.0986 125.376 22.0986 125.325C22.0986 125.273 22.357 122.869 22.357 122.869Z" fill="black"/>
<path d="M68.1602 112.011C68.1602 112.011 68.2893 109.969 69.4518 109.632C70.6143 109.296 72.1902 110.046 72.1902 110.046L68.341 107.694L68.1602 112.011Z" fill="black"/>
<path d="M49.2753 128.091C49.2753 128.091 47.4153 127.884 46.7953 128.84C46.1753 129.797 47.1828 131.581 47.1828 131.581L46.5369 131.219L44.7803 127.367L49.2753 128.091Z" fill="black"/>
<path d="M120.473 108.081H145.815V111.287H120.498L120.473 108.081Z" fill="black"/>
<path d="M120.834 113.691C120.834 113.691 120.756 112.502 121.634 111.882C122.435 111.313 123.804 111.287 123.804 111.287C123.804 111.287 120.575 111.028 120.575 111.08C120.575 111.132 120.834 113.691 120.834 113.691Z" fill="black"/>
<path d="M145.376 113.691C145.376 113.691 145.454 112.502 144.575 111.882C143.774 111.313 142.405 111.287 142.405 111.287C142.405 111.287 145.634 111.028 145.634 111.08C145.634 111.132 145.376 113.691 145.376 113.691Z" fill="black"/>
<path d="M121.402 126.023C121.402 126.023 123.443 129.926 128.662 129.952C133.88 129.978 138.866 129.952 138.866 129.952C138.866 129.952 142.121 130.081 143.464 128.453C144.807 126.824 145.634 124.42 145.634 124.42C145.634 124.42 143.464 126.979 142.172 127.47C140.881 127.962 126.621 127.884 126.621 127.884C126.621 127.884 123.934 127.651 122.772 127.134C121.609 126.617 121.402 126.023 121.402 126.023Z" fill="black"/>
<path d="M88.465 124.989C88.465 124.989 86.9408 127.936 84.3058 128.453C82.7816 128.763 81.2316 128.918 79.6816 128.918L79.8366 127.057C81.2833 127.238 82.73 127.16 84.1508 126.824C86.5016 126.281 87.7158 125.506 87.7158 125.506L88.465 124.989Z" fill="black"/>
<path d="M80.1465 108.211H89.1623C89.1623 108.211 89.2915 103.04 89.1882 103.092C89.0848 103.144 87.1732 107.383 87.1732 107.383L80.224 107.409L80.1465 108.211Z" fill="black"/>
<path d="M76.5811 112.864C76.5811 112.864 78.0794 114.286 78.4152 115.397C78.5961 116.173 78.6477 117 78.5702 117.776C78.5702 117.776 79.1386 114.493 79.0611 114.493C78.9836 114.493 76.5811 112.864 76.5811 112.864Z" fill="black"/>
<path d="M86.9922 108.211C86.9922 108.211 87.8964 108.262 88.413 108.805C88.9297 109.348 88.878 110.46 88.878 110.46L89.1105 107.926L86.9922 108.211Z" fill="black"/>
<path d="M78.1314 114.674C75.9614 122.352 74.2822 130.185 73.0939 138.07C71.0272 151.512 70.123 160.302 70.123 160.302L78.5189 168.316C78.5189 168.316 77.4339 164.49 76.7105 161.802C75.9872 159.113 76.9172 147.531 76.9172 147.531L76.4005 147.221C76.478 146.032 76.6847 144.843 76.9689 143.654C77.4339 142.154 78.0022 141.585 78.0022 141.585L79.1647 141.456L79.8105 127.289L78.8289 126.772L79.0355 115.191L78.1314 114.674Z" fill="black"/>
<path d="M120.498 149.134H132.769C132.769 149.134 132.976 150.789 132.769 150.789H120.576L120.498 149.134Z" fill="black"/>
<path d="M142.224 149.134H154.494C154.494 149.134 154.701 150.789 154.494 150.789H142.301L142.224 149.134Z" fill="black"/>
<path d="M133.104 149.806C133.208 149.755 142.353 149.806 142.353 149.806C142.353 149.806 142.534 148.953 142.353 149.134C142.172 149.315 133.027 149.005 132.898 149.134C132.769 149.263 133.104 149.806 133.104 149.806Z" fill="black"/>
<path d="M120.964 153.529C120.964 153.529 120.912 152.185 121.584 151.461C122.152 150.815 123.676 150.737 123.676 150.737C123.676 150.737 120.628 150.479 120.679 150.582C120.731 150.685 120.964 153.529 120.964 153.529Z" fill="black"/>
<path d="M151.55 150.789C151.55 150.789 152.996 150.815 153.591 151.59C154.107 152.262 154.211 153.891 154.211 153.891C154.211 153.891 154.521 150.401 154.417 150.478C154.314 150.556 151.55 150.789 151.55 150.789Z" fill="black"/>
<path d="M121.273 169.118C121.273 169.118 122.694 174.03 126.905 174.598C131.116 175.167 145.557 174.728 145.557 174.728C145.557 174.728 150.078 174.986 151.498 173.693C153.307 172.065 153.772 169.299 153.772 169.299C153.772 169.299 151.498 171.574 149.07 172.142C146.642 172.711 128.791 172.142 128.791 172.142C128.791 172.142 126.078 172.401 124.141 171.677C122.203 170.953 121.273 169.118 121.273 169.118Z" fill="black"/>
<path d="M76.8912 148.953H77.5371V147.764H76.6846L76.8912 148.953Z" fill="black"/>
<path d="M81.1025 149.005H86.9925V143.369C86.9925 143.369 84.9775 147.505 84.9517 147.454C84.9259 147.402 81.1284 147.454 81.1284 147.454V149.005H81.1025Z" fill="black"/>
<path d="M77.7959 148.333H81.1542C81.1542 148.333 81.3351 147.764 81.1542 147.764H77.7959V148.333Z" fill="black"/>
<path d="M86.5019 166.998C86.5019 166.998 86.1403 169.557 83.7119 170.462C81.2836 171.367 80.4053 171.186 80.4053 171.186V168.807C80.4053 168.807 83.8411 168.911 85.0294 168.213C86.2178 167.515 86.5019 166.998 86.5019 166.998Z" fill="black"/>
<path d="M164.983 77.266C164.983 77.266 166.198 77.964 166.378 78.843C166.559 79.6444 165.552 80.756 165.552 80.756C165.552 80.756 168.393 78.7912 168.316 78.7912C168.238 78.7912 164.983 77.266 164.983 77.266Z" fill="black"/>
<path d="M158.241 95.5691C158.241 95.5691 154.211 117.259 158.525 136.932C162.116 153.27 166.327 160.069 166.327 160.069C166.327 160.069 167.205 155.726 167.929 154.434C168.419 153.581 168.936 152.753 169.53 151.978C169.53 151.978 163.511 139.621 160.437 127.238C155.477 107.59 158.241 95.5691 158.241 95.5691Z" fill="black"/>
<path d="M164.673 170.798C164.673 170.798 160.178 189.411 165.319 197.813C167.773 201.82 171.002 202.725 171.002 202.725L172.165 197.684C172.165 197.684 165.319 192.384 164.415 186.697C163.51 181.009 164.673 170.798 164.673 170.798Z" fill="black"/>
<path d="M171.261 200.011C171.261 200.011 178.107 205.181 186.89 206.086C195.673 206.991 203.423 204.535 203.423 204.535L203.036 201.82C203.036 201.82 198.773 204.276 189.215 202.854C179.657 201.432 170.744 196.779 170.744 196.779L171.261 200.011Z" fill="black"/>
<path d="M202.778 213.324C202.778 213.324 203.94 214.229 204.457 216.995C204.974 219.761 203.734 222.683 203.734 222.683C203.734 222.683 203.165 219.193 202.442 217.978C202.029 217.254 201.744 216.478 201.667 215.651L202.778 213.324Z" fill="black"/>
<path d="M204.534 205.62C204.741 205.62 205.877 207.637 205.955 209.11C205.981 210.119 205.877 211.101 205.645 212.083C205.206 211.618 204.715 211.204 204.224 210.791C203.759 210.481 203.397 210.222 203.397 210.222C203.397 210.222 203.604 207.895 203.604 206.81C203.604 205.724 203.656 205.129 203.656 205.129L204.534 205.62Z" fill="black"/>
<path d="M93.6314 178.166C93.6314 178.166 105.773 182.018 119.077 182.173C142.715 182.431 163.511 178.166 163.511 178.166L163.769 174.805C163.769 174.805 140.002 180.88 121.015 179.588C102.027 178.295 93.373 176.485 93.373 176.485L93.6314 178.166Z" fill="black"/>
<path d="M101.95 191.247C101.95 191.247 109.184 192.979 116.081 193.496C120.085 193.806 124.115 193.858 128.145 193.677L126.905 188.817C122.255 188.894 117.605 188.713 112.955 188.3C106.239 187.602 102.286 187.085 102.286 187.085L101.95 191.247Z" fill="#C69A69"/>
<path d="M127.344 193.031C127.344 193.031 136.309 193.212 151.292 191.479C159.378 190.549 163.873 189.23 163.873 189.23C163.873 189.23 163.924 183.284 163.408 183.465C162.891 183.646 156.174 185.87 146.022 187.085C135.869 188.3 125.536 188.455 125.536 188.455L127.344 193.031Z" fill="#C69A69"/>
<path d="M154.443 268.415C154.443 268.415 156.587 269.785 160.307 269.526C164.027 269.268 165.034 268.234 165.034 268.234L164.854 266.346C163.097 266.76 161.314 266.993 159.506 267.044C157.672 267.096 155.864 266.915 154.081 266.527L154.443 268.415Z" fill="black"/>
<path d="M116.985 258.513C116.985 258.513 119.31 259.625 121.816 259.547C124.322 259.47 125.691 258.436 125.691 258.436L125.51 256.445C124.141 256.6 122.746 256.626 121.377 256.523C119.129 256.342 116.546 255.928 116.546 255.928L116.985 258.513Z" fill="black"/>
<path d="M170.796 204.483C170.796 204.483 170.873 202.415 172.553 201.975C173.922 201.639 175.782 202.699 175.782 202.699L171.313 199.339L170.796 204.483Z" fill="black"/>
<path d="M199.135 205.465C199.135 205.465 201.666 205.129 202.364 206.241C202.829 207.042 203.061 207.973 202.958 208.904C202.958 208.904 203.578 207.378 203.604 206.241C203.604 205.491 203.475 204.741 203.268 204.043L199.135 205.465Z" fill="black"/>
<path d="M94.1223 181.294C94.1223 181.294 94.0448 179.924 94.9232 179.355C95.9048 178.734 97.5581 179.2 97.5581 179.2C97.5581 179.2 93.709 177.675 93.709 177.83C93.709 177.985 94.1223 181.294 94.1223 181.294Z" fill="black"/>
<path d="M134.5 66.8477L123.728 73.1555L136.67 67.3388L135.223 67.0286L134.5 66.8477Z" fill="black"/>
<path d="M163.046 85.0474C163.046 85.0474 165.319 81.5574 168.988 81.2989C172.656 81.0404 175.575 83.548 175.575 83.548C175.575 83.548 173.173 81.4798 170.977 80.2648C168.781 79.0498 167.825 78.662 167.825 78.662L163.382 83.9616L163.046 85.0474Z" fill="black"/>
<path d="M134.138 66.2014C134.138 66.2014 134.164 66.8477 133.88 67.1321C133.725 67.2872 133.57 67.4165 133.363 67.5199L134.319 67.0804L134.138 66.2014Z" fill="black"/>
<path d="M140.622 293.853L137.884 298.041C137.884 298.041 142.069 299.489 151.214 299.282C160.359 299.075 167.592 298.222 167.592 298.222L171.467 294.603L171.338 282.4C171.338 282.4 170.821 279.014 169.4 278.936C167.98 278.859 168.419 282.762 168.419 282.762L166.74 281.935C166.74 281.935 157.646 293.31 155.89 294.163C154.133 295.016 150.775 295.456 150.775 295.456C150.775 295.456 146.512 295.404 144.032 294.732C141.552 294.06 140.622 293.853 140.622 293.853Z" fill="#A28ADD"/>
<path d="M149.018 276.946C149.018 276.946 146.951 276.118 145.97 276.17C144.988 276.222 144.988 277.618 144.988 277.618C144.988 277.618 143.877 278.057 144.058 278.626C144.239 279.195 144.471 279.945 144.471 279.945C144.471 279.945 143.49 280.798 143.619 281.289C143.748 281.78 143.877 282.4 143.877 282.4C143.67 282.711 143.49 283.021 143.36 283.383C143.154 283.952 144.084 283.9 144.084 283.9C144.084 283.9 143.825 284.417 143.593 284.908C143.464 285.192 143.412 285.503 143.464 285.813L144.006 286.563C144.006 286.563 142.844 286.666 142.87 287.312C142.895 287.959 143.593 288.605 143.593 288.605C143.593 288.605 141.888 288.915 141.94 290.078C141.991 291.242 144.91 290.13 147.571 290.932C150.232 291.733 152.79 293.129 153.461 292.379C154.133 291.63 152.712 290.44 152.712 290.44V289.82C152.712 289.82 154.133 290.621 154.546 289.872C154.96 289.122 154.469 288.088 154.469 288.088C154.469 288.088 156.251 289.277 156.535 288.605C156.69 288.191 156.768 287.752 156.742 287.312C156.742 287.312 157.853 287.105 157.956 286.485C158.06 285.865 157.233 285.167 157.233 285.167L156.277 283.745C156.277 283.745 158.835 285.27 159.17 284.598C159.506 283.926 159.17 283.021 159.17 283.021C159.17 283.021 161.082 284.236 161.573 284.029C162.064 283.822 162.296 282.737 162.296 282.737C162.296 282.737 163.485 283.15 163.872 282.607C164.105 282.271 164.105 281.832 163.872 281.496C163.872 281.496 160.901 279.04 158.37 278.497C155.838 277.954 154.546 277.799 154.546 277.799L153.229 277.721L149.018 276.946Z" fill="white"/>
<path d="M142.922 306.882C142.353 306.107 141.888 305.253 141.526 304.349C140.984 302.927 139.847 302.177 136.825 302.461C133.802 302.746 135.223 306.753 135.223 306.753L134.681 307.373C134.681 307.373 136.282 309.312 144.42 309.803L142.922 306.882Z" fill="black"/>
<path d="M143.18 307.141C143.18 307.141 145.04 311.406 162.245 308.847C164.131 308.563 166.378 304.426 168.186 304.09C169.995 303.754 172.888 302.849 172.681 300.936C172.604 300.006 172.449 299.101 172.191 298.222C172.191 298.222 167.231 299.721 165.681 302.462C164.131 305.202 160.979 306.132 158.835 306.21C156.691 306.288 153.41 306.236 153.41 306.236L143.18 307.141Z" fill="white"/>
<path d="M149.793 306.365C149.793 306.365 160.643 305.434 163.175 302.487C165.706 299.54 166.946 296.516 168.445 295.585C169.943 294.654 171.235 293.827 171.235 293.827L171.493 290.983C171.493 290.983 175.342 290.13 175.652 291.242C175.962 292.353 176.143 296.516 174.412 297.343C172.681 298.17 169.504 299.049 167.36 300.574C165.215 302.1 163.872 305.693 161.34 305.952C158.809 306.21 149.793 306.365 149.793 306.365Z" fill="white"/>
<path d="M134.242 306.908C134.242 306.908 132.718 303.857 134.242 302.048C135.766 300.238 136.179 299.825 136.179 299.825L150.155 301.35C150.155 301.35 154.134 301.505 155.942 300.548C157.75 299.592 162.71 296.179 162.71 296.179L165.009 296.955L166.301 298.248C166.301 298.248 164.932 302.125 160.359 304.194C155.787 306.262 148.864 306.598 147.055 306.908C145.247 307.218 142.56 306.753 142.56 306.753C142.56 306.753 142.018 302.074 137.316 302.255C132.614 302.436 135.456 307.89 135.456 307.89L134.242 306.908Z" fill="#C18B1E"/>
<path d="M136.463 299.54L137.884 298.041C137.884 298.041 140.984 299.308 149.25 298.997C157.517 298.687 161.909 296.179 161.909 296.179C161.909 296.179 157.827 301.195 153.384 301.195C148.94 301.195 141.19 300.367 139.046 300.238C136.902 300.109 136.463 299.54 136.463 299.54Z" fill="#A28ADD"/>
<path d="M151.575 294.861C155.089 293.258 158.189 290.88 160.643 287.907C164.673 282.969 165.861 280.927 165.861 280.927L166.972 281.961L157.93 292.224C157.93 292.224 155.295 294.939 153.616 295.249C151.937 295.559 151.575 294.861 151.575 294.861Z" fill="#C18B1E"/>
<path d="M142.25 291.035L140.984 293.723C140.984 293.723 149.044 296.412 152.997 294.447C156.949 292.483 166.017 281.211 166.017 281.211C166.017 281.211 164.364 279.35 162.788 278.393C161.212 277.437 158.37 277.385 158.37 277.385L155.968 277.54C155.968 277.54 159.507 278.368 160.954 279.427C162.4 280.487 164.002 281.961 164.002 281.961C164.002 281.961 164.157 282.556 163.769 282.788C163.382 283.021 162.374 282.504 162.374 282.504C162.374 282.504 162.529 283.641 162.039 283.848C161.548 284.055 159.3 282.762 159.3 282.762C159.3 282.762 159.739 284.003 159.3 284.52C158.861 285.037 156.278 283.745 156.278 283.745L157.569 285.503C157.569 285.503 158.267 286.382 157.776 286.692C157.285 287.002 156.355 287.08 156.355 287.08C156.355 287.08 157.156 287.933 156.588 288.45C156.019 288.967 154.469 288.114 154.469 288.114C154.469 288.114 154.986 289.561 154.547 289.742C154.108 289.923 152.713 289.82 152.713 289.82L151.912 290.233C151.912 290.233 153.979 291.5 153.539 292.043C153.229 292.379 152.79 292.586 152.351 292.56C150.698 291.81 148.941 291.268 147.159 290.957C143.981 290.44 142.25 291.035 142.25 291.035Z" fill="#A28ADD"/>
<path d="M146.279 275.86C146.279 275.86 145.117 272.784 146.279 271.517C147.442 270.25 149.767 269.087 149.767 269.087L149.25 273.611L155.915 274.438L156.613 269.578C156.613 269.578 161.366 270.354 162.115 271.905C162.864 273.456 162.839 275.938 162.839 275.938L162.27 277.851C162.27 277.851 159.454 277.178 157.414 277.334C155.373 277.489 152.97 277.747 152.97 277.747L152.893 276.17L150.49 275.963L150.129 277.644C150.129 277.644 148.734 276.351 148.062 276.17C147.39 275.989 146.279 275.86 146.279 275.86Z" fill="white"/>
<path d="M150.155 268.104L149.251 273.611L155.89 274.438L156.665 269.009L150.155 268.104Z" fill="white"/>
<path d="M150.465 276.429L150.155 280.384L152.609 280.591L152.919 276.506L150.465 276.429Z" fill="white"/>
<path d="M142.249 291.035C140.493 294.266 138.039 297.886 136.979 299.023C135.171 300.962 132.536 302.953 133.673 305.951C134.809 308.95 138.788 309.364 147.054 310.088C155.321 310.812 161.004 310.088 162.942 308.407C164.879 306.727 165.835 304.995 168.16 304.142C168.16 304.142 171.777 303.883 172.423 302.125C173.069 300.367 172.164 298.248 172.164 298.248C172.164 298.248 175.316 298.196 175.729 294.577C175.859 293.517 176.169 291.888 175.6 291.268C174.748 290.285 171.441 291.009 171.441 291.009C171.441 291.009 171.699 286.149 171.389 283.641C171.079 281.134 170.563 278.6 169.323 279.298C168.083 279.996 169.323 283.745 167.566 282.452C165.809 281.159 163.743 278.316 160.462 277.592C157.181 276.868 153.229 277.799 153.229 277.799" stroke="black" stroke-linecap="round" stroke-linejoin="round"/>
<path d="M150.077 277.747C150.077 277.747 148.734 276.455 146.977 276.196C145.22 275.937 144.962 277.618 144.962 277.618" stroke="black" stroke-linecap="round" stroke-linejoin="round"/>
<path d="M146.021 275.86C146.021 275.86 144.859 272.68 146.925 270.69C148.475 269.19 149.767 269.087 149.767 269.087" stroke="black" stroke-linecap="round" stroke-linejoin="round"/>
<path d="M157.001 269.604C157.001 269.604 160.669 270.173 162.116 271.93C163.563 273.688 162.245 277.876 162.245 277.876" stroke="black" stroke-linecap="round" stroke-linejoin="round"/>
<path d="M134.655 307.348L135.301 306.572C135.301 306.572 133.234 302.901 137.678 302.306C142.121 301.712 141.165 306.572 143.154 307.167" stroke="black" stroke-linecap="round" stroke-linejoin="round"/>
<path d="M142.922 306.882C143.129 306.934 152.79 306.753 157.854 305.124C162.917 303.496 165.139 301.117 166.069 298.791C166.999 296.464 169.634 294.603 171.7 293.827C173.767 293.051 173.793 293.103 173.793 293.103" stroke="black" stroke-linecap="round" stroke-linejoin="round"/>
<path d="M171.467 290.983L171.209 293.827" stroke="black" stroke-linecap="round" stroke-linejoin="round"/>
<path d="M172.165 298.222C172.165 298.222 168.936 298.946 166.869 301.014C164.803 303.082 164.234 305.796 160.282 306.132C157.75 306.313 155.193 306.365 152.661 306.21" stroke="black" stroke-linecap="round" stroke-linejoin="round"/>
<path d="M136.463 299.902C136.463 299.902 142.611 300.471 146.796 300.885C150.981 301.298 152.428 302.384 156.406 300.316C160.385 298.248 160.333 297.524 162.038 296.748C164.311 295.714 166.171 297.834 166.171 297.834" stroke="black" stroke-linecap="round" stroke-linejoin="round"/>
<path d="M137.884 298.041C141.397 299.152 145.091 299.514 148.734 299.127C152.764 298.713 156.742 297.834 160.565 296.49C161.857 295.998 163.33 296.05 164.57 296.696" stroke="black" stroke-linecap="round" stroke-linejoin="round"/>
<path d="M140.984 293.698C140.984 293.698 144.73 295.714 150.749 295.12C156.769 294.525 165.862 281.289 165.862 281.289" stroke="black" stroke-linecap="round" stroke-linejoin="round"/>
<path d="M147.984 295.249C147.984 295.249 152.712 296.593 156.044 294.008C159.299 291.474 166.765 281.909 166.765 281.909" stroke="black" stroke-linecap="round" stroke-linejoin="round"/>
<path d="M169.659 282.194L168.29 282.762" stroke="black" stroke-linecap="round" stroke-linejoin="round"/>
<path d="M150.155 268.104C149.948 268.156 149.251 273.585 149.251 273.585L155.916 274.412L156.691 268.983L150.155 268.104Z" stroke="black" stroke-linecap="round" stroke-linejoin="round"/>
<path d="M150.465 276.118L150.155 280.384L152.609 280.591L152.997 276.506L150.465 276.118Z" stroke="black" stroke-linecap="round" stroke-linejoin="round"/>
<path d="M152.893 292.664C152.738 292.664 152.583 292.612 152.454 292.534C152.454 292.534 150.929 291.552 147.7 291.061C146.073 290.828 144.394 290.751 142.74 290.854C142.301 290.88 141.939 290.57 141.914 290.13C141.888 289.691 142.198 289.329 142.637 289.303C144.394 289.2 146.176 289.251 147.933 289.536C151.549 290.078 153.254 291.216 153.332 291.268C153.694 291.5 153.771 291.992 153.539 292.353C153.384 292.534 153.151 292.664 152.893 292.664Z" stroke="black" stroke-linecap="round" stroke-linejoin="round"/>
<path d="M142.56 289.329C144.084 288.501 145.763 288.036 147.52 287.933C151.446 287.674 153.926 288.579 154.03 288.605C154.443 288.734 154.65 289.174 154.52 289.587C154.391 290.001 153.952 290.208 153.539 290.078C153.513 290.078 153.487 290.053 153.461 290.053C153.435 290.053 151.188 289.225 147.623 289.458" stroke="black" stroke-linecap="round" stroke-linejoin="round"/>
<path d="M155.942 288.76C155.813 288.76 155.658 288.708 155.554 288.657C155.529 288.657 153.023 287.157 149.019 287.08C146.384 287.028 143.981 288.295 143.955 288.32C143.568 288.527 143.103 288.372 142.922 287.984C142.741 287.622 142.87 287.157 143.232 286.95C143.335 286.899 146.048 285.477 149.07 285.528C153.539 285.606 156.278 287.261 156.381 287.312C156.743 287.545 156.872 288.01 156.639 288.372C156.459 288.605 156.226 288.76 155.942 288.76Z" stroke="black" stroke-linecap="round" stroke-linejoin="round"/>
<path d="M146.874 281.599C148.372 281.185 150.542 281.185 150.594 281.185C156.872 281.185 159.067 283.409 159.197 283.512C159.532 283.771 159.584 284.262 159.326 284.598C159.067 284.934 158.577 284.986 158.241 284.727L158.215 284.701C157.156 284.107 156.019 283.616 154.857 283.279" stroke="black" stroke-linecap="round" stroke-linejoin="round"/>
<path d="M145.97 283.926C147.106 283.564 148.295 283.383 149.509 283.357H149.586C154.779 283.409 157.672 285.58 157.801 285.684C158.137 285.942 158.215 286.433 157.982 286.769C157.724 287.105 157.233 287.183 156.897 286.95L156.871 286.925C156.846 286.899 154.236 284.96 149.586 284.934L148.811 284.96" stroke="black" stroke-linecap="round" stroke-linejoin="round"/>
<path d="M145.479 285.735C145.143 285.865 144.781 286.02 144.471 286.175C144.084 286.356 143.645 286.226 143.438 285.839C143.231 285.451 143.206 284.805 143.593 284.598" stroke="black" stroke-linecap="round" stroke-linejoin="round"/>
<path d="M151.859 289.768C152.454 290.208 152.97 290.751 153.409 291.319" stroke="black" stroke-linecap="round" stroke-linejoin="round"/>
<path d="M146.512 285.761C145.789 285.606 145.066 285.477 144.342 285.399C143.903 285.373 143.567 285.037 143.593 284.598C143.619 284.158 143.955 283.822 144.394 283.848C146.28 283.977 148.114 284.494 149.767 285.399" stroke="black" stroke-linecap="round" stroke-linejoin="round"/>
<path d="M153.306 287.726C154.417 288.553 154.546 288.838 154.598 288.863C154.882 289.174 154.882 289.665 154.572 289.949C154.262 290.234 153.771 290.234 153.487 289.923C153.487 289.897 152.712 288.682 149.793 287.08" stroke="black" stroke-linecap="round" stroke-linejoin="round"/>
<path d="M156.768 286.692C156.51 286.692 156.251 286.563 156.122 286.33C156.07 286.252 154.572 284.003 150.129 283.331C147.494 282.943 144.342 283.796 144.316 283.796C143.903 283.926 143.464 283.796 143.335 283.383C143.205 282.969 143.438 282.53 143.851 282.426C143.98 282.375 147.365 281.34 150.361 281.806C155.554 282.581 157.388 285.399 157.44 285.529C157.672 285.89 157.543 286.382 157.181 286.588C157.052 286.64 156.923 286.692 156.768 286.692Z" stroke="black" stroke-linecap="round" stroke-linejoin="round"/>
<path d="M154.134 281.444L152.661 280.229" stroke="black" stroke-linecap="round" stroke-linejoin="round"/>
<path d="M152.919 278.962C156.096 279.686 159.145 280.953 161.909 282.685C162.271 282.917 162.374 283.383 162.141 283.745C161.909 284.107 161.444 284.21 161.082 283.977C161.056 283.952 161.031 283.952 161.005 283.926C160.979 283.9 157.156 282.064 153.694 281.211L158.137 282.762" stroke="black" stroke-linecap="round" stroke-linejoin="round"/>
<path d="M150.025 280.229C150.025 280.229 148.217 280.591 146.822 281.004C146.099 281.263 145.401 281.599 144.755 282.013C144.394 282.245 143.929 282.142 143.67 281.806C143.438 281.444 143.541 280.979 143.877 280.72C144.652 280.229 145.479 279.815 146.331 279.531C147.571 279.195 148.811 278.988 150.077 278.885" stroke="black" stroke-linecap="round" stroke-linejoin="round"/>
<path d="M153.332 277.747C153.487 277.747 156.949 277.825 159.636 278.962C161.134 279.634 162.503 280.539 163.743 281.625C164.053 281.909 164.079 282.4 163.795 282.711C163.511 283.021 163.02 283.047 162.71 282.762C161.625 281.78 160.385 281.004 159.067 280.384C156.665 279.35 152.893 279.272 152.867 279.272" stroke="black" stroke-linecap="round" stroke-linejoin="round"/>
<path d="M150 279.195L145.479 279.376C145.479 279.376 144.059 279.686 144.059 278.626C144.059 278.212 144.394 277.85 144.808 277.825L150.052 277.644" stroke="black" stroke-linecap="round" stroke-linejoin="round"/>
<path d="M144.446 279.324L144.136 280.565" stroke="black" stroke-linecap="round" stroke-linejoin="round"/>
<path d="M79.9915 279.583C79.9915 279.583 84.4348 278.368 85.7782 277.876C87.1215 277.385 89.5757 276.17 89.5757 276.17C94.6132 276.765 99.7282 276.299 104.585 274.748C109.907 272.965 115.151 270.922 120.266 268.596C120.266 268.596 123.417 269.785 124.993 269.397C126.569 269.009 128.403 267.923 128.791 265.519C129.178 263.115 129.488 262.727 129.85 262.495C130.212 262.262 130.961 263.193 131.658 264.614C132.356 266.036 133.492 269.397 133.492 269.397L129.359 280.849L104.456 286.227L78.7773 280.126L79.9915 279.583Z" fill="#A28ADD"/>
<path d="M81.4902 288.424C81.4902 288.424 95.8536 288.476 101.589 287.907C107.324 287.338 113.033 285.735 113.265 285.684C113.498 285.632 134.164 283.771 134.164 283.771C134.164 283.771 134.733 285.348 134.061 286.252C133.389 287.157 132.589 288.114 132.589 288.114L116.288 288.734C116.288 288.734 107.117 290.053 103.242 290.802C94.6652 292.457 86.4761 290.544 86.4761 290.544L81.4902 288.424Z" fill="white"/>
<path d="M76.8394 283.021C76.8394 283.021 74.8761 286.563 82.0061 289.044C89.1361 291.526 80.7403 288.631 80.2753 286.252C79.8103 283.874 79.1644 283.357 78.3894 283.021C77.8986 282.84 77.3303 282.84 76.8394 283.021Z" fill="black"/>
<path d="M87.3794 288.372C87.3794 288.372 98.5135 288.502 102.208 288.14C105.902 287.778 114.427 285.529 114.427 285.529L133.079 283.848L134.809 283.383C134.809 283.383 137.393 281.728 137.909 280.41C138.426 279.091 138.194 277.359 138.194 277.359L135.714 276.17L134.189 276.093L133.828 280.151C133.828 280.151 129.229 280.513 125.019 280.849C120.808 281.185 114.401 281.702 108.769 283.771C104.481 285.399 99.9861 286.459 95.3877 286.873C91.5127 287.286 80.4561 287.209 80.4561 287.209C80.4561 287.209 80.9727 287.984 83.4269 288.14C85.8811 288.295 87.3794 288.372 87.3794 288.372Z" fill="white"/>
<path d="M76.8398 283.021C76.9432 282.323 77.2532 281.677 77.7182 281.159C78.209 280.694 78.7515 280.332 79.3973 280.074C79.3973 280.074 81.7482 282.917 87.4057 282.53C93.0632 282.142 99.9865 280.746 102.234 280.849C104.482 280.953 105.644 281.004 106.497 281.547C107.349 282.09 109.261 283.409 109.261 283.409C109.261 283.409 104.404 285.735 96.3182 286.821C88.2323 287.907 80.069 286.692 80.069 286.692C80.069 286.692 80.224 284.856 79.5007 283.952C78.7773 283.047 76.8398 283.021 76.8398 283.021Z" fill="#C18B1E"/>
<path d="M80.3018 280.591C80.3018 280.591 88.0259 280.849 90.8676 280.513C93.7093 280.177 95.9051 279.738 97.6101 279.764C99.3151 279.789 101.821 280.1 101.821 280.1L103.319 280.694C103.319 280.694 97.5326 281.883 93.6576 282.245C89.7826 282.607 87.3026 282.711 84.5384 282.452C81.7743 282.194 80.3018 280.591 80.3018 280.591Z" fill="#A28ADD"/>
<path d="M128.403 280.125C129.669 278.678 130.65 276.997 131.348 275.214C132.484 272.292 133.492 269.397 133.492 269.397C133.905 271.439 134.138 273.507 134.189 275.601C134.267 279.221 133.802 280.125 133.802 280.125L128.093 280.513L128.403 280.125Z" fill="#C18B1E"/>
<path d="M121.635 280.772L130.78 276.454L128.119 280.513L121.635 280.772Z" fill="#A28ADD"/>
<path d="M118.328 267.949C118.328 267.949 112.903 270.793 107.762 272.628C102.621 274.464 97.041 276.067 97.041 276.067C97.041 276.067 102.699 275.782 110.216 272.758C117.734 269.733 120.033 268.699 120.033 268.699L118.664 267.742L118.328 267.949Z" fill="#C18B1E"/>
<path d="M92.8046 273.663L90.0146 275.963C90.0146 275.963 93.373 277.489 102.001 274.671C110.63 271.853 118.664 267.768 118.664 267.768L116.39 265.106L115.693 264.95L114.97 266.527C114.97 266.527 116.106 268.078 115.512 268.518C114.918 268.957 113.988 268.104 113.988 268.104L112.128 266.967C112.128 266.967 113.316 268.88 112.49 269.345C111.663 269.811 109.984 267.225 109.984 267.225L108.692 266.786C108.692 266.786 109.622 268.13 109.777 269.087C109.932 270.043 110.01 270.405 109.467 270.483C108.925 270.56 108.64 270.612 108.434 269.992C108.253 269.552 108.02 269.138 107.762 268.776L106.651 268.518C106.651 268.518 107.349 270.509 106.651 270.948C106.238 271.207 105.721 271.207 105.308 270.948L103.68 269.604C103.68 269.604 103.913 271.956 103.5 272.344C103.086 272.732 102.234 272.163 102.234 272.163C102.027 271.801 101.769 271.465 101.433 271.207C101.045 270.896 100.606 270.664 100.141 270.509L100.787 272.861C100.787 272.861 100.994 273.507 100.529 273.663C100.064 273.818 99.418 273.507 99.418 273.507L99.2113 272.396L97.6096 272.577C97.6096 272.577 97.8938 274.076 97.6096 274.361C97.3513 274.567 97.0155 274.722 96.6796 274.774C96.163 274.386 95.6205 274.076 95.0263 273.818C94.3288 273.559 92.8046 273.663 92.8046 273.663Z" fill="#A28ADD"/>
<path d="M96.4474 274.593C96.4474 274.593 94.7166 273.637 93.9932 273.637C93.5024 273.637 92.9857 273.507 92.5466 273.301C92.4949 272.964 92.4949 272.628 92.5466 272.292C92.6499 271.724 93.4766 271.724 93.4766 271.724C93.4766 271.724 93.2957 271.362 93.7866 271.077C94.1741 270.87 94.5616 270.69 94.9749 270.56C94.9749 270.56 95.0266 270.043 95.3624 269.94C95.5949 269.862 95.8274 269.836 96.0599 269.836L96.9382 268.88C96.9124 268.647 96.9899 268.44 97.1449 268.285C97.4032 268.104 98.3074 268.285 98.3074 268.285C98.4107 267.975 98.6174 267.691 98.9016 267.51C99.2632 267.329 99.6766 267.225 100.09 267.225C100.09 267.225 100.374 266.786 100.581 266.527C100.787 266.269 101.459 266.527 101.459 266.527L101.976 265.778C101.976 265.778 102.182 265.183 102.492 265.157C102.957 265.183 103.422 265.261 103.862 265.364C103.758 265.028 103.707 264.692 103.707 264.356C103.707 263.942 104.146 263.477 104.146 263.477L104.947 263.322C104.947 263.322 105.412 263.373 105.308 263.141C105.153 262.856 105.076 262.52 105.102 262.21C105.153 261.874 106.187 262.133 106.187 262.133L104.172 265.131L105.928 265.545L107.814 263.037C107.814 263.037 112.981 265.106 114.143 266.036C115.306 266.967 116.287 268.44 115.383 268.596C114.479 268.751 112.826 267.2 112.826 267.2L111.947 266.967C111.947 266.967 113.446 269.009 112.542 269.345C111.637 269.681 110.527 267.561 109.803 267.174L108.615 266.553L110.01 269.733C110.01 269.733 109.984 270.328 109.571 270.509C109.157 270.69 108.486 269.862 108.486 269.862L108.047 268.802L106.755 268.544C106.755 268.544 107.246 270.483 106.755 270.974C106.264 271.465 105.412 270.974 105.412 270.974L103.784 269.63C103.784 269.63 104.172 271.439 103.707 272.189C103.242 272.939 101.847 271.439 101.847 271.439L100.4 270.534C100.4 270.534 101.769 273.223 100.632 273.714C99.4957 274.205 99.2116 272.628 99.2116 272.628L97.5066 272.551C97.5066 272.551 98.1266 274.231 97.7391 274.593C97.3516 274.955 96.4474 274.593 96.4474 274.593Z" fill="white"/>
<path d="M107.401 261.616L107.53 263.322L105.876 265.519L103.913 265.106C103.913 265.106 104.946 263.451 105.721 262.727C106.212 262.288 106.781 261.9 107.401 261.616Z" fill="white"/>
<path d="M111.689 255.515L115.228 257.066C115.228 257.066 117.166 257.919 116.856 260.504C116.546 263.089 115.073 266.812 115.073 266.812L107.556 263.348L107.013 262.107L106.703 261.797L106.755 259.341L109.416 259.289L110.991 255.282L111.689 255.515Z" fill="white"/>
<path d="M110.345 255.256L107.452 254.196C107.452 254.196 106.677 256.006 106.599 257.143C106.522 258.281 106.496 259.056 106.496 259.056L109.364 259.263L110.939 255.256H110.345Z" fill="white"/>
<path d="M116.288 262.934L115.745 264.614C115.745 264.614 117.011 265.416 117.45 266.346C117.889 267.277 119.517 269.061 123.211 269.423C126.905 269.785 128.378 267.458 128.765 265.493C128.92 264.692 129.101 263.865 129.333 263.089C129.333 263.089 128.481 262.236 127.551 262.417C126.621 262.598 127.396 266.269 125.381 267.019C123.366 267.768 120.938 267.717 119.982 266.786C119.026 265.855 117.683 264.485 117.683 264.485L117.502 262.908L116.288 262.934Z" fill="white"/>
<path d="M93.1148 273.404C93.1148 273.404 90.2473 275.808 88.5939 276.713C86.9406 277.618 82.1356 279.091 80.3273 279.479C78.5189 279.867 76.9689 281.496 76.5039 283.693C76.0389 285.89 78.6223 287.907 81.0764 288.682C83.5306 289.458 90.0406 292.483 100.245 291.19C110.449 289.897 115.021 288.734 118.483 288.734C121.945 288.734 132.381 287.959 132.381 287.959C132.381 287.959 133.906 287.002 134.164 285.942C134.319 285.167 134.396 284.365 134.371 283.564C135.843 282.866 137.057 281.754 137.884 280.384C138.711 278.962 138.891 276.816 136.67 276.455C134.681 276.144 134.138 276.067 134.138 276.067C134.138 276.067 134.422 272.241 133.363 268.647C132.64 266.372 131.581 264.227 130.211 262.262C130.211 262.262 129.101 262.184 129.049 263.994C128.997 265.804 127.525 270.017 122.591 269.242C117.656 268.466 117.372 265.157 116.132 264.976" stroke="black" stroke-linecap="round" stroke-linejoin="round"/>
<path d="M134.164 283.745C134.164 283.745 128.817 284.391 122.048 284.856C115.28 285.322 114.944 285.244 111.999 285.942C106.936 287.235 101.769 288.01 96.5766 288.321C91.5649 288.553 86.5532 288.45 81.5674 287.984" stroke="black" stroke-linecap="round" stroke-linejoin="round"/>
<path d="M76.8398 283.021C76.8398 283.021 78.5448 282.633 79.5007 284.003C80.4565 285.373 79.0873 287.183 81.5673 287.959" stroke="black" stroke-linecap="round" stroke-linejoin="round"/>
<path d="M80.3018 286.847C80.3018 286.847 89.7568 288.217 99.1343 286.33C108.512 284.443 110.656 282.401 118.664 281.47C126.673 280.539 132.795 280.772 135.12 279.738C137.445 278.704 137.988 277.489 137.988 277.489" stroke="black" stroke-linecap="round" stroke-linejoin="round"/>
<path d="M134.164 275.265C134.164 275.265 134.086 276.946 133.983 277.902C133.88 278.652 133.725 279.402 133.492 280.151" stroke="black" stroke-linecap="round" stroke-linejoin="round"/>
<path d="M133.493 269.397C133.493 269.397 132.072 273.611 131.039 275.938C130.005 278.264 128.042 280.539 128.042 280.539" stroke="black" stroke-linecap="round" stroke-linejoin="round"/>
<path d="M120.757 281.16C120.757 281.16 125.019 279.298 126.983 278.316C128.507 277.54 131.039 275.938 131.039 275.938" stroke="black" stroke-linecap="round" stroke-linejoin="round"/>
<path d="M79.3711 280.1C79.3711 280.1 80.5336 282.685 87.3794 282.556C94.2253 282.426 100.089 281.004 103.06 280.875C106.289 280.746 109.234 283.409 109.234 283.409" stroke="black" stroke-linecap="round" stroke-linejoin="round"/>
<path d="M79.9912 280.617C79.9912 280.617 81.6445 280.487 85.6745 280.668C89.7045 280.849 94.2254 280.022 97.7904 279.815C101.355 279.608 103.68 280.901 103.68 280.901" stroke="black" stroke-linecap="round" stroke-linejoin="round"/>
<path d="M89.5752 276.17C89.7044 276.222 91.9002 277.385 101.355 274.826C110.81 272.267 118.664 267.768 118.664 267.768" stroke="black" stroke-linecap="round" stroke-linejoin="round"/>
<path d="M93.0889 276.429C93.0889 276.429 98.3072 276.946 107.426 273.973C117.243 270.767 119.878 268.621 119.878 268.621" stroke="black" stroke-linecap="round" stroke-linejoin="round"/>
<path d="M117.295 264.278C119.491 265.183 119.491 267.898 123.547 267.562C127.602 267.225 126.207 264.072 127.241 262.779C128.222 261.538 129.178 263.115 129.178 263.115" stroke="black" stroke-linecap="round" stroke-linejoin="round"/>
<path d="M106.496 259.056L109.389 259.315C109.389 259.315 109.699 257.996 109.932 257.298C110.216 256.6 110.552 255.928 110.939 255.282L107.452 254.196C107.116 254.92 106.858 255.67 106.703 256.445C106.574 257.298 106.496 258.177 106.496 259.056Z" stroke="black" stroke-linecap="round" stroke-linejoin="round"/>
<path d="M106.704 259.418L106.678 261.771" stroke="black" stroke-linecap="round" stroke-linejoin="round"/>
<path d="M106.523 262.133C106.523 262.133 105.851 262.314 104.817 263.684C103.784 265.054 103.862 265.364 103.862 265.364L105.903 265.545C105.903 265.545 107.013 263.658 107.556 263.348C108.331 262.856 106.523 262.133 106.523 262.133Z" stroke="black" stroke-linecap="round" stroke-linejoin="round"/>
<path d="M114.996 266.967C115.074 266.838 116.649 261.797 116.649 261.797C116.649 261.797 117.631 258.255 114.815 256.833C113.446 256.161 112.025 255.592 110.553 255.153" stroke="black" stroke-linecap="round" stroke-linejoin="round"/>
<path d="M96.9128 274.748C96.7319 274.748 96.5511 274.697 96.422 274.567C95.9311 274.231 95.4145 273.947 94.872 273.74C94.3036 273.533 93.7095 273.43 93.0895 273.404C92.6503 273.404 92.3145 273.068 92.3145 272.628C92.3145 272.189 92.6503 271.853 93.0895 271.853C93.8903 271.853 94.6911 272.008 95.4661 272.292C96.1636 272.551 96.8095 272.913 97.4036 273.352C97.7395 273.611 97.7911 274.102 97.507 274.438C97.3778 274.645 97.1453 274.748 96.9128 274.748Z" stroke="black" stroke-linecap="round" stroke-linejoin="round"/>
<path d="M95.7236 272.318C95.5428 271.879 95.3361 271.439 95.1036 271.026C94.897 270.664 95.0261 270.173 95.4136 269.966C95.7753 269.759 96.2145 269.888 96.447 270.224C96.757 270.741 97.0153 271.284 97.222 271.853C97.4028 272.447 97.532 273.042 97.6353 273.637" stroke="black" stroke-linecap="round" stroke-linejoin="round"/>
<path d="M96.6797 270.586C97.6872 270.56 98.6689 270.638 99.6505 270.845C100.064 270.948 100.322 271.362 100.245 271.775C100.167 272.137 99.8572 272.37 99.4955 272.396C99.4439 272.396 99.3922 272.396 99.3405 272.37L97.3514 272.344" stroke="black" stroke-linecap="round" stroke-linejoin="round"/>
<path d="M93.6319 271.698C93.5544 271.284 93.8386 270.871 94.2519 270.793C94.2777 270.793 94.5619 270.741 94.9752 270.69" stroke="black" stroke-linecap="round" stroke-linejoin="round"/>
<path d="M98.3336 270.56C97.8686 269.552 97.2486 269.423 97.2486 269.423C96.8869 269.19 96.7836 268.699 97.0419 268.337C97.2744 267.975 97.7653 267.872 98.1269 268.13C98.1528 268.13 98.1528 268.156 98.1786 268.156C98.9794 268.776 99.5994 269.604 100.039 270.509C100.349 271.258 100.581 272.008 100.788 272.784C100.917 273.197 100.684 273.637 100.271 273.74C99.8578 273.843 99.4186 273.637 99.3153 273.223C99.3153 273.197 99.3153 273.197 99.2894 273.171C99.2378 272.964 99.1603 272.706 99.0569 272.318" stroke="black" stroke-linecap="round" stroke-linejoin="round"/>
<path d="M98.8242 268.647C99.3667 268.621 99.935 268.647 100.452 268.777C102.312 269.242 103.474 271.026 103.526 271.077C103.733 271.465 103.603 271.93 103.216 272.137C102.88 272.318 102.467 272.241 102.234 271.931C102.234 271.931 101.201 270.586 99.935 270.276" stroke="black" stroke-linecap="round" stroke-linejoin="round"/>
<path d="M97.8164 270.354C97.6356 270.405 97.4548 270.457 97.2739 270.509C96.8864 270.664 96.4473 270.354 96.2923 269.966C96.1373 269.63 96.2923 269.242 96.6539 269.087C96.6798 269.087 96.7056 269.061 96.7314 269.061" stroke="black" stroke-linecap="round" stroke-linejoin="round"/>
<path d="M101.846 269.345C101.536 268.751 100.71 268.053 100.426 267.82C100.09 267.536 100.064 267.044 100.322 266.734C100.581 266.424 101.046 266.372 101.356 266.605C101.485 266.708 102.647 267.613 103.19 268.621C103.913 269.94 103.861 271.853 103.861 271.93C103.861 272.344 103.5 272.68 103.086 272.68H103.061C102.647 272.68 102.156 272.292 102.156 271.853" stroke="black" stroke-linecap="round" stroke-linejoin="round"/>
<path d="M102.467 267.51C102.958 267.613 103.448 267.768 103.913 267.975C104.895 268.44 105.773 269.087 106.471 269.94C106.729 270.276 106.652 270.767 106.29 271.026C105.954 271.258 105.489 271.207 105.231 270.871C105.231 270.871 104.869 270.095 103.552 269.449" stroke="black" stroke-linecap="round" stroke-linejoin="round"/>
<path d="M101.433 268.88C100.787 268.802 100.142 268.751 99.4957 268.751C99.0565 268.751 98.7207 268.415 98.7207 267.975C98.7207 267.536 99.0565 267.2 99.4957 267.2C99.5215 267.2 99.7024 267.174 100.09 267.2" stroke="black" stroke-linecap="round" stroke-linejoin="round"/>
<path d="M104.533 268.285C103.81 267.458 102.906 266.734 102.647 266.657C102.234 266.605 101.924 266.243 101.95 265.804C101.976 265.493 102.182 265.261 102.466 265.157C103.241 264.899 104.895 266.191 105.618 267.019C106.781 268.311 106.936 270.198 106.936 270.276C106.961 270.715 106.651 271.077 106.212 271.103L104.533 268.285Z" stroke="black" stroke-linecap="round" stroke-linejoin="round"/>
<path d="M106.342 264.873C106.6 265.131 108.305 266.553 108.822 267.251C109.339 267.949 109.7 268.751 109.933 269.578C110.036 269.992 109.778 270.405 109.364 270.509C109.313 270.534 109.235 270.534 109.184 270.534C108.822 270.534 108.512 270.302 108.434 269.94C108.254 269.294 107.944 268.699 107.556 268.156C106.988 267.355 105.851 266.036 105.541 265.804" stroke="black" stroke-linecap="round" stroke-linejoin="round"/>
<path d="M106.367 265.312C107.013 265.571 108.899 266.346 109.7 267.07C111.017 268.234 111.379 268.983 111.379 268.983C111.508 269.268 111.792 269.449 112.102 269.449C112.206 269.449 112.309 269.423 112.412 269.397C112.8 269.216 112.981 268.777 112.826 268.389L111.456 266.502" stroke="black" stroke-linecap="round" stroke-linejoin="round"/>
<path d="M107.943 268.88C107.684 268.776 107.142 268.57 106.496 268.285" stroke="black" stroke-linecap="round" stroke-linejoin="round"/>
<path d="M104.585 265.984C106.032 266.398 106.109 266.657 106.445 266.76" stroke="black" stroke-linecap="round" stroke-linejoin="round"/>
<path d="M101.434 266.527C101.434 266.321 101.537 266.14 101.718 266.036" stroke="black" stroke-linecap="round" stroke-linejoin="round"/>
<path d="M107.582 263.141C107.737 263.192 111.663 264.795 113.213 265.674C114.867 266.605 115.487 267.458 115.538 267.536C115.771 267.897 115.693 268.363 115.332 268.621C115.203 268.725 115.048 268.751 114.893 268.751C114.634 268.751 114.402 268.621 114.247 268.415C114.247 268.415 113.756 267.742 112.438 267.019C110.966 266.191 106.652 264.382 106.626 264.356" stroke="black" stroke-linecap="round" stroke-linejoin="round"/>
<path d="M116.287 263.115L117.398 262.934" stroke="black" stroke-linecap="round" stroke-linejoin="round"/>
<path d="M105.23 262.934C105.23 262.934 104.662 262.624 105.075 262.184C105.54 261.693 106.29 262.184 106.29 262.184" stroke="black" stroke-linecap="round" stroke-linejoin="round"/>
<path d="M103.939 264.873C103.939 264.873 103.422 264.252 103.784 263.735C104.094 263.296 104.869 263.503 104.869 263.503" stroke="black" stroke-linecap="round" stroke-linejoin="round"/>
<path d="M117.604 25.8467L119.051 29.3625" stroke="black" stroke-linecap="round" stroke-linejoin="round"/>
<path d="M99.0048 52.1121L93.9932 35.6962" stroke="black" stroke-linecap="round" stroke-linejoin="round"/>
<path d="M124.632 42.3143L125.82 45.1063" stroke="black" stroke-linecap="round" stroke-linejoin="round"/>
<path d="M118.277 35.903C118.147 35.205 118.096 34.507 118.096 33.809C118.096 29.3883 120.395 26.0276 124.812 26.0276C129.23 26.0276 132.821 29.621 132.821 34.0417C132.821 38.4623 129.23 42.0557 124.812 42.0557C123.908 42.0557 122.978 41.8748 122.152 41.487" stroke="black" stroke-linecap="round" stroke-linejoin="round"/>
<path d="M77.5889 41.8231L117.76 26.4413C117.76 26.4413 115.254 14.8596 108.279 14.0324C101.304 13.2051 95.1814 28.5094 95.1814 28.5094L77.5889 41.8231Z" stroke="black" stroke-linecap="round" stroke-linejoin="round"/>
<path d="M95.1816 28.5094L113.885 27.9148" stroke="black" stroke-linecap="round" stroke-linejoin="round"/>
<path d="M112.025 27.9924C112.025 27.9924 111.586 24.2956 112.464 22.124C113.497 19.5906 114.608 18.7633 114.608 18.7633" stroke="black" stroke-linecap="round" stroke-linejoin="round"/>
<path d="M112.542 21.788L98.54 21.8397" stroke="black" stroke-linecap="round" stroke-linejoin="round"/>
<path d="M105.309 31.8185L109.7 44.8478L104.973 46.4506L100.581 33.4213" stroke="black" stroke-linecap="round" stroke-linejoin="round"/>
<path d="M112.309 28.6646C113.136 30.3966 112.387 32.4906 110.63 33.3179C108.899 34.1451 106.807 33.3954 105.98 31.6375C105.903 31.4824 105.825 31.3014 105.773 31.1205" stroke="black" stroke-linecap="round" stroke-linejoin="round"/>
<path d="M101.459 36.2908C100.787 37.0405 99.8573 37.4799 98.8498 37.4799C97.2481 37.4799 96.0598 36.7044 95.6465 35.2308" stroke="black" stroke-linecap="round" stroke-linejoin="round"/>
<path d="M110.216 29.5176C110.655 30.1639 110.5 31.0428 109.88 31.5082C109.234 31.9477 108.356 31.7925 107.891 31.1721C107.71 30.9394 107.633 30.6292 107.633 30.3448" stroke="black" stroke-linecap="round" stroke-linejoin="round"/>
<path d="M99.8314 33.5764C100.271 34.2227 100.116 35.1017 99.4955 35.567C98.8497 36.0065 97.9714 35.8514 97.5064 35.2309C97.3255 34.9983 97.248 34.688 97.248 34.4037" stroke="black" stroke-linecap="round" stroke-linejoin="round"/>
<path d="M115.202 179.2C115.202 179.2 106.29 157.743 109.777 120.516C113.265 83.2895 118.095 75.0169 118.095 75.0169L109.183 49.5528C109.183 49.5528 106.341 49.2426 102.337 50.4576C100.709 50.9229 99.2628 51.8536 98.152 53.0945L107.323 75.8958C107.323 75.8958 99.5728 90.1143 98.152 123.205C96.7312 156.295 102.802 177.752 102.802 177.752" stroke="black" stroke-linecap="round" stroke-linejoin="round"/>
<path d="M108.408 49.5011C112.077 48.3636 117.631 46.6833 120.576 46.1145C125.226 45.2097 131.426 45.0804 131.426 45.0804C131.426 45.0804 132.847 47.8724 133.802 56.4036C134.552 63.0475 134.526 66.7443 134.526 66.7443C134.526 66.7443 185.314 72.2507 210.062 122.972C231.943 167.773 205.748 200.709 205.748 200.709C205.748 200.709 198.877 205.026 184.41 201.924C169.943 198.821 161.857 192.617 164.26 173.151C166.662 153.684 169.762 152.133 169.762 152.133C169.762 152.133 163.252 143.86 158.732 118.345C153.229 87.1414 168.548 78.8688 168.548 78.8688" stroke="black" stroke-linecap="round" stroke-linejoin="round"/>
<path d="M80.1211 168.626C80.3278 171.031 80.4311 171.858 80.4311 171.858C80.4311 171.858 95.5953 179.95 125.045 179.614C143.904 179.407 156.691 176.692 163.795 174.779" stroke="black" stroke-linecap="round" stroke-linejoin="round"/>
<path d="M79.6556 126.979C79.6298 127.677 79.6039 128.401 79.5781 129.125C79.4231 133.597 79.3456 137.708 79.2939 141.404" stroke="black" stroke-linecap="round" stroke-linejoin="round"/>
<path d="M98.4111 53.7925L96.3444 55.3436L103.294 76.904L85.8819 87.2189C85.8819 87.2189 83.8669 91.3294 82.0586 102.11" stroke="black" stroke-linecap="round" stroke-linejoin="round"/>
<path d="M124.89 37.7644C123.469 37.7644 122.307 36.601 122.307 35.1792C122.307 33.7573 123.469 32.594 124.89 32.594" stroke="black" stroke-linecap="round" stroke-linejoin="round"/>
<path d="M122.307 35.1275C123.314 34.0676 124.993 33.99 126.052 34.9983" stroke="black" stroke-linecap="round" stroke-linejoin="round"/>
<path d="M58.3429 117.104C58.3429 117.104 55.8371 116.923 53.8737 113.743C52.8662 112.114 52.6337 110.15 53.1762 108.314C53.1762 108.314 44.9096 113.743 39.8204 108.056C34.7312 102.368 44.0312 101.257 47.8287 99.085C51.6262 96.9135 53.9512 92.803 61.5204 94.1732C69.0896 95.5433 72.1896 116.432 60.0479 124.342C46.2012 133.39 34.0596 121.421 34.0596 121.421" stroke="black" stroke-linecap="round" stroke-linejoin="round"/>
<path d="M60.6684 93.5785C60.6684 93.5785 57.3875 80.9111 49.2242 84.1943C44.0834 86.2624 46.4342 93.1907 49.0434 98.3352" stroke="black" stroke-linecap="round" stroke-linejoin="round"/>
<path d="M44.5742 110.641C45.1684 111.235 45.8659 111.727 46.6151 112.088C49.1726 113.252 51.3167 111.933 51.9109 110.486C52.0917 110.02 52.2209 109.529 52.2984 109.012" stroke="black" stroke-linecap="round" stroke-linejoin="round"/>
<path d="M46.0207 88.7442C46.0207 88.7442 43.8248 86.7278 40.389 88.8735C37.4182 90.7348 38.374 96.6032 40.1307 102.42" stroke="black" stroke-linecap="round" stroke-linejoin="round"/>
<path d="M38.3222 93.7078C38.3222 93.7078 34.9638 91.6655 31.5538 94.8711C28.5055 97.7407 30.5205 109.684 35.8938 114.001C41.2672 118.319 44.5738 114.467 45.1163 113.484C45.5297 112.709 45.323 111.571 45.0647 110.744" stroke="black" stroke-linecap="round" stroke-linejoin="round"/>
<path d="M30.133 101.282C30.133 101.282 28.1955 99.1366 24.5271 101.205C20.3421 103.557 21.4788 115.087 28.4796 119.508C35.4805 123.929 36.7463 118.681 36.953 117.75C37.3405 115.992 35.868 114.001 35.868 114.001" stroke="black" stroke-width="3" stroke-linecap="round" stroke-linejoin="round"/>
<path d="M68.2627 107.564C68.2627 107.564 73.4035 109.969 76.0127 111.959C77.8727 113.381 79.0869 114.415 79.0869 114.415" stroke="black" stroke-linecap="round" stroke-linejoin="round"/>
<path d="M44.4961 127.16C44.4961 127.16 49.1461 137.889 59.5569 149.703C71.3111 163.094 80.1719 169.609 80.1719 169.609" stroke="black" stroke-linecap="round" stroke-linejoin="round"/>
<path d="M116.675 23.0029C116.675 23.0029 118.793 22.6151 120.679 20.3919C122.565 18.1686 122.616 16.9019 124.786 16.8243C126.956 16.7467 128.377 20.4953 124.141 23.3648C119.904 26.2344 117.734 26.1827 117.734 26.1827" stroke="black" stroke-linecap="round" stroke-linejoin="round"/>
<path d="M26.4644 117.724L23.1836 119.482" stroke="black" stroke-width="3" stroke-linecap="round" stroke-linejoin="round"/>
<path d="M103.422 77.1626L65.5508 97.1978" stroke="black" stroke-linecap="round" stroke-linejoin="round"/>
<path d="M132.718 48.5188L182.989 18.6341C183.945 18.1687 184.979 17.8843 186.038 17.8068C190.197 17.5483 193.788 20.5988 194.046 24.6317C194.201 27.1393 193.555 29.7762 189.654 31.9736L134.319 61.0569" stroke="black" stroke-linecap="round" stroke-linejoin="round"/>
<path d="M60.0742 91.6913L100.297 67.8042" stroke="black" stroke-linecap="round" stroke-linejoin="round"/>
<path d="M20.3428 115.346L23.3653 113.51" stroke="black" stroke-width="3" stroke-linecap="round" stroke-linejoin="round"/>
<path d="M20.9417 126.515C22.6002 125.564 22.3914 122.081 20.4754 118.737C18.5593 115.393 15.6615 113.453 14.003 114.405C12.3445 115.357 12.5533 118.839 14.4694 122.183C16.3854 125.527 19.2832 127.467 20.9417 126.515Z" stroke="black" stroke-width="2.9999" stroke-miterlimit="3.9999" stroke-linecap="round" stroke-linejoin="round"/>
<path d="M14.2461 114.338C17.3461 112.657 19.8778 114.027 22.2028 118.215C23.9853 121.369 24.2953 125.066 20.8853 126.54" stroke="black" stroke-width="3" stroke-linecap="round" stroke-linejoin="round"/>
<path d="M146.771 102.989H119.439V108.107H146.771V102.989Z" stroke="black" stroke-linecap="round" stroke-linejoin="round"/>
<path d="M145.763 108.288V122.377C145.763 125.35 143.335 127.781 140.364 127.781H125.845C122.875 127.755 120.472 125.35 120.446 122.377V108.288" stroke="black" stroke-linecap="round" stroke-linejoin="round"/>
<path d="M155.735 143.085H119.439V149.082H155.735V143.085Z" stroke="black" stroke-linecap="round" stroke-linejoin="round"/>
<path d="M154.572 149.289V165.834C154.572 169.324 151.73 172.142 148.243 172.168H126.956C123.469 172.168 120.627 169.324 120.627 165.834V149.289" stroke="black" stroke-linecap="round" stroke-linejoin="round"/>
<path d="M79.604 107.254H86.9665L89.3173 102.135H80.7406C80.7406 102.135 79.9915 102.782 79.7331 104.514C79.5781 105.445 79.5265 106.349 79.604 107.254Z" stroke="black" stroke-linecap="round" stroke-linejoin="round"/>
<path d="M80.1465 107.228C80.1465 107.228 79.3456 111.339 78.984 117.776C78.6223 124.213 78.8548 126.927 78.8548 126.927V126.979H83.8665C86.8373 126.979 89.2657 124.549 89.2657 121.576V102.213" stroke="black" stroke-linecap="round" stroke-linejoin="round"/>
<path d="M142.353 149.082H132.847V152.391H142.353V149.082Z" stroke="black" stroke-linecap="round" stroke-linejoin="round"/>
<path d="M76.427 147.531H84.9003L87.2511 141.534H78.0545C78.0545 141.534 77.3828 142.283 76.8661 144.3C76.3495 146.316 76.427 147.531 76.427 147.531Z" stroke="black" stroke-linecap="round" stroke-linejoin="round"/>
<path d="M81.0511 147.505H77.6152V150.815H81.0511V147.505Z" stroke="black" stroke-linecap="round" stroke-linejoin="round"/>
<path d="M76.8144 147.661C76.8144 147.661 76.3753 161.802 77.1244 164.904C78.1319 168.988 80.7411 168.73 80.7411 168.73C86.1144 168.73 87.0703 167.049 87.0703 162.396V141.637" stroke="black" stroke-linecap="round" stroke-linejoin="round"/>
<path d="M93.5537 176.304L93.8895 184.758C93.8895 184.758 109.751 189.67 132.562 188.377C153.668 187.162 163.82 183.543 163.82 183.543" stroke="black" stroke-linecap="round" stroke-linejoin="round"/>
<path d="M127.06 188.713L131.71 214.643C131.71 214.643 145.582 262.469 145.479 262.727C145.375 262.986 151.24 267.975 162.348 266.527C173.456 265.08 175.781 260.245 175.781 260.245L167.773 234.73L170.15 206.603" stroke="black" stroke-linecap="round" stroke-linejoin="round"/>
<path d="M171.984 197.348C171.984 197.348 166.481 214.462 173.792 224.958C176.246 228.474 180.767 232.506 188.569 233.179C201.098 234.213 203.604 228.991 203.604 223.665C203.604 223.407 203.604 223.148 203.578 222.89C203.345 219.141 201.614 215.858 201.614 215.858" stroke="black" stroke-linecap="round" stroke-linejoin="round"/>
<path d="M198.359 220.201C198.359 220.201 202.105 217.409 203.113 210.92C204.249 203.604 202.854 202.079 202.854 202.079" stroke="black" stroke-linecap="round" stroke-linejoin="round"/>
<path d="M203.578 222.864C203.578 222.864 208.848 221.028 207.427 215.625C206.342 211.437 203.423 210.196 203.423 210.196" stroke="black" stroke-linecap="round" stroke-linejoin="round"/>
<path d="M207.427 215.651C207.427 215.651 209.029 212.678 207.298 208.723C206.007 205.75 203.682 205.052 203.682 205.052" stroke="black" stroke-linecap="round" stroke-linejoin="round"/>
<path d="M197.224 218.753C197.224 218.753 198.257 219.606 198.593 221.545" stroke="black" stroke-linecap="round" stroke-linejoin="round"/>
<path d="M102.157 186.723L100.865 221.545L111.044 253.524C111.044 253.524 115.694 256.962 123.263 256.445C130.832 255.928 132.046 253.86 132.046 253.86L131.349 213.454" stroke="black" stroke-linecap="round" stroke-linejoin="round"/>
<path d="M116.546 256.006L117.76 264.511" stroke="black" stroke-linecap="round" stroke-linejoin="round"/>
<path d="M125.406 256.368L126.672 264.64" stroke="black" stroke-linecap="round" stroke-linejoin="round"/>
<path d="M154.081 266.786L154.443 268.725" stroke="black" stroke-linecap="round" stroke-linejoin="round"/>
<path d="M164.776 266.269L168.677 281.702" stroke="black" stroke-linecap="round" stroke-linejoin="round"/>
<path d="M133.259 106.841C133.973 106.841 134.551 106.262 134.551 105.548C134.551 104.834 133.973 104.255 133.259 104.255C132.546 104.255 131.968 104.834 131.968 105.548C131.968 106.262 132.546 106.841 133.259 106.841Z" stroke="black" stroke-linecap="round" stroke-linejoin="round"/>
<path d="M81.6914 104.741C81.8258 104.04 81.594 103.406 81.1736 103.325C80.7532 103.245 80.3035 103.748 80.1691 104.449C80.0347 105.15 80.2665 105.784 80.6869 105.864C81.1073 105.945 81.557 105.442 81.6914 104.741Z" stroke="black" stroke-linecap="round" stroke-linejoin="round"/>
<path d="M103.319 21.6845C103.862 20.1076 104.663 18.6082 105.619 17.2639C106.471 16.1006 107.478 15.0406 108.563 14.0841" stroke="black" stroke-linecap="round" stroke-linejoin="round"/>
<path d="M164.002 180.363C164.002 180.363 164.028 180.648 164.105 181.139" stroke="black" stroke-linecap="round" stroke-linejoin="round"/>
<path d="M164.725 183.646C166.223 188.3 170.744 196.521 184.048 198.951C197.3 201.381 203.785 199.519 206.523 198.123" stroke="black" stroke-linecap="round" stroke-linejoin="round" stroke-dasharray="6.06 6.06"/>
<path d="M207.66 197.477C207.867 197.322 208.073 197.167 208.254 196.986" stroke="black" stroke-linecap="round" stroke-linejoin="round"/>
<path d="M69.8651 109.503C69.8651 109.503 69.8651 119.327 62.6318 124.678C55.3985 130.03 46.2793 130.03 46.2793 130.03" stroke="black" stroke-linecap="round" stroke-linejoin="round" stroke-dasharray="6 6"/>
<path d="M114.557 177.209C136.412 178.424 156.071 174.288 164.441 172.194" stroke="black" stroke-linecap="round" stroke-linejoin="round" stroke-dasharray="6 6"/>
<path d="M80.8955 169.661C80.8955 169.661 86.2947 173.719 102.311 176.02" stroke="black" stroke-linecap="round" stroke-linejoin="round" stroke-dasharray="6 6"/>
<path d="M178.21 85.7196C178.21 85.7196 173.56 86.9346 168.212 91.226C162.865 95.5175 157.879 100.869 157.879 100.869" stroke="black" stroke-linecap="round" stroke-linejoin="round" stroke-dasharray="6 6"/>
<path d="M131.71 69.3553L160.643 87.4516" stroke="black" stroke-linecap="round" stroke-linejoin="round" stroke-dasharray="6 6"/>
<path d="M133.338 91.6396C133.208 91.6396 133.079 91.6913 132.976 91.7689C132.873 91.8723 132.795 91.9757 132.743 92.105C132.692 92.2342 132.64 92.3893 132.614 92.5186C132.588 92.6479 132.563 92.7771 132.511 92.8805C132.253 93.6302 131.943 94.3799 131.607 95.1038C131.271 95.8276 130.78 96.4998 130.16 97.0168C129.928 97.2236 129.643 97.4046 129.359 97.5597C129.049 97.7148 128.739 97.8182 128.403 97.8441C128.068 97.8958 127.732 97.8699 127.422 97.7665C127.086 97.6631 126.776 97.4563 126.543 97.1719C126.233 96.81 126.001 96.4222 125.82 95.9828C125.665 95.5433 125.536 95.0779 125.484 94.6126C125.433 94.1473 125.407 93.6819 125.407 93.2166C125.407 92.7513 125.433 92.3118 125.484 91.8982C125.562 91.0451 125.717 90.1919 125.949 89.3388C126.156 88.5116 126.466 87.7102 126.879 86.9605C127.086 86.5727 127.318 86.1849 127.577 85.823C127.835 85.4611 128.171 85.1508 128.584 84.944C128.894 84.7631 129.256 84.7372 129.592 84.8665C129.928 85.0216 130.16 85.3059 130.263 85.642C130.367 85.9781 130.418 86.3142 130.418 86.6502C130.418 87.0122 130.341 87.3741 130.238 87.7102C130.134 88.0462 129.979 88.3565 129.747 88.6408C129.54 88.9252 129.256 89.132 128.946 89.2871C128.739 89.3905 128.533 89.5198 128.352 89.6232C128.171 89.7525 128.016 89.9334 127.964 90.1402C127.861 90.3988 127.861 90.6573 127.938 90.9158C128.016 91.1743 128.197 91.407 128.403 91.5879C128.662 91.8206 128.972 91.9499 129.308 91.9757C129.618 91.9757 129.902 91.8982 130.16 91.7431C130.444 91.5879 130.677 91.407 130.909 91.1743C131.116 90.9675 131.297 90.7607 131.452 90.5022C131.658 90.1402 131.839 89.7783 131.968 89.3905C132.098 88.9769 132.175 88.5633 132.201 88.1496C132.227 87.7102 132.201 87.2965 132.098 86.8829C132.02 86.4693 131.865 86.0556 131.658 85.6679C131.271 84.8923 130.651 84.2977 129.902 83.9099C129.127 83.5739 128.248 83.5222 127.448 83.7807C126.595 83.9875 125.82 84.4011 125.174 84.9699C124.554 85.5386 124.012 86.2108 123.624 86.9605C123.288 87.6585 123.03 88.3823 122.875 89.132C122.72 89.9334 122.643 90.7348 122.643 91.5362C122.668 92.3635 122.772 93.1649 122.978 93.9405C123.185 94.7419 123.495 95.4916 123.934 96.1637C124.167 96.5256 124.399 96.8876 124.683 97.2236C124.968 97.5597 125.278 97.8699 125.613 98.1285C125.949 98.387 126.337 98.5938 126.75 98.7489C127.163 98.904 127.628 98.9816 128.068 98.9557C128.713 98.9299 129.359 98.6972 129.902 98.3611C130.444 98.0251 130.909 97.6114 131.323 97.1461C131.839 96.5515 132.304 95.9052 132.666 95.233C133.053 94.5609 133.363 93.8371 133.596 93.0873C133.622 92.9839 133.673 92.8547 133.725 92.6996C133.777 92.5445 133.828 92.3893 133.828 92.2342C133.828 92.0791 133.803 91.9499 133.725 91.8206C133.699 91.6914 133.518 91.6138 133.338 91.6396Z" fill="#8C1C2F" stroke="#8C1C2F" stroke-linecap="round" stroke-linejoin="round"/>
<path d="M133.957 88.8994C134.035 88.8218 134.086 88.6926 134.086 88.5891C134.086 88.4857 134.138 88.3565 134.19 88.2789C134.448 87.9428 134.706 87.6068 134.939 87.2707C135.171 86.9346 135.378 86.5727 135.585 86.2366C135.688 86.0815 135.765 85.9006 135.843 85.7454C135.92 85.5903 135.998 85.4094 136.075 85.2284C136.23 84.8665 136.205 84.427 135.998 84.0909C135.817 83.7548 135.507 83.4963 135.171 83.3154C134.835 83.1603 134.474 83.1086 134.112 83.1603C133.725 83.2378 133.44 83.5222 133.337 83.91C133.26 84.1426 133.234 84.4011 133.26 84.6338C133.285 84.8923 133.311 85.1509 133.311 85.3577C133.311 85.6937 133.311 86.0557 133.285 86.3917C133.285 86.7278 133.234 87.0897 133.182 87.4258C133.156 87.5292 133.13 87.6326 133.079 87.7619C133.027 87.8911 133.001 88.0204 132.975 88.1755C132.95 88.3048 132.924 88.434 132.924 88.5633C132.924 88.6926 132.975 88.796 133.053 88.8994C133.182 89.0286 133.337 89.132 133.518 89.132C133.699 89.1062 133.854 89.0286 133.957 88.8994Z" fill="#8C1C2F" stroke="#8C1C2F" stroke-linecap="round" stroke-linejoin="round"/>
<path d="M138.969 88.77C138.84 88.5374 138.634 88.3306 138.375 88.1754C138.143 88.0462 137.91 87.9945 137.652 87.9686C137.394 87.9686 137.135 88.0203 136.903 88.0979C136.67 88.2013 136.438 88.3306 136.231 88.4857C135.844 88.7959 135.585 89.2354 135.456 89.7007C135.327 90.1919 135.327 90.6831 135.456 91.1743C135.559 91.6913 135.844 92.1566 136.205 92.5186C136.619 92.8805 137.058 93.1907 137.549 93.4234C137.807 93.5526 138.065 93.6819 138.298 93.837C138.556 93.9921 138.737 94.1989 138.892 94.4316C138.995 94.6384 139.047 94.8711 139.047 95.1296C139.047 95.3623 138.995 95.5949 138.918 95.8276C138.866 95.9827 138.763 96.1378 138.659 96.2671C138.556 96.3963 138.401 96.5256 138.246 96.6032C138.091 96.7066 137.91 96.7583 137.755 96.81C137.574 96.8617 137.394 96.8875 137.187 96.8617C136.929 96.8617 136.696 96.7583 136.515 96.6032C136.334 96.448 136.179 96.2671 136.076 96.0603C135.973 95.8534 135.921 95.6208 135.921 95.3881C135.921 95.1554 135.973 94.9486 136.05 94.7418C136.102 94.6643 136.154 94.5867 136.205 94.5092L136.386 94.3023C136.438 94.2506 136.489 94.1731 136.515 94.0955C136.567 94.018 136.567 93.9146 136.567 93.8111C136.567 93.6043 136.464 93.4234 136.334 93.2941C136.05 93.0097 135.611 92.9322 135.249 93.1132C135.094 93.1907 134.939 93.32 134.81 93.4492C134.681 93.5785 134.578 93.7594 134.5 93.9146C134.423 94.0697 134.371 94.2248 134.345 94.4057C134.268 94.8194 134.319 95.233 134.474 95.6466C134.629 96.0344 134.862 96.3963 135.172 96.7066C135.482 97.0168 135.869 97.2236 136.257 97.3787C136.67 97.5338 137.135 97.5338 137.574 97.4304C137.988 97.3529 138.349 97.146 138.685 96.8875C138.995 96.629 139.254 96.3188 139.46 95.9569C139.641 95.5949 139.744 95.2071 139.77 94.8194C139.796 94.4057 139.744 93.9921 139.589 93.6043C139.409 93.1649 139.15 92.7512 138.789 92.441C138.427 92.1049 137.988 91.8723 137.523 91.743C137.29 91.6913 137.084 91.5879 136.903 91.4586C136.722 91.3294 136.541 91.2001 136.412 91.0192C136.283 90.864 136.179 90.6572 136.128 90.4763C136.076 90.2694 136.05 90.0626 136.076 89.8558C136.154 89.4163 136.386 89.0286 136.722 88.7442C136.877 88.5891 137.084 88.4857 137.29 88.4598C137.523 88.4081 137.755 88.4598 137.962 88.6149C138.065 88.6666 138.143 88.77 138.169 88.8993C138.194 89.0027 138.194 89.132 138.169 89.2354C138.143 89.3388 138.091 89.468 138.039 89.5714C137.988 89.6749 137.91 89.7524 137.833 89.83C137.755 89.9075 137.678 89.9592 137.574 89.9851C137.471 90.0109 137.394 90.0368 137.29 90.0885C137.187 90.1402 137.084 90.2177 137.006 90.3211C136.929 90.4246 136.903 90.528 136.877 90.6314C136.851 90.7348 136.877 90.864 136.903 90.9674C137.006 91.3035 137.316 91.5362 137.678 91.562C137.884 91.562 138.091 91.5103 138.272 91.4069C138.479 91.2777 138.685 91.1226 138.84 90.9157C138.995 90.7348 139.099 90.5021 139.15 90.2694C139.331 89.7524 139.254 89.2095 138.969 88.77Z" fill="#8C1C2F" stroke="#8C1C2F" stroke-linecap="round" stroke-linejoin="round"/>
</svg>
