<svg width="40" height="59" viewBox="0 0 40 59" fill="none" xmlns="http://www.w3.org/2000/svg">
<path d="M39.0046 18.6673C38.9253 17.5638 37.3972 17.5755 37.2993 18.6673C37.136 20.4659 37.066 22.2762 37.0356 24.0841C36.2028 22.6378 35.167 21.3174 33.9283 20.2069C37.4719 18.9145 39.0699 13.8896 37.3972 10.346C36.3055 8.03415 33.66 7.3343 31.8124 9.27756C31.5581 9.54584 31.3365 9.83744 31.1452 10.1454C31.1406 10.0754 31.1336 10.0031 31.1289 9.93309C31.0566 8.95096 29.5426 8.92764 29.5822 9.93309C29.6405 11.4331 29.7082 12.9331 29.7898 14.4308C29.5052 13.5537 29.1576 12.6952 28.7494 11.8554C28.1778 10.6796 27.2774 8.6267 25.6234 8.99762C24.3916 9.27523 24.0767 10.7426 23.9624 11.7994C23.8084 13.2434 23.7828 14.7084 23.8411 16.1664C23.7968 16.1664 23.7524 16.1664 23.7058 16.1664C23.6335 15.189 23.5611 14.2115 23.4912 13.2341C23.2159 9.36854 23.0106 5.47269 22.4041 1.64217C22.2501 0.674036 20.7524 0.942313 20.7384 1.86845C20.6778 5.73397 21.044 9.61349 21.317 13.4673C21.3893 14.4728 21.4569 15.4783 21.5269 16.4837C20.7314 13.8149 20.1669 11.0179 19.1777 8.41907C18.9631 7.85686 17.9623 7.86852 18.0346 8.57304C18.2026 10.227 18.5782 11.881 19.0004 13.5187C18.9025 13.3017 18.8115 13.1034 18.7392 12.9308C18.2889 11.853 17.806 10.5653 17.1808 9.4292C17.1552 8.20912 17.0665 6.99137 16.9732 5.77363C17.6707 5.88794 18.3846 5.79696 19.0331 5.39338C20.9087 4.22229 20.0642 1.84979 18.5035 0.872327C17.1388 0.0161733 14.3768 -0.683677 13.4693 1.17327C13.0517 2.02709 13.292 3.0512 13.7959 3.81404C14.0595 4.21296 14.4024 4.5069 14.785 4.73318C15.2749 5.1321 15.8464 5.4587 16.4483 5.64766C16.4996 6.60879 16.5533 7.57225 16.6349 8.53339C16.4483 8.26511 16.2524 8.01316 16.0401 7.78687C14.9133 6.57846 13.5253 7.28298 13.2453 8.75034C12.8651 10.7473 13.2477 13.1128 13.5113 15.105C13.5789 15.6229 13.6559 16.1408 13.7445 16.6563C13.7096 16.654 13.6722 16.6493 13.6396 16.647C13.5579 16.64 13.4856 16.647 13.4203 16.661C12.1885 12.6718 10.9171 8.69668 9.54776 4.75184C9.22816 3.83271 7.8168 4.19663 8.07341 5.15776C9.06253 8.85298 10.1333 12.5225 11.2414 16.1828C9.68307 13.4347 8.11073 10.6936 6.47541 7.99683C5.98318 7.18733 4.60214 7.70523 4.90774 8.65703C6.1978 12.6952 7.35956 16.7777 8.5843 20.8391C8.49565 20.8461 8.40934 20.8555 8.32069 20.8718C6.41942 21.224 6.93498 23.3679 7.77713 24.4714C9.16517 26.2887 10.6442 28.0173 11.9553 29.8952C13.2197 31.7102 14.603 33.6184 15.4615 35.6667C16.0984 37.19 16.4133 40.1807 14.0105 40.2321C13.6722 40.2391 13.3386 40.1854 13.012 40.0921C12.9794 38.823 12.956 37.5539 12.97 36.2849C13.5229 36.2429 14.0571 35.7787 13.7982 35.1628C12.7997 32.7693 11.561 30.5508 10.0353 28.4512C8.95522 26.9628 7.40155 24.6347 5.22034 25.2995C3.09745 25.9457 3.44738 29.193 3.74598 30.8214C4.14956 33.0306 5.02205 35.2094 6.24446 37.0897C7.48787 39.0026 9.88136 41.5781 12.4148 42.3876C12.4568 43.575 12.5408 44.7531 12.6924 45.9125C12.7251 46.1621 13.0914 46.1808 13.096 45.9125C13.1147 44.7951 13.0984 43.6753 13.0727 42.5579C13.2103 42.5836 13.3503 42.6045 13.4903 42.6185C13.5113 45.6186 13.5533 48.6396 13.7725 51.6257C13.7889 51.8356 14.0991 51.8403 14.1038 51.6257C14.1761 48.6419 14.0711 45.6302 13.9475 42.6419C14.0245 42.6419 14.1038 42.6419 14.1808 42.6372C14.2088 43.2531 14.2391 43.869 14.2764 44.4825C14.2811 44.5735 14.4187 44.5735 14.4164 44.4825C14.4141 43.862 14.4047 43.2391 14.3931 42.6185C15.1722 42.5369 15.9421 42.2336 16.6676 41.6271C20.0899 38.7834 17.6381 34.2483 15.4662 31.0057C16.3037 31.3276 17.1948 31.5165 18.093 31.5749C18.4662 34.9715 19.0914 38.3821 20.1459 41.6318C20.2368 41.9094 20.4165 42.0797 20.6288 42.166C20.6264 42.2873 20.6218 42.4086 20.6194 42.5299C18.4895 42.5462 16.5393 43.6333 15.5152 45.6512C15.0649 46.5401 16.383 47.3239 16.8589 46.4374C17.6707 44.9281 19.0704 44.2119 20.5774 44.2282C20.5401 45.9452 20.5145 47.6598 20.5168 49.3768C20.5168 49.5354 20.7547 49.5331 20.7617 49.3768C20.8574 47.6692 20.9274 45.9592 20.9834 44.2492C21.093 44.2609 21.205 44.2749 21.3146 44.2935C21.3123 44.5595 21.31 44.8254 21.3123 45.0914C21.3123 45.2383 21.5316 45.236 21.5386 45.0914C21.5502 44.8417 21.5619 44.5898 21.5712 44.3402C21.9701 44.4265 22.3691 44.5595 22.7586 44.7414C25.0728 45.8239 26.8435 47.8931 28.3761 49.8737C28.4298 49.9413 28.4858 49.995 28.5418 50.0393C28.5698 52.8504 28.4415 55.6498 28.4111 58.4585C28.4088 58.6615 28.6981 58.6522 28.7191 58.4585C29.013 55.7291 29.0013 52.9367 28.922 50.1863C29.1063 50.198 29.2906 50.1326 29.4469 50.0137C29.4492 51.5347 29.4282 53.0627 29.5216 54.579C29.5309 54.7423 29.7712 54.7447 29.7782 54.579C29.8505 52.9297 29.7898 51.2711 29.7665 49.6217C29.9181 49.3091 29.9275 48.9196 29.6662 48.5836C27.7813 46.1458 25.3691 43.4934 22.2501 42.7282C22.2688 41.5781 22.2618 40.428 22.2454 39.2756C22.4274 39.3572 22.6233 39.4109 22.8333 39.4226C23.8667 39.4855 24.7159 38.732 25.4368 38.0812C26.4772 37.141 27.7066 35.5967 27.205 34.2996C27.6599 34.6426 28.1149 34.9832 28.5651 35.3284C28.7284 36.2126 28.8917 37.099 29.0573 37.9832C29.2953 39.2499 29.5286 40.5167 29.7712 41.7834C30.0348 43.1668 30.1654 44.6878 30.7113 45.9895C30.8373 46.2904 31.0892 46.4817 31.3645 46.5634C31.4415 49.0012 31.4392 51.495 31.7634 53.9025C31.7844 54.0658 32.0387 54.0192 32.0434 53.8652C32.1157 51.467 31.8567 49.0129 31.6794 46.6077C32.0947 46.596 32.4726 46.3231 32.4679 45.7539C32.4563 44.4662 32.055 43.1854 31.7751 41.9374C31.4602 40.5353 31.1429 39.1333 30.8233 37.7336C30.7393 37.3603 30.653 36.9894 30.569 36.6161C32.0784 36.1939 33.548 35.641 34.9734 34.9902C36.0558 34.4956 37.2036 33.903 37.3716 32.5967C37.3762 32.564 37.3762 32.5337 37.3786 32.501C37.3156 33.7817 37.2783 35.0648 37.3506 36.3245C37.3599 36.4692 37.5535 36.4622 37.5699 36.3245C37.7868 34.4583 37.7658 32.5313 37.7752 30.6324C37.8055 30.6394 37.8335 30.6417 37.8638 30.6464C37.8568 32.9419 37.8008 35.2608 37.9595 37.5469C37.9828 37.8829 38.4727 37.8875 38.4843 37.5469C38.5707 35.2398 38.4354 32.9093 38.3537 30.5997C38.7596 30.4714 39.1025 30.1308 39.1095 29.6269C39.1492 25.976 39.2682 22.3088 39.0046 18.6673ZM14.9786 1.9711C15.3915 1.23858 17.1925 2.09241 17.6217 2.37934C18.3869 2.89024 18.8045 4.05666 17.5657 4.19196C17.5284 4.19663 17.4934 4.19663 17.4561 4.19896C17.3815 3.98201 17.2088 3.80238 16.9055 3.73706C16.4646 3.64141 15.9701 3.5621 15.5945 3.29382C15.3006 3.08386 14.75 2.37934 14.9786 1.9711ZM12.3099 36.0913C12.3518 36.1263 12.3985 36.1566 12.4452 36.1822C12.4102 37.3953 12.3775 38.6224 12.3682 39.8541C12.3402 39.8401 12.3122 39.8285 12.2842 39.8168C12.3798 38.5757 12.3728 37.3323 12.3099 36.0913ZM9.0532 36.9917C7.76547 35.3937 6.83 33.4855 6.27012 31.5165C5.92253 30.2941 5.60759 28.9574 5.9062 27.6954C5.93886 27.5577 6.05783 27.3734 6.00884 27.3827C6.08816 27.3688 6.60138 27.7723 6.74135 27.903C7.21492 28.3439 7.60684 28.8851 7.99409 29.4007C9.47778 31.3836 10.7772 33.5181 12.0043 35.669C12.0602 37.0057 12.0486 38.3401 12.0276 39.6792C10.8472 39.0283 9.79738 37.9155 9.0532 36.9917ZM32.237 10.9852C32.7339 10.206 33.646 9.33355 34.6585 9.63682C35.6056 9.92142 36.0232 11.0622 36.2192 11.9207C36.8374 14.6384 35.251 18.9659 31.9221 18.6019C31.7401 16.8453 31.5675 15.0887 31.4088 13.3297C31.5231 12.5015 31.7844 11.6967 32.237 10.9852ZM30.0488 18.4153C30.0954 19.0265 30.1421 19.6377 30.1958 20.2466C30.3451 21.9309 30.5107 23.6129 30.695 25.2949C30.793 26.1953 30.8419 27.1565 30.9469 28.1036C30.8513 28.0849 30.758 28.0663 30.6717 28.0476C29.7408 27.8633 28.796 27.735 27.8466 27.672C29.7059 27.2731 29.9811 22.3765 30.0744 21.224C30.1514 20.2582 28.6701 20.1066 28.4181 21.0001C28.0962 22.1409 27.8093 23.2909 27.4873 24.434C27.471 24.49 27.4313 24.5903 27.38 24.7116C27.3753 24.7023 27.3707 24.6907 27.3683 24.6813C26.6732 22.6121 26.3232 20.3492 26.1343 18.1587C27.2634 18.2917 28.3971 18.4036 29.5122 18.5483C29.7222 18.5716 29.9018 18.5179 30.0488 18.4153ZM25.992 13.9106C26.0083 13.2784 26.0293 12.6392 26.0946 12.0093C26.1086 11.8833 26.1413 11.7434 26.1669 11.6081C26.2206 11.6804 26.2789 11.7574 26.3302 11.8437C26.4679 12.0793 26.5985 12.3219 26.7245 12.5645C26.9998 13.0964 27.254 13.6423 27.471 14.2022C27.7556 14.9347 27.9959 15.6882 28.2058 16.4511C27.478 16.3904 26.7455 16.3274 26.013 16.2738C25.9803 15.4829 25.971 14.6968 25.992 13.9106ZM19.2804 17.4168C19.5836 17.1602 19.7353 16.829 19.7843 16.4581C19.8193 16.591 19.8543 16.7263 19.8893 16.8593C20.1342 17.7994 20.3838 18.7372 20.6381 19.6727C20.3768 19.4254 19.9546 19.3508 19.579 19.675C18.8161 20.3329 18.6109 21.245 18.023 22.0125C17.3558 22.8874 17.0269 22.1688 16.7819 21.4503C16.5743 20.8391 16.411 20.2093 16.2477 19.5841C16.131 19.1292 16.0237 18.6719 15.9234 18.2147C16.1847 18.2007 16.4483 18.1774 16.7096 18.1447C17.5051 18.0444 18.6435 17.9581 19.2804 17.4168ZM16.8356 13.0381C17.1225 13.6866 17.3908 14.3422 17.6521 15C17.743 15.231 17.946 15.5576 17.9623 15.8049C17.9973 16.2738 18.0486 16.0778 17.6684 16.3017C17.1388 16.6167 16.3877 16.724 15.6272 16.7403C15.3099 14.9837 15.1093 13.2084 15.0369 11.4238C15.0113 10.7846 14.9716 10.129 15.0089 9.49218V9.48985C15.0393 9.54117 15.0719 9.58783 15.0999 9.63915C15.7461 10.7356 16.32 11.8787 16.8356 13.0381ZM14.0198 18.161C14.1645 18.8609 14.3278 19.5584 14.5121 20.2489C14.2974 19.5467 14.0828 18.8445 13.8682 18.1424C13.9195 18.1494 13.9708 18.1564 14.0198 18.161ZM10.089 21.1354C9.54543 19.1338 8.98321 17.1346 8.42566 15.1353C10.075 18.063 11.7546 20.9744 13.404 23.8975C13.1124 23.4962 12.7904 23.116 12.4312 22.7707C11.8363 22.1898 10.9918 21.518 10.089 21.1354ZM11.7033 25.8524C11.2717 25.3159 10.8308 24.784 10.3829 24.2614C10.159 24.0025 9.93268 23.7435 9.7064 23.4869C9.59676 23.3633 9.48478 23.1883 9.37047 23.0203C9.48245 23.102 9.61542 23.1393 9.74839 23.1393C9.8417 23.172 9.93035 23.207 10.0073 23.249C10.5206 23.5242 10.9825 23.8788 11.4 24.2824C12.4428 25.2879 13.18 26.5126 13.6372 27.882C13.9475 28.8081 15.3845 28.4302 15.1116 27.4761C14.8736 26.6479 14.5517 25.8361 14.1411 25.0732C14.7803 25.5911 15.9467 24.9939 15.6668 24.0701C15.4848 23.4706 15.3052 22.871 15.1233 22.2738C15.4732 23.1953 16.0027 24.1051 16.9009 24.3524C16.9429 25.6914 16.9639 27.0398 17.1062 28.3672C17.1318 28.6005 17.4748 28.6122 17.4794 28.3672C17.5074 27.0562 17.4188 25.7358 17.3465 24.42C17.4514 24.4224 17.5611 24.4177 17.6754 24.4014C17.6801 24.4014 17.6847 24.399 17.6894 24.399C17.7174 25.4488 17.7477 26.5009 17.7827 27.5507C17.7874 27.7023 18.023 27.7023 18.0183 27.5507C17.995 26.4846 17.9623 25.4162 17.932 24.3501C19.6303 23.9441 19.7073 21.9472 20.6778 20.7785C20.7617 20.6758 20.8177 20.5708 20.848 20.4635C21.2913 22.0942 21.7462 23.7225 22.2011 25.3508C22.5184 26.4869 24.3823 26.305 24.3123 25.0662C24.1747 22.6541 24.0021 20.2419 23.8271 17.8321C23.8668 17.8391 23.9064 17.8438 23.9461 17.8508C24.1024 19.7357 24.3916 21.6136 24.8186 23.4566C25.1195 24.756 25.4204 26.6596 26.6942 27.4154C26.8714 27.5204 27.0417 27.595 27.2004 27.6417C26.6988 27.6254 26.1973 27.6254 25.698 27.6487C25.1242 27.6767 24.4873 27.714 23.9507 27.9216C23.7548 27.882 23.5425 27.91 23.3372 28.0383C21.9841 28.8874 20.5238 29.5406 18.9048 29.5966C17.2018 29.6549 15.7065 29.1137 14.1458 28.5142C13.9755 28.4489 13.8215 28.4419 13.6932 28.4792C13.0517 27.5834 12.3892 26.7086 11.7033 25.8524ZM21.0253 42.5462C21.0277 42.4412 21.0323 42.3363 21.0347 42.2313C21.142 42.222 21.2493 42.194 21.3473 42.152C21.3449 42.2919 21.3403 42.4319 21.3379 42.5742C21.233 42.5602 21.1303 42.5509 21.0253 42.5462ZM24.275 36.4482C23.9927 36.7375 23.6171 37.2064 23.2439 37.3743C22.7983 37.5749 22.663 37.407 22.5254 36.8868C22.3014 36.0469 22.7493 35.48 23.3489 35.0601C23.7361 34.9412 24.1397 34.8758 24.5783 34.9062C24.8839 34.9272 25.2035 34.9248 25.2198 35.2374C25.2361 35.585 24.4919 36.2242 24.275 36.4482ZM20.6358 34.0593C19.9826 34.6006 20.3512 35.4311 20.9764 35.7203C20.7594 36.3292 20.7314 37.0127 20.9787 37.7592C21.17 38.3354 21.5526 38.893 22.0798 39.1963C22.0938 40.3674 22.1171 41.5384 22.1661 42.7072C21.9795 42.6629 21.7952 42.6302 21.6086 42.6022C21.6132 42.3876 21.6179 42.173 21.6226 41.9584C21.7999 41.7741 21.8908 41.5058 21.7975 41.1745C20.9017 37.9902 20.1039 34.8175 19.5627 31.5585C20.7594 31.4489 21.9328 31.1106 22.9803 30.5461C23.2346 31.0756 23.6708 31.5469 24.1164 31.9131C24.4966 32.2257 24.8815 32.5313 25.2711 32.8346C23.7011 32.4613 21.7882 33.1052 20.6358 34.0593ZM26.7315 31.8921C26.3302 31.5655 24.6483 30.5648 24.5759 29.9605C24.4686 29.0671 26.7338 29.389 27.3334 29.417C27.4477 29.4217 27.562 29.4333 27.6763 29.4403C27.5993 29.5733 27.562 29.7343 27.5923 29.9209C27.7696 30.9637 27.9539 32.0064 28.1405 33.0469C27.6739 32.6643 27.205 32.2771 26.7315 31.8921ZM35.3303 32.6993C34.7938 33.3105 33.4174 33.6651 32.7082 33.959C31.8731 34.3066 31.0262 34.6262 30.1771 34.9342C29.7642 33.1402 29.3443 31.3486 28.908 29.5616C29.4073 29.6293 29.9065 29.7156 30.3987 29.8229C30.5597 29.8579 30.8886 29.9326 31.3015 30.0399C31.3318 30.1472 31.3598 30.2568 31.3925 30.3641C31.6701 31.2063 32.7269 31.2203 33.1095 30.5857C34.6281 31.12 36.0489 31.8805 35.3303 32.6993ZM37.3856 32.2444C37.3879 30.2871 35.2324 29.2397 33.1958 28.6402C33.0745 27.4411 32.8015 26.2233 32.6546 25.0662C32.4983 23.8228 32.3536 22.5794 32.2137 21.3337C34.7495 23.4892 36.3475 26.6899 37.038 29.9046C37.1033 30.2055 37.2666 30.4085 37.4766 30.5274C37.4486 31.0966 37.4159 31.6705 37.3856 32.2444Z" fill="#15F7CB"/>
<path d="M33.674 37.5212C33.4407 39.4784 33.1841 41.431 33.0605 43.3976C32.9882 44.5361 34.6771 44.4871 34.8031 43.3976C35.0294 41.445 35.1227 39.4808 35.2394 37.5212C35.3 36.4971 33.7907 36.5461 33.674 37.5212Z" fill="#15F7CB"/>
<path d="M36.0185 38.1979C35.6523 41.2096 35.2813 44.2189 34.9407 47.233C34.9081 47.5199 35.0364 47.7089 35.2253 47.8022C35.202 49.6195 35.181 51.4414 35.286 53.2564C35.2907 53.3357 35.405 53.3357 35.4096 53.2564C35.5146 51.4647 35.4936 49.6638 35.4726 47.8698C35.8249 47.8978 36.2285 47.6855 36.2821 47.2353C36.6461 44.2259 36.982 41.2119 37.3226 38.2002C37.4182 37.3627 36.1188 37.3767 36.0185 38.1979Z" fill="#15F7CB"/>
<path d="M4.42254 15.3476C4.46687 15.5272 4.55084 15.6578 4.65815 15.7535C4.70714 17.4425 4.75613 19.1314 4.85411 20.8157C4.85878 20.8857 4.96609 20.8881 4.96609 20.8157C4.9451 19.1618 4.87511 17.5078 4.80746 15.8561C4.87045 15.8864 4.9381 15.9051 5.00575 15.9168C5.03608 18.7395 5.07807 21.5646 5.14572 24.385C5.15038 24.5716 5.43499 24.574 5.43732 24.385C5.47232 21.5459 5.47932 18.7045 5.47465 15.8631C5.82224 15.7255 6.09519 15.3826 5.99488 14.9137C5.45599 12.3779 4.67448 9.94004 3.6667 7.54887C3.26545 6.59707 1.68845 6.99599 2.08503 7.98511C3.04383 10.3786 3.81134 12.8468 4.42254 15.3476Z" fill="#15F7CB"/>
<path d="M3.23976 17.3679C3.59902 17.3445 3.93495 17.0576 3.77865 16.6284C3.00881 14.4985 2.08966 12.4432 0.990896 10.4603C0.654967 9.85379 -0.247844 10.3903 0.0647574 11.0015C1.04922 12.9261 1.89604 14.9091 2.60056 16.9526C2.68221 17.1906 2.86184 17.3166 3.0578 17.3562C2.93416 20.7015 2.88983 24.1238 3.26075 27.4458C3.26775 27.5017 3.3494 27.5041 3.3494 27.4458C3.37273 24.0888 3.22576 20.7295 3.23976 17.3679Z" fill="#15F7CB"/>
</svg>
