<svg width="230" height="484" viewBox="0 0 230 484" fill="none" xmlns="http://www.w3.org/2000/svg">
<mask id="mask0_2322_3654" style="mask-type:luminance" maskUnits="userSpaceOnUse" x="-61" y="0" width="291" height="584">
<path d="M230 0.844238H-61V583.14H230V0.844238Z" fill="white"/>
</mask>
<g mask="url(#mask0_2322_3654)">
<path d="M89.7566 303.253L106.291 311.311L147.722 381.511L140.36 453.791L105.829 456.55L98.9286 456.324C98.9286 456.324 12.7251 457.124 13.5344 456.324C14.3437 455.523 16.7542 456.324 16.7542 456.324H-72.0513C-72.0513 456.324 -59.6246 413.048 -58.0147 399.011C-56.4048 384.975 -49.7302 351.15 -49.7302 351.15L-0.0235457 311.085L89.7566 303.253Z" fill="#004C93"/>
<path d="M-26.4771 557.599C-26.4771 557.599 -8.52451 570.487 51.5464 570.487C111.617 570.487 134.217 548.854 134.217 548.854L118.066 473.815H14.0315L-26.4771 557.599Z" fill="#F2C443"/>
<path d="M114.158 445.96C107.503 450.097 102.653 456.592 100.574 464.147C98.5117 471.732 98.8337 479.769 101.497 487.164C101.497 487.164 117.839 528.595 121.059 544.015C124.279 559.436 124.74 571.175 126.585 576.927C128.43 582.679 144.772 610.073 156.05 612.38C167.328 614.686 178.833 608.028 183.436 603.399C188.039 598.769 194.035 592.817 194.949 576.936C195.863 561.054 195.175 553.692 192.878 547.479C190.581 541.266 186.656 515.281 188.274 496.841C189.893 478.401 191.955 468.298 187.813 455.636C183.671 442.975 178.145 442.287 174.69 440.677C171.236 439.068 166.632 440.677 166.632 440.677L114.158 445.96Z" fill="#E93F45"/>
<path d="M17.1982 275.128H88.2861C88.2861 275.128 90.1744 287.12 89.9395 296.396C89.7045 305.672 88.756 308.274 86.1714 310.981C83.5869 313.687 83.2388 314.044 79.0096 315.924C74.7803 317.803 67.6968 320.884 67.6968 320.884C67.6968 320.884 55.4267 327.767 48.143 328.115C40.8593 328.463 24.5776 318.891 24.5776 318.543C24.5776 318.195 14.135 292.88 14.135 292.88L17.1982 275.128Z" fill="#E93F45"/>
<path d="M-4.53999 184.181L-23.415 190.934C-23.415 190.934 -26.0256 191.082 -26.1735 189.089C-26.2301 188.545 -26.1472 187.994 -25.9326 187.49C-25.7179 186.986 -25.3786 186.545 -24.9465 186.209L-23.415 184.216L-15.583 171.781C-15.583 171.781 -20.9609 164.262 -30.3158 168.561C-39.6706 172.86 -38.7568 199.253 -32.4652 209.383C-26.1735 219.512 -20.9609 223.498 -13.3205 223.193C-8.85801 223.064 -4.51217 221.738 -0.737142 219.355L3.29195 254.956C3.29195 254.956 4.36232 261.552 5.58932 263.545C6.81632 265.538 11.6808 268.148 11.6808 268.148L17.8246 266.617L16.9021 269.993C16.9021 269.993 34.2368 276.598 60.0213 274.292C85.8058 271.986 89.4868 263.084 89.4868 263.084L90.5571 259.707L95.7001 218.241L97.3883 220.086L99.5378 221.47C99.5378 221.47 99.6857 217.78 102.758 217.78C105.829 217.78 105.368 223.619 105.368 223.619C105.368 223.619 112.121 225.151 119.292 219.321C126.462 213.49 130.509 205.971 132.649 190.473C134.79 174.974 128.499 168.718 122.364 167.299C116.228 165.881 110.859 172.364 110.859 172.364L120.371 186.017C120.371 186.017 122.981 188.471 120.98 190.16C118.978 191.848 114.54 188.471 114.54 188.471L99.6509 184.025L97.5015 187.401L97.0489 195.842L65.5907 189.855L60.9872 189.707C60.9872 189.707 62.0576 178.812 48.0993 178.812C34.1411 178.812 32.9054 188.628 32.9054 188.628L-0.545693 195.686L-2.23391 185.104L-4.53999 184.181Z" fill="#06EEF4"/>
<path d="M17.4084 214.1C21.7291 214.1 25.2317 210.597 25.2317 206.276C25.2317 201.956 21.7291 198.453 17.4084 198.453C13.0878 198.453 9.58521 201.956 9.58521 206.276C9.58521 210.597 13.0878 214.1 17.4084 214.1Z" fill="white"/>
<path d="M78.4795 214.1C82.8001 214.1 86.3027 210.597 86.3027 206.276C86.3027 201.956 82.8001 198.453 78.4795 198.453C74.1588 198.453 70.6562 201.956 70.6562 206.276C70.6562 210.597 74.1588 214.1 78.4795 214.1Z" fill="white"/>
<path d="M170.322 384.74C170.322 384.74 179.755 413.509 182.287 425.248C184.819 436.987 186.891 451.024 186.891 451.024L187.813 455.627C187.813 455.627 184.132 442.74 177.222 441.13C170.313 439.52 166.632 440.668 166.632 440.668L160.192 428.703L170.322 384.74Z" fill="#E93F45"/>
<path d="M-34.3101 415.346C-37.5977 415.683 -40.7694 416.746 -43.5957 418.458C-46.4221 420.171 -48.8325 422.49 -50.6528 425.249C-56.8661 434.682 -60.7734 446.882 -61.2346 451.721C-61.6958 456.559 -71.3813 454.018 -71.3813 454.706C-71.3813 455.393 -77.3684 472.432 -85.4266 486.242C-93.4848 500.052 -94.616 529.074 -95.991 539.412C-97.3659 549.75 -98.7583 574.221 -80.3271 583.454C-67.3783 589.928 -60.3122 584.063 -55.4651 580.843C-50.618 577.623 -37.7388 569.53 -31.2992 559.897C-24.8596 550.264 -18.8812 534.121 -13.5903 525.593C-8.29939 517.065 14.2566 489.688 20.2437 479.794C26.2308 469.899 32.9053 465.061 33.5928 454.932C34.2802 444.802 34.054 441.121 29.6855 437.206C27.1296 434.889 23.9074 433.439 20.4786 433.063L-34.3101 415.346Z" fill="#E93F45"/>
<path d="M0.681641 182.641C0.681641 182.641 22.1586 178.499 29.9905 178.351C29.9905 178.351 31.2175 189.394 17.8684 191.544C4.51929 193.693 0.681641 182.641 0.681641 182.641Z" fill="white"/>
<path d="M74.6682 396.148C74.8423 396.662 76.2346 413.118 76.2346 413.118L112.784 427.85L111.844 412.108L74.6682 396.148Z" fill="#07F29C"/>
<path d="M64.6689 178.656C64.6689 178.656 84.6143 180.344 93.5166 182.955C93.5166 182.955 90.6014 194.763 78.018 192.161C65.4347 189.56 64.6689 178.656 64.6689 178.656Z" fill="white"/>
<path d="M161.115 423.865C161.115 423.865 165.719 424.1 167.328 428.216C168.938 432.332 170.322 444.558 170.322 444.558L171.471 458.586C171.471 458.586 165.719 458.125 162.029 460.892C158.339 463.66 155.589 471.709 155.589 471.709C155.589 471.709 151.673 466.645 143.406 467.567C135.139 468.489 132.589 473.78 132.589 473.78C132.589 473.78 128.238 468.481 123.148 466.41C118.057 464.338 116.934 465.539 116.934 465.539C116.934 465.539 112.583 457.707 113.453 452.878C114.324 448.048 161.115 423.865 161.115 423.865Z" fill="#E93F45"/>
<mask id="mask1_2322_3654" style="mask-type:luminance" maskUnits="userSpaceOnUse" x="113" y="423" width="59" height="51">
<path d="M161.115 423.865C161.115 423.865 165.718 424.1 167.328 428.216C168.938 432.332 170.322 444.559 170.322 444.559L171.47 458.587C171.47 458.587 165.718 458.126 162.028 460.893C158.339 463.66 155.589 471.71 155.589 471.71C155.589 471.71 151.673 466.645 143.406 467.567C135.139 468.49 132.589 473.781 132.589 473.781C132.589 473.781 128.238 468.481 123.147 466.41C118.056 464.339 116.934 465.54 116.934 465.54C116.934 465.54 112.583 457.708 113.453 452.878C114.323 448.049 161.115 423.865 161.115 423.865Z" fill="white"/>
</mask>
<g mask="url(#mask1_2322_3654)">
<path d="M161.541 435.587C161.541 435.587 161.541 439.468 162.01 447.726C162.48 455.985 162.785 460.667 162.785 460.667" stroke="#991922" stroke-width="1.6" stroke-linecap="round" stroke-linejoin="round"/>
<path d="M154.562 441.156L155.493 470.247" stroke="#991922" stroke-width="1.6" stroke-linecap="round" stroke-linejoin="round"/>
<path d="M146.59 443.923V467.941" stroke="#991922" stroke-width="1.6" stroke-linecap="round" stroke-linejoin="round"/>
<path d="M137.767 441.469L137.523 470.883" stroke="#991922" stroke-width="1.6" stroke-linecap="round" stroke-linejoin="round"/>
<path d="M130.665 438.528L129.195 471.126" stroke="#991922" stroke-width="1.6" stroke-linecap="round" stroke-linejoin="round"/>
<path d="M126.298 436.674C126.298 436.674 125.305 441.983 124.044 450.05C123.275 455.241 122.784 460.47 122.573 465.713" stroke="#991922" stroke-width="1.6" stroke-linecap="round" stroke-linejoin="round"/>
<path d="M121.911 432.776C120.355 437.029 119.189 441.416 118.43 445.881C117.365 451.674 116.633 457.522 116.238 463.399" stroke="#991922" stroke-width="1.6" stroke-linecap="round" stroke-linejoin="round"/>
</g>
<path d="M-5.60962 157.936L-24.9458 186.209C-24.9458 186.209 13.4133 173.321 48.8659 173.321C84.3184 173.321 120.371 186.053 120.371 186.053L100.574 157.788C100.574 157.788 79.5497 151.496 49.3271 152.106C30.8839 152.508 12.5071 154.458 -5.60962 157.936Z" fill="#004C93"/>
<path d="M21.3918 410.055C21.3918 410.055 23.4629 418.339 23.0017 425.718C22.5405 433.098 21.853 440.216 20.7043 443.436C19.5557 446.656 13.7948 452.643 13.7948 452.643C13.7948 452.643 8.96513 450.111 5.28412 450.572C1.60311 451.033 -3.92276 454.923 -3.92276 454.923C-3.92276 454.923 -6.69004 446.403 -12.4422 443.871C-18.1943 441.339 -24.8688 444.106 -24.8688 444.106C-24.8688 444.106 -22.1103 433.054 -29.0111 429.138C-35.9119 425.222 -34.0757 426.615 -34.0757 426.615C-34.0757 426.615 -35.9206 421.55 -34.5369 418.322C-33.1533 415.093 -31.3171 410.037 -31.3171 410.037L21.3918 410.055Z" fill="#E93F45"/>
<mask id="mask2_2322_3654" style="mask-type:luminance" maskUnits="userSpaceOnUse" x="-36" y="410" width="60" height="45">
<path d="M21.3925 410.055C21.3925 410.055 23.4637 418.339 23.0024 425.718C22.5412 433.098 21.8538 440.216 20.7051 443.436C19.5564 446.656 13.7956 452.643 13.7956 452.643C13.7956 452.643 8.96587 450.111 5.28485 450.572C1.60384 451.033 -3.92203 454.923 -3.92203 454.923C-3.92203 454.923 -6.68931 446.403 -12.4414 443.871C-18.1936 441.339 -24.8681 444.106 -24.8681 444.106C-24.8681 444.106 -22.1095 433.054 -29.0103 429.138C-35.9111 425.222 -34.075 426.615 -34.075 426.615C-34.075 426.615 -35.9198 421.55 -34.5362 418.322C-33.1526 415.093 -31.3164 410.037 -31.3164 410.037L21.3925 410.055Z" fill="white"/>
</mask>
<g mask="url(#mask2_2322_3654)">
<path d="M5.928 426.528L5.19702 452.008" stroke="#991922" stroke-width="2" stroke-miterlimit="10"/>
<path d="M14.2554 423.09L13.2808 451.764" stroke="#991922" stroke-width="2" stroke-miterlimit="10"/>
<path d="M20.6346 412.552L19.8862 444.175" stroke="#991922" stroke-width="2" stroke-miterlimit="10"/>
</g>
<path d="M63.7293 280.775V352.211C63.7293 352.211 63.3812 355.501 65.0259 355.501C66.6706 355.501 66.9839 352.681 66.9839 352.681V280.54C66.9395 280.11 66.7543 279.706 66.4569 279.391C66.1596 279.076 65.7667 278.869 65.3392 278.8C63.8511 278.539 63.7293 280.775 63.7293 280.775Z" fill="#F2C443"/>
<path d="M28.1894 280.775V352.211C28.1894 352.211 27.8326 355.501 29.486 355.501C31.1394 355.501 31.4788 352.681 31.4788 352.681V280.54C31.4345 280.11 31.2493 279.706 30.9519 279.391C30.6545 279.076 30.2616 278.869 29.8341 278.8C28.3112 278.539 28.1894 280.775 28.1894 280.775Z" fill="#F2C443"/>
<path d="M-21.5691 189.394C-21.5691 189.394 11.5774 177.429 49.3274 177.429C87.0773 177.429 115.612 188.933 115.612 188.933C115.612 188.933 119.293 192.309 120.981 190.16C122.669 188.01 122.06 187.401 118.527 185.87C114.994 184.338 81.856 173.156 45.7943 173.156C9.73258 173.156 -24.9455 186.209 -24.9455 186.209C-24.9455 186.209 -26.7903 187.741 -26.1725 189.124C-25.5546 190.508 -23.4139 190.969 -23.4139 190.969L-21.5691 189.394Z" fill="#F2C443"/>
<path d="M-43.821 294.281C-43.9951 289.599 -42.9508 279.731 -42.9508 279.731L17.8773 266.582C17.8773 266.582 15.3449 278.765 16.4327 289.39C17.5205 300.016 -11.7623 317.15 -11.7623 317.15C-11.7623 317.15 -40.0008 313.165 -40.1748 312.468C-40.3488 311.772 -42.6027 302.766 -42.9508 299.476C-43.1172 297.726 -43.408 295.99 -43.821 294.281Z" fill="#07F29C"/>
<path d="M-5.14792 141.828C-5.14792 142.289 -5.60913 157.936 -5.60913 157.936C-5.60913 157.936 10.4986 151.644 49.3276 152.105C88.1566 152.566 100.575 157.788 100.575 157.788L101.036 144.734L67.2801 120.49L-3.92092 122.335L-5.14792 141.828Z" fill="#D33A4D"/>
<path d="M-13.7731 292.488L-55.7784 323.068C-55.7784 323.068 -63.1317 326.366 -60.6168 336.426C-60.6168 336.426 -57.9017 341.847 -55.9698 346.868C-54.038 351.889 -50.7486 360.417 -49.9654 366.613C-49.2599 372.507 -47.8307 378.291 -45.71 383.835C-43.9696 387.899 -34.1013 395.835 -24.8248 403.58C-15.5483 411.325 4.98004 424.291 7.69511 425.449C10.4102 426.606 12.9164 427.389 12.9164 427.389C12.9164 427.389 21.0442 418.87 20.8528 406.678C20.6103 399.146 17.9667 391.89 13.308 385.967L15.4313 375.524C15.4313 375.524 27.6143 369.911 31.6956 360.426C35.777 350.941 33.819 347.068 32.27 345.519C30.721 343.97 26.6571 346.494 26.6571 346.494L4.61455 357.328C4.61455 357.328 23.7593 339.715 28.032 330.813C32.3048 321.91 29.581 317.655 28.6151 315.332C27.6491 313.008 24.1596 311.651 24.1596 311.651L21.8361 312.425C21.8361 312.425 28.2235 305.072 24.5512 296.169C20.8789 287.267 18.7381 288.233 16.4234 289.39C14.1086 290.548 -6.80268 307.395 -6.80268 307.395C-6.80268 307.395 -5.64529 300.816 -6.61123 296.361C-7.57717 291.905 -8.16021 292.105 -10.2922 291.331C-10.9202 291.129 -11.5959 291.133 -12.2217 291.341C-12.8475 291.549 -13.3909 291.951 -13.7731 292.488Z" fill="#06EEF4"/>
<path d="M115.716 329.455L93.0906 322.685C91.5182 322.845 90.0143 323.411 88.7256 324.326C87.4369 325.241 86.4073 326.474 85.7373 327.906C82.4479 334.685 89.4183 339.906 89.4183 339.906C89.4183 339.906 74.5115 334.876 71.605 335.068C71.605 335.068 63.8687 336.808 62.9028 342.813C62.5908 344.497 62.7105 346.232 63.2507 347.857C63.7909 349.483 64.734 350.944 65.9921 352.107L79.9155 360.809L73.1366 359.643C71.3587 359.455 69.5731 359.921 68.114 360.954C66.6549 361.987 65.6221 363.516 65.2089 365.256C63.4685 371.643 67.1408 373.583 68.6898 375.124C70.3404 376.593 72.0845 377.953 73.911 379.196L80.69 381.903C80.69 381.903 75.8516 383.06 74.1112 387.707C72.3708 392.354 76.6261 397.192 76.6261 397.192C76.6261 397.192 85.3283 403.197 93.8477 406.486C99.7411 408.688 105.752 410.562 111.852 412.099C111.852 412.099 115.142 427.197 124.236 433.776C133.329 440.355 134.678 439.198 134.678 439.198C134.678 439.198 138.159 445.777 147.845 443.453C157.53 441.13 158.679 437.257 158.679 437.257L168.556 390.614C168.556 390.614 173.968 368.736 172.228 362.932C170.488 357.128 168.164 354.613 168.164 354.613L128.874 361.383L118.614 331.97L117.457 330.229L115.716 329.455Z" fill="#06EEF4"/>
<path d="M28.9383 332.223C29.4605 332.571 52.321 358.555 52.321 358.555C52.321 358.555 47.2999 368.25 33.4373 376.917C19.5748 385.584 13.3267 385.976 13.3267 385.976C13.3267 385.976 16.4681 376.917 17.1556 376.569C17.8431 376.221 28.0768 370.094 31.7143 360.426C35.3518 350.758 33.7419 347.051 32.2887 345.52C30.8354 343.988 26.6758 346.494 26.6758 346.494L17.3297 350.932L28.9383 332.223Z" fill="#07F29C"/>
<path d="M46.2643 369.119L49.2056 373.105C43.931 378.716 37.3115 382.888 29.9739 385.227C17.8518 389.038 15.5979 388.708 15.5979 388.708L13.3267 385.984C19.0999 384.895 24.59 382.638 29.4605 379.353C37.2924 373.975 44.6979 368.092 44.6979 368.092L46.2643 369.119Z" fill="#07F29C"/>
<path d="M15.0759 386.794L15.5981 388.699C15.5981 388.699 24.3002 389.039 34.6558 382.982C45.0113 376.925 49.2058 373.105 49.2058 373.105C49.2058 373.105 44.8547 366.866 44.6981 368.084C44.5414 369.302 32.0538 377.952 25.475 381.764C22.1784 383.771 18.6959 385.455 15.0759 386.794Z" fill="#00AA6A"/>
<path d="M104.299 324.947L153.492 317.837C153.492 317.837 164.065 302.765 163.543 302.765C163.021 302.765 158.522 303.113 158.522 303.113L159.557 299.998L159.383 296.708L106.892 302.252L106.022 303.809H102.21L96.6667 323.041L104.299 324.947Z" fill="#00AA6A"/>
<path d="M104.299 324.947L116.812 329.795L130.283 360.792L178.093 348.844C178.093 348.844 174.612 336.887 167.006 328.402C159.401 319.918 153.492 317.829 153.492 317.829L104.299 324.947Z" fill="#07F29C"/>
<path d="M96.6755 323.041L94.7697 322.693C94.7697 322.693 99.4428 296.535 94.5957 285.622C94.5957 285.622 110.529 283.716 120.406 281.462C130.283 279.209 135.478 277.651 138.08 276.607C139.801 275.902 141.478 275.094 143.102 274.188C144.86 277.876 145.86 281.88 146.043 285.962C146.217 292.375 146.043 298.266 146.043 298.266L106.883 302.252L106.013 303.81H102.201L96.6755 323.041Z" fill="#07F29C"/>
<path d="M71.5526 380.554L58.3862 410.524L85.067 419.705L80.0459 415.023L76.2344 413.118L73.4584 381.416L71.5526 380.554Z" fill="#00AA6A"/>
<path d="M51.7897 276.424C49.6142 275.205 45.0108 275.902 45.0108 275.902C45.0108 275.902 41.0078 276.511 40.1376 279.896C39.2673 283.281 41.878 285.9 41.878 285.9V309.448H53.6172V285.413C53.6172 285.413 55.0008 282.019 55.0008 280.279C55.0008 278.538 53.9305 277.642 51.7897 276.424ZM51.3546 289.982C51.2676 292.505 50.4844 293.027 49.2661 293.724C48.4543 294.078 47.5535 294.177 46.6842 294.006C45.8149 293.835 45.0186 293.402 44.4016 292.766C43.2703 291.374 43.7925 283.812 43.7925 283.812L45.1848 283.377L45.5329 287.893L49.4402 287.98L49.5272 283.464L51.2676 283.551C51.2676 283.551 51.4417 287.458 51.3198 289.982H51.3546ZM50.9804 307.621H44.2363V300.311H50.9804V307.621Z" fill="white"/>
<path d="M45.7078 288.894V350.784L49.354 354.43V288.938L45.7078 288.894Z" fill="white"/>
<path d="M45.6201 367.074L49.8754 363.167L49.2053 373.105L45.272 368.38L45.6201 367.074Z" fill="white"/>
<path d="M45.968 376.377L49.6142 373.94V455.741H45.7939C45.7939 455.741 45.968 376.29 45.968 376.377Z" fill="white"/>
<path d="M63.6165 283.673C63.6165 283.673 61.0058 283.325 61.2669 280.149C61.2771 279.594 61.4119 279.049 61.6615 278.553C61.911 278.058 62.2688 277.625 62.7084 277.286C63.148 276.948 63.658 276.712 64.2009 276.598C64.7437 276.483 65.3054 276.492 65.8442 276.624C67.4889 276.981 69.1336 277.921 69.0205 280.27C68.9994 280.939 68.8428 281.596 68.5601 282.201C68.2773 282.807 67.8744 283.349 67.3758 283.795C67.3758 283.795 67.6108 278.861 65.3743 278.739C63.1379 278.617 63.6165 283.673 63.6165 283.673Z" fill="white"/>
<path d="M28.0766 283.673C28.0766 283.673 25.466 283.325 25.7184 280.149C25.7299 279.594 25.8659 279.048 26.1164 278.553C26.3669 278.057 26.7255 277.625 27.1658 277.286C27.606 276.948 28.1165 276.713 28.6598 276.598C29.203 276.484 29.7651 276.493 30.3044 276.624C31.9491 276.981 33.5938 277.921 33.4807 280.271C33.4596 280.939 33.3029 281.596 33.0202 282.202C32.7375 282.808 32.3346 283.35 31.836 283.795C31.836 283.795 32.0709 278.861 29.8345 278.739C27.598 278.617 28.0766 283.673 28.0766 283.673Z" fill="white"/>
<path d="M28.9903 475.425H98.5031C98.4529 472.206 98.9987 469.005 100.113 465.983C101.958 461.154 103.794 456.55 103.794 456.55H33.5938C33.5938 456.55 31.5227 462.764 30.1129 464.608C28.7032 466.453 25.9707 472.667 25.9707 472.667L28.9903 475.425Z" fill="#F2C443"/>
<path d="M33.8468 178.377H30.2615C30.2615 178.377 28.9736 190.786 16.5643 192.074C4.15504 193.362 1.37035 183.076 1.37035 183.076L-3.12866 184.573L-2.69355 198.053C-2.69355 198.053 12.2916 192.3 34.3776 190.473L33.8468 178.377Z" fill="black"/>
<path d="M9.5498 181.71C10.2671 182.957 11.3185 183.979 12.5855 184.66C13.8525 185.341 15.2847 185.655 16.7204 185.565C21.4282 185.13 21.7502 179.474 21.7502 179.474C21.7502 179.474 11.0553 181.171 9.5498 181.71Z" fill="black"/>
<path d="M61.6841 178.377H65.2433C65.2433 178.377 66.5312 190.786 78.9405 192.074C91.3498 193.362 94.1345 183.085 94.1345 183.085L98.6335 184.582L97.5022 198.061C97.5022 198.061 83.2133 192.309 61.1272 190.482L61.6841 178.377Z" fill="black"/>
<path d="M85.9724 181.71C85.2551 182.957 84.2037 183.979 82.9367 184.66C81.6697 185.341 80.2375 185.655 78.8018 185.565C74.094 185.13 73.772 179.474 73.772 179.474C73.772 179.474 84.4756 181.171 85.9724 181.71Z" fill="black"/>
<path d="M35.0908 190.142C35.0908 190.142 33.6898 179.125 47.7699 179.551V177.506L33.8464 178.377L35.0908 190.142Z" fill="black"/>
<path d="M60.4401 190.142C60.4401 190.142 61.8412 179.125 47.7698 179.551V177.506L61.6932 178.377L60.4401 190.142Z" fill="black"/>
<path d="M35.8396 212.62C35.8396 212.62 37.9629 217.754 47.7267 217.754C57.4906 217.754 59.6748 212.315 59.6748 212.315L35.8396 212.62Z" fill="black"/>
<path d="M47.7698 232.722C47.7698 232.722 50.45 235.159 55.5234 233.07C59.5177 231.417 58.3081 228.284 58.3081 228.284L47.7698 232.722Z" fill="black"/>
<path d="M29.9562 333.571C27.6105 341.547 22.3226 348.334 15.1625 352.559L4.4502 357.554L19.0698 342.761L28.4333 331.648L29.9562 333.571Z" fill="black"/>
<path d="M34.995 354.161C34.5931 357.895 33.4428 361.511 31.6127 364.791C29.7827 368.071 27.3104 370.949 24.3436 373.253C13.901 381.512 14.2665 380.137 14.2665 380.137L14.7712 375.916C14.7712 375.916 24.9353 370.521 29.5648 364.986C32.2178 361.866 34.0803 358.153 34.995 354.161Z" fill="black"/>
<path d="M17.2772 375.777C17.6273 379.025 17.3315 382.311 16.407 385.445L14.3446 386.315L13.0828 384.966L14.7014 378.622L17.2772 375.777Z" fill="black"/>
<path d="M45.8378 369.746C45.8378 369.746 28.564 383.826 14.7711 386.75L13.9009 386.297C17.8341 385.206 21.6015 383.587 25.1006 381.485C31.0876 377.934 39.8159 372.261 40.9385 371.451C42.1134 370.505 43.2403 369.5 44.3149 368.44L45.8378 369.746Z" fill="black"/>
<path d="M15.1099 386.167L17.2767 388.055L15.4754 388.456L14.3528 386.341L15.1099 386.167Z" fill="black"/>
<path d="M116.587 329.69L127.108 366.439C127.188 366.72 127.371 366.961 127.622 367.111C127.873 367.261 128.171 367.31 128.457 367.248L170.375 358.337C170.375 358.337 168.695 352.933 166.137 351.837L130.545 359.434L116.587 329.69Z" fill="black"/>
<path d="M96.2928 300.459L93.1514 301.043C93.8451 304.536 94.2381 308.082 94.3261 311.642C94.2478 315.993 93.7431 322.311 93.7431 322.311L95.2747 322.606L96.2928 300.459Z" fill="black"/>
<path d="M49.3534 288.877H46.0378V290.757H49.3534V288.877Z" fill="black"/>
<path d="M49.6748 310.214H45.637V312.459H49.6748V310.214Z" fill="black"/>
<path d="M49.4924 300.616H45.4546V302.861H49.4924V300.616Z" fill="black"/>
<path d="M73.9463 379.51C73.9463 379.623 74.1813 386.515 74.1813 386.515C74.9592 385.156 76.2411 384.159 77.7491 383.739C80.5251 382.756 82.0132 382.094 82.0132 382.094L73.9463 379.51Z" fill="black"/>
<path d="M71.9873 378.526L72.814 389.961L74.537 386.515L73.7887 379.153L71.9873 378.526Z" fill="black"/>
<path d="M76.2957 359.921L76.5741 358.903L79.2718 360.748L76.2957 359.921Z" fill="black"/>
<path d="M74.694 395.331C74.694 395.331 73.2407 399.595 79.3148 403.163C85.3889 406.73 109.276 412.735 111.661 412.683L111.548 412.013C111.548 412.013 100.304 408.88 93.5689 406.408C86.8335 403.937 82.2561 400.421 79.3148 398.576C77.6842 397.629 76.1382 396.543 74.694 395.331Z" fill="black"/>
<path d="M77.47 414.284L77.5918 417.338L94.4305 423.369L94.6219 420.828L77.47 414.284Z" fill="black"/>
<path d="M70.4641 409.976L70.264 412.638C70.2531 412.785 70.2919 412.93 70.374 413.052C70.4561 413.174 70.5767 413.264 70.7165 413.308L78.3744 415.85L78.4527 414.44L75.903 413.23L75.3547 410.759L70.4641 409.976Z" fill="black"/>
<path d="M24.422 474.494H98.3642L98.7384 476.843H22.8208L24.422 474.494Z" fill="black"/>
<path d="M-31.7259 559.844C-31.7259 559.844 -26.1304 552.717 -24.5989 549.089C-23.0673 545.46 -15.8967 527.081 -8.76965 518.283C-1.64259 509.485 6.02401 497.842 12.9161 490.192C19.8082 482.543 28.2232 469.029 28.2232 469.029C28.2232 469.029 35.768 473.841 31.4691 488.722C27.5183 502.419 2.44742 519.841 -8.1431 533.373C-16.384 543.867 -23.659 557.852 -23.659 557.852C-23.659 557.852 -29.4982 587.865 -55.448 594.34L-55.2217 580.66C-55.2217 580.66 -44.7792 573.942 -40.8545 570.47C-37.539 567.563 -31.7259 559.844 -31.7259 559.844Z" fill="black"/>
<path d="M99.1813 478.732C99.1813 478.732 94.0296 480.472 94.0122 488.696C94.0122 500.305 112.087 522.73 120.989 554.415C122.651 560.323 125.34 569.208 125.34 569.208C125.34 569.208 123.556 558.766 123.138 553.701C122.501 546.626 120.987 539.657 118.631 532.955C115.933 525.471 99.1813 478.732 99.1813 478.732Z" fill="black"/>
<path d="M-32.2202 411.899C-32.2202 411.899 -13.0755 428.581 13.1528 428.433C13.1528 428.433 -7.53221 416.816 -15.6426 411.255C-23.753 405.695 -29.6096 400.743 -29.6096 400.743L-32.2202 411.899Z" fill="black"/>
<path d="M134.861 439.911C134.861 439.911 129.57 456.263 113.375 455.201C113.503 450.724 114.13 446.276 115.246 441.939C116.187 437.885 117.723 433.994 119.806 430.391C119.806 430.391 125.584 436.657 128.352 437.71C130.155 438.369 132.047 438.753 133.965 438.85L134.861 439.911Z" fill="black"/>
<path d="M31.496 122.065C31.496 122.065 29.9644 141.366 23.4726 153.036L14.1787 154.098C14.1787 154.098 24.9955 138.573 27.493 131.82C29.9905 125.067 31.496 122.065 31.496 122.065Z" fill="black"/>
<path d="M1.71777 153.576C1.71777 153.576 3.61485 161.025 11.7078 157.17C18.1561 154.107 20.732 144.317 20.732 144.317H20.4796C20.4796 144.317 14.4925 151.574 11.2901 153.071C9.10258 154.092 6.7391 154.683 4.32842 154.812C3.4582 154.82 1.71777 153.576 1.71777 153.576Z" fill="black"/>
<path d="M55.4358 121.465C55.4358 121.465 74.8764 131.499 81.4378 141.889C87.8078 151.975 95.3613 153.967 100.539 148.259L100.147 140.427C100.147 140.427 97.7544 145.735 92.3155 145.065C86.8767 144.395 81.5771 136.311 81.5771 136.311C81.5771 136.311 72.1526 129.419 67.2446 126.495C63.8802 124.546 60.3919 122.819 56.802 121.326L55.4358 121.465Z" fill="black"/>
<path d="M-4.55688 143.847C-4.12402 144.638 -3.47993 145.294 -2.69635 145.741C-1.91277 146.188 -1.02045 146.409 -0.118788 146.379L0.150977 143.029L-4.46986 141.488L-4.55688 143.847Z" fill="black"/>
<path d="M55.7661 274.866C55.7661 274.866 69.1152 273.178 76.4859 270.724C83.8567 268.27 86.6065 266.425 86.6065 266.425L86.302 275.023L55.7661 274.866Z" fill="black"/>
<path d="M8.80956 267.043L8.66162 268.732L10.959 267.809L8.80956 267.043Z" fill="black"/>
<path d="M17.1028 270.724L16.6416 275.171L39.6588 274.71C39.6588 274.71 23.699 272.717 21.7324 271.794C20.255 271.197 18.6927 270.835 17.1028 270.724Z" fill="black"/>
<path d="M98.6167 185.461V220.861L95.8494 219.365L98.6167 185.461Z" fill="black"/>
<path d="M43.6354 95.4806C44.1598 96.6931 45.0185 97.7313 46.111 98.474C47.2035 99.2167 48.4848 99.6333 49.8052 99.675C65.8433 100.206 72.5613 102.286 81.8552 105.21C83.178 105.627 84.5355 106.08 85.9714 106.489C94.7431 109.152 111.356 125.512 115.219 128.671C116.649 129.842 118.486 130.397 120.325 130.214C122.164 130.032 123.855 129.126 125.027 127.696C126.198 126.266 126.753 124.43 126.57 122.59C126.388 120.751 125.482 119.06 124.052 117.889C123.399 117.358 104.411 98.5524 90.0179 93.1484C88.6603 92.6349 87.3028 92.2782 86.0149 91.9127C76.4425 88.9191 68.1929 86.3346 50.2577 85.7428C49.3419 85.7115 48.429 85.8612 47.5712 86.1835C46.7134 86.5057 45.9277 86.9941 45.2591 87.6207C44.5905 88.2473 44.0522 88.9997 43.675 89.8347C43.2978 90.6698 43.0891 91.5711 43.061 92.487C43.0264 93.5152 43.2226 94.5382 43.6354 95.4806Z" fill="url(#paint0_linear_2322_3654)" stroke="black" stroke-width="1.6" stroke-linecap="round" stroke-linejoin="round"/>
<path d="M48.4743 107.28C50.1704 107.281 51.8083 106.662 53.0806 105.54C54.3528 104.419 55.1718 102.871 55.3838 101.189C56.8725 91.0998 59.0591 81.1264 61.9279 71.3402C66.775 54.5972 81.4555 43.0234 81.6034 42.9015C82.3538 42.3518 82.9865 41.6573 83.464 40.859C83.9415 40.0607 84.2541 39.1748 84.3835 38.2537C84.5128 37.3325 84.4563 36.3947 84.2172 35.4958C83.978 34.5969 83.5612 33.7549 82.9912 33.0198C82.4213 32.2847 81.7098 31.6712 80.8987 31.2157C80.0877 30.7601 79.1936 30.4717 78.2693 30.3675C77.3449 30.2633 76.409 30.3455 75.517 30.609C74.6249 30.8726 73.7946 31.3122 73.0753 31.902C72.3269 32.4851 54.6529 46.4259 48.5614 67.459C45.4876 77.9382 43.1612 88.6223 41.5996 99.4307C41.4776 100.342 41.5374 101.269 41.7755 102.157C42.0136 103.045 42.4253 103.877 42.9868 104.606C43.5483 105.334 44.2485 105.943 45.047 106.4C45.8455 106.856 46.7264 107.149 47.6389 107.263C47.9167 107.288 48.1958 107.293 48.4743 107.28Z" fill="url(#paint1_linear_2322_3654)" stroke="black" stroke-width="1.6" stroke-linecap="round" stroke-linejoin="round"/>
<path d="M44.6978 34.0254C44.6978 34.0254 53.3999 72.9849 51.5812 99.1697Z" fill="white"/>
<path d="M44.6978 34.0254C44.6978 34.0254 53.3999 72.9849 51.5812 99.1697" stroke="black" stroke-width="1.6" stroke-linecap="round" stroke-linejoin="round"/>
<path d="M51.2152 106.149H51.0847C50.172 106.085 49.2809 105.842 48.4622 105.433C47.6436 105.025 46.9136 104.459 46.3139 103.768C45.7142 103.077 45.2566 102.274 44.9673 101.406C44.678 100.538 44.5626 99.6216 44.6277 98.7089C46.3681 73.8382 37.9793 35.9664 37.901 35.5922C37.4959 33.7897 37.8235 31.9001 38.8117 30.3392C39.7998 28.7782 41.3676 27.6737 43.1701 27.2686C44.9726 26.8636 46.8622 27.1912 48.4232 28.1793C49.9842 29.1675 51.0887 30.7353 51.4937 32.5378C51.8679 34.1651 60.4482 72.8026 58.5337 99.6923C58.404 101.513 57.5643 103.21 56.1954 104.418C54.8266 105.626 53.0381 106.247 51.2152 106.149Z" fill="url(#paint2_linear_2322_3654)" stroke="black" stroke-width="1.6" stroke-linecap="round" stroke-linejoin="round"/>
<path d="M53.9309 102.459C55.1578 102.947 56.498 103.076 57.7954 102.831C59.0928 102.586 60.2937 101.977 61.2581 101.076C73.0148 90.1196 79.2542 86.865 87.8693 82.3573L91.6896 80.3558C99.7826 76.0047 114.446 73.8292 119.415 73.3419C121.254 73.1619 122.947 72.2585 124.12 70.8305C125.293 69.4026 125.851 67.5669 125.671 65.7275C125.491 63.8881 124.588 62.1955 123.16 61.0221C121.732 59.8487 119.897 59.2906 118.057 59.4707C117.187 59.549 97.346 61.5505 85.1369 68.051L81.421 70.0003C72.5448 74.6385 64.8869 78.6415 51.7554 90.8854C51.086 91.51 50.5463 92.2604 50.1673 93.0938C49.7883 93.9272 49.5774 94.8272 49.5466 95.7423C49.5159 96.6573 49.666 97.5694 49.9883 98.4263C50.3105 99.2833 50.7987 100.068 51.4247 100.736C52.1188 101.493 52.9758 102.082 53.9309 102.459Z" fill="url(#paint3_linear_2322_3654)" stroke="black" stroke-width="1.6" stroke-linecap="round" stroke-linejoin="round"/>
<path d="M47.5082 112.937C48.8228 112.874 50.0928 112.441 51.1709 111.686C52.2491 110.931 53.0912 109.887 53.5997 108.673C59.8043 93.879 64.1641 88.3444 70.1947 80.7039C71.0649 79.6075 71.9351 78.4936 72.8489 77.3101C78.4705 70.0612 90.9406 62.0378 95.2743 59.5577C96.0691 59.1006 96.7661 58.4914 97.3255 57.7649C97.8849 57.0385 98.2957 56.2089 98.5344 55.3237C98.7732 54.4384 98.8353 53.5148 98.7172 52.6056C98.599 51.6964 98.3029 50.8193 97.8458 50.0245C97.3887 49.2297 96.7795 48.5327 96.053 47.9733C95.3265 47.414 94.497 47.0032 93.6118 46.7644C92.7265 46.5256 91.8029 46.4635 90.8937 46.5817C89.9845 46.6998 89.1074 46.9959 88.3126 47.453C87.5816 47.8707 70.273 57.8434 61.7971 68.7733C60.9269 69.922 60.0567 71.0097 59.1865 72.0714C52.9818 79.9033 47.63 86.7345 40.6857 103.277C40.2288 104.361 40.0538 105.542 40.177 106.711C40.3001 107.881 40.7174 109 41.3899 109.964C42.0624 110.929 42.9682 111.707 44.0229 112.227C45.0775 112.747 46.2466 112.991 47.4212 112.937H47.5082Z" fill="url(#paint4_linear_2322_3654)" stroke="black" stroke-width="1.6" stroke-linecap="round" stroke-linejoin="round"/>
<path d="M123.826 119.411C125.127 119.413 126.402 119.051 127.507 118.366C128.612 117.681 129.503 116.7 130.079 115.534C130.655 114.368 130.893 113.064 130.766 111.77C130.639 110.476 130.153 109.243 129.361 108.212C127.098 105.244 106.648 79.2334 85.8503 79.2334C63.9992 79.2334 43.5056 98.265 42.6441 99.0743C41.2962 100.344 40.5078 102.096 40.4524 103.947C40.3969 105.798 41.0788 107.595 42.3482 108.943C43.6176 110.29 45.3704 111.079 47.221 111.134C49.0717 111.19 50.8686 110.508 52.2164 109.238C52.434 109.03 69.6208 93.1742 85.8851 93.1742C97.7287 93.1742 113.671 110.579 118.327 116.67C118.973 117.517 119.804 118.205 120.758 118.68C121.711 119.156 122.761 119.406 123.826 119.411Z" fill="url(#paint5_linear_2322_3654)" stroke="black" stroke-width="1.6" stroke-linecap="round" stroke-linejoin="round"/>
<path d="M53.0781 275.128H17.1643" stroke="black" stroke-width="1.6" stroke-linecap="round" stroke-linejoin="round"/>
<path d="M41.5815 275.128H85.5535" stroke="black" stroke-width="1.6" stroke-linecap="round" stroke-linejoin="round"/>
<path d="M120.597 186.714C119.379 186.174 90.3225 173.495 47.769 173.495C5.21546 173.495 -23.8497 186.209 -25.068 186.714C-25.3194 186.828 -25.5459 186.991 -25.7344 187.192C-25.923 187.394 -26.0699 187.631 -26.1669 187.89C-26.2639 188.148 -26.3089 188.423 -26.2996 188.699C-26.2902 188.975 -26.2266 189.247 -26.1123 189.498C-25.998 189.75 -25.8353 189.976 -25.6335 190.165C-25.4317 190.353 -25.1948 190.5 -24.9362 190.597C-24.6776 190.694 -24.4025 190.739 -24.1265 190.73C-23.8505 190.721 -23.579 190.657 -23.3276 190.543C-23.0404 190.412 6.1901 177.672 47.8125 177.672C89.4349 177.672 118.657 190.412 118.944 190.543C119.218 190.662 119.515 190.721 119.814 190.717C120.297 190.725 120.768 190.566 121.147 190.266C121.526 189.966 121.789 189.544 121.891 189.072C121.994 188.6 121.93 188.107 121.71 187.677C121.49 187.247 121.127 186.907 120.684 186.714H120.597Z" stroke="black" stroke-width="1.6" stroke-linecap="round" stroke-linejoin="round"/>
<path d="M0.229478 149.842C-0.318757 149.294 0.777713 136.641 2.43112 127.835C2.43112 127.835 23.8123 121.064 47.7432 121.064" stroke="black" stroke-width="1.6" stroke-linecap="round" stroke-linejoin="round"/>
<path d="M-15.235 172.198C-19.8211 168.23 -24.8074 166.159 -30.0287 168.274C-47.6331 175.436 -33.8837 240.362 -0.589305 219.451" stroke="black" stroke-width="1.6" stroke-linecap="round" stroke-linejoin="round"/>
<path d="M110.704 171.894C115.29 167.934 120.067 166.194 125.289 168.274C142.902 175.436 129.144 240.362 95.8494 219.451" stroke="black" stroke-width="1.6" stroke-linecap="round" stroke-linejoin="round"/>
<path d="M97.876 187.445C98.2665 186.276 98.946 185.226 99.8514 184.39" stroke="black" stroke-width="1.6" stroke-linecap="round" stroke-linejoin="round"/>
<path d="M96.9109 206.572C96.9109 206.572 101.192 191.778 113.132 192.727" stroke="black" stroke-width="1.6" stroke-linecap="round" stroke-linejoin="round"/>
<path d="M101.192 198.879C101.192 198.879 107.701 198.331 112.409 203.039" stroke="black" stroke-width="1.6" stroke-linecap="round" stroke-linejoin="round"/>
<path d="M61.5446 178.447L59.7519 210.253C59.7075 211.021 59.3707 211.743 58.8108 212.271C58.2509 212.798 57.5103 213.092 56.741 213.09H38.5274C37.7581 213.092 37.0175 212.798 36.4576 212.271C35.8977 211.743 35.5609 211.021 35.5164 210.253L33.7151 178.221" stroke="black" stroke-width="1.6" stroke-linecap="round" stroke-linejoin="round"/>
<path d="M46.8299 213.186C46.8299 213.186 43.9495 225.508 53.7394 225.047" stroke="black" stroke-width="1.6" stroke-linecap="round" stroke-linejoin="round"/>
<path d="M60.8923 222.297C60.5529 222.297 38.5713 231.504 38.5713 231.504" stroke="black" stroke-width="1.6" stroke-linecap="round" stroke-linejoin="round"/>
<path d="M58.2114 227.857C55.2179 229.084 50.8581 230.894 47.0901 232.461" stroke="black" stroke-width="1.6" stroke-linecap="round" stroke-linejoin="round"/>
<path d="M29.938 178.682C29.5803 181.963 28.1481 185.034 25.8641 187.417C23.5801 189.8 20.5725 191.361 17.3093 191.857C14.0461 192.354 10.7103 191.758 7.82102 190.162C4.93178 188.566 2.65112 186.059 1.33398 183.033" stroke="black" stroke-width="1.6" stroke-linecap="round" stroke-linejoin="round"/>
<path d="M21.7758 179.953C21.6312 181.365 21.0223 182.69 20.0446 183.72C19.0669 184.75 17.7753 185.427 16.372 185.645C14.9687 185.863 13.5328 185.609 12.2888 184.924C11.0449 184.239 10.0631 183.161 9.49707 181.858" stroke="black" stroke-width="1.6" stroke-linecap="round" stroke-linejoin="round"/>
<path d="M65.3301 178.682C65.6877 181.963 67.1199 185.034 69.4039 187.417C71.6879 189.8 74.6955 191.361 77.9588 191.857C81.222 192.354 84.5578 191.758 87.447 190.162C90.3363 188.566 92.6169 186.059 93.9341 183.033" stroke="black" stroke-width="1.6" stroke-linecap="round" stroke-linejoin="round"/>
<path d="M73.4937 179.953C73.6383 181.365 74.2471 182.69 75.2249 183.72C76.2026 184.75 77.4941 185.427 78.8975 185.645C80.3008 185.863 81.7367 185.609 82.9806 184.924C84.2246 184.239 85.2063 183.161 85.7724 181.858" stroke="black" stroke-width="1.6" stroke-linecap="round" stroke-linejoin="round"/>
<path d="M49.414 86.8562C49.0593 88.129 48.3497 89.2746 47.3681 90.1591C46.3866 91.0437 45.1735 91.6306 43.8708 91.8513C28.0416 94.5315 21.6716 97.5251 12.8563 101.659C11.6032 102.25 10.3066 102.859 8.94904 103.477C0.621082 107.306 -10.0304 117.627 -13.4329 121.282C-14.6907 122.636 -16.4348 123.434 -18.2813 123.502C-20.1279 123.57 -21.9258 122.901 -23.2794 121.643C-24.633 120.385 -25.4315 118.641 -25.4992 116.795C-25.5669 114.948 -24.8984 113.15 -23.6405 111.797C-23.0662 111.179 -9.4299 96.5852 3.136 90.8157L6.93885 89.0753C16.0065 84.8199 23.8384 81.1476 41.5299 78.1454C42.6838 77.9487 43.8686 78.0461 44.9748 78.4286C46.0811 78.8112 47.073 79.4664 47.8589 80.3339C48.6448 81.2013 49.1993 82.2529 49.4711 83.3914C49.743 84.5299 49.7233 85.7186 49.414 86.8475V86.8562Z" fill="url(#paint6_linear_2322_3654)" stroke="black" stroke-width="1.6" stroke-linecap="round" stroke-linejoin="round"/>
<path d="M46.3342 107.281C44.6396 107.279 43.0038 106.66 41.7334 105.538C40.463 104.417 39.6452 102.871 39.4334 101.189C37.9396 91.1015 35.7531 81.1284 32.8894 71.3409C28.0423 54.598 13.3531 43.0241 13.2051 42.9023C11.8028 41.7525 10.9044 40.1008 10.7013 38.2987C10.4982 36.4966 11.0062 34.6864 12.1174 33.2532C13.2286 31.82 14.8551 30.877 16.651 30.6248C18.4469 30.3726 20.2703 30.8311 21.7332 31.9028C22.4903 32.4858 40.1557 46.4267 46.2472 67.4598C49.3181 77.9397 51.6445 88.6235 53.2089 99.4315C53.3309 100.343 53.2711 101.269 53.0331 102.158C52.795 103.046 52.3833 103.878 51.8218 104.606C51.2602 105.334 50.56 105.944 49.7615 106.4C48.963 106.856 48.0821 107.15 47.1696 107.263C46.8919 107.288 46.6127 107.294 46.3342 107.281Z" fill="url(#paint7_linear_2322_3654)" stroke="black" stroke-width="1.6" stroke-linecap="round" stroke-linejoin="round"/>
<path d="M39.3195 103.382C38.0919 103.869 36.7511 103.996 35.4537 103.75C34.1563 103.503 32.9558 102.893 31.9923 101.99C20.2618 91.0423 14.0224 87.779 5.38984 83.28C4.15413 82.636 2.89232 81.9746 1.56959 81.2698C-6.52341 76.9187 -21.1865 74.7519 -26.1555 74.308C-27.0697 74.2189 -27.9574 73.9506 -28.7679 73.5184C-29.5785 73.0861 -30.2959 72.4985 -30.8793 71.789C-31.4628 71.0796 -31.9007 70.2621 -32.1682 69.3834C-32.4358 68.5046 -32.5276 67.5818 -32.4384 66.6675C-32.3493 65.7533 -32.081 64.8656 -31.6487 64.0551C-31.2165 63.2446 -30.6289 62.5271 -29.9194 61.9437C-28.4866 60.7654 -26.6443 60.2046 -24.7979 60.3846C-23.9277 60.4716 -4.08681 62.4731 8.12231 68.9736L11.8381 70.9229C20.7143 75.5524 28.3722 79.5554 41.5038 91.8081C42.1732 92.4326 42.7129 93.1831 43.0919 94.0165C43.4709 94.8499 43.6818 95.7499 43.7125 96.6649C43.7432 97.5799 43.5932 98.492 43.2709 99.349C42.9486 100.206 42.4605 100.991 41.8344 101.659C41.1315 102.409 40.2732 102.997 39.3195 103.382Z" fill="url(#paint8_linear_2322_3654)" stroke="black" stroke-width="1.6" stroke-linecap="round" stroke-linejoin="round"/>
<path d="M47.3079 112.937C45.9933 112.874 44.7234 112.441 43.6452 111.686C42.567 110.931 41.7249 109.887 41.2164 108.673C35.0031 93.879 30.6433 88.3445 24.6127 80.704C23.7425 79.6075 22.8723 78.4936 22.0021 77.3101C16.3805 70.0612 3.91029 62.0378 -0.414684 59.5577C-2.01987 58.6345 -3.19258 57.1115 -3.67482 55.3237C-4.15707 53.5359 -3.90935 51.6297 -2.98617 50.0245C-2.06299 48.4193 -0.539962 47.2466 1.24786 46.7644C3.03568 46.2821 4.94186 46.5299 6.54704 47.453C7.27802 47.8707 24.5866 57.8434 33.0625 68.7733C33.9327 69.922 34.8029 71.0098 35.6731 72.0714C41.8778 79.9034 47.2383 86.7346 54.1826 103.277C54.5385 104.122 54.7243 105.028 54.7292 105.944C54.7341 106.86 54.5581 107.769 54.2112 108.617C53.8644 109.465 53.3536 110.236 52.708 110.886C52.0625 111.537 51.2949 112.053 50.4494 112.406C49.4584 112.827 48.3822 113.009 47.3079 112.937Z" fill="url(#paint9_linear_2322_3654)" stroke="black" stroke-width="1.6" stroke-linecap="round" stroke-linejoin="round"/>
<path d="M-26.0156 379.98C-26.0156 379.319 -24.7625 364.847 -24.0489 356.658C-23.736 353.117 -22.0378 349.843 -19.3237 347.547L22.4467 312.216C22.9984 311.752 23.7093 311.52 24.4288 311.57C25.1484 311.621 25.8201 311.949 26.3017 312.486C29.391 315.967 34.1859 323.982 25.562 334.868C18.4257 343.837 10.3894 352.051 1.5789 359.382" stroke="black" stroke-width="1.6" stroke-linecap="round" stroke-linejoin="round"/>
<path d="M-8.22021 385.81L-4.1041 365.796C-3.85572 364.581 -3.33512 363.439 -2.58147 362.454C-1.82782 361.47 -0.860746 360.67 0.246976 360.113L29.2774 345.459C29.6609 345.263 30.0819 345.151 30.5121 345.131C30.9422 345.111 31.3718 345.182 31.7721 345.341C32.1723 345.5 32.5341 345.743 32.8332 346.053C33.1323 346.362 33.3619 346.732 33.5066 347.138C35.4385 352.516 36.2565 364.264 14.797 376.012" stroke="black" stroke-width="1.6" stroke-linecap="round" stroke-linejoin="round"/>
<path d="M13.9008 368.954C13.9008 368.954 16.9726 379.701 11.4468 386.141" stroke="black" stroke-width="1.6" stroke-linecap="round" stroke-linejoin="round"/>
<path d="M12.5336 384.966C12.5336 384.966 31.0605 404.842 13.2646 427.859C13.2646 427.859 7.80835 426.989 -10.3704 414.658C-28.5492 402.327 -38.3131 392.259 -38.3131 392.259L-39.3573 391.258C-43.5692 387.203 -47.4329 383.678 -47.1893 377.83L-44.5786 341.925C-44.4455 340.096 -43.9233 338.315 -43.0469 336.703C-42.1705 335.092 -40.9601 333.686 -39.4966 332.579C-27.1917 323.277 5.95479 298.119 16.1189 289.408C16.4543 289.12 16.8451 288.904 17.2672 288.773C17.6894 288.642 18.1338 288.599 18.5733 288.646C19.0127 288.693 19.4378 288.83 19.8224 289.048C20.207 289.266 20.5429 289.56 20.8094 289.913C23.8464 293.95 28.9633 305.637 20.2176 314" stroke="black" stroke-width="1.6" stroke-linecap="round" stroke-linejoin="round"/>
<path d="M-34.3272 124.928C-35.6275 124.931 -36.9024 124.568 -38.0075 123.883C-39.1126 123.198 -40.0037 122.217 -40.5798 121.051C-41.1559 119.885 -41.394 118.581 -41.2671 117.287C-41.1401 115.993 -40.6533 114.76 -39.8617 113.729C-37.5992 110.761 -11.8321 79.2334 8.96605 79.2334C30.8172 79.2334 51.3194 98.265 52.1809 99.0743C53.5288 100.344 54.3172 102.096 54.3727 103.947C54.4281 105.798 53.7462 107.595 52.4768 108.943C51.2074 110.29 49.4546 111.079 47.604 111.134C45.7533 111.19 43.9564 110.508 42.6086 109.238C42.391 109.03 25.2043 93.1742 8.93994 93.1742C-2.90368 93.1742 -24.1282 116.087 -28.81 122.187C-29.4576 123.037 -30.2921 123.726 -31.2489 124.201C-32.2056 124.677 -33.2589 124.925 -34.3272 124.928Z" fill="url(#paint10_linear_2322_3654)" stroke="black" stroke-width="1.6" stroke-linecap="round" stroke-linejoin="round"/>
<path d="M13.7441 452.426C17.0848 449.76 19.4947 446.104 20.6275 441.983C20.6275 441.983 24.9264 426.319 20.9321 410.986" stroke="black" stroke-width="1.6" stroke-linecap="round" stroke-linejoin="round"/>
<path d="M63.3808 322.38C59.0031 324.658 54.438 326.557 49.7358 328.054" stroke="black" stroke-width="1.6" stroke-linecap="round" stroke-linejoin="round"/>
<path d="M85.5549 275.128H88.357C88.357 275.128 91.8379 290.078 88.9488 305.681C87.6261 312.765 76.8702 317.264 67.1238 320.788" stroke="black" stroke-width="1.6" stroke-linecap="round" stroke-linejoin="round"/>
<path d="M30.8262 322.023C35.6671 324.31 40.6423 326.3 45.7243 327.984" stroke="black" stroke-width="1.6" stroke-linecap="round" stroke-linejoin="round"/>
<path d="M28.2504 331.144L52.6165 358.668C52.6165 358.668 41.8867 376.299 14.0659 386.359" stroke="black" stroke-width="1.6" stroke-linecap="round" stroke-linejoin="round"/>
<path d="M-39.8446 310.519C-39.8446 310.519 -46.3451 295.447 -42.8034 279.496L18.0508 267.139C16.3674 274.449 15.7258 281.961 16.145 289.451" stroke="black" stroke-width="1.6" stroke-linecap="round" stroke-linejoin="round"/>
<path d="M117.038 329.516L95.2042 323.111C95.2042 323.111 89.1127 320.501 85.5362 328.263C81.9596 336.025 91.3492 340.507 91.3492 340.507L127.742 353.447" stroke="black" stroke-width="1.6" stroke-linecap="round" stroke-linejoin="round"/>
<path d="M91.3496 340.507C89.0958 340.829 74.92 335.669 74.92 335.669C74.92 335.669 66.5485 333.415 63.3287 341.76C59.7782 350.985 71.3782 355.936 82.6562 361.732C93.9342 367.527 129.648 377.195 129.648 377.195" stroke="black" stroke-width="1.6" stroke-linecap="round" stroke-linejoin="round"/>
<path d="M93.9085 366.274C92.9426 366.274 73.6151 359.513 73.6151 359.513C73.6151 359.513 66.7752 358.512 64.9129 365.604C62.981 373.019 71.3525 378.492 79.7066 381.39C88.0606 384.288 125.445 397.498 125.445 397.498" stroke="black" stroke-width="1.6" stroke-linecap="round" stroke-linejoin="round"/>
<path d="M84.3882 383.078C84.3882 383.078 76.1559 381.094 73.9456 388.186C71.7352 395.278 78.462 398.167 83.9356 401.709C89.4093 405.251 102.941 410.411 111.965 412.021C111.965 412.021 113.932 426.258 124.557 434.69C126.802 436.438 129.372 437.723 132.118 438.47C134.864 439.217 137.731 439.411 140.552 439.041C142.247 438.871 143.905 438.439 145.469 437.762" stroke="black" stroke-width="1.6" stroke-linecap="round" stroke-linejoin="round"/>
<path d="M117.056 465.627C114.724 462.295 113.525 458.301 113.636 454.236C113.883 445.814 116.05 437.561 119.972 430.104" stroke="black" stroke-width="1.6" stroke-linecap="round" stroke-linejoin="round"/>
<path d="M114.376 445.429C96.5535 459.135 98.7117 475.887 98.7117 475.887C105.717 504.786 120.319 529.97 123.017 551.082C125.714 572.193 123.817 581.244 146.434 605.905C157.173 617.627 168.251 612.737 175.621 608.864C182.122 605.444 189.432 600.162 191.729 591.373C200.431 558.305 191.79 551.508 188.953 530.606C187.065 516.613 188.622 494.483 190.032 480.055C190.989 470.187 188.979 451.338 181.965 444.298C177.318 439.651 169.782 440.121 169.782 440.121" stroke="black" stroke-width="1.6" stroke-linecap="round" stroke-linejoin="round"/>
<path d="M116.456 328.115L130.51 359.53L178.189 348.87C178.189 348.87 170.897 325.591 153.51 318.021L103.603 325.443" stroke="black" stroke-width="1.6" stroke-linecap="round" stroke-linejoin="round"/>
<path d="M102.419 324.661L112.278 306.804L163.873 302.601L153.5 318.021" stroke="black" stroke-width="1.6" stroke-linecap="round" stroke-linejoin="round"/>
<path d="M99.373 323.633L106.665 302.313L159.949 296.987L158.73 300.033" stroke="black" stroke-width="1.6" stroke-linecap="round" stroke-linejoin="round"/>
<path d="M95.205 323.111C95.205 323.111 98.8164 295.021 94.0476 285.492C94.0476 285.492 134.147 280.445 143.406 274.275C146.051 281.924 146.914 290.077 145.93 298.11" stroke="black" stroke-width="1.6" stroke-linecap="round" stroke-linejoin="round"/>
<path d="M74.7117 394.712L75.8168 413.091L112.836 427.676L111.957 412.021" stroke="black" stroke-width="1.6" stroke-linecap="round" stroke-linejoin="round"/>
<path d="M73.8499 379.153L74.3024 386.837" stroke="black" stroke-width="1.6" stroke-linecap="round" stroke-linejoin="round"/>
<path d="M75.0248 410.725L69.2727 409.35C69.2727 409.35 71.805 379.197 72.0313 378.274L72.6491 410.194" stroke="black" stroke-width="1.6" stroke-linecap="round" stroke-linejoin="round"/>
<path d="M71.8043 379.902C71.5693 381.051 58.2202 410.516 58.2202 410.516L94.3603 423.404L94.8215 421.107" stroke="black" stroke-width="1.6" stroke-linecap="round" stroke-linejoin="round"/>
<path d="M93.6729 322.128C93.6729 322.128 95.0479 308.091 92.7505 300.955L96.2313 300.494" stroke="black" stroke-width="1.6" stroke-linecap="round" stroke-linejoin="round"/>
<path d="M97.0498 323.207L102.262 303.566L105.943 303.87" stroke="black" stroke-width="1.6" stroke-linecap="round" stroke-linejoin="round"/>
<path d="M44.8719 368.319L49.7799 373.54C49.7799 373.54 34.7861 386.132 15.5195 388.534" stroke="black" stroke-width="1.6" stroke-linecap="round" stroke-linejoin="round"/>
<path d="M100.879 323.973L108.859 304.637L160.115 299.729L158.888 302.644" stroke="black" stroke-width="1.6" stroke-linecap="round" stroke-linejoin="round"/>
<path d="M49.6144 277.694H45.5505V288.285H49.6144V277.694Z" stroke="black" stroke-width="1.6" stroke-linecap="round" stroke-linejoin="round"/>
<path d="M49.7277 281.236H53.2782V309.875H42.0959V281.236H45.5681" stroke="black" stroke-width="1.6" stroke-linecap="round" stroke-linejoin="round"/>
<path d="M51.3981 300.207H44.1318V308.03H51.3981V300.207Z" stroke="black" stroke-width="1.6" stroke-linecap="round" stroke-linejoin="round"/>
<path d="M50.1795 283.447H51.3194V289.764C51.3194 292.375 50.0054 293.811 47.6993 293.811C45.402 293.811 43.8008 292.375 43.8008 289.764V283.438H45.5412" stroke="black" stroke-width="1.6" stroke-linecap="round" stroke-linejoin="round"/>
<path d="M41.8957 286.205C41.2518 285.17 36.396 275.893 47.5782 275.893" stroke="black" stroke-width="1.6" stroke-linecap="round" stroke-linejoin="round"/>
<path d="M53.4262 286.205C54.0701 285.17 58.9259 275.893 47.7437 275.893" stroke="black" stroke-width="1.6" stroke-linecap="round" stroke-linejoin="round"/>
<path d="M45.8284 293.28V290.983V288.494" stroke="black" stroke-width="1.6" stroke-linecap="round" stroke-linejoin="round"/>
<path d="M45.8284 307.857V304.176V300.338" stroke="black" stroke-width="1.6" stroke-linecap="round" stroke-linejoin="round"/>
<path d="M45.8284 350.732V309.927" stroke="black" stroke-width="1.6" stroke-linecap="round" stroke-linejoin="round"/>
<path d="M45.8284 369.058V367.222" stroke="black" stroke-width="1.6" stroke-linecap="round" stroke-linejoin="round"/>
<path d="M49.6312 362.967V453.095H45.8284V376.568" stroke="black" stroke-width="1.6" stroke-linecap="round" stroke-linejoin="round"/>
<path d="M49.6313 310.006V355.092" stroke="black" stroke-width="1.6" stroke-linecap="round" stroke-linejoin="round"/>
<path d="M49.6313 300.416V304.332V307.778" stroke="black" stroke-width="1.6" stroke-linecap="round" stroke-linejoin="round"/>
<path d="M49.6313 288.372V291.209V293.358" stroke="black" stroke-width="1.6" stroke-linecap="round" stroke-linejoin="round"/>
<path d="M109.442 150.478C110.718 150.67 112.022 150.532 113.23 150.077C114.438 149.621 115.508 148.863 116.339 147.876C117.171 146.889 117.735 145.704 117.977 144.437C118.22 143.169 118.134 141.86 117.726 140.636C115.116 132.63 110.312 124.615 103.568 116.818C99.0647 111.62 93.4974 107.449 87.2428 104.589C80.9882 101.729 74.1922 100.246 67.3147 100.24H52.3992C50.4414 100.307 48.586 101.131 47.2245 102.54C45.8631 103.948 45.1021 105.83 45.1021 107.789C45.1021 109.748 45.8631 111.631 47.2245 113.039C48.586 114.448 50.4414 115.272 52.3992 115.338H67.3234C72.0422 115.342 76.7053 116.358 80.9975 118.319C85.2897 120.279 89.1109 123.139 92.2028 126.703C97.6417 132.978 101.418 139.261 103.437 145.378C103.869 146.7 104.659 147.876 105.719 148.776C106.779 149.676 108.068 150.265 109.442 150.478Z" fill="url(#paint11_linear_2322_3654)" stroke="black" stroke-width="1.6" stroke-linecap="round" stroke-linejoin="round"/>
<path d="M63.0338 283.891C62.3162 283.416 61.7737 282.72 61.4895 281.908C61.2053 281.097 61.195 280.214 61.4602 279.396C61.7253 278.578 62.2513 277.869 62.9577 277.378C63.664 276.888 64.5117 276.642 65.371 276.679C66.2302 276.716 67.0537 277.033 67.7153 277.583C68.3769 278.133 68.8401 278.884 69.034 279.722C69.2279 280.56 69.1419 281.438 68.789 282.222C68.4362 283.007 67.8359 283.654 67.0803 284.065" stroke="black" stroke-width="1.6" stroke-linecap="round" stroke-linejoin="round"/>
<path d="M63.5032 340.707V280.793C63.5032 279.252 64.2864 278.791 65.2436 278.791C66.2008 278.791 66.984 279.252 66.984 280.793V336.826" stroke="black" stroke-width="1.6" stroke-linecap="round" stroke-linejoin="round"/>
<path d="M66.984 352.803C66.984 354.343 66.2008 355.587 65.2436 355.587C64.2864 355.587 63.5032 354.343 63.5032 352.803V348.834" stroke="black" stroke-width="1.6" stroke-linecap="round" stroke-linejoin="round"/>
<path d="M93.3339 145.117C94.6202 145.083 95.872 144.693 96.9501 143.991C98.0283 143.289 98.8906 142.301 99.4414 141.138C99.9923 139.975 100.21 138.682 100.07 137.403C99.9309 136.124 99.4395 134.908 98.6509 133.892C98.007 133.065 82.5432 113.424 55.7058 106.689C53.9125 106.239 52.0139 106.519 50.4276 107.469C48.8414 108.419 47.6974 109.96 47.2473 111.753C46.7973 113.547 47.078 115.445 48.0278 117.032C48.9776 118.618 50.5187 119.762 52.312 120.212C74.3371 125.738 87.5122 142.281 87.6427 142.446C88.3153 143.306 89.1809 143.997 90.1695 144.461C91.1582 144.925 92.2422 145.15 93.3339 145.117Z" fill="url(#paint12_linear_2322_3654)" stroke="black" stroke-width="1.6" stroke-linecap="round" stroke-linejoin="round"/>
<path d="M65.2603 355.587V361.218" stroke="black" stroke-width="1.6" stroke-linecap="round" stroke-linejoin="round"/>
<path d="M32.2273 283.891C32.944 283.416 33.4854 282.72 33.7687 281.908C34.0521 281.097 34.0618 280.214 33.7963 279.397C33.5308 278.579 33.0048 277.871 32.2987 277.381C31.5927 276.89 30.7454 276.645 29.8865 276.682C29.0277 276.719 28.2046 277.036 27.5431 277.585C26.8816 278.134 26.4182 278.885 26.2238 279.722C26.0293 280.559 26.1145 281.437 26.4664 282.222C26.8183 283.006 27.4174 283.653 28.1721 284.065" stroke="black" stroke-width="1.6" stroke-linecap="round" stroke-linejoin="round"/>
<path d="M31.7406 335.077V280.793C31.7406 279.252 30.9574 278.791 30.0002 278.791C29.043 278.791 28.2598 279.252 28.2598 280.793V315.001" stroke="black" stroke-width="1.6" stroke-linecap="round" stroke-linejoin="round"/>
<path d="M33.8464 228.127C33.8464 228.127 38.3977 229.598 40.3295 235.742" stroke="black" stroke-width="1.6" stroke-linecap="round" stroke-linejoin="round"/>
<path d="M89.9834 302.887L93.5252 304.845" stroke="black" stroke-width="1.6" stroke-linecap="round" stroke-linejoin="round"/>
<path d="M0.9954 143.037C-0.295724 143.117 -1.58348 142.835 -2.72343 142.224C-3.86338 141.612 -4.81042 140.695 -5.45833 139.576C-6.10625 138.456 -6.4294 137.178 -6.39155 135.885C-6.3537 134.592 -5.95634 133.335 -5.24404 132.255C-4.6697 131.385 9.13192 110.5 35.3254 101.606C37.0817 101.009 39.0036 101.133 40.6682 101.952C42.3328 102.772 43.6038 104.219 44.2016 105.975C44.7993 107.731 44.6749 109.653 43.8557 111.318C43.0364 112.982 41.5895 114.253 39.8331 114.851C18.3388 122.17 6.56478 139.739 6.45165 139.913C5.85101 140.826 5.04415 141.584 4.09629 142.126C3.14844 142.669 2.08618 142.981 0.9954 143.037Z" fill="url(#paint13_linear_2322_3654)" stroke="black" stroke-width="1.6" stroke-linecap="round" stroke-linejoin="round"/>
<path d="M-20.2031 151.296C-21.4903 151.377 -22.7768 151.127 -23.9398 150.569C-25.1029 150.012 -26.1035 149.165 -26.8463 148.111C-27.5891 147.057 -28.0492 145.829 -28.1826 144.547C-28.3161 143.264 -28.1185 141.968 -27.6086 140.783C-24.2844 133.03 -15.4256 118.471 -8.05491 111.283C-3.12477 106.49 2.77792 102.811 9.2534 100.498C15.7289 98.1842 22.6259 97.2891 29.4775 97.8732L44.3582 99.1263C46.3054 99.354 48.0878 100.33 49.3287 101.848C50.5696 103.365 51.1717 105.306 51.0079 107.26C50.844 109.213 49.9271 111.027 48.4507 112.317C46.9743 113.607 45.0543 114.272 43.0964 114.172L28.2244 112.919C23.5226 112.518 18.7896 113.132 14.3456 114.719C9.90158 116.306 5.85033 118.829 2.466 122.117C-3.50368 127.904 -11.2138 140.818 -13.7461 146.736C-14.2937 148.02 -15.1876 149.126 -16.3279 149.932C-17.4681 150.737 -18.8099 151.209 -20.2031 151.296Z" fill="url(#paint14_linear_2322_3654)" stroke="black" stroke-width="1.6" stroke-linecap="round" stroke-linejoin="round"/>
<path d="M33.5762 456.254H103.872" stroke="black" stroke-width="1.6" stroke-linecap="round" stroke-linejoin="round"/>
<path d="M24.5701 474.076H98.2338" stroke="black" stroke-width="1.6" stroke-linecap="round" stroke-linejoin="round"/>
<path d="M49.6399 453.095H45.8284V455.984H49.6399V453.095Z" stroke="black" stroke-width="1.6" stroke-linecap="round" stroke-linejoin="round"/>
<path d="M-4.12939 455.532C-2.63175 453.938 -0.796957 452.699 1.2409 451.906C3.27876 451.112 5.46819 450.784 7.64922 450.945C9.83025 451.106 11.9478 451.752 13.847 452.836C15.7463 453.92 17.3793 455.415 18.6267 457.211" stroke="black" stroke-width="1.6" stroke-linecap="round" stroke-linejoin="round"/>
<path d="M19.2961 446.003C20.295 445.986 21.2826 446.216 22.1719 446.671C23.0612 447.126 23.8249 447.793 24.3956 448.613" stroke="black" stroke-width="1.6" stroke-linecap="round" stroke-linejoin="round"/>
<path d="M106.526 472.84C107.687 470.855 109.298 469.171 111.229 467.924C113.161 466.676 115.358 465.9 117.645 465.658C119.931 465.416 122.243 465.714 124.393 466.529C126.543 467.345 128.471 468.654 130.022 470.351C131.073 471.481 131.886 472.809 132.415 474.259" stroke="black" stroke-width="1.6" stroke-linecap="round" stroke-linejoin="round"/>
<path d="M130.335 481.212C130.52 477.834 131.867 474.624 134.148 472.125C136.428 469.626 139.502 467.992 142.849 467.5C146.196 467.007 149.611 467.686 152.514 469.422C155.418 471.158 157.632 473.845 158.783 477.026" stroke="black" stroke-width="1.6" stroke-linecap="round" stroke-linejoin="round"/>
<path d="M155.807 471.857C156.08 469.688 156.835 467.607 158.016 465.767C159.198 463.927 160.775 462.374 162.633 461.222C164.492 460.07 166.584 459.348 168.758 459.109C170.931 458.87 173.13 459.119 175.195 459.839" stroke="black" stroke-width="1.6" stroke-linecap="round" stroke-linejoin="round"/>
<path d="M171.409 451.024C172.271 450.519 173.242 450.231 174.24 450.185C175.238 450.14 176.232 450.338 177.135 450.763" stroke="black" stroke-width="1.6" stroke-linecap="round" stroke-linejoin="round"/>
<path d="M108.554 460.901C109.199 460.138 110.021 459.546 110.948 459.176C111.875 458.805 112.879 458.669 113.871 458.778" stroke="black" stroke-width="1.6" stroke-linecap="round" stroke-linejoin="round"/>
<path d="M-96.1474 557.626C-96.1545 561.34 -95.4296 565.02 -94.0141 568.454C-92.5986 571.888 -90.5202 575.01 -87.8978 577.64C-82.0238 583.514 -72.9997 591.085 -59.4765 583.262C-30.4897 566.484 -25.7122 550.942 -16.836 531.606C-8.66466 513.854 12.7513 491.829 28.0584 468.629C31.9919 462.749 34.0353 455.808 33.915 448.736C33.7583 441.774 31.3043 434.377 22.3585 432.958" stroke="black" stroke-width="1.6" stroke-linecap="round" stroke-linejoin="round"/>
<path d="M169.887 384.305C169.887 384.305 183.158 420.854 187.918 456.28" stroke="black" stroke-width="1.6" stroke-linecap="round" stroke-linejoin="round"/>
<path d="M134.861 439.442C134.861 439.442 136.897 443.358 143.415 443.793C143.415 443.793 154.232 445.629 163.673 432.375" stroke="black" stroke-width="1.6" stroke-linecap="round" stroke-linejoin="round"/>
<path d="M161.908 424.169C162.186 424.378 167.599 422.925 169.122 434.925C170.645 446.926 171.271 458.787 171.271 458.787" stroke="black" stroke-width="1.6" stroke-linecap="round" stroke-linejoin="round"/>
<path d="M158.452 438.11C158.452 438.11 167.154 399.386 168.025 394.304C172.21 370.138 176.727 362.106 166.093 351.776" stroke="black" stroke-width="1.6" stroke-linecap="round" stroke-linejoin="round"/>
<path d="M6.70452 154.882C5.18226 154.892 3.69854 154.403 2.48057 153.49C1.2626 152.577 0.377531 151.289 -0.0391101 149.825C-0.455751 148.361 -0.380995 146.801 0.173717 145.383C0.728428 143.966 1.73252 142.769 3.03221 141.976C10.1767 137.556 15.7461 127.792 18.0869 120.073C20.8629 110.953 28.9907 110.083 36.1265 109.961L48.031 109.752C51.8687 109.709 54.1225 111.754 54.1225 115.609C54.1225 119.464 51.9122 120.447 48.031 120.517C48.031 120.517 34.5427 120.656 34.1076 120.673C31.8798 120.743 31.3838 121.596 31.3838 121.596C31.3073 121.704 31.2513 121.825 31.2185 121.953C28.2075 131.89 21.2632 147.076 10.3333 153.837C9.24302 154.513 7.98723 154.874 6.70452 154.882Z" fill="url(#paint15_linear_2322_3654)" stroke="black" stroke-width="1.6" stroke-linecap="round" stroke-linejoin="round"/>
<path d="M47.6124 151.844C16.041 151.844 -5.32277 157.936 -5.32277 157.936C-5.32277 157.936 -5.67085 146.849 -4.73972 140.479" stroke="black" stroke-width="1.6" stroke-linecap="round" stroke-linejoin="round"/>
<path d="M120.693 186.714L100.939 157.944" stroke="black" stroke-width="1.6" stroke-linecap="round" stroke-linejoin="round"/>
<path d="M48.0137 151.845C79.5851 151.845 100.94 157.936 100.94 157.936C100.94 157.936 101.21 146.266 100.279 139.896" stroke="black" stroke-width="1.6" stroke-linecap="round" stroke-linejoin="round"/>
<path d="M47.7437 121.064L55.9672 121.195" stroke="black" stroke-width="1.6" stroke-linecap="round" stroke-linejoin="round"/>
<path d="M47.1946 274.432C88.7648 274.188 90.1919 261.605 90.1919 260.891C90.1919 260.891 94.9433 240.006 98.0935 184.373" stroke="black" stroke-width="1.6" stroke-linecap="round" stroke-linejoin="round"/>
<path d="M11.2111 268.183C5.11964 264.807 4.70193 261.265 4.70193 260.891C4.70193 260.891 -0.0494411 240.006 -3.19092 184.373" stroke="black" stroke-width="1.6" stroke-linecap="round" stroke-linejoin="round"/>
<path d="M47.6995 274.432C33.2017 274.345 23.7424 272.63 17.3638 270.568" stroke="black" stroke-width="1.6" stroke-linecap="round" stroke-linejoin="round"/>
<path d="M86.6338 266.591V274.431" stroke="black" stroke-width="1.6" stroke-linecap="round" stroke-linejoin="round"/>
<path d="M8.7395 266.591V268.488" stroke="black" stroke-width="1.6" stroke-linecap="round" stroke-linejoin="round"/>
<path d="M46.0642 310.258L49.3362 313.53" stroke="black" stroke-width="1.6" stroke-linecap="round" stroke-linejoin="round"/>
<path d="M47.4658 310.545L48.1185 309.91" stroke="black" stroke-width="1.6" stroke-linecap="round" stroke-linejoin="round"/>
<path d="M46.0642 304.689L48.7706 307.195" stroke="black" stroke-width="1.6" stroke-linecap="round" stroke-linejoin="round"/>
<path d="M47.4658 304.967L49.3368 303.096" stroke="black" stroke-width="1.6" stroke-linecap="round" stroke-linejoin="round"/>
<path d="M46.0642 315.14L49.3362 318.412" stroke="black" stroke-width="1.6" stroke-linecap="round" stroke-linejoin="round"/>
<path d="M47.4658 315.418L49.3368 313.547" stroke="black" stroke-width="1.6" stroke-linecap="round" stroke-linejoin="round"/>
<path d="M46.0642 320.022L49.3362 323.294" stroke="black" stroke-width="1.6" stroke-linecap="round" stroke-linejoin="round"/>
<path d="M47.4658 320.301L49.3368 318.43" stroke="black" stroke-width="1.6" stroke-linecap="round" stroke-linejoin="round"/>
<path d="M46.0642 324.895L49.3362 328.167" stroke="black" stroke-width="1.6" stroke-linecap="round" stroke-linejoin="round"/>
<path d="M47.4658 325.182L49.3368 323.311" stroke="black" stroke-width="1.6" stroke-linecap="round" stroke-linejoin="round"/>
<path d="M46.0642 329.777L49.3362 333.049" stroke="black" stroke-width="1.6" stroke-linecap="round" stroke-linejoin="round"/>
<path d="M47.4658 330.056L49.3368 328.185" stroke="black" stroke-width="1.6" stroke-linecap="round" stroke-linejoin="round"/>
<path d="M46.0642 334.65L49.3362 337.922" stroke="black" stroke-width="1.6" stroke-linecap="round" stroke-linejoin="round"/>
<path d="M47.4658 334.937L49.3368 333.066" stroke="black" stroke-width="1.6" stroke-linecap="round" stroke-linejoin="round"/>
<path d="M46.0642 339.532L49.3362 342.804" stroke="black" stroke-width="1.6" stroke-linecap="round" stroke-linejoin="round"/>
<path d="M47.4658 339.811L49.3368 337.94" stroke="black" stroke-width="1.6" stroke-linecap="round" stroke-linejoin="round"/>
<path d="M46.0642 344.414L49.3362 347.686" stroke="black" stroke-width="1.6" stroke-linecap="round" stroke-linejoin="round"/>
<path d="M47.4658 344.693L49.3368 342.822" stroke="black" stroke-width="1.6" stroke-linecap="round" stroke-linejoin="round"/>
<path d="M46.0642 349.288L49.3362 352.56" stroke="black" stroke-width="1.6" stroke-linecap="round" stroke-linejoin="round"/>
<path d="M47.4658 349.566L49.3368 347.704" stroke="black" stroke-width="1.6" stroke-linecap="round" stroke-linejoin="round"/>
<path d="M46.0642 378.561L49.3362 381.833" stroke="black" stroke-width="1.6" stroke-linecap="round" stroke-linejoin="round"/>
<path d="M47.4658 378.84L49.3368 376.969" stroke="black" stroke-width="1.6" stroke-linecap="round" stroke-linejoin="round"/>
<path d="M47.4819 375.298L49.3355 376.952" stroke="black" stroke-width="1.6" stroke-linecap="round" stroke-linejoin="round"/>
<path d="M46.0642 367.405L49.3362 370.677" stroke="black" stroke-width="1.6" stroke-linecap="round" stroke-linejoin="round"/>
<path d="M47.4658 367.692L49.3368 365.821" stroke="black" stroke-width="1.6" stroke-linecap="round" stroke-linejoin="round"/>
<path d="M46.0642 383.435L49.3362 386.707" stroke="black" stroke-width="1.6" stroke-linecap="round" stroke-linejoin="round"/>
<path d="M47.4658 383.722L49.3368 381.851" stroke="black" stroke-width="1.6" stroke-linecap="round" stroke-linejoin="round"/>
<path d="M46.0642 388.316L49.3362 391.588" stroke="black" stroke-width="1.6" stroke-linecap="round" stroke-linejoin="round"/>
<path d="M47.4658 388.595L49.3368 386.724" stroke="black" stroke-width="1.6" stroke-linecap="round" stroke-linejoin="round"/>
<path d="M46.0642 393.198L49.3362 396.47" stroke="black" stroke-width="1.6" stroke-linecap="round" stroke-linejoin="round"/>
<path d="M47.4658 393.477L49.3368 391.606" stroke="black" stroke-width="1.6" stroke-linecap="round" stroke-linejoin="round"/>
<path d="M46.0642 398.072L49.3362 401.344" stroke="black" stroke-width="1.6" stroke-linecap="round" stroke-linejoin="round"/>
<path d="M47.4658 398.35L49.3368 396.488" stroke="black" stroke-width="1.6" stroke-linecap="round" stroke-linejoin="round"/>
<path d="M46.0642 402.954L49.3362 406.226" stroke="black" stroke-width="1.6" stroke-linecap="round" stroke-linejoin="round"/>
<path d="M47.4658 403.232L49.3368 401.361" stroke="black" stroke-width="1.6" stroke-linecap="round" stroke-linejoin="round"/>
<path d="M46.0642 407.826L49.3362 411.098" stroke="black" stroke-width="1.6" stroke-linecap="round" stroke-linejoin="round"/>
<path d="M47.4658 408.114L49.3368 406.243" stroke="black" stroke-width="1.6" stroke-linecap="round" stroke-linejoin="round"/>
<path d="M46.0642 412.708L49.3362 415.981" stroke="black" stroke-width="1.6" stroke-linecap="round" stroke-linejoin="round"/>
<path d="M47.4658 412.987L49.3368 411.116" stroke="black" stroke-width="1.6" stroke-linecap="round" stroke-linejoin="round"/>
<path d="M46.0642 417.59L49.3362 420.862" stroke="black" stroke-width="1.6" stroke-linecap="round" stroke-linejoin="round"/>
<path d="M47.4658 417.869L49.3368 415.998" stroke="black" stroke-width="1.6" stroke-linecap="round" stroke-linejoin="round"/>
<path d="M46.0642 422.464L49.3362 425.736" stroke="black" stroke-width="1.6" stroke-linecap="round" stroke-linejoin="round"/>
<path d="M47.4658 422.742L49.3368 420.88" stroke="black" stroke-width="1.6" stroke-linecap="round" stroke-linejoin="round"/>
<path d="M46.0642 427.346L49.3362 430.618" stroke="black" stroke-width="1.6" stroke-linecap="round" stroke-linejoin="round"/>
<path d="M47.4658 427.624L49.3368 425.753" stroke="black" stroke-width="1.6" stroke-linecap="round" stroke-linejoin="round"/>
<path d="M46.0642 432.219L49.3362 435.491" stroke="black" stroke-width="1.6" stroke-linecap="round" stroke-linejoin="round"/>
<path d="M47.4658 432.506L49.3368 430.635" stroke="black" stroke-width="1.6" stroke-linecap="round" stroke-linejoin="round"/>
<path d="M46.0642 437.101L49.3362 440.373" stroke="black" stroke-width="1.6" stroke-linecap="round" stroke-linejoin="round"/>
<path d="M47.4658 437.379L49.3368 435.508" stroke="black" stroke-width="1.6" stroke-linecap="round" stroke-linejoin="round"/>
<path d="M46.0642 441.983L49.3362 445.255" stroke="black" stroke-width="1.6" stroke-linecap="round" stroke-linejoin="round"/>
<path d="M47.4658 442.261L49.3368 440.39" stroke="black" stroke-width="1.6" stroke-linecap="round" stroke-linejoin="round"/>
<path d="M46.0642 446.855L49.3362 450.127" stroke="black" stroke-width="1.6" stroke-linecap="round" stroke-linejoin="round"/>
<path d="M47.4658 447.134L49.3368 445.272" stroke="black" stroke-width="1.6" stroke-linecap="round" stroke-linejoin="round"/>
<path d="M46.2549 452.868L49.3354 450.145" stroke="black" stroke-width="1.6" stroke-linecap="round" stroke-linejoin="round"/>
<path d="M46.3428 290.278L49.1884 293.123" stroke="black" stroke-width="1.6" stroke-linecap="round" stroke-linejoin="round"/>
<path d="M102.541 226.552C102.22 226.552 101.903 226.489 101.607 226.366C101.31 226.243 101.041 226.062 100.815 225.835C100.589 225.608 100.409 225.338 100.287 225.042C100.166 224.745 100.103 224.427 100.105 224.107V220.051C100.105 219.405 100.361 218.785 100.818 218.328C101.275 217.871 101.895 217.615 102.541 217.615C103.187 217.615 103.807 217.871 104.264 218.328C104.721 218.785 104.978 219.405 104.978 220.051V224.107C104.979 224.427 104.917 224.745 104.795 225.042C104.673 225.338 104.494 225.608 104.267 225.835C104.041 226.062 103.772 226.243 103.476 226.366C103.179 226.489 102.862 226.552 102.541 226.552Z" fill="#E1E514" stroke="black" stroke-width="1.6" stroke-linecap="round" stroke-linejoin="round"/>
<path d="M4.45 93.5923C4.45 93.5923 -14.5642 107.516 -22.5963 122.309L-25.0503 118.333C-21.1066 113.309 -16.7206 108.649 -11.9449 104.409C-6.97278 100.107 -1.46146 96.4707 4.45 93.5923Z" fill="black"/>
<path d="M6.4161 118.671C6.4161 118.671 -2.93001 131.29 -5.06204 139.322C-5.06204 139.322 -7.84673 136.041 -5.54936 132.438C-3.25199 128.836 6.4161 118.671 6.4161 118.671Z" fill="black"/>
<path d="M100.321 99.6572C100.321 99.6572 111.852 110.204 114.915 116.539C117.203 121.291 123.765 123.91 126.228 122.439L125.41 119.489C125.41 119.489 123.278 120.638 119.84 118.341C116.403 116.043 107.883 105.227 107.883 105.227L100.321 99.6572Z" fill="black"/>
<path d="M88.2008 67.042C87.7048 67.2073 74.2774 81.3048 74.2774 81.3048L65.0879 84.3941L79.168 70.81L82.9534 68.7302L88.2008 67.042Z" fill="black"/>
<path d="M151.326 318.064L153.066 314.522C149.811 314.827 149.359 313.286 149.176 311.346C149.028 309.718 150.238 307.282 150.238 307.282L119.867 309.779C118.997 317.733 110.147 317.028 110.147 317.028L106.083 324.799" stroke="black" stroke-width="1.6" stroke-linecap="round" stroke-linejoin="round"/>
<path d="M77.27 400.064L77.6268 404.311C77.6268 404.311 82.9264 405.373 82.2215 411.377L103.785 419.862C103.785 419.862 103.96 413.501 108.728 415.441V411.734" stroke="black" stroke-width="1.6" stroke-linecap="round" stroke-linejoin="round"/>
<path d="M71.2652 386.106L63.8423 404.129C63.8423 404.129 67.5494 404.999 66.6705 409.968L71.7961 412.265" stroke="black" stroke-width="1.6" stroke-linecap="round" stroke-linejoin="round"/>
<path d="M116.865 328.489L127.821 347.756C127.821 347.756 136.653 344.397 138.263 354.117L166.014 347.93C166.014 347.93 161.768 340.507 168.625 336.26C168.625 336.26 165.536 327.053 151.665 318.412" stroke="black" stroke-width="1.6" stroke-linecap="round" stroke-linejoin="round"/>
<path d="M98.3118 317.35C99.1027 310.544 99.5152 303.7 99.5475 296.848C109.451 295.612 107.327 286.954 107.327 286.954C116.029 285.892 133.486 281.297 133.486 281.297C133.486 281.297 135.426 289.251 142.849 286.597C142.849 286.597 144.59 291.018 143.554 297.91" stroke="black" stroke-width="1.6" stroke-linecap="round" stroke-linejoin="round"/>
<path d="M13.1157 291.723C12.7589 288.372 12.4108 282.716 12.4108 282.716C2.69051 284.3 3.56943 274.014 3.56943 274.014L-31.9528 281.263C-29.8294 292.575 -40.0806 292.932 -40.0806 292.932C-40.0806 292.932 -39.5584 303.001 -37.4699 308.831" stroke="black" stroke-width="1.6" stroke-linecap="round" stroke-linejoin="round"/>
<path d="M28.4936 336.617L41.0421 350.401C41.0421 350.401 35.3857 358.181 42.1037 365.778C42.1037 365.778 34.324 375.15 15.9451 382.573" stroke="black" stroke-width="1.6" stroke-linecap="round" stroke-linejoin="round"/>
<path d="M40.8779 371.791C40.8779 371.791 40.3557 374.402 41.0606 375.855C41.0606 375.855 33.9857 382.39 14.3711 386.297" stroke="black" stroke-width="1.6" stroke-linecap="round" stroke-linejoin="round"/>
<path d="M147.191 319.761C147.661 323.007 145.372 325.913 138.045 327.21C130.718 328.506 122.207 326.679 121.737 323.433" stroke="black" stroke-width="1.6" stroke-linecap="round" stroke-linejoin="round"/>
<path d="M143.998 333.327L148.297 342.534" stroke="black" stroke-width="1.6" stroke-linecap="round" stroke-linejoin="round"/>
<path d="M124.052 292.21L125.897 299.877" stroke="black" stroke-width="1.6" stroke-linecap="round" stroke-linejoin="round"/>
<path d="M134.712 315.471L134.156 319.97" stroke="black" stroke-width="1.6" stroke-linecap="round" stroke-linejoin="round"/>
<path d="M93.6729 407.522V410.742" stroke="black" stroke-width="1.6" stroke-linecap="round" stroke-linejoin="round"/>
<path d="M63.9289 333.51L61.7446 330.9C61.5084 330.606 61.3794 330.241 61.3792 329.864C61.3788 329.638 61.4259 329.414 61.5173 329.208C61.6088 329.001 61.7425 328.815 61.91 328.663C62.059 328.528 62.2343 328.425 62.4249 328.36C62.6155 328.295 62.8174 328.27 63.0181 328.286C63.2188 328.302 63.414 328.36 63.5916 328.455C63.7693 328.549 63.9255 328.68 64.0507 328.837L66.2437 331.509L63.9289 333.51Z" fill="#F2C443" stroke="black" stroke-width="1.6" stroke-linecap="round" stroke-linejoin="round"/>
<path d="M63.337 335.79C63.1108 335.79 62.8871 335.743 62.6803 335.652C62.4734 335.56 62.288 335.427 62.1361 335.259C62.0007 335.11 61.8973 334.935 61.8324 334.744C61.7675 334.554 61.7424 334.352 61.7587 334.151C61.7751 333.95 61.8324 333.755 61.9273 333.578C62.0221 333.4 62.1524 333.244 62.3101 333.119L66.7047 329.507C67.0292 329.247 67.4404 329.119 67.8555 329.149C68.2705 329.18 68.6584 329.367 68.9412 329.672C69.0766 329.821 69.1799 329.997 69.2448 330.187C69.3097 330.378 69.3348 330.58 69.3185 330.781C69.3022 330.981 69.2448 331.176 69.15 331.354C69.0551 331.532 68.9248 331.688 68.7671 331.813L64.3725 335.425C64.0791 335.661 63.7137 335.79 63.337 335.79Z" fill="#F2C443" stroke="black" stroke-width="1.6" stroke-linecap="round" stroke-linejoin="round"/>
<mask id="mask3_2322_3654" style="mask-type:luminance" maskUnits="userSpaceOnUse" x="28" y="325" width="10" height="11">
<path d="M30.7647 325.887C30.2794 327.573 29.6505 329.215 28.885 330.795L33.3405 335.825L37.4827 327.305L30.7647 325.887Z" fill="white"/>
</mask>
<g mask="url(#mask3_2322_3654)">
<path d="M29.8171 332.292L27.6328 329.629C27.3704 329.305 27.2413 328.893 27.272 328.478C27.3028 328.062 27.4909 327.674 27.7982 327.392C27.9478 327.258 28.1232 327.156 28.3136 327.092C28.5041 327.027 28.7056 327.003 28.906 327.019C29.1063 327.035 29.3012 327.092 29.4788 327.186C29.6564 327.28 29.8129 327.41 29.9389 327.566L32.1318 330.238L29.8171 332.292Z" fill="#F2C443" stroke="black" stroke-width="1.6" stroke-linecap="round" stroke-linejoin="round"/>
<path d="M29.2258 334.563C28.9993 334.565 28.7749 334.519 28.5677 334.428C28.3606 334.336 28.1754 334.201 28.0249 334.032C27.8892 333.884 27.7854 333.71 27.7198 333.521C27.6543 333.331 27.6285 333.13 27.644 332.93C27.6595 332.73 27.716 332.535 27.81 332.358C27.904 332.181 28.0334 332.025 28.1902 331.9L32.5935 328.289C32.9172 328.026 33.3289 327.897 33.7445 327.928C34.1601 327.959 34.5484 328.147 34.83 328.454C34.9642 328.604 35.0665 328.779 35.1307 328.969C35.1949 329.16 35.2196 329.361 35.2033 329.562C35.187 329.762 35.1301 329.957 35.036 330.135C34.9418 330.312 34.8125 330.469 34.6559 330.595L30.3048 334.197C29.9998 334.443 29.6174 334.573 29.2258 334.563Z" fill="#F2C443" stroke="black" stroke-width="1.6" stroke-linecap="round" stroke-linejoin="round"/>
</g>
<path d="M42.1301 138.782C42.1577 137.924 42.3598 137.081 42.7241 136.304C43.0883 135.527 43.6071 134.832 44.2488 134.262C44.8905 133.692 45.6417 133.259 46.4564 132.989C47.2711 132.718 48.1323 132.617 48.9874 132.691C50.463 132.682 51.8992 133.166 53.0687 134.066C53.1107 134.105 53.1422 134.155 53.1605 134.209C53.1787 134.264 53.1831 134.322 53.1732 134.379C53.1041 134.829 52.9599 135.265 52.7468 135.667C52.4422 136.285 52.0419 136.859 51.7373 136.85C51.6939 136.841 51.6526 136.823 51.6155 136.798C50.8215 136.202 49.8662 135.859 48.8743 135.815C48.0048 135.787 47.1591 136.102 46.5195 136.691C45.88 137.281 45.4979 138.099 45.4556 138.968C45.4134 139.837 45.7144 140.687 46.2937 141.336C46.873 141.985 47.6842 142.381 48.5523 142.437C49.5406 142.481 50.5203 142.236 51.3718 141.732C51.4169 141.716 51.466 141.716 51.5111 141.732C51.7808 141.732 52.1202 142.22 52.3813 142.933C52.5545 143.363 52.6545 143.819 52.6771 144.282C52.6771 144.439 52.6336 144.569 52.5379 144.613C51.2851 145.391 49.8116 145.736 48.3435 145.596C47.4792 145.585 46.6265 145.396 45.8381 145.041C45.0497 144.687 44.3425 144.175 43.7601 143.536C43.1777 142.897 42.7325 142.146 42.4522 141.328C42.1718 140.51 42.0622 139.644 42.1301 138.782Z" fill="white"/>
<path d="M47.544 124.937L48.4142 127.234L50.8596 127.095L48.9538 128.635L49.8327 130.933L47.7877 129.584L45.8819 131.133L46.5259 128.766L44.4722 127.435L46.9088 127.313L47.544 124.937Z" fill="white"/>
</g>
<defs>
<linearGradient id="paint0_linear_2322_3654" x1="53.9561" y1="98.6481" x2="134.956" y2="119.107" gradientUnits="userSpaceOnUse">
<stop offset="0.32"/>
<stop offset="0.44" stop-color="#040304"/>
<stop offset="0.54" stop-color="#0F0E0E"/>
<stop offset="0.65" stop-color="#211F20"/>
<stop offset="0.75" stop-color="#3C383A"/>
<stop offset="0.84" stop-color="#5E585B"/>
<stop offset="0.94" stop-color="#877E82"/>
<stop offset="0.99" stop-color="#9E9499"/>
</linearGradient>
<linearGradient id="paint1_linear_2322_3654" x1="49.858" y1="87.5523" x2="75.9731" y2="37.6106" gradientUnits="userSpaceOnUse">
<stop offset="0.25"/>
<stop offset="0.35" stop-color="#0D0C0D"/>
<stop offset="0.53" stop-color="#302D2E"/>
<stop offset="0.78" stop-color="#676164"/>
<stop offset="1" stop-color="#9E9499"/>
</linearGradient>
<linearGradient id="paint2_linear_2322_3654" x1="48.2826" y1="66.6067" x2="48.1869" y2="29.9968" gradientUnits="userSpaceOnUse">
<stop offset="0.08"/>
<stop offset="0.24" stop-color="#040304"/>
<stop offset="0.39" stop-color="#0F0E0E"/>
<stop offset="0.53" stop-color="#211F20"/>
<stop offset="0.66" stop-color="#3C383A"/>
<stop offset="0.8" stop-color="#5E585B"/>
<stop offset="0.93" stop-color="#877E82"/>
<stop offset="1" stop-color="#9E9499"/>
</linearGradient>
<linearGradient id="paint3_linear_2322_3654" x1="58.7954" y1="89.8586" x2="130.379" y2="63.8652" gradientUnits="userSpaceOnUse">
<stop offset="0.3"/>
<stop offset="0.38" stop-color="#070707"/>
<stop offset="0.49" stop-color="#1C1A1B"/>
<stop offset="0.62" stop-color="#3D393B"/>
<stop offset="0.76" stop-color="#6A6467"/>
<stop offset="0.91" stop-color="#9E9499"/>
</linearGradient>
<linearGradient id="paint4_linear_2322_3654" x1="40.2245" y1="79.738" x2="98.8074" y2="79.738" gradientUnits="userSpaceOnUse">
<stop offset="0.4"/>
<stop offset="0.5" stop-color="#040304"/>
<stop offset="0.6" stop-color="#0F0E0E"/>
<stop offset="0.69" stop-color="#211F20"/>
<stop offset="0.78" stop-color="#3C383A"/>
<stop offset="0.87" stop-color="#5E585B"/>
<stop offset="0.96" stop-color="#877E82"/>
<stop offset="1" stop-color="#9E9499"/>
</linearGradient>
<linearGradient id="paint5_linear_2322_3654" x1="44.8718" y1="99.3267" x2="135.226" y2="99.3267" gradientUnits="userSpaceOnUse">
<stop offset="0.09"/>
<stop offset="0.23" stop-color="#171516"/>
<stop offset="0.53" stop-color="#514C4E"/>
<stop offset="0.89" stop-color="#9E9499"/>
</linearGradient>
<linearGradient id="paint6_linear_2322_3654" x1="-29.7842" y1="116.983" x2="11.7598" y2="98.8652" gradientUnits="userSpaceOnUse">
<stop stop-color="#9E9499"/>
<stop offset="0.09" stop-color="#877E82"/>
<stop offset="0.32" stop-color="#4D484B"/>
<stop offset="0.52" stop-color="#232122"/>
<stop offset="0.67" stop-color="#0A0909"/>
<stop offset="0.77"/>
</linearGradient>
<linearGradient id="paint7_linear_2322_3654" x1="10.5162" y1="68.8608" x2="53.3133" y2="68.8608" gradientUnits="userSpaceOnUse">
<stop stop-color="#9E9499"/>
<stop offset="0.6"/>
</linearGradient>
<linearGradient id="paint8_linear_2322_3654" x1="-36.015" y1="68.1121" x2="36.7611" y2="90.5289" gradientUnits="userSpaceOnUse">
<stop stop-color="#9E9499"/>
<stop offset="0.08" stop-color="#837B7F"/>
<stop offset="0.23" stop-color="#554F52"/>
<stop offset="0.37" stop-color="#302D2E"/>
<stop offset="0.51" stop-color="#161415"/>
<stop offset="0.63" stop-color="#060505"/>
<stop offset="0.72"/>
</linearGradient>
<linearGradient id="paint9_linear_2322_3654" x1="-0.640944" y1="52.0304" x2="52.8599" y2="104.2" gradientUnits="userSpaceOnUse">
<stop stop-color="#9E9499"/>
<stop offset="0.03" stop-color="#978D92"/>
<stop offset="0.3" stop-color="#575154"/>
<stop offset="0.53" stop-color="#282526"/>
<stop offset="0.7" stop-color="#0B0A0A"/>
<stop offset="0.81"/>
</linearGradient>
<linearGradient id="paint10_linear_2322_3654" x1="-37.5208" y1="103.713" x2="57.9331" y2="97.3687" gradientUnits="userSpaceOnUse">
<stop stop-color="#9E9499"/>
<stop offset="0.14" stop-color="#7E767A"/>
<stop offset="0.39" stop-color="#484446"/>
<stop offset="0.61" stop-color="#211F20"/>
<stop offset="0.79" stop-color="#090809"/>
<stop offset="0.89"/>
</linearGradient>
<linearGradient id="paint11_linear_2322_3654" x1="48.1003" y1="108.881" x2="116.778" y2="134.405" gradientUnits="userSpaceOnUse">
<stop offset="0.19"/>
<stop offset="0.3" stop-color="#0E0D0D"/>
<stop offset="0.5" stop-color="#322F30"/>
<stop offset="0.77" stop-color="#6C6569"/>
<stop offset="0.97" stop-color="#9E9499"/>
</linearGradient>
<linearGradient id="paint12_linear_2322_3654" x1="98.5378" y1="143.281" x2="53.6869" y2="109.708" gradientUnits="userSpaceOnUse">
<stop stop-color="#9E9499"/>
<stop offset="0.21" stop-color="#6B6468"/>
<stop offset="0.55" stop-color="#1E1C1D"/>
<stop offset="0.71"/>
</linearGradient>
<linearGradient id="paint13_linear_2322_3654" x1="-6.34921" y1="122.161" x2="44.5584" y2="122.161" gradientUnits="userSpaceOnUse">
<stop stop-color="#9E9499"/>
<stop offset="0.6"/>
</linearGradient>
<linearGradient id="paint14_linear_2322_3654" x1="-28.2178" y1="124.51" x2="51.259" y2="124.51" gradientUnits="userSpaceOnUse">
<stop stop-color="#9E9499"/>
<stop offset="0.6"/>
</linearGradient>
<linearGradient id="paint15_linear_2322_3654" x1="-1.55383" y1="154.925" x2="63.0074" y2="91.2775" gradientUnits="userSpaceOnUse">
<stop stop-color="#9E9499"/>
<stop offset="0.1" stop-color="#9A9095"/>
<stop offset="0.2" stop-color="#8D8488"/>
<stop offset="0.31" stop-color="#776F73"/>
<stop offset="0.42" stop-color="#595356"/>
<stop offset="0.53" stop-color="#322E30"/>
<stop offset="0.64" stop-color="#030202"/>
<stop offset="0.65"/>
</linearGradient>
</defs>
</svg>
