<svg width="448" height="82" viewBox="0 0 448 82" fill="none" xmlns="http://www.w3.org/2000/svg">
<path d="M447.984 59.1881C447.936 59.5709 447.856 59.9536 447.84 60.3364C447.728 62.9521 447.169 65.4562 446.114 67.8326C444.149 72.2665 440.698 75.0417 436.112 76.4612C433.203 77.3703 430.215 77.6574 427.195 77.6574C423.36 77.6574 419.526 77.6574 415.691 77.6574C409.107 77.6574 402.54 77.6893 395.957 77.6893C395.237 77.6893 394.502 77.7053 393.799 77.6415C392.01 77.4501 390.923 76.3496 390.715 74.5473C390.668 74.1486 390.652 73.7498 390.652 73.3511C390.652 69.7784 390.652 66.2058 390.652 62.6172C390.652 62.0749 390.715 61.5167 390.827 60.9903C391.115 59.7144 391.962 58.9648 393.208 58.7096C393.767 58.5979 394.343 58.5501 394.918 58.5501C403.61 58.5501 412.303 58.5501 420.996 58.5501C421.459 58.5501 421.938 58.4863 422.402 58.3906C423.536 58.1354 424.207 57.4017 424.463 56.2853C424.495 56.1417 424.511 55.9982 424.527 55.8387C424.719 53.4941 423.856 52.3298 421.523 51.9471C419.541 51.6281 417.528 51.3888 415.531 51.1177C412.575 50.703 409.619 50.2405 406.662 49.8417C404.681 49.5706 402.732 49.2197 400.83 48.5817C398.289 47.7205 396.02 46.4286 394.279 44.3392C392.729 42.4891 391.85 40.32 391.323 37.9914C390.795 35.7106 390.636 33.3661 390.62 31.0374C390.588 27.8635 390.636 24.6737 390.747 21.4997C390.811 19.4423 391.211 17.4167 391.866 15.439C393.512 10.399 396.915 7.17721 401.997 5.67797C404.138 5.04 406.327 4.78481 408.548 4.64126C413.917 4.30633 419.302 4.24253 424.687 4.27443C429.992 4.30633 435.297 4.35417 440.602 4.38607C440.698 4.38607 440.793 4.38607 440.905 4.38607C443.062 4.48177 444.213 5.59822 444.245 7.76734C444.277 9.72911 444.229 11.6909 444.245 13.6527C444.245 15.3592 444.325 17.0818 444.341 18.7883C444.341 19.4104 444.341 20.0324 444.229 20.6385C443.925 22.361 442.775 23.4456 440.921 23.6848C439.915 23.8124 438.892 23.8283 437.869 23.8283C431.494 23.8443 425.118 23.8602 418.743 23.8762C417.576 23.8762 416.474 24.0676 415.403 24.562C414.268 25.0883 413.933 26.0453 413.885 27.1618C413.837 28.2623 414.332 29.1235 415.307 29.5861C415.962 29.905 416.713 30.0964 417.432 30.2081C421.155 30.7504 424.878 31.2448 428.602 31.7711C431.19 32.138 433.811 32.3453 436.319 33.0949C437.454 33.4299 438.604 33.8126 439.675 34.3071C443.702 36.1412 446.162 39.2833 447.249 43.5417C447.616 45.0091 447.872 46.5083 447.872 48.0235C447.872 48.3106 447.952 48.5977 448 48.8848V59.1721L447.984 59.1881Z" fill="white"/>
<path d="M193.903 41.9149C193.695 41.7873 193.535 41.6916 193.359 41.5959C189.045 39.4268 186.297 35.9977 184.923 31.4043C184.124 28.7407 183.756 26.0294 183.437 23.2861C183.341 22.4726 183.245 21.6592 183.181 20.8458C182.957 17.943 183.852 15.4071 185.722 13.2061C187.303 11.34 189.253 9.93645 191.362 8.7243C197.035 5.45468 203.075 3.09418 209.434 1.61089C213.621 0.622025 217.887 0 222.217 0C223.304 0 224.407 0.0956961 225.493 0.25519C229.919 0.861265 233.147 3.20582 235.16 7.14531C235.8 8.40531 236.327 9.72911 236.806 11.0529C237.461 12.919 238.021 14.8329 238.612 16.7309C239.267 18.8043 239.411 20.9256 238.963 23.0628C238.628 24.7215 238.212 26.3483 237.829 27.9911C237.717 28.4377 237.621 28.9002 237.525 29.3947C237.733 29.4266 237.861 29.4585 238.005 29.4744C242.974 29.8891 246.553 32.4091 249.014 36.6676C250.037 38.438 250.804 40.3359 251.395 42.2817C252.354 45.4238 253.265 48.5658 254.175 51.7238C254.767 53.7653 255.134 55.8387 255.054 57.96C254.878 62.2184 253.057 65.6476 249.685 68.2313C246.426 70.7354 242.894 72.8407 239.171 74.5792C235.049 76.4931 230.798 78.0402 226.436 79.3002C220.396 81.0546 214.26 82.0754 207.948 81.9956C206.223 81.9797 204.529 81.8202 202.835 81.4693C198.249 80.5124 194.957 77.9126 192.928 73.7339C192.241 72.3303 191.666 70.863 191.186 69.3797C190.18 66.1739 189.253 62.9521 188.342 59.7303C187.815 57.8643 187.543 55.9503 187.527 53.9886C187.495 49.6503 189.141 46.0777 192.369 43.1909C192.608 42.9835 192.848 42.7602 193.104 42.5529C193.344 42.3455 193.599 42.1542 193.903 41.9149ZM223.224 60.9903C224.407 60.5438 225.621 60.1291 226.787 59.6347C227.698 59.2519 228.545 58.7096 229.264 58.0078C230.079 57.1944 230.574 56.2374 230.511 55.0891C230.431 53.5739 230.207 52.0747 229.696 50.6392C228.817 48.2149 227.299 47.1623 224.71 47.2101C223.975 47.2101 223.208 47.2739 222.489 47.4493C220.636 47.8959 218.766 48.3904 216.944 48.9486C215.682 49.3314 214.468 49.8417 213.349 50.5754C211.767 51.6121 211.112 53.0635 211.368 54.9136C211.623 56.7319 212.247 58.4225 213.046 60.0653C213.621 61.2455 214.611 61.9154 215.922 62.043C216.481 62.1068 217.072 62.1068 217.631 62.043C219.533 61.8995 221.371 61.4369 223.208 60.9903H223.224ZM210.936 20.4152C210.936 20.4152 210.952 20.4949 210.968 20.5268C210.249 20.7342 209.53 20.9415 208.827 21.1648C208.523 21.2605 208.236 21.42 207.948 21.5635C206.143 22.4248 205.456 23.6369 205.727 25.5668C205.983 27.3691 206.494 29.1076 207.261 30.7663C208.076 32.4888 209.163 33.1109 211.08 32.9833C211.256 32.9833 211.432 32.9833 211.591 32.9195C213.157 32.5048 214.723 32.1061 216.273 31.6595C216.753 31.5159 217.184 31.2607 217.631 31.0374C219.133 30.2719 219.709 29.0278 219.501 27.4169C219.245 25.4871 218.702 23.621 217.887 21.8666C217.072 20.144 215.938 19.522 214.036 19.7932C213.014 19.9367 211.991 20.2078 210.968 20.4152H210.936Z" fill="white"/>
<path d="M314.017 40.6709C314.017 46.1574 314.017 51.644 314.017 57.1306C314.017 59.6984 313.745 62.2344 313.17 64.7384C311.923 70.0336 308.791 73.7179 303.79 75.8551C301.233 76.9397 298.565 77.6255 295.832 78.104C291.502 78.8855 287.156 79.3162 282.762 79.3481C276.274 79.3959 269.883 78.7101 263.635 76.9078C262.229 76.5091 260.871 75.9349 259.544 75.2969C255.15 73.1757 252.418 69.6668 251.235 64.9617C250.676 62.7288 250.452 60.464 250.436 58.1673C250.436 54.1162 250.42 50.065 250.404 46.0298C250.404 40.0488 250.372 34.0519 250.372 28.0709C250.372 26.1091 250.404 24.1473 250.484 22.1856C250.564 20.3035 250.852 18.4375 251.347 16.6033C252.609 11.9461 255.454 8.64455 259.8 6.55519C262.421 5.29519 265.217 4.57747 268.061 4.03519C272.599 3.15797 277.169 2.67949 281.787 2.66354C288.163 2.64759 294.458 3.33342 300.61 5.10379C302.032 5.51848 303.438 6.0767 304.781 6.71468C309.351 8.88379 312.131 12.5043 313.266 17.4167C313.793 19.6496 313.985 21.9304 314.001 24.2111C314.001 29.6977 314.001 35.1843 314.001 40.6709H314.017ZM273.654 40.6709C273.654 42.4572 273.654 44.2435 273.654 46.0298C273.654 48.3904 273.654 50.7509 273.67 53.1114C273.67 54.2119 273.814 55.2964 274.149 56.3491C274.549 57.6091 275.379 58.4863 276.674 58.885C277.009 58.9967 277.345 59.0924 277.68 59.1562C280.892 59.6825 284.088 59.5549 287.268 58.9488C289.553 58.5022 290.767 56.9711 290.863 54.6425C290.863 54.3395 290.863 54.0524 290.863 53.7493C290.863 52.585 290.847 51.4207 290.847 50.2405C290.847 43.781 290.863 37.3215 290.847 30.862C290.847 29.5542 290.735 28.2304 290.543 26.9385C290.176 24.5142 289.025 23.3818 286.613 22.9033C286.341 22.8554 286.069 22.7916 285.798 22.7757C283.96 22.7278 282.123 22.6481 280.269 22.68C278.975 22.7119 277.696 22.9671 276.466 23.3818C274.948 23.8921 274.085 24.9448 273.829 26.5078C273.734 27.098 273.67 27.6881 273.67 28.2782C273.67 32.3931 273.67 36.524 273.67 40.639L273.654 40.6709Z" fill="white"/>
<path d="M113.433 37.6564C114.104 37.8638 114.679 38.0392 115.238 38.2306C120.256 39.9531 123.228 43.4301 124.266 48.5977C124.682 50.6233 124.762 52.6807 124.746 54.7542C124.73 60.7192 124.746 66.6683 124.714 72.6334C124.714 73.3511 124.698 74.0848 124.554 74.7865C124.235 76.4931 123.132 77.466 121.39 77.6574C120.975 77.7053 120.543 77.7212 120.128 77.7212C115.366 77.7212 110.62 77.7212 105.859 77.7212C105.411 77.7212 104.964 77.7212 104.517 77.6415C102.855 77.3703 101.864 76.3655 101.576 74.7068C101.497 74.2124 101.449 73.7179 101.449 73.2235C101.449 68.3749 101.449 63.5422 101.449 58.6936C101.449 58.0716 101.385 57.4496 101.257 56.8435C100.905 55.2326 99.8507 54.3235 98.2048 54.1321C97.8054 54.0843 97.4059 54.0683 97.0064 54.0683C92.6761 54.0683 88.3298 54.1002 83.9995 54.1002C83.7599 54.1002 83.5042 54.1002 83.1686 54.1002C83.1686 54.4352 83.1527 54.7222 83.1527 55.0093C83.1527 60.3683 83.1527 65.7433 83.1527 71.1022C83.1527 72.2506 83.0728 73.383 83.0248 74.5313C83.0248 74.7546 82.9769 74.9779 82.929 75.1853C82.6094 76.6686 81.9383 77.3225 80.4203 77.5139C79.4775 77.6255 78.5348 77.6734 77.592 77.6893C73.1498 77.7053 68.7237 77.7212 64.2815 77.6893C63.7063 77.6893 63.1311 77.6255 62.5878 77.5139C61.2615 77.2268 60.4466 76.3655 60.1749 75.0577C60.0471 74.4357 59.9992 73.7817 59.9992 73.1278C59.9992 64.9777 59.9992 56.8276 60.0152 48.6934C60.0152 37.0025 60.0152 25.2957 60.0152 13.6048C60.0152 11.9939 60.0152 10.383 60.0152 8.7562C60.0152 8.30962 60.0311 7.86303 60.111 7.41645C60.4306 5.48658 61.5172 4.49772 63.4826 4.35417C64.2016 4.30633 64.9207 4.33822 65.6557 4.33822C72.255 4.33822 78.8543 4.29038 85.4696 4.32228C90.519 4.33823 95.5843 4.41797 100.634 4.48177C102.855 4.51367 105.044 4.80076 107.201 5.37493C112.538 6.81038 115.878 10.2076 117.268 15.5347C117.763 17.4167 118.003 19.3306 118.083 21.2764C118.194 23.8762 118.21 26.4919 117.891 29.0916C117.667 30.9737 117.06 32.7121 115.989 34.2911C115.334 35.264 114.615 36.1731 113.912 37.1142C113.784 37.2896 113.641 37.465 113.465 37.7043L113.433 37.6564ZM83.2486 23.5253C83.2486 25.2638 83.2486 27.0023 83.2486 28.7407C83.2486 30.2559 83.2485 31.7711 83.2965 33.2863C83.3284 34.2752 83.7439 35.0886 84.7026 35.4714C86.1407 36.0615 87.6587 36.3486 89.2247 36.2529C91.8772 36.0774 93.6828 34.7377 94.6735 32.2815C95.1688 31.0375 95.3286 29.7296 95.3127 28.4058C95.3127 27.3372 95.2487 26.2686 94.9292 25.2319C94.5616 24.0357 93.7787 23.2861 92.5802 22.9511C92.3246 22.8714 92.0529 22.8076 91.7813 22.7757C90.6628 22.6959 89.5442 22.6162 88.4257 22.5843C86.7319 22.5524 85.0382 22.5843 83.2486 22.5843V23.5253Z" fill="white"/>
<path d="M343.05 54.1321C343.05 54.4671 343.05 54.7541 343.05 55.0572C343.05 60.7671 343.05 66.4769 343.034 72.1868C343.034 73.048 342.986 73.9253 342.891 74.7865C342.699 76.541 341.948 77.3544 340.19 77.4979C338.305 77.6415 336.403 77.6415 334.518 77.6574C331.274 77.6893 328.046 77.6734 324.802 77.6734C324.275 77.6734 323.748 77.6734 323.236 77.6415C321.367 77.466 320.232 76.3496 320.041 74.4994C319.993 73.9891 319.993 73.4627 319.993 72.9364C319.993 55.2486 319.993 37.5767 320.009 19.8888C320.009 16.2205 320.009 12.5362 319.993 8.86784C319.993 8.46911 319.993 8.07037 320.041 7.67164C320.216 5.66202 321.383 4.51367 323.396 4.33822C323.748 4.30633 324.099 4.30633 324.435 4.30633C331.29 4.30633 338.129 4.27443 344.984 4.30633C350.161 4.32228 355.338 4.40202 360.531 4.46582C362.784 4.49772 365.005 4.76886 367.178 5.35898C372.531 6.81038 375.823 10.2395 377.149 15.5666C377.597 17.337 377.868 19.1233 377.884 20.9415C377.884 23.5891 377.852 26.2526 377.757 28.9002C377.677 31.5319 376.718 33.8286 374.864 35.7425C374.305 36.3326 373.746 36.9228 373.123 37.5767C373.458 37.6883 373.714 37.7521 373.954 37.8478C375.024 38.2625 376.127 38.5974 377.149 39.0919C381 40.9898 383.253 44.1478 384.18 48.2947C384.628 50.3521 384.739 52.4255 384.675 54.5149C384.484 60.5438 384.564 66.5726 384.643 72.6174C384.643 73.3511 384.643 74.1167 384.5 74.8344C384.18 76.5091 383.157 77.4182 381.448 77.6255C381.032 77.6734 380.601 77.6893 380.185 77.6893C375.551 77.6893 370.918 77.6893 366.284 77.6574C365.597 77.6574 364.878 77.6415 364.206 77.5139C362.736 77.2427 361.921 76.2858 361.634 74.8663C361.554 74.4356 361.49 73.9731 361.49 73.5425C361.49 68.5822 361.522 63.606 361.538 58.6458C361.538 58.1992 361.522 57.7526 361.458 57.306C361.202 55.44 360.052 54.3235 358.166 54.1002C357.799 54.0524 357.415 54.0364 357.048 54.0364C352.638 54.0364 348.227 54.0524 343.817 54.0683C343.594 54.0683 343.386 54.1002 343.098 54.1162L343.05 54.1321ZM343.53 35.4873C344.664 35.5352 345.703 35.5671 346.741 35.6149C347.86 35.6787 348.978 35.8382 350.081 35.8382C352.67 35.8382 354.283 34.6101 354.987 32.122C355.194 31.3564 355.322 30.5749 355.37 29.7775C355.482 28.2782 355.306 26.8109 354.731 25.4073C354.044 23.7486 352.845 22.68 351.008 22.4726C350.193 22.3769 349.378 22.3929 348.563 22.4088C346.981 22.4567 345.383 22.5524 343.801 22.6481C343.705 22.6481 343.626 22.6959 343.53 22.7119V35.4873Z" fill="white"/>
<path d="M153.876 23.4296V31.5C154.163 31.5 154.451 31.5319 154.738 31.5319C160.443 31.5319 166.147 31.5319 171.852 31.5319C172.922 31.5319 173.993 31.5797 175.048 31.7392C176.278 31.9147 176.837 32.5207 177.013 33.7329C177.125 34.4985 177.173 35.264 177.173 36.0296C177.205 39.2354 177.205 42.4412 177.205 45.6471C177.205 45.8704 177.205 46.0936 177.173 46.3169C177.045 48.2468 175.91 49.4271 173.961 49.6025C173.37 49.6663 172.763 49.6503 172.171 49.6503C167.266 49.6503 162.36 49.6504 157.455 49.6823C156.56 49.6823 155.665 49.746 154.77 49.8098C154.147 49.8417 153.86 50.065 153.78 50.703C153.588 52.2501 153.348 53.8131 153.3 55.3602C153.22 57.3698 154.035 58.263 156.049 58.3906C158.158 58.5182 160.283 58.5501 162.392 58.5501C168.528 58.5501 174.648 58.5182 180.784 58.5182C181.503 58.5182 182.238 58.566 182.925 58.7255C184.331 59.0126 185.21 59.9058 185.482 61.3093C185.578 61.8197 185.626 62.346 185.626 62.8564C185.626 66.3015 185.578 69.7625 185.562 73.2076C185.562 73.6222 185.562 74.0529 185.53 74.4675C185.354 76.3336 184.22 77.4501 182.35 77.6096C182.03 77.6415 181.695 77.6255 181.375 77.6255C174.856 77.6255 168.32 77.6255 161.801 77.6255C153.812 77.6255 145.806 77.6255 137.817 77.6255C136.922 77.6255 136.027 77.6255 135.132 77.6255C134.813 77.6255 134.477 77.6255 134.157 77.5936C132.112 77.466 130.898 76.3017 130.722 74.2762C130.69 73.9253 130.69 73.5744 130.69 73.2394C130.69 51.6759 130.69 30.1283 130.69 8.56481C130.69 8.30962 130.69 8.07038 130.69 7.81519C130.802 5.66202 132 4.43392 134.157 4.27443C134.477 4.25848 134.813 4.25848 135.132 4.25848C143.729 4.25848 152.326 4.25848 160.922 4.25848C167.506 4.25848 174.073 4.24253 180.656 4.24253C181.343 4.24253 182.062 4.24253 182.733 4.37012C184.523 4.68911 185.466 5.77367 185.562 7.59189C185.61 8.6605 185.562 9.72911 185.562 10.7977C185.562 13.4294 185.562 16.061 185.578 18.6926C185.578 19.0914 185.578 19.4901 185.578 19.8889C185.482 21.9942 184.331 23.2223 182.222 23.3339C180.88 23.4137 179.538 23.3658 178.195 23.3658C172.811 23.3658 167.426 23.3658 162.057 23.3658C159.644 23.3658 157.231 23.3658 154.802 23.3658C154.531 23.3658 154.259 23.3658 153.891 23.3658L153.876 23.4296Z" fill="white"/>
<path d="M0.0301825 41.0536C0.0301825 36.0455 -0.00177544 31.0215 0.0301825 26.0134C0.0461614 23.1585 0.285846 20.3035 1.05284 17.5283C1.93168 14.3704 3.40174 11.5792 5.91044 9.39417C8.16347 7.4324 10.816 6.31595 13.7082 5.66202C15.6896 5.21544 17.7029 5.0719 19.7003 4.9124C26.9387 4.37012 34.1772 4.38607 41.4316 4.40202C44.3718 4.40202 47.3119 4.44987 50.252 4.44987C50.7474 4.44987 51.1788 4.57747 51.5943 4.83266C52.2973 5.26329 52.8885 5.83747 53.3519 6.52329C53.6555 6.96987 53.7834 7.44835 53.8313 7.99063C54.1509 11.7387 54.0071 15.4868 53.9591 19.2349C53.9591 19.9048 53.9272 20.5747 53.8473 21.2445C53.6715 22.5364 52.8726 23.3658 51.6262 23.6688C50.9391 23.8443 50.2041 23.9081 49.485 23.9081C44.931 23.9081 40.361 23.8921 35.807 23.9081C33.4102 23.9081 31.0293 23.9559 28.6325 24.0357C27.9135 24.0516 27.1944 24.1952 26.4913 24.3547C25.0213 24.7056 24.0785 25.6466 23.7749 27.1139C23.5672 28.1347 23.4393 29.1714 23.4393 30.2081C23.4074 37.5129 23.4074 44.8017 23.4393 52.1066C23.4393 53.1114 23.5672 54.1321 23.7589 55.1369C24.0465 56.5564 24.9414 57.4974 26.3635 57.8164C27.4181 58.0557 28.5206 58.2152 29.6072 58.2471C33.0427 58.3109 36.4782 58.3109 39.9136 58.3268C43.1094 58.3268 46.2892 58.3268 49.485 58.3428C50.252 58.3428 51.019 58.4544 51.786 58.5979C52.8087 58.7893 53.4798 59.4114 53.6875 60.4481C53.8153 61.0541 53.9272 61.6762 53.9272 62.2822C53.9591 66.2058 53.9432 70.1293 53.9432 74.0529C53.9432 74.324 53.9112 74.5951 53.8633 74.8663C53.5277 76.7164 52.521 77.6096 50.6355 77.5936C43.4929 77.5617 36.3344 77.5458 29.1918 77.4341C25.5645 77.3703 21.9213 77.1152 18.2941 76.8919C16.0091 76.7483 13.7401 76.3974 11.551 75.6797C6.02229 73.8615 2.58681 70.0655 1.03686 64.5152C0.301825 61.9154 0.0301825 59.2519 0.0142035 56.5564C-0.0177544 51.3888 0.0142035 46.2212 0.0142035 41.0696L0.0301825 41.0536Z" fill="white"/>
</svg>
