<svg width="382" height="435" viewBox="0 0 382 435" fill="none" xmlns="http://www.w3.org/2000/svg">
<mask id="mask0_2322_3444" style="mask-type:luminance" maskUnits="userSpaceOnUse" x="0" y="0" width="432" height="436">
<path d="M432 0H0V435.359H432V0Z" fill="white"/>
</mask>
<g mask="url(#mask0_2322_3444)">
<path d="M108.163 412.223C108.163 412.223 113.23 487.739 117.323 493.848C121.415 499.957 503.914 492.418 503.914 492.418C503.914 492.418 508.072 454.01 505.018 432.564C501.965 411.118 372.365 314.22 372.365 314.22L360.217 268.858L282.587 259.109C282.587 259.109 257.057 275.422 258.096 284.65C259.136 293.878 255.043 321.368 255.043 321.368C255.043 321.368 194.823 368.29 174.425 377.519C154.027 386.682 108.163 412.223 108.163 412.223Z" fill="#E93F45"/>
<path d="M356.838 374.334C356.838 374.334 363.66 382.718 368.402 387.917C373.144 393.116 379.25 397.016 384.447 401.76C389.644 406.504 395.556 411.313 397.115 413.068C398.674 414.822 401.208 422.621 401.208 422.621C401.208 422.621 375.353 426.715 370.156 428.275C364.959 429.835 353.136 434.189 353.136 434.189L349.498 434.644C349.498 434.644 343.131 424.441 336.83 419.242C330.529 414.043 321.889 407.479 321.889 407.479L332.218 400.655L324.422 393.636C324.422 393.636 327.151 391.362 330.074 391.167C332.997 390.972 339.169 387.982 340.273 387.072C341.377 386.162 344.561 383.693 345.73 382.068C346.899 380.443 350.277 377.324 351.382 377.064C352.486 376.804 356.838 374.334 356.838 374.334Z" fill="white"/>
<path d="M372.56 361.596C372.56 361.596 388.086 376.609 398.544 377.519C409.003 378.428 414.655 376.869 420.307 373.879C425.959 370.89 428.687 368.68 430.701 365.236C432.715 361.791 433.884 357.112 435.443 353.668C437.002 350.223 437.457 346.649 439.081 345.934C440.705 345.219 441.55 346.194 442.264 346.584C442.979 346.974 448.371 371.085 448.371 371.085C448.371 371.085 449.28 406.244 426.608 414.172C403.936 422.101 401.208 422.556 401.208 422.556C399.909 417.292 396.855 412.548 392.633 409.168C385.422 403.254 378.211 396.495 372.949 392.401C367.687 388.307 362.555 380.833 362.555 380.833L356.904 374.269C356.904 374.269 361.646 371.8 364.634 368.81C367.622 365.821 372.56 361.596 372.56 361.596Z" fill="#D783DB"/>
<path d="M285.315 122.893C285.64 123.933 280.183 135.501 280.183 135.501C280.183 135.501 274.401 120.879 261.474 123.283C248.546 125.688 249.586 147.394 250.625 151.163C251.665 154.933 253.678 162.406 258.096 164.746C261.019 166.241 264.072 167.411 267.256 168.125L270.309 167.476C270.309 167.476 262.838 207.249 271.348 225.25C279.858 243.252 293.76 255.795 311.43 257.485C329.1 259.174 343.002 255.47 353.201 246.632C363.4 237.793 380.745 215.697 380.745 215.697L383.798 211.603C383.798 211.603 391.269 221.676 399.779 218.882C408.289 216.087 417.773 208.223 420.827 203.479C423.88 198.735 425.244 195.681 423.555 189.572C421.866 183.463 418.098 181.058 412.706 180.733C407.315 180.408 400.169 183.138 400.169 183.138L405.366 172.61C405.366 172.61 388.93 145.444 349.823 129.067C310.715 112.69 286.679 119.384 286.679 119.384L285.315 122.893Z" fill="white"/>
<path d="M303.505 165.981C303.505 171.505 299.022 175.989 293.435 175.989C287.914 175.989 283.431 171.505 283.431 165.981C283.431 160.457 287.914 155.973 293.435 155.973C298.957 155.973 303.505 160.392 303.505 165.981Z" fill="#D783DB"/>
<path d="M373.924 193.796C373.924 199.32 369.442 203.804 363.855 203.804C358.333 203.804 353.851 199.32 353.851 193.796C353.851 188.272 358.333 183.788 363.855 183.788C369.377 183.788 373.924 188.272 373.924 193.796Z" fill="#D783DB"/>
<path d="M277.779 128.288C277.779 128.288 271.218 120.749 274.141 108.141C277.065 95.5333 279.728 87.7346 283.626 82.4056C287.523 77.0765 292.591 73.8921 295.254 72.2023C296.878 71.1625 298.697 70.7076 300.581 70.7726L308.831 71.0326C308.831 71.0326 326.306 49.1964 361.776 53.2907C397.245 57.3849 413.226 83.9003 416.864 89.2294C420.502 94.5584 423.685 105.996 423.685 105.996L424.919 116.2L424.659 121.074C424.659 121.074 429.726 127.378 430.701 130.757C431.675 134.136 430.96 144.145 430.701 147.524C430.441 150.904 427.777 159.417 425.114 163.771C422.45 168.126 417.838 174.429 417.838 174.429C417.838 174.429 412.511 178.069 411.277 178.589C410.043 179.109 405.755 180.343 405.755 180.343L405.43 172.545C405.43 172.545 390.164 153.113 374.833 142.455C359.502 131.797 337.48 123.283 318.251 120.814C299.022 118.344 286.679 119.384 286.679 119.384L282.067 130.562L277.779 128.288Z" fill="#E93F45"/>
<path d="M300.191 190.547C300.191 190.547 307.662 187.622 311.495 185.802C315.327 183.983 316.237 183.528 318.51 184.243C319.875 184.698 321.174 185.477 322.148 186.517C322.928 187.427 323.967 188.142 325.072 188.532C326.696 188.987 329.619 188.987 330.723 189.247C332.218 189.702 333.517 190.547 334.556 191.716C335.206 192.626 338.389 200.815 338.389 200.815L341.312 208.743C340.338 209.913 339.428 211.083 338.584 212.383C338.129 213.293 327.475 223.496 313.184 216.477C298.892 209.458 299.606 201.985 299.606 201.985L298.957 194.056L300.971 192.691L300.191 190.547Z" fill="#D783DB"/>
<path d="M311.04 196.655L316.497 196.85C317.471 197.76 318.51 198.475 319.68 199.125C320.979 199.775 322.538 200.035 323.967 199.775L329.164 204.974C329.164 204.974 319.42 202.959 315.327 200.685C311.235 198.41 311.04 196.655 311.04 196.655Z" fill="white"/>
<path d="M300.647 126.273C301.686 126.273 307.078 123.218 312.21 125.233C317.342 127.248 323.059 132.057 323.059 132.057L327.801 138.881C327.801 138.881 329.425 126.663 316.498 121.919C303.57 117.174 299.283 126.013 299.283 126.013L300.647 126.273Z" fill="#D783DB"/>
<path d="M365.544 157.857C365.544 157.857 372.69 155.843 379.836 158.507C386.982 161.172 391.399 169.75 391.399 169.75C391.399 169.75 394.127 159.872 384.968 156.168C375.808 152.463 370.026 153.438 370.026 153.438L365.479 155.973L365.544 157.857Z" fill="#D783DB"/>
<path d="M292.136 264.309L292.461 287.055C295.189 286.795 297.983 287.51 300.256 289.069C304.349 291.799 306.688 293.488 306.688 293.488L310.066 299.272L310.715 300.962C310.715 300.962 311.755 294.853 314.808 292.449C317.861 290.044 322.279 286.99 322.279 286.99L329.424 286.665L328.385 266.258L292.136 264.309Z" fill="white"/>
<path d="M232.306 424.766C234.06 419.047 236.658 413.652 240.101 408.778C245.558 401.305 249.976 397.21 256.407 393.116C262.838 389.022 267.645 387.657 271.348 386.292C273.427 385.447 275.701 385.317 277.779 385.967L280.183 386.617C280.183 386.617 286.614 382.198 290.382 380.833C294.15 379.468 295.124 378.104 296.489 378.819C297.853 379.533 308.702 383.888 308.702 383.888L332.153 400.525C332.153 400.525 330.464 405.594 325.007 405.594C321.824 405.594 318.641 405.789 315.523 406.244L322.668 411.703L325.722 413.717C322.798 416.772 318.966 418.787 314.873 419.501C310.715 420.346 306.493 420.541 302.27 420.151L296.164 418.137C293.5 420.086 290.642 421.776 287.654 423.206C283.236 425.22 271.023 423.856 271.023 423.856L258.486 419.176C258.486 419.176 249.326 426.975 242.83 427.3C239.192 427.495 235.554 427.495 231.981 427.3L232.306 424.766Z" fill="white"/>
<path d="M324.422 393.571C324.422 393.571 329.165 390.841 332.803 390.191C336.246 389.477 339.494 387.787 342.092 385.447C344.366 383.433 346.64 379.533 348.004 378.623C349.368 377.714 354.11 374.984 355.474 374.334C358.593 372.644 361.581 370.89 364.504 368.875C366.323 367.51 372.235 360.492 372.235 360.492L366.128 353.213C363.984 353.473 361.841 353.993 359.762 354.773C357.358 355.747 355.02 357.047 352.941 358.607C352.941 358.607 359.502 358.867 359.762 361.336C359.957 362.701 359.437 364.066 358.398 364.976L355.02 364.066C355.02 364.066 351.837 362.701 350.927 362.961C349.693 363.091 348.523 363.091 347.289 362.961L345.47 364.781C345.21 365.951 345.665 367.185 346.64 367.965C348.199 369.33 348.458 371.345 348.004 372.255C347.549 373.164 345.99 373.164 345.99 373.164L343.261 371.8L340.533 368.615L338.714 369.785C338.714 369.785 341.897 373.619 341.443 375.244C340.988 376.869 338.519 376.609 338.519 376.609L336.505 375.504L334.621 372.515L331.698 375.244C332.023 376.999 332.543 378.623 333.257 380.248C334.362 382.523 334.621 384.992 333.257 385.447C331.893 385.902 329.424 384.797 329.424 384.797L327.606 380.963L326.696 378.948L322.863 382.133C322.474 383.108 322.538 384.212 323.123 385.057C324.033 386.422 324.487 388.242 323.123 388.892C321.759 389.542 319.745 388.697 319.745 388.697L317.471 385.512L314.548 387.787L324.422 393.571Z" fill="#D783DB"/>
<path d="M352.746 355.033L360.931 339.371C360.931 339.371 371.585 342.1 374.508 347.494C376.262 350.679 377.107 354.253 376.977 357.892L376.262 360.557L372.234 358.802L366.128 353.148C366.128 353.148 360.216 354.253 358.852 354.968C357.488 355.683 352.941 358.607 352.941 358.607L351.122 357.697L352.746 355.033Z" fill="white"/>
<path d="M372.885 361.857C372.885 361.857 387.631 376.804 403.937 377.519C420.242 378.234 425.699 370.955 429.337 365.951C432.975 360.947 435.444 352.823 435.444 352.823C435.444 352.823 436.613 348.729 437.912 347.364C439.211 345.999 440.641 344.895 440.641 344.895C440.641 344.895 436.353 342.425 433.625 345.35C430.896 348.274 429.077 356.463 425.05 361.207C421.022 365.951 417.384 372.775 406.925 373.88C396.466 374.984 386.527 369.785 386.527 369.785L376.783 362.312L369.507 356.203L372.885 361.857Z" fill="white"/>
<path d="M318.186 382.068C318.186 383.498 318.316 384.993 318.641 386.357C319.095 387.852 320.459 389.217 321.369 389.282C322.278 389.347 323.838 388.697 323.773 387.722C323.708 386.747 322.733 384.993 322.668 384.343C322.603 383.693 322.408 382.198 322.213 381.873C322.019 381.548 319.94 380.638 319.615 380.833C319.095 381.158 318.641 381.613 318.186 382.068Z" fill="white"/>
<path d="M327.281 376.284C327.022 376.609 327.866 381.028 328.97 382.978C330.075 384.928 331.439 385.123 332.608 384.993C333.518 384.863 334.167 384.018 334.038 383.108C334.038 382.913 333.973 382.653 333.843 382.523C333.258 381.353 332.608 380.118 332.284 379.209C331.959 378.299 331.374 377.649 331.634 376.804C331.894 375.959 331.504 374.334 330.724 374.334C329.945 374.334 328.581 374.334 328.321 374.659C328.061 374.984 327.281 376.284 327.281 376.284Z" fill="white"/>
<path d="M334.297 371.605C334.297 371.605 336.245 373.879 337.025 374.984C337.805 376.089 339.169 377.389 340.078 376.804C340.988 376.219 341.118 375.114 340.988 374.204C340.858 373.294 339.623 371.475 339.039 370.825C338.454 370.175 336.18 369.265 336.18 369.265C336.18 369.265 334.621 369.395 334.362 369.915C334.232 370.435 334.232 371.02 334.297 371.605Z" fill="white"/>
<path d="M339.949 367.315C340.014 367.445 340.079 367.64 340.209 367.77C341.313 369.655 342.742 371.41 344.496 372.774C345.535 373.424 346.77 373.684 347.549 373.034C348.329 372.384 348.784 371.215 348.134 370.435C347.484 369.655 346.575 368.94 346.12 368.42C345.6 367.9 345.211 367.185 345.016 366.47C344.886 365.691 345.341 364.196 343.911 364.326C342.482 364.456 341.508 364.001 340.988 364.781C340.403 365.496 340.079 366.405 339.949 367.315Z" fill="white"/>
<path d="M350.472 363.351C352.616 363.481 354.695 363.936 356.709 364.716C357.943 365.301 358.853 365.756 359.567 364.586C360.282 363.416 360.931 361.987 359.827 361.402C358.723 360.817 357.878 360.037 356.319 359.842C354.76 359.647 351.707 358.607 350.537 358.737C349.368 358.867 347.679 358.997 347.614 359.647C347.549 360.297 347.354 361.857 347.809 362.052L350.472 363.351Z" fill="white"/>
<path d="M225.42 447.057C225.42 447.057 224.056 450.241 224.056 452.256C224.056 454.27 223.796 458.82 223.796 458.82C223.796 458.82 234.19 461.289 237.633 462.914C241.076 464.539 249.651 465.188 252.574 465.643C255.498 466.098 280.443 465.643 282.262 466.098C284.081 466.553 311.69 464.084 313.769 464.084C315.848 464.084 340.988 460.249 344.106 459.794C347.224 459.339 366.518 454.79 370.156 453.88C373.794 452.971 385.812 450.501 386.917 450.501C388.021 450.501 397.57 448.226 398.22 448.486C398.87 448.746 407.315 447.122 407.315 447.122C407.315 447.122 411.407 435.359 415.24 431.719C419.073 428.08 423.166 423.076 424.725 422.166C426.284 421.256 434.664 415.797 434.664 415.797L432.715 412.158C432.715 412.158 401.468 423.466 388.281 425.09C379.576 426.26 371.001 428.275 362.686 431.004C362.686 431.004 330.724 440.753 322.149 442.767C313.574 444.782 294.54 446.862 279.793 447.966C265.047 449.071 235.359 448.226 235.359 448.226L225.42 447.057Z" fill="white"/>
<path d="M231.981 431.914C232.436 432.564 254.848 429.185 260.304 429.185C265.761 429.185 279.533 427.625 283.626 426.91C287.719 426.195 296.294 423.726 298.567 423.271C300.841 422.816 303.764 420.541 303.764 420.541C303.764 420.541 319.42 419.372 321.629 418.267C323.838 417.162 325.722 413.848 325.722 413.848L316.627 407.999L320.719 406.634C320.719 406.634 331.178 414.887 333.452 416.902C335.726 418.917 343.846 426.845 343.846 426.845L349.563 434.579C349.563 434.579 333.712 439.323 326.241 441.338C318.771 443.352 309.676 446.992 282.522 448.162C255.367 449.331 236.333 448.162 236.333 448.162L225.485 446.992C225.485 446.992 225.03 441.793 227.498 438.153C229.967 434.514 231.981 431.914 231.981 431.914Z" fill="#D783DB"/>
<path d="M236.269 427.365L232.891 431.654L266.866 428.015C279.534 426.65 292.916 425.545 296.554 424.181C299.088 423.206 301.491 421.971 303.83 420.541L295.645 418.722C295.645 418.722 289.083 421.711 287.524 422.621C285.965 423.531 259.266 419.892 259.266 419.892L236.269 427.365Z" fill="white"/>
<path d="M263.812 167.346C263.812 167.346 240.816 194.641 211.583 218.427C182.35 242.213 133.303 279.061 115.763 295.893C99.3925 311.62 79.7089 350.289 77.0454 374.789C74.382 399.29 79.1242 412.288 83.1519 424.831C87.6343 438.543 93.8057 451.671 101.471 463.889L115.048 482.216C115.048 482.216 115.698 444.847 130.704 424.441C145.711 404.034 162.666 393.181 176.893 383.628C191.119 374.074 211.583 361.857 225.809 351.653C240.036 341.45 264.527 322.409 264.527 322.409L263.877 289.784C263.877 289.784 264.267 276.332 268.295 272.887C272.322 269.443 280.053 266.453 280.053 266.453L292.071 264.244L292.396 250.271C292.396 250.271 285.575 246.892 276.09 234.674C266.606 222.456 266.606 202.05 266.606 202.05L268.685 176.184L270.374 167.346H263.812Z" fill="black"/>
<path d="M329.165 257.81C329.165 257.81 341.767 253.716 348.199 249.686C354.63 245.657 360.411 240.523 367.233 232.724C374.054 224.926 378.796 218.752 378.796 218.752L383.863 211.603C385.682 213.228 387.566 214.722 389.645 216.022C393.737 218.752 399.844 218.882 399.844 218.882C399.844 218.882 404.066 237.728 420.242 261.449C432.13 278.801 439.276 290.044 463.117 314.545C485.399 337.486 496.248 361.857 502.03 378.819C507.097 393.376 509.695 408.648 509.63 424.116C509.63 438.088 509.305 446.212 508.266 454.4C507.227 462.589 505.213 478.511 505.213 478.511C505.213 478.511 504.173 454.011 497.417 441.143C490.661 428.275 485.529 421.061 485.529 421.061L481.436 415.667C482.931 412.613 483.515 409.168 483.125 405.789C482.476 400.33 479.033 393.246 479.033 393.246C479.033 393.246 474.615 376.934 470.523 366.731C467.989 360.427 465.845 353.928 464.091 347.364C464.091 347.364 461.038 347.689 459.999 350.419C458.959 353.148 456.946 359.907 456.946 359.907L450.839 339.176C450.839 339.176 447.461 340.215 446.747 341.905C446.032 343.595 444.018 349.379 444.018 349.379C444.018 349.379 441.614 344.96 438.951 344.635C436.288 344.31 432.52 345.675 431.805 347.364C430.116 351.264 428.232 354.968 426.024 358.607C423.62 362.377 420.567 366.796 420.567 366.796L417.513 368.81L356.319 323.578C356.319 323.578 356.968 293.684 356.644 287.185C356.319 280.686 356.644 275.292 352.226 272.237C347.809 269.183 339.624 266.453 339.624 266.453H328.385L329.165 257.81Z" fill="black"/>
<path fill-rule="evenodd" clip-rule="evenodd" d="M305.064 305.186C305.258 305.706 305.258 310.97 305.258 310.97L307.272 311.36C307.272 311.36 304.544 313.505 304.349 315.52C304.154 317.534 304.024 326.568 304.024 326.568L304.219 334.886C304.544 335.796 305.064 336.641 305.648 337.421C306.233 338.006 306.947 338.461 307.662 338.85V383.043L313.249 386.682V339.24C313.249 339.24 316.692 336.511 317.212 334.366C317.731 332.222 317.017 320.394 317.017 320.394L316.627 315L313.639 311.88L315.977 310.58L315.458 304.796L305.064 305.186Z" fill="white"/>
<mask id="mask1_2322_3444" style="mask-type:luminance" maskUnits="userSpaceOnUse" x="199" y="401" width="48" height="80">
<path d="M233.02 403.904C233.02 403.904 208.724 411.833 201.708 433.864C194.692 455.895 205.346 473.312 211.907 477.406C218.468 481.5 227.758 480.33 230.291 479.876C231.656 479.681 232.89 478.836 233.475 477.601C233.475 477.601 218.078 469.672 226.004 441.727C226.913 438.478 228.732 435.813 229.512 433.214C235.618 413.717 237.567 412.222 237.567 412.222L246.402 401.109L233.02 403.904Z" fill="white"/>
</mask>
<g mask="url(#mask1_2322_3444)">
<path d="M242.505 404.814C242.505 404.814 231.591 404.619 203.268 410.923" stroke="#AD0B3D" stroke-width="2.2" stroke-linecap="round" stroke-linejoin="round"/>
<path d="M242.57 409.688C242.57 409.688 231.527 410.663 202.293 416.057" stroke="#AD0B3D" stroke-width="2.2" stroke-linecap="round" stroke-linejoin="round"/>
<path d="M242.635 414.627C242.635 414.627 231.396 416.772 201.319 421.191" stroke="#AD0B3D" stroke-width="2.2" stroke-linecap="round" stroke-linejoin="round"/>
<path d="M242.7 419.501C242.7 419.501 231.267 422.815 200.344 426.325" stroke="#AD0B3D" stroke-width="2.2" stroke-linecap="round" stroke-linejoin="round"/>
<path d="M242.765 424.375C242.765 424.375 231.201 428.925 199.37 431.394" stroke="#AD0B3D" stroke-width="2.2" stroke-linecap="round" stroke-linejoin="round"/>
<path d="M242.894 429.314C242.894 429.314 231.136 435.033 198.46 436.593" stroke="#AD0B3D" stroke-width="2.2" stroke-linecap="round" stroke-linejoin="round"/>
<path d="M242.96 434.188C242.96 434.188 231.006 441.077 197.421 441.662" stroke="#AD0B3D" stroke-width="2.2" stroke-linecap="round" stroke-linejoin="round"/>
</g>
<path d="M359.112 354.773L362.555 347.234L358.138 345.154L352.031 357.502C352.031 357.502 352.096 358.152 353.656 357.112L359.112 354.773Z" fill="#D783DB"/>
<mask id="mask2_2322_3444" style="mask-type:luminance" maskUnits="userSpaceOnUse" x="274" y="70" width="158" height="110">
<path d="M276.09 124.648C273.427 115.745 273.427 106.321 276.09 97.4178C280.508 82.7954 288.693 75.9715 292.396 73.9569C294.994 72.5921 297.723 71.5523 300.581 70.7725C300.581 70.7725 350.537 74.3468 376.068 85.1999C401.598 96.053 414.85 111.065 421.281 117.499C427.713 123.933 433.169 132.447 431.156 145.704C429.142 158.962 425.049 166.826 419.592 171.245C414.135 175.664 409.718 178.719 409.718 178.719L403.222 179.758L405.431 172.48C405.431 172.48 388.345 146.094 352.291 130.107C316.237 114.12 286.809 119.319 286.809 119.319L281.222 127.053L276.805 126.013L276.09 124.648Z" fill="white"/>
</mask>
<g mask="url(#mask2_2322_3444)">
<path d="M282.522 133.486C282.522 133.486 265.826 96.3779 305.323 65.4434" stroke="#AD0B3D" stroke-width="2.2" stroke-linecap="round" stroke-linejoin="round"/>
<path d="M287.849 135.696C287.849 135.696 273.882 100.537 311.106 67.0029" stroke="#AD0B3D" stroke-width="2.2" stroke-linecap="round" stroke-linejoin="round"/>
<path d="M293.11 137.906C293.11 137.906 281.936 104.632 316.886 68.563" stroke="#AD0B3D" stroke-width="2.2" stroke-linecap="round" stroke-linejoin="round"/>
<path d="M298.372 140.05C298.372 140.05 289.927 108.726 322.668 70.1226" stroke="#AD0B3D" stroke-width="2.2" stroke-linecap="round" stroke-linejoin="round"/>
<path d="M303.635 142.26C303.635 142.26 297.918 112.82 328.45 71.7471" stroke="#AD0B3D" stroke-width="2.2" stroke-linecap="round" stroke-linejoin="round"/>
<path d="M308.962 144.47C308.962 144.47 306.038 116.979 334.297 73.3721" stroke="#AD0B3D" stroke-width="2.2" stroke-linecap="round" stroke-linejoin="round"/>
<path d="M314.223 146.614C314.223 146.614 314.029 121.009 340.013 74.8667" stroke="#AD0B3D" stroke-width="2.2" stroke-linecap="round" stroke-linejoin="round"/>
<path d="M319.485 148.824C319.485 148.824 322.018 125.168 345.794 76.4912" stroke="#AD0B3D" stroke-width="2.2" stroke-linecap="round" stroke-linejoin="round"/>
<path d="M324.747 150.969C324.747 150.969 330.074 129.197 351.577 77.9863" stroke="#AD0B3D" stroke-width="2.2" stroke-linecap="round" stroke-linejoin="round"/>
<path d="M330.074 153.178C330.074 153.178 338.065 133.356 357.358 79.6108" stroke="#AD0B3D" stroke-width="2.2" stroke-linecap="round" stroke-linejoin="round"/>
<path d="M335.335 155.387C335.335 155.387 346.119 137.451 363.139 81.1704" stroke="#AD0B3D" stroke-width="2.2" stroke-linecap="round" stroke-linejoin="round"/>
<path d="M340.597 157.532C340.597 157.532 354.11 141.48 368.921 82.7305" stroke="#AD0B3D" stroke-width="2.2" stroke-linecap="round" stroke-linejoin="round"/>
<path d="M345.925 159.742C345.925 159.742 362.166 145.639 374.768 84.29" stroke="#AD0B3D" stroke-width="2.2" stroke-linecap="round" stroke-linejoin="round"/>
<path d="M351.186 161.951C351.186 161.951 370.155 149.733 380.484 85.9146" stroke="#AD0B3D" stroke-width="2.2" stroke-linecap="round" stroke-linejoin="round"/>
<path d="M356.449 164.096C356.449 164.096 378.211 153.828 386.267 87.4097" stroke="#AD0B3D" stroke-width="2.2" stroke-linecap="round" stroke-linejoin="round"/>
<path d="M361.711 166.306C361.711 166.306 386.202 157.922 392.048 89.0342" stroke="#AD0B3D" stroke-width="2.2" stroke-linecap="round" stroke-linejoin="round"/>
<path d="M367.038 168.515C367.038 168.515 394.257 162.081 397.895 90.5938" stroke="#AD0B3D" stroke-width="2.2" stroke-linecap="round" stroke-linejoin="round"/>
<path d="M372.3 170.66C372.3 170.66 402.247 166.111 403.612 92.1538" stroke="#AD0B3D" stroke-width="2.2" stroke-linecap="round" stroke-linejoin="round"/>
<path d="M377.562 172.869C377.562 172.869 410.238 170.27 409.393 93.7134" stroke="#AD0B3D" stroke-width="2.2" stroke-linecap="round" stroke-linejoin="round"/>
<path d="M382.823 175.079C382.823 175.079 418.227 174.364 415.174 95.3379" stroke="#AD0B3D" stroke-width="2.2" stroke-linecap="round" stroke-linejoin="round"/>
</g>
<path d="M292.136 265.478C296.359 271.197 302.985 274.707 310.131 275.032C322.733 275.551 328.97 268.403 328.97 268.403L328.775 257.875C328.775 257.875 317.406 259.434 310.455 257.875C303.504 256.315 292.266 251.766 292.266 251.766L292.136 265.478Z" fill="black"/>
<path d="M306.818 213.618C308.247 215.957 310.391 217.777 312.925 218.752C318.446 220.766 322.409 219.337 322.409 219.337L306.818 213.618Z" fill="black"/>
<path d="M317.016 177.549C317.016 177.549 319.874 181.188 327.41 183.983C335.206 186.842 339.103 186.647 339.948 186.582C340.792 186.517 317.016 177.549 317.016 177.549Z" fill="black"/>
<path d="M360.541 161.042C363.399 158.182 367.232 156.623 371.26 156.687C378.211 156.687 382.044 158.637 383.992 159.807C385.941 160.977 389.319 165.071 389.319 165.071L390.164 168.645L394.971 166.891L390.749 170.855L398.284 169.945L390.164 178.654C390.164 178.654 386.136 170.205 381.069 165.981C376.002 161.757 364.764 160.717 364.764 160.717L360.541 161.042Z" fill="black"/>
<path d="M322.279 120.814L331.763 127.378L332.673 123.738L322.279 120.814Z" fill="black"/>
<path d="M371.78 140.44C371.78 140.765 369.051 146.874 369.051 146.874L385.812 151.618C385.812 151.618 377.626 144.6 375.288 143.105C373.988 142.39 372.819 141.48 371.78 140.44Z" fill="black"/>
<path d="M231.786 425.545L230.876 432.109L238.087 427.105L231.786 425.545Z" fill="black"/>
<path d="M295.319 418.981C302.27 421.646 309.871 422.426 317.277 421.126C323.448 419.956 325.787 418.721 327.346 417.942C328.125 417.552 328.19 417.487 328.19 417.162C328.19 416.902 328.06 416.577 327.801 416.447L325.137 415.147C325.137 415.147 320.135 418.526 314.743 419.436C309.351 420.346 301.621 418.786 301.621 418.786L297.073 417.877L295.319 418.981Z" fill="black"/>
<path d="M316.172 407.674C316.172 407.674 321.499 408.194 328.775 405.269C330.659 404.489 331.244 404.294 331.958 403.969C332.998 403.514 333.193 403.384 333.323 403.059C333.388 402.799 333.323 402.539 333.063 402.345L332.023 401.305C332.023 401.305 327.021 404.489 323.188 405.399C320.265 405.984 317.342 406.374 314.354 406.504L316.172 407.674Z" fill="black"/>
<path d="M285.51 119.644C285.51 119.644 276.415 122.374 277.974 127.833C279.533 133.292 281.547 131.732 281.547 131.732L284.47 125.428L286.679 119.449L285.51 119.644Z" fill="black"/>
<path d="M312.664 132.187C312.664 132.187 307.207 138.1 311.754 143.949C314.223 147.329 318.705 148.694 322.603 147.264L326.891 144.534C326.891 144.534 326.761 140.57 322.148 137.256C319.16 135.176 315.977 133.486 312.664 132.187Z" fill="black"/>
<path d="M376.782 163.901C376.782 163.901 372.365 167.086 374.054 173.195C375.743 179.304 379.965 180.084 381.849 180.343C383.733 180.603 389.45 178.654 389.45 178.654C389.45 178.654 386.462 170.01 382.824 167.086C379.186 164.161 376.782 163.901 376.782 163.901Z" fill="black"/>
<path d="M293.825 133.422C293.63 130.887 293.63 128.288 293.695 125.753C293.76 124.453 294.085 123.154 294.735 121.984L298.502 127.768L298.957 121.529L301.361 126.533C301.361 126.533 305.323 123.348 311.755 124.388C318.186 125.428 321.954 129.717 323.968 132.577C325.981 135.436 327.865 142.52 327.865 142.52C327.865 142.52 322.084 137.971 318.446 135.631C314.548 133.032 310.001 131.472 305.323 131.212C300.321 130.952 293.89 134.137 293.89 134.137L293.825 133.422Z" fill="black"/>
<path d="M201.708 432.694C201.708 432.694 184.038 477.147 205.801 493.004C227.563 508.861 241.66 475.067 241.66 475.067C241.66 475.067 233.02 481.176 222.171 480.266C211.322 479.356 206.125 474.287 201.773 463.499C195.796 449.006 201.708 432.694 201.708 432.694Z" fill="black"/>
<path d="M279.273 128.547L278.948 131.602L279.273 133.616C279.273 133.616 270.114 159.807 268.36 168.515C266.606 177.224 270.568 167.151 270.568 167.151C270.568 167.151 277.065 144.34 277.909 142.13C278.754 139.92 280.443 134.461 280.443 134.461L281.352 130.432L279.273 128.547Z" fill="black"/>
<path d="M317.602 386.162C317.602 386.162 319.356 391.101 322.279 391.101C325.202 391.101 325.072 388.047 324.812 386.747C324.553 385.447 324.163 389.282 322.669 389.347C321.175 389.412 317.602 386.162 317.602 386.162Z" fill="black"/>
<path d="M326.502 379.664C326.502 379.729 328.581 387.397 331.829 387.332C335.077 387.267 335.012 384.538 334.817 382.783C334.622 381.028 334.687 385.058 332.673 385.253C330.659 385.448 326.502 379.664 326.502 379.664Z" fill="black"/>
<path d="M335.595 374.919L336.765 377.389C337.414 378.299 338.519 378.689 339.558 378.494C341.247 378.039 341.702 376.934 341.897 374.594C341.377 375.179 340.792 375.634 340.078 375.894C338.649 376.544 335.595 374.919 335.595 374.919Z" fill="black"/>
<path d="M340.338 369.395C340.338 369.395 343.456 375.244 346.51 374.984C349.563 374.724 349.498 372.32 349.238 370.955C348.978 369.59 348.588 372.969 346.704 373.229C344.821 373.489 340.338 369.395 340.338 369.395Z" fill="black"/>
<path d="M347.42 364.001C347.42 364.001 348.394 364.131 348.979 364.261C349.824 364.391 352.812 364.521 354.501 365.561C356.19 366.601 360.607 367.9 360.737 363.351C360.153 364.066 359.373 364.586 358.528 364.911C356.969 365.561 351.383 363.741 351.253 363.676C351.123 363.611 348.07 363.351 348.07 363.351L347.42 364.001Z" fill="black"/>
<path d="M264.137 326.503C264.137 326.503 279.728 353.343 310.325 353.343V350.094C302.27 349.379 294.344 347.494 286.744 344.57C274.856 339.891 264.137 326.503 264.137 326.503Z" fill="black"/>
<path d="M356.514 326.958C356.514 326.958 341.702 353.343 310.001 353.343V350.093C318.056 349.379 325.981 347.494 333.582 344.634C345.47 339.89 356.514 326.958 356.514 326.958Z" fill="black"/>
<path d="M296.943 420.281L295.189 419.436C295.189 419.436 294.085 419.696 292.266 420.346C290.447 420.996 279.468 422.101 276.935 422.166C275.311 422.166 272.777 422.166 271.153 422.166C266.93 421.126 262.708 419.826 258.68 418.267C255.107 421.516 250.885 423.856 246.272 425.09C241.53 426.325 236.593 426.455 231.786 425.545L231.656 426.845L234.709 427.885C234.709 427.885 239.191 428.405 247.507 426.455C256.536 424.311 259.265 420.086 259.265 420.086C259.265 420.086 267.84 424.051 280.118 424.181C281.547 424.246 282.976 424.181 284.405 424.051C288.498 423.856 292.526 423.011 296.293 421.581C297.917 420.996 297.463 420.541 296.943 420.281Z" fill="black"/>
<path d="M386.591 151.813C378.926 149.344 368.077 147.329 368.077 147.329L371.715 140.7" stroke="black" stroke-width="2.2" stroke-linecap="round" stroke-linejoin="round"/>
<path d="M358.983 163.576C362.881 179.433 373.08 182.228 381.395 181.643C384.253 181.383 387.047 180.473 389.58 178.978" stroke="black" stroke-width="2.2" stroke-linecap="round" stroke-linejoin="round"/>
<path d="M390.945 171.375C393.153 169.295 396.986 165.656 395.037 166.371C393.348 167.021 391.724 167.801 390.165 168.646C389.71 165.006 387.372 159.157 377.432 157.013C363.855 154.088 358.723 162.992 358.723 162.992C358.723 162.992 366.778 156.688 380.356 165.851C388.801 171.57 389.58 178.979 389.58 178.979C389.58 178.979 393.868 176.704 398.22 169.75C399 168.581 393.153 170.66 390.945 171.375Z" stroke="black" stroke-width="2.2" stroke-linecap="round" stroke-linejoin="round"/>
<path d="M391.723 176.769C391.723 176.769 396.855 161.302 383.408 155.063C368.272 148.044 358.917 163.056 358.917 163.056" stroke="black" stroke-width="2.2" stroke-linecap="round" stroke-linejoin="round"/>
<path d="M322.148 121.074C327.605 124.323 331.893 127.248 331.893 127.248L332.932 123.673" stroke="black" stroke-width="2.2" stroke-linecap="round" stroke-linejoin="round"/>
<path d="M327.151 145.054C313.184 153.503 303.764 148.369 298.243 142.13C296.359 139.92 294.994 137.386 294.215 134.591" stroke="black" stroke-width="2.2" stroke-linecap="round" stroke-linejoin="round"/>
<path d="M298.633 128.158C298.503 125.103 298.373 119.839 299.282 121.724C299.997 123.348 300.646 125.038 301.166 126.793C304.024 124.518 309.871 121.854 318.381 127.573C330.334 135.566 327.476 145.055 327.476 145.055C327.476 145.055 326.177 134.916 310.131 131.797C300.127 129.912 293.825 134.526 293.825 134.526C293.695 130.302 293.955 126.143 294.735 121.984C294.865 120.489 297.593 126.078 298.633 128.158Z" stroke="black" stroke-width="2.2" stroke-linecap="round" stroke-linejoin="round"/>
<path d="M294.344 131.472C294.344 131.472 301.295 117.37 315.587 121.399C330.594 125.688 328.06 144.34 328.06 144.34" stroke="black" stroke-width="2.2" stroke-linecap="round" stroke-linejoin="round"/>
<path d="M312.534 132.252C310.91 134.007 310.001 136.281 310.001 138.621C310.066 143.82 314.483 147.979 319.875 147.914C322.214 147.914 324.487 147.069 326.306 145.575" stroke="black" stroke-width="2.2" stroke-linecap="round" stroke-linejoin="round"/>
<path d="M376.132 164.291C374.378 165.916 373.339 168.19 373.274 170.53C373.014 175.729 377.237 180.083 382.628 180.343C384.967 180.473 387.241 179.758 389.125 178.329" stroke="black" stroke-width="2.2" stroke-linecap="round" stroke-linejoin="round"/>
<path d="M351.252 177.874C348.653 184.437 341.247 187.622 334.686 185.022L321.759 179.888C315.197 177.289 312.014 169.88 314.613 163.316C317.211 156.752 324.617 153.568 331.178 156.167L344.106 161.301C350.667 163.966 353.85 171.375 351.252 177.874Z" stroke="black" stroke-width="2.2" stroke-linecap="round" stroke-linejoin="round"/>
<path d="M302.075 193.016C302.075 193.016 298.892 191.326 299.022 195.811C299.152 200.295 301.361 211.863 313.249 216.932" stroke="black" stroke-width="2.2" stroke-linecap="round" stroke-linejoin="round"/>
<path d="M325.137 188.662C328.515 190.092 331.049 187.622 333.972 190.742C336.895 193.861 341.962 209.004 341.962 209.004C341.962 209.004 335.206 209.588 324.357 199.645C324.033 199.32 322.604 199.905 320.59 199.06C318.446 198.15 317.991 196.916 317.277 196.851C303.634 195.941 299.217 190.807 299.217 190.807C299.217 190.807 313.639 183.918 317.861 183.853C322.084 183.788 322.084 187.297 325.462 188.792" stroke="black" stroke-width="2.2" stroke-linecap="round" stroke-linejoin="round"/>
<path d="M338.324 208.354C338.324 208.354 341.702 209.458 338.389 212.448C335.076 215.437 325.202 221.936 313.314 216.867" stroke="black" stroke-width="2.2" stroke-linecap="round" stroke-linejoin="round"/>
<path d="M332.478 205.819C332.478 205.819 324.098 203.934 319.485 201.984C314.223 199.775 307.857 195.355 307.857 195.355" stroke="black" stroke-width="2.2" stroke-linecap="round" stroke-linejoin="round"/>
<path d="M299.217 254.43C243.155 230.059 275.506 146.159 284.731 124.518C286.095 121.398 286.94 119.514 286.94 119.384" stroke="black" stroke-width="2.2" stroke-linecap="round" stroke-linejoin="round"/>
<path d="M298.503 254.105C354.565 278.476 393.738 197.5 403.287 175.989C404.651 172.87 405.236 171.635 405.301 171.505" stroke="black" stroke-width="2.2" stroke-linecap="round" stroke-linejoin="round"/>
<path d="M270.503 167.411C256.991 169.425 251.404 159.092 250.365 146.484C249.325 133.877 255.757 123.154 264.592 122.439C271.218 121.919 277.259 126.468 280.313 134.462" stroke="black" stroke-width="2.2" stroke-linecap="round" stroke-linejoin="round"/>
<path d="M273.557 155.713C273.817 149.409 271.738 143.235 267.775 138.296" stroke="black" stroke-width="2.2" stroke-linecap="round" stroke-linejoin="round"/>
<path d="M272.257 147.134C272.257 147.134 267.775 143.82 262.903 144.34" stroke="black" stroke-width="2.2" stroke-linecap="round" stroke-linejoin="round"/>
<path d="M280.897 119.839C280.897 119.839 357.488 106.256 408.678 176.054" stroke="black" stroke-width="2.2" stroke-linecap="round" stroke-linejoin="round"/>
<path d="M281.352 130.692C281.352 130.692 266.606 123.868 278.169 92.6085C285.899 71.7471 300.841 70.8373 300.841 70.8373C300.841 70.8373 390.099 69.4725 428.622 127.052C437.587 140.44 425.439 182.813 401.468 180.083" stroke="black" stroke-width="2.2" stroke-linecap="round" stroke-linejoin="round"/>
<path d="M308.572 70.8375C308.572 70.8375 335.662 38.3432 382.889 59.9844C430.442 81.7556 425.05 121.724 425.05 121.724" stroke="black" stroke-width="2.2" stroke-linecap="round" stroke-linejoin="round"/>
<path d="M292.006 250.596V285.95" stroke="black" stroke-width="2.2" stroke-linecap="round" stroke-linejoin="round"/>
<path d="M329.165 258.07V285.95" stroke="black" stroke-width="2.2" stroke-linecap="round" stroke-linejoin="round"/>
<path d="M279.923 291.734C283.301 288.679 287.653 286.99 292.201 286.99C302.27 286.99 310.65 294.333 310.65 304.472" stroke="black" stroke-width="2.2" stroke-linecap="round" stroke-linejoin="round"/>
<path d="M340.858 291.734C337.48 288.679 333.127 286.99 328.58 286.99C318.511 286.99 310.65 294.333 310.65 304.472" stroke="black" stroke-width="2.2" stroke-linecap="round" stroke-linejoin="round"/>
<path d="M282.327 276.787C285.835 276.137 289.408 277.436 291.746 280.166" stroke="black" stroke-width="2.2" stroke-linecap="round" stroke-linejoin="round"/>
<path d="M338.39 276.786C335.012 276.071 331.504 277.306 329.23 279.971" stroke="black" stroke-width="2.2" stroke-linecap="round" stroke-linejoin="round"/>
<path d="M312.859 307.981H307.662V322.083H312.859V307.981Z" stroke="black" stroke-width="2.2" stroke-linecap="round" stroke-linejoin="round"/>
<path d="M312.859 311.36C315.328 312.335 316.887 314.74 316.887 317.339V333.197C316.887 336.771 314.028 339.63 310.455 339.63C306.883 339.63 304.024 336.771 304.024 333.197V317.339C304.024 314.87 305.388 312.66 307.597 311.555" stroke="black" stroke-width="2.2" stroke-linecap="round" stroke-linejoin="round"/>
<path d="M313.379 316.884V325.138C313.379 326.958 312.275 328.387 310.456 328.387C308.637 328.387 307.208 326.958 307.208 325.138V316.884" stroke="black" stroke-width="2.2" stroke-linecap="round" stroke-linejoin="round"/>
<path d="M313.703 334.301C313.703 335.341 312.859 336.186 311.819 336.186H309.026C307.986 336.186 307.142 335.341 307.142 334.301C307.142 333.261 307.986 332.417 309.026 332.417H311.819C312.859 332.481 313.703 333.261 313.703 334.301Z" stroke="black" stroke-width="2.2" stroke-linecap="round" stroke-linejoin="round"/>
<path d="M306.948 311.23H305.194V304.861H315.588V311.23H313.964" stroke="black" stroke-width="2.2" stroke-linecap="round" stroke-linejoin="round"/>
<path d="M292.006 265.088C292.006 265.088 265.956 265.738 264.787 280.751C263.618 295.763 264.787 326.568 264.787 326.568C264.787 326.568 280.118 348.274 307.857 349.639" stroke="black" stroke-width="2.2" stroke-linecap="round" stroke-linejoin="round"/>
<path d="M328.97 265.088C328.97 265.088 355.02 265.738 356.189 280.751C357.359 295.763 356.189 326.568 356.189 326.568C356.189 326.568 340.858 348.339 313.054 349.639" stroke="black" stroke-width="2.2" stroke-linecap="round" stroke-linejoin="round"/>
<path d="M308.116 383.822V339.24" stroke="black" stroke-width="2.2" stroke-linecap="round" stroke-linejoin="round"/>
<path d="M312.664 339.24V386.097" stroke="black" stroke-width="2.2" stroke-linecap="round" stroke-linejoin="round"/>
<path d="M115.763 484.035C113.489 465.903 118.037 418.332 171.956 387.007C219.053 359.647 264.462 322.863 264.462 322.863" stroke="black" stroke-width="2.2" stroke-linecap="round" stroke-linejoin="round"/>
<path d="M262.643 168.125C262.643 168.125 228.993 209.913 145.646 270.743C100.562 303.627 34.1704 378.169 114.399 482.865" stroke="black" stroke-width="2.2" stroke-linecap="round" stroke-linejoin="round"/>
<path d="M418.228 368.29C385.033 346.194 356.384 323.318 356.384 323.318" stroke="black" stroke-width="2.2" stroke-linecap="round" stroke-linejoin="round"/>
<path d="M353.655 358.152C355.344 356.787 357.163 355.618 359.047 354.643C364.049 352.303 367.557 353.603 371.65 357.502C377.107 362.636 394.776 378.949 410.367 373.489C425.958 368.03 428.037 352.433 433.104 346.259C438.171 340.085 442.459 346.584 443.823 351.003" stroke="black" stroke-width="2.2" stroke-linecap="round" stroke-linejoin="round"/>
<path d="M345.341 364.651C346.315 363.871 346.965 363.416 347.874 362.701" stroke="black" stroke-width="2.2" stroke-linecap="round" stroke-linejoin="round"/>
<path d="M338.779 369.72L340.144 368.68" stroke="black" stroke-width="2.2" stroke-linecap="round" stroke-linejoin="round"/>
<path d="M331.698 375.114C332.997 374.139 333.452 373.749 334.751 372.709" stroke="black" stroke-width="2.2" stroke-linecap="round" stroke-linejoin="round"/>
<path d="M322.798 381.678C323.967 380.833 325.267 379.859 326.566 378.884" stroke="black" stroke-width="2.2" stroke-linecap="round" stroke-linejoin="round"/>
<path d="M314.873 387.007C315.067 387.072 316.042 386.422 317.666 385.382" stroke="black" stroke-width="2.2" stroke-linecap="round" stroke-linejoin="round"/>
<path d="M232.24 425.935C241.53 427.495 251.079 424.7 258.03 418.267" stroke="black" stroke-width="2.2" stroke-linecap="round" stroke-linejoin="round"/>
<path d="M255.302 415.797C255.952 415.797 275.441 430.095 297.008 417.617L259.2 395.391C259.2 395.391 249.326 398.12 243.219 404.359" stroke="black" stroke-width="2.2" stroke-linecap="round" stroke-linejoin="round"/>
<path d="M295.904 416.967C295.904 416.967 314.223 425.35 326.501 413.782C326.501 413.782 284.536 388.307 279.858 386.357C272.128 383.173 240.686 394.286 231.851 425.805" stroke="black" stroke-width="2.2" stroke-linecap="round" stroke-linejoin="round"/>
<path d="M279.793 386.357C279.793 386.357 288.628 380.703 295.449 379.078C302.27 377.454 332.802 400.135 332.802 400.135C327.345 405.009 319.81 406.959 312.664 405.334" stroke="black" stroke-width="2.2" stroke-linecap="round" stroke-linejoin="round"/>
<path d="M232.695 422.816C232.695 422.816 230.227 429.185 230.227 433.734" stroke="black" stroke-width="2.2" stroke-linecap="round" stroke-linejoin="round"/>
<path d="M225.224 447.187C225.224 447.187 278.948 451.931 314.937 444.132C350.927 436.333 360.151 429.835 380.874 426.78C401.597 423.726 424.529 416.252 434.403 410.793" stroke="black" stroke-width="2.2" stroke-linecap="round" stroke-linejoin="round"/>
<path d="M225.224 451.931C225.224 451.931 278.948 456.675 314.937 448.876C350.927 441.078 360.151 434.579 380.874 431.524C401.597 428.47 425.698 420.476 435.573 415.017" stroke="black" stroke-width="2.2" stroke-linecap="round" stroke-linejoin="round"/>
<path d="M231.721 431.719C231.721 431.719 257.057 428.99 277.195 427.105C298.958 425.091 303.375 420.671 303.375 420.671" stroke="black" stroke-width="2.2" stroke-linecap="round" stroke-linejoin="round"/>
<path d="M324.422 393.571C327.02 391.946 329.879 390.712 332.802 389.932C337.349 388.762 342.546 386.097 345.47 382.003C348.393 377.909 351.836 376.089 357.228 373.62C362.62 371.15 371.715 361.597 371.715 361.597" stroke="black" stroke-width="2.2" stroke-linecap="round" stroke-linejoin="round"/>
<path d="M367.103 354.188C367.103 354.188 372.235 362.051 379.706 367.77C387.176 373.489 400.689 383.433 419.788 374.139C437.912 365.301 433.43 347.169 440.446 345.609" stroke="black" stroke-width="2.2" stroke-linecap="round" stroke-linejoin="round"/>
<path d="M351.251 357.957L360.866 339.176C360.866 339.176 381.004 343.92 376.262 361.597" stroke="black" stroke-width="2.2" stroke-linecap="round" stroke-linejoin="round"/>
<path d="M320.33 406.309C320.33 406.309 328.06 412.418 334.816 417.877C341.573 423.336 347.289 430.354 349.563 434.904" stroke="black" stroke-width="2.2" stroke-linecap="round" stroke-linejoin="round"/>
<path d="M357.293 373.685C357.293 373.685 362.166 383.563 380.68 399.03L388.54 405.399C394.062 410.078 398.545 415.862 401.663 422.426" stroke="black" stroke-width="2.2" stroke-linecap="round" stroke-linejoin="round"/>
<path d="M331.698 385.318C330.983 385.318 330.334 384.993 329.879 384.473C329.489 384.018 326.111 379.859 327.021 376.024C327.346 374.79 328.645 374.01 329.879 374.335C331.113 374.595 331.893 375.829 331.633 377.064C331.633 377.064 331.633 377.064 331.633 377.129C331.308 378.299 332.737 380.639 333.517 381.548C334.297 382.523 334.232 383.953 333.257 384.733L333.192 384.798C332.802 385.123 332.283 385.318 331.698 385.318Z" stroke="black" stroke-width="2.2" stroke-linecap="round" stroke-linejoin="round"/>
<path d="M338.844 376.479C337.999 376.479 337.155 376.089 336.7 375.374C336.115 374.334 335.401 373.424 334.621 372.58C333.842 371.995 333.712 370.825 334.296 370.045C334.361 369.915 334.491 369.785 334.621 369.72C335.596 368.94 337.025 368.94 337.999 369.72C339.169 370.825 340.208 372.125 340.988 373.554C341.507 374.464 341.182 375.569 340.273 376.089C340.143 376.154 340.078 376.219 339.948 376.219C339.623 376.414 339.234 376.479 338.844 376.479Z" stroke="black" stroke-width="2.2" stroke-linecap="round" stroke-linejoin="round"/>
<path d="M346.185 373.229C345.795 373.229 345.405 373.164 345.081 372.97C343.197 371.995 340.078 369.46 340.273 365.821C340.403 364.586 341.508 363.611 342.742 363.741C343.976 363.741 345.016 364.781 345.016 366.016C344.951 367.835 347.289 369.135 347.354 369.135C348.394 369.59 348.848 370.825 348.394 371.93C348.394 371.995 348.329 372.06 348.264 372.125C347.809 372.84 347.029 373.294 346.185 373.229Z" stroke="black" stroke-width="2.2" stroke-linecap="round" stroke-linejoin="round"/>
<path d="M357.749 365.106C357.359 365.106 356.969 365.041 356.644 364.846C356.579 364.846 352.876 362.896 349.368 363.091C348.069 363.156 346.965 362.117 346.9 360.817C346.835 359.517 347.874 358.412 349.174 358.347C353.981 358.152 358.658 360.557 358.853 360.622C360.022 361.207 360.477 362.636 359.892 363.806C359.438 364.586 358.593 365.106 357.749 365.106Z" stroke="black" stroke-width="2.2" stroke-linecap="round" stroke-linejoin="round"/>
<path d="M215.545 414.172C215.545 414.172 210.023 411.963 193.978 417.877" stroke="black" stroke-width="2.2" stroke-linecap="round" stroke-linejoin="round"/>
<path d="M321.694 389.152C320.979 389.152 320.265 388.892 319.81 388.307C319.355 387.787 317.147 385.058 317.796 382.458C318.186 381.288 319.42 380.573 320.654 380.898C321.824 381.028 322.603 382.068 322.473 383.238C322.473 383.303 322.473 383.303 322.473 383.368C322.343 383.823 322.993 385.123 323.643 385.837C324.357 386.617 324.292 387.787 323.448 388.502C323.383 388.567 323.253 388.632 323.123 388.697C322.733 389.022 322.214 389.152 321.694 389.152Z" stroke="black" stroke-width="2.2" stroke-linecap="round" stroke-linejoin="round"/>
<path d="M312.404 343.4L308.247 347.234" stroke="black" stroke-width="2.2" stroke-linecap="round" stroke-linejoin="round"/>
<path d="M312.404 322.539L308.247 326.373" stroke="black" stroke-width="2.2" stroke-linecap="round" stroke-linejoin="round"/>
<path d="M311.949 348.924L308.247 351.783" stroke="black" stroke-width="2.2" stroke-linecap="round" stroke-linejoin="round"/>
<path d="M312.08 353.278L308.312 356.072" stroke="black" stroke-width="2.2" stroke-linecap="round" stroke-linejoin="round"/>
<path d="M312.21 358.347L308.442 361.207" stroke="black" stroke-width="2.2" stroke-linecap="round" stroke-linejoin="round"/>
<path d="M312.21 362.896L308.442 365.691" stroke="black" stroke-width="2.2" stroke-linecap="round" stroke-linejoin="round"/>
<path d="M312.08 367.641L308.312 370.5" stroke="black" stroke-width="2.2" stroke-linecap="round" stroke-linejoin="round"/>
<path d="M312.21 372.645L308.442 375.439" stroke="black" stroke-width="2.2" stroke-linecap="round" stroke-linejoin="round"/>
<path d="M312.21 377.194L308.442 379.988" stroke="black" stroke-width="2.2" stroke-linecap="round" stroke-linejoin="round"/>
<path d="M312.274 381.613L308.766 384.213" stroke="black" stroke-width="2.2" stroke-linecap="round" stroke-linejoin="round"/>
<path d="M308.766 340.93L312.209 343.205" stroke="black" stroke-width="2.2" stroke-linecap="round" stroke-linejoin="round"/>
<path d="M310.13 346.454L312.534 348.404" stroke="black" stroke-width="2.2" stroke-linecap="round" stroke-linejoin="round"/>
<path d="M309.806 325.398L312.21 327.283" stroke="black" stroke-width="2.2" stroke-linecap="round" stroke-linejoin="round"/>
<path d="M310.001 351.198L312.404 353.148" stroke="black" stroke-width="2.2" stroke-linecap="round" stroke-linejoin="round"/>
<path d="M309.936 360.492L312.274 362.441" stroke="black" stroke-width="2.2" stroke-linecap="round" stroke-linejoin="round"/>
<path d="M309.936 365.366L312.274 367.315" stroke="black" stroke-width="2.2" stroke-linecap="round" stroke-linejoin="round"/>
<path d="M309.936 370.11L312.274 372.06" stroke="black" stroke-width="2.2" stroke-linecap="round" stroke-linejoin="round"/>
<path d="M309.936 374.919L312.274 376.804" stroke="black" stroke-width="2.2" stroke-linecap="round" stroke-linejoin="round"/>
<path d="M310.001 379.664L312.404 381.613" stroke="black" stroke-width="2.2" stroke-linecap="round" stroke-linejoin="round"/>
<path d="M310.001 355.877L312.404 357.762" stroke="black" stroke-width="2.2" stroke-linecap="round" stroke-linejoin="round"/>
<path d="M245.104 402.214C245.104 402.214 222.432 400.265 205.477 426.455C189.626 450.956 204.112 496.968 240.816 474.937" stroke="black" stroke-width="2.2" stroke-linecap="round" stroke-linejoin="round"/>
<path d="M238.803 426.78C238.803 426.78 225.615 432.564 225.16 447.187C223.017 454.725 223.471 462.784 226.525 469.998C231.657 482.216 337.286 471.362 378.407 459.08C378.407 459.08 381.265 458.17 389.126 456.675" stroke="black" stroke-width="2.2" stroke-linecap="round" stroke-linejoin="round"/>
<path d="M358.333 345.089L362.62 347.104L359.242 354.383" stroke="black" stroke-width="2.2" stroke-linecap="round" stroke-linejoin="round"/>
<path d="M362.88 96.2481C366.064 91.8288 376.133 92.4137 377.107 101.317C378.082 110.221 368.402 113.73 368.402 113.73L355.345 118.799L347.679 106.386C347.679 106.386 342.287 97.4828 348.654 91.1789C355.02 84.875 363.205 90.789 362.88 96.2481Z" fill="white" stroke="black" stroke-width="1.65" stroke-linecap="round" stroke-linejoin="round"/>
<path d="M264.852 204.974C258.94 204.974 256.082 197.37 256.082 181.708C256.082 174.039 259.33 165.656 262.058 160.782C262.513 159.937 263.617 159.677 264.397 160.132C265.241 160.587 265.501 161.691 265.047 162.471C262.513 166.955 259.525 174.689 259.525 181.643C259.525 198.02 262.448 201.464 264.852 201.464C265.826 201.529 266.541 202.374 266.476 203.284C266.411 204.194 265.761 204.909 264.852 204.974Z" fill="#F4F40B"/>
<path d="M263.618 160.587C263.813 160.587 263.943 160.652 264.138 160.717C264.657 160.977 264.787 161.627 264.527 162.082C261.929 166.631 258.876 174.495 258.876 181.643C258.876 194.056 260.5 202.18 264.917 202.18C265.502 202.18 265.957 202.635 265.957 203.22C265.957 203.804 265.502 204.259 264.917 204.259C259.136 204.259 256.862 195.746 256.862 181.708C256.862 174.17 260.045 165.916 262.773 161.172C262.903 160.782 263.228 160.587 263.618 160.587ZM263.618 159.157C262.708 159.157 261.929 159.612 261.474 160.392C258.681 165.331 255.368 173.845 255.368 181.643C255.368 197.76 258.486 205.624 264.852 205.624C266.216 205.559 267.256 204.389 267.191 203.025C267.126 201.79 266.151 200.75 264.852 200.685C263.488 200.685 260.24 198.8 260.24 181.578C260.24 174.69 263.163 167.151 265.697 162.732C266.346 161.562 265.957 160.067 264.787 159.417C264.462 159.287 264.008 159.157 263.618 159.157Z" fill="black"/>
<path d="M385.942 255.145C379.511 255.145 374.703 244.487 374.703 230.32C374.638 228.76 374.833 227.135 375.158 225.64C375.223 225.185 375.353 224.601 375.483 223.886C375.613 223.041 376.327 222.456 377.172 222.456C377.302 222.456 377.367 222.456 377.497 222.456C377.951 222.521 378.341 222.781 378.601 223.171C378.861 223.561 378.991 224.016 378.861 224.471C378.731 225.185 378.601 225.77 378.536 226.225C378.211 227.59 378.081 228.955 378.146 230.32C378.146 244.097 382.759 251.701 385.942 251.701C389.125 251.701 393.737 244.097 393.737 230.32C393.737 223.171 392.373 216.477 390.034 212.383C389.84 211.993 389.775 211.538 389.84 211.083C390.099 210.173 391.074 209.588 391.983 209.848C392.438 209.978 392.828 210.238 393.023 210.628C395.686 215.307 397.245 222.456 397.245 230.255C397.18 244.487 392.373 255.145 385.942 255.145Z" fill="#F4F40B"/>
<path d="M391.463 210.498C391.853 210.498 392.178 210.693 392.373 211.018C394.971 215.567 396.465 222.586 396.465 230.255C396.465 243.772 391.853 254.365 385.941 254.365C380.03 254.365 375.417 243.772 375.417 230.255C375.417 227.07 375.677 226.81 376.197 223.951C376.262 223.431 376.717 223.106 377.171 223.106C377.236 223.106 377.301 223.106 377.366 223.106C377.951 223.236 378.276 223.756 378.146 224.276C377.626 227.07 377.431 227.2 377.431 230.255C377.431 243.447 381.849 252.351 385.941 252.351C390.034 252.351 394.451 243.447 394.451 230.255C394.451 223.041 393.022 216.217 390.619 211.993C390.359 211.473 390.489 210.888 391.008 210.628C391.138 210.563 391.268 210.498 391.463 210.498ZM391.463 209.068C391.008 209.068 390.619 209.198 390.229 209.393C389.06 210.043 388.67 211.538 389.319 212.708C391.593 216.672 392.957 223.236 392.957 230.255C392.957 236.169 392.048 241.693 390.359 245.722C388.735 249.556 386.981 250.921 385.876 250.921C383.018 250.921 378.796 242.862 378.796 230.255C378.731 228.955 378.86 227.59 379.185 226.29C379.25 225.835 379.38 225.251 379.51 224.471C379.77 223.171 378.86 221.871 377.496 221.676C377.366 221.676 377.236 221.611 377.106 221.611C375.937 221.611 374.898 222.456 374.703 223.626C374.573 224.341 374.443 224.861 374.378 225.381C374.053 226.94 373.858 228.565 373.923 230.19C373.923 244.747 379.055 255.73 385.876 255.73C392.697 255.73 397.829 244.747 397.829 230.19C397.829 222.261 396.27 214.982 393.542 210.238C393.152 209.523 392.373 209.068 391.463 209.068Z" fill="black"/>
</g>
</svg>
