<svg width="44" height="35" viewBox="0 0 44 35" fill="none" xmlns="http://www.w3.org/2000/svg">
<path d="M43.9327 22.0137C43.9193 21.5456 43.9215 21.0729 43.8609 20.607C43.7173 19.507 43.5715 18.4093 43.3449 17.3231C43.024 15.7942 42.6381 14.2906 42.1534 12.8078C41.6127 11.1566 40.9553 9.55617 40.2126 7.99033C39.425 6.32993 38.5275 4.73641 37.5425 3.19363C37.4056 2.97916 37.2441 2.82696 37.0242 2.71396C36.3197 2.3496 35.5815 2.06595 34.85 1.77076C33.939 1.40409 33.0146 1.07893 32.07 0.811425C30.8718 0.472427 29.6871 0.0826957 28.4306 0.0158187C28.0918 -0.00263017 28.0357 0.00659428 27.8809 0.304082C27.6004 0.84371 27.3469 1.39718 27.0889 1.94833C26.934 2.27811 26.869 2.32423 26.5167 2.28041C25.2355 2.1236 23.9543 1.9714 22.6619 1.98293C21.8833 1.98984 21.107 1.96448 20.3284 2.03135C19.4623 2.10515 18.594 2.12821 17.7324 2.25274C17.0323 2.35421 17.0144 2.33576 16.7317 1.66699C16.5253 1.17579 16.2919 0.693813 16.0271 0.230286C15.9509 0.0965323 15.8589 -0.0164668 15.6816 0.00198204C15.3271 0.0411858 14.9636 0.0273492 14.6181 0.103451C13.402 0.366347 12.2015 0.698426 11.0124 1.07663C9.76034 1.47558 8.55544 1.99907 7.34606 2.51564C6.90628 2.70243 6.53157 2.93073 6.26905 3.37351C5.29078 5.02007 4.33942 6.68046 3.53616 8.42618C2.88098 9.84674 2.27966 11.2904 1.79276 12.7824C1.33503 14.1822 0.951352 15.6028 0.652933 17.0487C0.323101 18.6491 0.0785315 20.2542 0.0471189 21.8938C0.0381438 22.3412 0.0695564 22.7932 0 23.2383V26.739C0.0493626 26.8058 0.0269251 26.8842 0.0269251 26.9557C0.0269251 27.613 0.0628252 28.2679 0.0762877 28.9251C0.0807752 29.1788 0.181744 29.3149 0.354513 29.4463C3.17043 31.5864 6.22193 33.2791 9.5023 34.5336C10.0071 34.7273 10.5075 34.9279 11.055 34.9925C11.331 35.0248 11.5105 34.9556 11.663 34.7296C12.3945 33.6365 13.1013 32.525 13.6622 31.3258C13.8328 30.9591 13.7991 30.8669 13.4266 30.7055C12.6054 30.3549 11.7999 29.9744 11.0101 29.5547C10.8306 29.4602 10.6556 29.3564 10.4873 29.2434C10.3774 29.1696 10.3123 29.0773 10.3998 28.9367C10.5793 28.6484 10.9136 28.5354 11.2098 28.6715C13.4491 29.7138 15.7803 30.4495 18.2126 30.8185C19.8258 31.0629 21.4458 31.1621 23.0815 31.0652C24.1608 31.0029 25.231 30.9015 26.2968 30.717C27.4277 30.521 28.5383 30.2488 29.6288 29.896C30.6587 29.5639 31.6684 29.1673 32.6466 28.6922C32.9697 28.5354 33.221 28.5931 33.4679 28.8329C33.6631 29.0197 33.6653 29.1281 33.4387 29.2688C32.9855 29.5524 32.5143 29.8038 32.0341 30.0367C31.5203 30.2857 30.9975 30.514 30.4724 30.7331C30.1808 30.853 30.1404 30.9776 30.2683 31.2543C30.8337 32.4835 31.5517 33.6204 32.2921 34.7411C32.4335 34.9556 32.6175 35.0363 32.8822 34.9833C33.4791 34.8657 34.0423 34.6558 34.6099 34.4413C35.7026 34.0286 36.7707 33.5558 37.8185 33.0392C39.0974 32.4074 40.336 31.6948 41.5297 30.9015C42.2746 30.4057 43.0061 29.8868 43.7218 29.3449C43.8273 29.2641 43.9081 29.1857 43.9148 29.0289C43.9507 28.3163 43.9709 27.6037 43.9866 26.8912C44.0225 25.2654 43.9799 23.6372 43.935 22.0114L43.9327 22.0137ZM16.7272 23.1899C15.2912 24.2161 13.5298 24.0731 12.2285 22.8739C10.2697 21.0659 10.2181 17.5768 12.123 15.7112C13.7138 14.1545 16.1079 14.2952 17.5282 16.0271C18.3001 16.9703 18.6164 18.0749 18.6366 19.4655C18.5738 20.8838 18.0398 22.2513 16.7272 23.1899ZM31.9847 22.6249C30.3244 24.4674 27.6027 24.2299 26.2071 22.1498C25.6125 21.262 25.3342 20.2796 25.3298 18.8567C25.3926 17.556 25.958 16.1701 27.3379 15.2246C28.6887 14.2998 30.5308 14.4705 31.7289 15.6051C32.6646 16.4929 33.1291 17.5976 33.2143 18.8913C33.3063 20.3118 32.9271 21.5756 31.9825 22.6226L31.9847 22.6249Z" fill="black"/>
</svg>
