<svg width="42" height="35" viewBox="0 0 42 35" fill="none" xmlns="http://www.w3.org/2000/svg">
<path d="M15.7179 35H10.8568C10.5606 34.9617 10.2638 34.9256 9.96798 34.8852C6.42368 34.4008 3.13639 33.1862 0.104358 31.2468C0.0645188 31.2212 0.0345511 31.1797 0 31.1454C0.0458331 31.1443 0.0916661 31.1418 0.137147 31.1421C1.19765 31.1555 2.2631 31.2432 3.31796 31.1692C6.71207 30.9306 9.76103 29.7128 12.4793 27.6229C12.5368 27.5785 12.5847 27.5207 12.6369 27.4695C12.5635 27.4583 12.4906 27.4406 12.4169 27.437C8.95049 27.2688 5.86945 24.9172 4.70917 21.5646C4.62244 21.3138 4.67321 21.3051 4.89744 21.343C6.04044 21.5372 7.1771 21.4867 8.30354 21.2091C8.34408 21.199 8.37969 21.1676 8.41777 21.1463C8.37758 21.1282 8.3388 21.1062 8.29719 21.0922C7.80784 20.9286 7.30579 20.798 6.83089 20.5987C3.72658 19.2961 1.54669 15.9215 1.59993 12.5181C1.60028 12.4892 1.70781 12.425 1.73355 12.4387C2.84059 13.0317 4.01533 13.3721 5.26234 13.4508C5.31663 13.454 5.37199 13.441 5.42663 13.4353C5.38644 13.3967 5.34978 13.3526 5.305 13.3201C1.74448 10.7476 0.620156 5.77118 2.71261 1.86206C2.80357 1.69242 2.83918 1.64008 2.98832 1.8238C5.18196 4.52517 7.80889 6.67356 10.8758 8.252C13.9019 9.80915 17.1081 10.683 20.4898 10.8747C20.5307 10.8768 20.6228 10.7675 20.6146 10.7256C20.3996 9.61748 20.3446 8.50106 20.5604 7.39402C21.2443 3.88953 23.2278 1.47657 26.567 0.431609C29.8698 -0.602158 32.8055 0.246802 35.2943 2.70236C35.3521 2.75939 35.4709 2.79693 35.5485 2.78105C37.3723 2.40133 39.0892 1.72995 40.7029 0.780289C40.7495 0.752857 40.8041 0.740223 40.8549 0.720732C40.8425 0.771626 40.8348 0.824325 40.8179 0.873415C40.1533 2.79079 38.981 4.29921 37.3233 5.41708C37.2732 5.45065 37.232 5.49793 37.1868 5.53872C37.245 5.53728 37.3039 5.54197 37.361 5.53367C38.913 5.3106 40.4135 4.89731 41.854 4.26095C41.8995 4.2411 41.951 4.23605 42 4.22413C41.9753 4.27034 41.9542 4.31906 41.9253 4.36238C40.9092 5.87296 39.7112 7.2139 38.2808 8.31805C37.8757 8.63064 37.7333 8.92987 37.7425 9.45938C37.82 14.0081 36.7525 18.285 34.5863 22.2432C30.7885 29.1818 25.0806 33.4183 17.3792 34.7564C16.8278 34.852 16.2721 34.9195 15.7179 35Z" fill="black"/>
</svg>
