<svg width="36" height="48" viewBox="0 0 36 48" fill="none" xmlns="http://www.w3.org/2000/svg">
<path d="M18 36C20.475 36 22.5 33.975 22.5 31.5C22.5 29.025 20.475 27 18 27C15.525 27 13.5 29.025 13.5 31.5C13.5 33.975 15.525 36 18 36ZM31.5 15.75H29.25V11.25C29.25 5.04 24.21 0 18 0C11.79 0 6.75 5.04 6.75 11.25V15.75H4.5C2.025 15.75 0 17.775 0 20.25V42.75C0 45.225 2.025 47.25 4.5 47.25H31.5C33.975 47.25 36 45.225 36 42.75V20.25C36 17.775 33.975 15.75 31.5 15.75ZM11.025 11.25C11.025 7.4025 14.1525 4.275 18 4.275C21.8475 4.275 24.975 7.4025 24.975 11.25V15.75H11.025V11.25ZM31.5 42.75H4.5V20.25H31.5V42.75Z" fill="white"/>
</svg>
