<svg width="48" height="46" viewBox="0 0 48 46" fill="none" xmlns="http://www.w3.org/2000/svg">
<path d="M17.5 35.0476C19.9062 35.0476 21.875 33.0762 21.875 30.6667C21.875 28.2571 19.9062 26.2857 17.5 26.2857C15.0938 26.2857 13.125 28.2571 13.125 30.6667C13.125 33.0762 15.0938 35.0476 17.5 35.0476ZM30.625 15.3333H26.3438V10.9524C26.3438 4.90667 31.2437 0 37.2812 0C43.3187 0 47.4375 3.95429 47.4375 10H43.2812C43.2812 6.25429 41.0219 4.1619 37.2812 4.1619C33.5406 4.1619 30.5 7.20667 30.5 10.9524V15.3333H4.375C1.96875 15.3333 0 17.3048 0 19.7143V41.619C0 44.0286 1.96875 46 4.375 46H30.625C33.0312 46 35 44.0286 35 41.619V19.7143C35 17.3048 33.0312 15.3333 30.625 15.3333ZM30.625 41.619H4.375V19.7143H30.625V41.619Z" fill="white"/>
</svg>
