<svg width="87" height="16" viewBox="0 0 87 16" fill="none"
    xmlns="http://www.w3.org/2000/svg">
    <path d="M86.9969 11.5489C86.9876 11.6236 86.9721 11.6983 86.969 11.773C86.9472 12.2833 86.8386 12.7719 86.6338 13.2356C86.2522 14.1008 85.5819 14.6423 84.6913 14.9193C84.1266 15.0967 83.5463 15.1527 82.9598 15.1527C82.2151 15.1527 81.4704 15.1527 80.7256 15.1527C79.4472 15.1527 78.1718 15.1589 76.8933 15.1589C76.7537 15.1589 76.611 15.162 76.4744 15.1496C76.1269 15.1122 75.9159 14.8975 75.8755 14.5458C75.8662 14.468 75.8631 14.3902 75.8631 14.3124C75.8631 13.6153 75.8631 12.9182 75.8631 12.218C75.8631 12.1122 75.8755 12.0033 75.8973 11.9006C75.9531 11.6516 76.1176 11.5053 76.3596 11.4555C76.4682 11.4337 76.5799 11.4244 76.6916 11.4244C78.3797 11.4244 80.0678 11.4244 81.7558 11.4244C81.8458 11.4244 81.9389 11.412 82.0289 11.3933C82.2492 11.3435 82.3795 11.2003 82.4292 10.9825C82.4354 10.9545 82.4385 10.9265 82.4416 10.8954C82.4788 10.4379 82.3113 10.2107 81.8582 10.136C81.4734 10.0738 81.0825 10.0271 80.6946 9.97418C80.1205 9.89327 79.5465 9.80302 78.9724 9.72522C78.5876 9.67231 78.209 9.60385 77.8398 9.47936C77.3464 9.31131 76.9058 9.05923 76.5675 8.65155C76.2665 8.29055 76.0959 7.86731 75.9935 7.41295C75.8911 6.96792 75.86 6.51045 75.8569 6.05609C75.8507 5.43679 75.86 4.81437 75.8818 4.19507C75.8942 3.79361 75.9717 3.39838 76.099 3.01248C76.4186 2.02907 77.0795 1.40043 78.0663 1.1079C78.4821 0.983414 78.9072 0.933621 79.3385 0.905612C80.3812 0.840259 81.4269 0.82781 82.4726 0.834035C83.5029 0.840259 84.5331 0.849595 85.5633 0.855819C85.5819 0.855819 85.6005 0.855819 85.6222 0.855819C86.0411 0.874492 86.2646 1.09234 86.2708 1.51558C86.277 1.89836 86.2677 2.28115 86.2708 2.66393C86.2708 2.99692 86.2863 3.33303 86.2894 3.66602C86.2894 3.78739 86.2894 3.90876 86.2677 4.02702C86.2087 4.36312 85.9853 4.57474 85.6254 4.62142C85.4299 4.64632 85.2313 4.64943 85.0327 4.64943C83.7945 4.65254 82.5564 4.65566 81.3183 4.65877C81.0918 4.65877 80.8777 4.69611 80.6698 4.79259C80.4495 4.89529 80.3843 5.08201 80.375 5.29985C80.3657 5.51459 80.4619 5.68264 80.6511 5.77289C80.7784 5.83513 80.9242 5.87248 81.0639 5.89426C81.7869 6.00007 82.5099 6.09654 83.2329 6.19924C83.7356 6.27082 84.2445 6.31128 84.7317 6.45754C84.952 6.5229 85.1754 6.59759 85.3833 6.69406C86.1653 7.05195 86.6431 7.66503 86.8542 8.49595C86.9255 8.78226 86.9752 9.0748 86.9752 9.37044C86.9752 9.42646 86.9907 9.48248 87 9.53849V11.5458L86.9969 11.5489Z" fill="black"/>
    <path d="M37.6552 8.17852C37.6149 8.15362 37.5839 8.13495 37.5497 8.11628C36.7119 7.69304 36.1782 7.02394 35.9113 6.12767C35.7562 5.60795 35.6848 5.0789 35.6227 4.54362C35.6041 4.38491 35.5855 4.22619 35.5731 4.06747C35.5296 3.50108 35.7034 3.00626 36.0665 2.57679C36.3737 2.21268 36.7522 1.93882 37.1618 1.7023C38.2634 1.06433 39.4364 0.603742 40.6714 0.314319C41.4844 0.121371 42.3129 0 43.1538 0C43.3648 0 43.579 0.0186724 43.79 0.0497931C44.6495 0.168052 45.2763 0.625526 45.6673 1.39421C45.7914 1.64006 45.8938 1.89836 45.9869 2.15666C46.1142 2.52078 46.2228 2.89422 46.3376 3.26456C46.4648 3.66913 46.4927 4.08304 46.4058 4.50005C46.3407 4.82371 46.26 5.14114 46.1855 5.46168C46.1638 5.54882 46.1452 5.63907 46.1266 5.73554C46.1669 5.74177 46.1917 5.74799 46.2197 5.7511C47.1847 5.83202 47.8798 6.32373 48.3577 7.15465C48.5563 7.50009 48.7052 7.87042 48.82 8.2501C49.0062 8.86317 49.1831 9.47625 49.3599 10.0924C49.4748 10.4908 49.5461 10.8954 49.5306 11.3093C49.4965 12.1402 49.1427 12.8093 48.488 13.3134C47.855 13.802 47.1692 14.2128 46.4462 14.552C45.6456 14.9255 44.8202 15.2274 43.973 15.4732C42.8001 15.8155 41.6085 16.0147 40.3828 15.9991C40.0477 15.996 39.7188 15.9649 39.3898 15.8965C38.4993 15.7097 37.86 15.2025 37.4659 14.3871C37.3325 14.1132 37.2208 13.8269 37.1277 13.5375C36.9322 12.912 36.7522 12.2833 36.5754 11.6547C36.473 11.2906 36.4202 10.9171 36.4171 10.5344C36.4109 9.68787 36.7305 8.99077 37.3573 8.42748C37.4039 8.38703 37.4504 8.34346 37.5001 8.303C37.5466 8.26255 37.5963 8.2252 37.6552 8.17852ZM43.3493 11.9006C43.579 11.8134 43.8148 11.7325 44.0413 11.636C44.2182 11.5613 44.3826 11.4555 44.5223 11.3186C44.6805 11.1599 44.7767 10.9732 44.7643 10.7491C44.7488 10.4534 44.7054 10.1609 44.6061 9.88082C44.4354 9.40779 44.1406 9.20239 43.6379 9.21173C43.4952 9.21173 43.3462 9.22417 43.2066 9.25841C42.8466 9.34555 42.4836 9.44202 42.1298 9.55094C41.8847 9.62563 41.6489 9.72522 41.4316 9.86837C41.1244 10.0707 40.9972 10.3539 41.0469 10.7149C41.0965 11.0696 41.2175 11.3995 41.3727 11.7201C41.4844 11.9503 41.6768 12.0811 41.9312 12.106C42.0398 12.1184 42.1546 12.1184 42.2633 12.106C42.6325 12.0779 42.9894 11.9877 43.3462 11.9006H43.3493ZM40.9631 3.98345C40.9631 3.98345 40.9662 3.99901 40.9693 4.00523C40.8296 4.04569 40.69 4.08615 40.5535 4.12972C40.4945 4.14839 40.4387 4.17951 40.3828 4.20752C40.0322 4.37557 39.8987 4.61209 39.9515 4.98865C40.0011 5.34031 40.1004 5.67953 40.2494 6.00318C40.4076 6.33929 40.6186 6.46066 40.991 6.43576C41.0251 6.43576 41.0593 6.43576 41.0903 6.42331C41.3944 6.3424 41.6985 6.2646 41.9995 6.17746C42.0926 6.14945 42.1764 6.09966 42.2633 6.05609C42.5549 5.90671 42.6667 5.66397 42.6263 5.34965C42.5767 4.97309 42.4712 4.60897 42.3129 4.26665C42.1547 3.93054 41.9343 3.80917 41.5651 3.86208C41.3665 3.89009 41.1679 3.94299 40.9693 3.98345H40.9631Z" fill="black"/>
    <path d="M60.9809 7.93578C60.9809 9.00633 60.9809 10.0769 60.9809 11.1474C60.9809 11.6485 60.9281 12.1433 60.8164 12.6319C60.5744 13.6651 59.9662 14.384 58.9949 14.801C58.4984 15.0126 57.9802 15.1464 57.4496 15.2398C56.6087 15.3923 55.7647 15.4763 54.9113 15.4825C53.6515 15.4919 52.4103 15.3581 51.197 15.0064C50.9239 14.9286 50.6601 14.8166 50.4026 14.6921C49.5492 14.2782 49.0186 13.5935 48.789 12.6755C48.6804 12.2398 48.6369 11.7979 48.6338 11.3497C48.6338 10.5593 48.6307 9.76879 48.6276 8.98143C48.6276 7.81441 48.6214 6.64427 48.6214 5.47724C48.6214 5.09446 48.6276 4.71167 48.6431 4.32889C48.6587 3.96166 48.7145 3.59755 48.8107 3.23966C49.0558 2.33094 49.6082 1.68674 50.4522 1.27906C50.9611 1.03321 51.5042 0.893164 52.0565 0.787354C52.9378 0.61619 53.8252 0.522828 54.722 0.519716C55.9601 0.516604 57.1827 0.650423 58.3774 0.995862C58.6536 1.07678 58.9267 1.1857 59.1873 1.31018C60.0748 1.73342 60.6147 2.43986 60.835 3.39838C60.9374 3.83407 60.9747 4.2791 60.9778 4.72412C60.9778 5.79467 60.9778 6.86523 60.9778 7.93578H60.9809ZM53.1426 7.93578C53.1426 8.28433 53.1426 8.63288 53.1426 8.98143C53.1426 9.44202 53.1426 9.90261 53.1457 10.3632C53.1457 10.5779 53.1736 10.7895 53.2388 10.9949C53.3163 11.2408 53.4777 11.412 53.729 11.4898C53.7942 11.5115 53.8594 11.5302 53.9245 11.5427C54.5483 11.6454 55.1689 11.6205 55.7864 11.5022C56.2301 11.4151 56.4659 11.1163 56.4846 10.662C56.4846 10.6028 56.4846 10.5468 56.4846 10.4877C56.4846 10.2605 56.4815 10.0333 56.4815 9.80302C56.4815 8.54263 56.4846 7.28224 56.4815 6.02185C56.4815 5.76666 56.4597 5.50836 56.4225 5.25629C56.3511 4.78325 56.1277 4.56229 55.6591 4.46893C55.6064 4.4596 55.5536 4.44715 55.5009 4.44404C55.144 4.4347 54.7872 4.41914 54.4272 4.42536C54.1759 4.43159 53.9276 4.48138 53.6887 4.56229C53.3939 4.66188 53.2264 4.86728 53.1767 5.17226C53.1581 5.28741 53.1457 5.40255 53.1457 5.5177C53.1457 6.32061 53.1457 7.12664 53.1457 7.92955L53.1426 7.93578Z" fill="black"/>
    <path d="M22.0282 7.3476C22.1586 7.38805 22.2703 7.42229 22.3789 7.45963C23.3532 7.79573 23.9304 8.47417 24.1321 9.48248C24.2128 9.87771 24.2283 10.2792 24.2252 10.6837C24.2221 11.8477 24.2252 13.0085 24.219 14.1724C24.219 14.3124 24.2159 14.4556 24.188 14.5925C24.1259 14.9255 23.9118 15.1153 23.5736 15.1527C23.4929 15.162 23.4091 15.1651 23.3284 15.1651C22.4037 15.1651 21.4821 15.1651 20.5574 15.1651C20.4705 15.1651 20.3836 15.1651 20.2967 15.1496C19.974 15.0967 19.7816 14.9006 19.7258 14.5769C19.7103 14.4805 19.7009 14.384 19.7009 14.2875C19.7009 13.3414 19.7009 12.3985 19.7009 11.4524C19.7009 11.331 19.6885 11.2097 19.6637 11.0914C19.5954 10.7771 19.3906 10.5997 19.071 10.5624C18.9935 10.553 18.9159 10.5499 18.8383 10.5499C17.9974 10.5499 17.1533 10.5561 16.3124 10.5561C16.2659 10.5561 16.2162 10.5561 16.1511 10.5561C16.1511 10.6215 16.148 10.6775 16.148 10.7335C16.148 11.7792 16.148 12.828 16.148 13.8736C16.148 14.0977 16.1324 14.3186 16.1231 14.5427C16.1231 14.5863 16.1138 14.6298 16.1045 14.6703C16.0424 14.9597 15.9121 15.0873 15.6173 15.1247C15.4342 15.1464 15.2512 15.1558 15.0681 15.1589C14.2054 15.162 13.3459 15.1651 12.4832 15.1589C12.3715 15.1589 12.2598 15.1464 12.1543 15.1247C11.8968 15.0686 11.7385 14.9006 11.6858 14.6454C11.6609 14.524 11.6516 14.3964 11.6516 14.2688C11.6516 12.6786 11.6516 11.0883 11.6547 9.50115C11.6547 7.22 11.6547 4.93574 11.6547 2.6546C11.6547 2.34028 11.6547 2.02596 11.6547 1.70853C11.6547 1.62139 11.6578 1.53425 11.6733 1.44711C11.7354 1.07055 11.9464 0.877604 12.3281 0.849595C12.4677 0.840259 12.6074 0.846483 12.7501 0.846483C14.0317 0.846483 15.3132 0.837147 16.5979 0.843371C17.5785 0.846483 18.5621 0.862043 19.5427 0.874492C19.974 0.880716 20.3991 0.936733 20.818 1.04877C21.8545 1.32885 22.503 1.99172 22.773 3.03116C22.8692 3.39838 22.9157 3.77183 22.9312 4.1515C22.9529 4.65877 22.9561 5.16915 22.894 5.67641C22.8505 6.04364 22.7326 6.38285 22.5247 6.69095C22.3975 6.88079 22.2579 7.05817 22.1213 7.24179C22.0965 7.27602 22.0686 7.31025 22.0344 7.35693L22.0282 7.3476ZM16.1666 4.5903C16.1666 4.92952 16.1666 5.26873 16.1666 5.60795C16.1666 5.9036 16.1666 6.19924 16.1759 6.49489C16.1821 6.68784 16.2628 6.84655 16.4489 6.92124C16.7282 7.03639 17.023 7.09241 17.3271 7.07373C17.8422 7.0395 18.1929 6.77809 18.3853 6.29883C18.4814 6.05609 18.5125 5.8009 18.5094 5.5426C18.5094 5.33409 18.497 5.12558 18.4349 4.92329C18.3635 4.68989 18.2115 4.54362 17.9788 4.47827C17.9291 4.46271 17.8764 4.45026 17.8236 4.44404C17.6064 4.42848 17.3892 4.41291 17.172 4.40669C16.843 4.40047 16.5141 4.40669 16.1666 4.40669V4.5903Z" fill="black"/>
    <path d="M66.6191 10.5624C66.6191 10.6277 66.6191 10.6837 66.6191 10.7429C66.6191 11.857 66.6191 12.9711 66.616 14.0852C66.616 14.2533 66.6067 14.4244 66.5881 14.5925C66.5509 14.9348 66.405 15.0935 66.0637 15.1215C65.6975 15.1496 65.3283 15.1496 64.9621 15.1527C64.3322 15.1589 63.7054 15.1558 63.0754 15.1558C62.973 15.1558 62.8706 15.1558 62.7714 15.1496C62.4083 15.1153 62.188 14.8975 62.1507 14.5365C62.1414 14.4369 62.1414 14.3342 62.1414 14.2315C62.1414 10.7802 62.1414 7.33204 62.1445 3.88075C62.1445 3.16497 62.1445 2.44609 62.1414 1.73031C62.1414 1.65251 62.1414 1.57471 62.1507 1.49691C62.1849 1.10478 62.4114 0.880716 62.8024 0.846483C62.8706 0.840259 62.9389 0.840259 63.0041 0.840259C64.3353 0.840259 65.6634 0.834035 66.9946 0.840259C68 0.843371 69.0054 0.858931 70.0139 0.871379C70.4514 0.877604 70.8827 0.930509 71.3047 1.04566C72.3443 1.32885 72.9835 1.99795 73.2411 3.03738C73.3279 3.38282 73.3807 3.73137 73.3838 4.08615C73.3838 4.60275 73.3776 5.12247 73.359 5.63907C73.3435 6.15256 73.1573 6.6007 72.7973 6.97415C72.6887 7.08929 72.5801 7.20444 72.4591 7.33204C72.5243 7.35382 72.5739 7.36627 72.6204 7.38494C72.8283 7.46586 73.0425 7.53121 73.2411 7.62768C73.9889 7.99802 74.4264 8.61421 74.6064 9.42335C74.6933 9.8248 74.715 10.2294 74.7026 10.6371C74.6654 11.8134 74.6809 12.9898 74.6964 14.1693C74.6964 14.3124 74.6964 14.4618 74.6685 14.6018C74.6064 14.9286 74.4078 15.106 74.0758 15.1464C73.9951 15.1558 73.9113 15.1589 73.8306 15.1589C72.9307 15.1589 72.0309 15.1589 71.131 15.1527C70.9976 15.1527 70.8579 15.1496 70.7276 15.1247C70.4421 15.0718 70.2838 14.885 70.228 14.6081C70.2125 14.524 70.2001 14.4338 70.2001 14.3498C70.2001 13.3819 70.2063 12.4109 70.2094 11.4431C70.2094 11.3559 70.2063 11.2688 70.1939 11.1817C70.1442 10.8176 69.9208 10.5997 69.5546 10.5561C69.4833 10.5468 69.4088 10.5437 69.3374 10.5437C68.481 10.5437 67.6245 10.5468 66.7681 10.5499C66.7246 10.5499 66.6843 10.5561 66.6284 10.5593L66.6191 10.5624ZM66.7122 6.92436C66.9325 6.93369 67.1342 6.93992 67.3359 6.94925C67.5532 6.9617 67.7704 6.99282 67.9845 6.99282C68.4872 6.99282 68.8006 6.75319 68.9371 6.26771C68.9775 6.11833 69.0023 5.96584 69.0116 5.81023C69.0333 5.5177 68.9992 5.23139 68.8875 4.95753C68.754 4.63387 68.5213 4.42536 68.1645 4.38491C68.0062 4.36623 67.8479 4.36935 67.6897 4.37246C67.3825 4.38179 67.0722 4.40047 66.765 4.41914C66.7464 4.41914 66.7308 4.42847 66.7122 4.43159V6.92436Z" fill="black"/>
    <path d="M29.8821 4.57163V6.14634C29.9379 6.14634 29.9938 6.15256 30.0496 6.15256C31.1574 6.15256 32.2652 6.15256 33.373 6.15256C33.5809 6.15256 33.7888 6.1619 33.9936 6.19302C34.2326 6.22725 34.3412 6.34551 34.3753 6.58203C34.397 6.73141 34.4063 6.88079 34.4063 7.03017C34.4125 7.65569 34.4125 8.28122 34.4125 8.90674C34.4125 8.95031 34.4125 8.99388 34.4063 9.03745C34.3815 9.41401 34.1612 9.6443 33.7826 9.67854C33.6678 9.69099 33.5499 9.68787 33.4351 9.68787C32.4824 9.68787 31.5298 9.68787 30.5772 9.6941C30.4034 9.6941 30.2296 9.70654 30.0558 9.71899C29.9348 9.72522 29.879 9.76879 29.8635 9.89327C29.8262 10.1951 29.7797 10.5001 29.7704 10.802C29.7548 11.1941 29.9131 11.3684 30.3041 11.3933C30.7137 11.4182 31.1264 11.4244 31.536 11.4244C32.7276 11.4244 33.916 11.4182 35.1076 11.4182C35.2473 11.4182 35.39 11.4275 35.5234 11.4586C35.7965 11.5147 35.9672 11.6889 36.0199 11.9628C36.0385 12.0624 36.0478 12.1651 36.0478 12.2647C36.0478 12.9369 36.0385 13.6122 36.0354 14.2844C36.0354 14.3653 36.0354 14.4493 36.0292 14.5303C35.9951 14.8944 35.7748 15.1122 35.4117 15.1433C35.3497 15.1496 35.2845 15.1464 35.2224 15.1464C33.9564 15.1464 32.6872 15.1464 31.4212 15.1464C29.8697 15.1464 28.315 15.1464 26.7635 15.1464C26.5897 15.1464 26.416 15.1464 26.2422 15.1464C26.1801 15.1464 26.115 15.1464 26.0529 15.1402C25.6557 15.1153 25.4199 14.8881 25.3857 14.4929C25.3795 14.4244 25.3795 14.356 25.3795 14.2906C25.3795 10.0831 25.3795 5.8787 25.3795 1.67118C25.3795 1.62139 25.3795 1.57471 25.3795 1.52491C25.4013 1.10478 25.634 0.865155 26.0529 0.834035C26.115 0.830923 26.1801 0.830923 26.2422 0.830923C27.9116 0.830923 29.5811 0.830923 31.2505 0.830923C32.529 0.830923 33.8043 0.827811 35.0828 0.827811C35.2162 0.827811 35.3559 0.827811 35.4862 0.852707C35.8337 0.914948 36.0168 1.12657 36.0354 1.48135C36.0447 1.68985 36.0354 1.89836 36.0354 2.10687C36.0354 2.62036 36.0354 3.13385 36.0385 3.64735C36.0385 3.72515 36.0385 3.80295 36.0385 3.88075C36.0199 4.29154 35.7965 4.53117 35.3869 4.55296C35.1262 4.56852 34.8656 4.55918 34.6049 4.55918C33.5592 4.55918 32.5135 4.55918 31.4708 4.55918C31.0023 4.55918 30.5337 4.55918 30.062 4.55918C30.0093 4.55918 29.9565 4.55918 29.8852 4.55918L29.8821 4.57163Z" fill="black"/>
    <path d="M0.00586133 8.01047C0.00586133 7.03328 -0.000344784 6.05298 0.00586133 5.07579C0.00896438 4.51872 0.0555102 3.96166 0.204457 3.42016C0.375125 2.80397 0.660606 2.25936 1.14779 1.83301C1.58532 1.45022 2.10042 1.23238 2.66208 1.10478C3.04686 1.01765 3.43784 0.989638 3.82572 0.958517C5.23141 0.852707 6.63709 0.855819 8.04588 0.858931C8.61684 0.858931 9.1878 0.868267 9.75876 0.868267C9.85496 0.868267 9.93874 0.893164 10.0194 0.942957C10.156 1.02698 10.2708 1.13902 10.3608 1.27284C10.4197 1.35997 10.4445 1.45334 10.4538 1.55915C10.5159 2.29048 10.488 3.02182 10.4787 3.75316C10.4787 3.88386 10.4725 4.01457 10.457 4.14528C10.4228 4.39735 10.2677 4.55918 10.0256 4.61831C9.89219 4.65254 9.74945 4.66499 9.60982 4.66499C8.72545 4.66499 7.83797 4.66188 6.9536 4.66499C6.48814 4.66499 6.02579 4.67433 5.56033 4.68989C5.42069 4.693 5.28105 4.72101 5.14452 4.75213C4.85904 4.8206 4.67596 5.00421 4.617 5.29052C4.57666 5.48969 4.55184 5.69198 4.55184 5.89426C4.54563 7.31959 4.54563 8.7418 4.55184 10.1671C4.55184 10.3632 4.57666 10.5624 4.6139 10.7584C4.66975 11.0354 4.84352 11.219 5.1197 11.2813C5.3245 11.3279 5.53861 11.3591 5.74962 11.3653C6.41677 11.3777 7.08393 11.3777 7.75109 11.3808C8.3717 11.3808 8.98921 11.3808 9.60982 11.384C9.75876 11.384 9.90771 11.4057 10.0567 11.4337C10.2553 11.4711 10.3856 11.5925 10.4259 11.7947C10.4507 11.913 10.4725 12.0344 10.4725 12.1526C10.4787 12.9182 10.4756 13.6838 10.4756 14.4493C10.4756 14.5022 10.4694 14.5552 10.4601 14.6081C10.3949 14.9691 10.1994 15.1433 9.83324 15.1402C8.44617 15.134 7.056 15.1309 5.66894 15.1091C4.96454 15.0967 4.25705 15.0469 3.55265 15.0033C3.10892 14.9753 2.66828 14.9068 2.24316 14.7668C1.16951 14.412 0.50235 13.6713 0.201354 12.5883C0.0586132 12.0811 0.00586133 11.5613 0.00275827 11.0354C-0.00344784 10.0271 0.00275827 9.01878 0.00275827 8.01358L0.00586133 8.01047Z" fill="black"/>
</svg>
