<?xml version="1.0" encoding="UTF-8"?><svg id="Layer_1" xmlns="http://www.w3.org/2000/svg" viewBox="0 0 743.02 512.15"><defs><style>.cls-1{fill:#fff;}.cls-2{fill:#f5bc03;stroke:#000;stroke-miterlimit:10;stroke-width:4px;}.cls-3{font-family:Eigerdals-Hea, Eigerdals;font-size:80.9px;}</style></defs><g><g><path d="m63.57,17.07h632.95c24.56,0,44.51,19.94,44.51,44.51v404.07c0,24.56-19.94,44.51-44.51,44.51H63.57c-24.56,0-44.5-19.94-44.5-44.5V61.58c0-24.56,19.94-44.51,44.51-44.51Z"/><path d="m696.51,19.07c23.44,0,42.51,19.07,42.51,42.51v404.07c0,23.44-19.07,42.51-42.51,42.51H63.57c-23.44,0-42.51-19.07-42.51-42.51V61.58c0-23.44,19.07-42.51,42.51-42.51h632.95m0-4H63.57c-25.68,0-46.51,20.82-46.51,46.51v404.07c0,25.68,20.82,46.51,46.51,46.51h632.95c25.68,0,46.51-20.82,46.51-46.51V61.58c0-25.68-20.82-46.51-46.51-46.51h0Z"/></g><rect class="cls-2" x="2" y="2" width="725.96" height="497.08" rx="30.78" ry="30.78"/></g><g id="lwoR45.tif"><path class="cls-1" d="m521.05,146.68c6.51,0,13.02,0,19.52,0,.68.17,1.35.43,2.04.49,23.6,1.77,45.7,8.49,65.92,20.75,40.18,24.36,64.87,59.66,73.63,105.92,1.05,5.56,1.61,11.22,2.4,16.83v19.52c-.17.78-.41,1.56-.52,2.35-.83,5.93-1.36,11.92-2.48,17.79-17.36,90.82-113.19,145.9-200.77,115.46-71.65-24.9-114.09-96.9-101.37-171.97,10.64-62.79,61.41-113.79,124.19-124.69,5.78-1,11.63-1.64,17.44-2.45Zm12.33,218.01c17.59-4.8,33.83-11.31,49.05-21.02-7.69-12.73-15.17-25.11-22.25-36.84-13.32,6.08-26,11.88-39.2,17.91,3.96,12.76,8.15,26.26,12.4,39.95Zm60.96-97.79c-5.97,11.91-14.06,22.09-23.86,30.78,7.73,12.7,15.32,25.16,22.9,37.61.24-.07.47-.08.62-.2,13-10.57,23.67-23.08,31.4-38,.36-.69.08-2.19-.46-2.8-9.14-10.15-19.29-19.18-30.59-27.4Zm-56.19,110.78c4.15,10.33,8.1,20.17,12.07,30.06,19.2-5.72,37-13.34,53.63-24.21-4.99-9.36-9.84-18.46-14.81-27.78-16.09,9.32-32.55,17.11-50.89,21.93Zm-1.24,33.77c-4.38-10.9-8.4-20.94-12.46-31.03-16.92,1.74-33.68,2.28-50.69-.15,1.74,11.43,4.72,22.03,9.1,32.21.32.75,1.64,1.48,2.52,1.5,8.72.25,17.46.78,26.15.35,8.35-.41,16.65-1.85,25.38-2.89Zm-64.94-84.24c.04-.11-.17.16-.17.44-.04,12.18-.11,24.35,0,36.53,0,.73,1.31,1.93,2.17,2.11,10.71,2.12,21.53,2.84,32.43,2.19,4.41-.27,8.8-.78,13.3-1.19-4.24-13.86-8.35-27.28-12.27-40.08h-35.47Zm143.22,48.46c14.33-10.91,26.7-23.13,36.54-37.77.56-.83.58-2.55.1-3.47-3.35-6.36-6.83-12.67-10.43-18.9-1.61-2.77-3.61-5.31-5.31-7.76-5.52,7.3-10.5,14.73-16.35,21.39-5.87,6.68-12.61,12.61-19.2,19.1,4.68,8.76,9.59,17.95,14.65,27.41Zm-148.5,35.59c-2.44-10.86-4.86-21.12-6.96-31.45-.44-2.17-1.28-3.06-3.25-3.63-11.9-3.41-22.96-8.63-33.31-15.4-.62-.41-1.3-.73-2.97-1.65.37,9.23.72,17.63,1.02,26.02.09,2.43,1.28,4.07,3.15,5.54,8.22,6.45,17.33,11.33,26.99,15.17,5.05,2.01,10.25,3.63,15.32,5.4Zm-33.76-97.99c-3.97,9.13-7.09,19.16-9.3,29.47-.16.74.71,2.01,1.45,2.58,7.52,5.8,15.75,10.36,24.56,13.88,2.57,1.03,5.19,1.93,7.6,2.82.33-12.53.66-24.69.9-36.86.01-.68-.61-1.76-1.21-2.01-7.9-3.33-15.84-6.55-24.01-9.89Zm84.4-2.84c12.39-3.98,23.98-8.53,34.75-15.77-7.05-9.58-13.84-18.79-20.33-27.61-7.54,3.3-14.56,6.37-21.98,9.61,2.47,11.03,4.99,22.27,7.56,33.77Zm133.92-54.88l-.85.71c-.39,10.63-1.92,21.12-5.84,30.98-1.9,4.78-1.18,7.85,1.88,11.84,5.42,7.05,9.94,14.79,14.86,22.28,6.54-13.45,9.41-27.76,7.67-42.88-.33-2.89-.24-6.56-1.94-8.41-4.82-5.25-10.46-9.74-15.78-14.52Zm-87.36,180.89c19.88-4.89,37.64-13.5,53.61-26.06-2.52-4.92-4.91-9.58-7.38-14.39-17.03,10.63-34.91,18.58-54,24.51,2.69,5.52,5.21,10.68,7.77,15.94Zm67.95-154.29c2.91-8.67,4.35-16.69,4.69-24.95.41-10.03.56-10.25-8.61-13.94-8.12-3.27-16.47-5.99-24.81-8.98-1.06,6.25-1.85,11.74-3.01,17.16-.39,1.83.04,2.66,1.4,3.76,7.34,5.92,14.67,11.86,21.81,18.02,2.96,2.55,5.44,5.67,8.53,8.94Zm-48.79-23.43c-9.7-5.3-19.14-10.47-28.27-15.47-4.37,5.48-8.26,10.36-12.22,15.32,6.66,9.03,13.43,18.23,20.32,27.57,8.37-7.73,15.11-16.49,20.17-27.42Zm5.06-69.56c6.28,9.69,10.84,19.14,13.03,29.62.15.71,1.28,1.47,2.1,1.72,2.71.85,5.52,1.35,8.22,2.21,7.2,2.28,14.36,4.68,21.53,7.04.02-.12.11-.33.05-.5-4.89-15.81-13.82-29.04-25.84-40.27-.54-.51-1.42-.99-2.11-.95-5.45.29-10.9.71-16.99,1.13Zm-108.7,89.74c-2.17,11.39-4.29,22.48-6.57,34.41h31.07c-2.62-11.76-5.15-23.1-7.68-34.41h-16.82Zm-68.08,53.48c3.42-9.27,6.8-18.26,10-27.32.25-.7-.48-2.06-1.14-2.7-5.65-5.49-10.44-11.61-14.19-18.54-.65-1.2-1.28-2.42-2.42-4.57-3.7,5.93-6.98,11.12-10.18,16.37-.32.52-.36,1.39-.18,1.99,3.84,12.74,9.59,24.48,18.11,34.77Zm138.4,106.71c-2.01-4.32-4.01-8.19-5.6-12.22-.99-2.52-2.35-2.93-4.83-2.4-14.58,3.08-29.33,4.33-44.22,3.94-.94-.02-1.88,0-3.63,0,2.36,2.69,4.08,4.8,5.97,6.74.8.82,1.91,1.63,2.99,1.86,13.6,2.84,27.35,3.86,41.22,2.96,2.6-.17,5.19-.55,8.1-.87Zm-94.23-166.8c-5.56,9.08-11.09,18.12-16.74,27.35,6.94,4.43,13.61,7.78,20.77,9.82,2.12-11.3,4.18-22.24,6.25-33.26-3.16-1.2-6.37-2.42-10.28-3.91Zm-20.65-17.56c-6.28,4.46-12.59,8.89-18.8,13.44-.62.45-1.18,1.82-.94,2.45,2.86,7.58,7.12,14.28,12.87,20.04,5.45-8.73,10.8-17.3,16.04-25.7-2.92-3.26-5.76-6.43-9.17-10.23Zm151.71-37.87c-2.61-9.17-7.17-16.84-13.19-23.69-.38-.43-1.3-.76-1.83-.62-6.12,1.67-12.21,3.44-17.84,5.05,2.02,5.49,3.84,10.51,5.76,15.49.23.6.97,1.38,1.53,1.43,8.35.83,16.71,1.55,25.58,2.34Zm41.49,184.32c13.43-13.03,23.77-27.71,31.06-44.49.51-1.17.07-2.75.07-4.14-.31-.07-.61-.13-.92-.2-10.44,13.76-22.84,25.5-36.79,35.84,2.22,4.37,4.32,8.51,6.59,12.98Zm-217.33-147.8c.35.08.69.15,1.04.23,5.65-3.54,11.32-7.05,16.94-10.64.47-.3.92-1.12.89-1.66-.27-4.53-.66-9.05-1.05-14.14-4.69,1.93-9.37,3.81-13.99,5.82-.62.27-1.28,1.14-1.37,1.81-.89,6.19-1.66,12.39-2.46,18.6Zm96.81,11.14c5.66-2.59,10.67-4.88,16.21-7.42-7.04-7.85-13.56-15.1-20.07-22.36-.25.15-.5.31-.74.46,1.49,9.48,2.98,18.96,4.61,29.31Zm52.3-36.57c-.18.28-.37.57-.55.85.38.74.56,1.83,1.17,2.15,8.92,4.75,17.88,9.4,27.27,14.3.44-4.54.89-9.06,1.36-13.95-10.19-1.17-19.71-2.26-29.24-3.36Zm-62.52-53.84c6.41.58,12.43,1.15,18.46,1.64.52.04,1.22-.22,1.6-.59,2.76-2.64,5.45-5.33,8.6-8.45-10.03-2.2-19.41-2.41-29.06-1.52.14,3.19.27,6.1.4,8.91Zm34.16,6.19c3.64,2.22,6.97,4.3,10.36,6.28.53.31,1.4.39,1.98.19,5.34-1.81,10.65-3.7,17-5.93-6.38-3.27-12.08-6.23-17.84-9.08-.54-.27-1.66-.06-2.15.36-3.17,2.66-6.23,5.43-9.35,8.18Zm-84.38,7.7c-9.36,8.33-19.45,15.74-26.24,27.14,7.24-2.12,14.74-2.52,17.89-10.62.7-1.8,2.43-3.22,3.75-4.76,2.7-3.14,5.45-6.25,8.21-9.4-.65-.43-2.06-1.35-3.6-2.36Zm30.49,35c-10.47-1.06-20.86-.52-31.23.69-.58.07-1.46.89-1.52,1.44-.37,3.15-.53,6.33-.77,9.64,11.56-4.06,22.5-7.9,33.53-11.77Zm64.03,14.65c-8.03-2.69-15.37-5.14-22.71-7.59l-.29.57c5.05,5.75,10.1,11.5,15.52,17.67,2.48-3.53,4.78-6.79,7.49-10.65Zm-23.62-23.04c.11.33.22.66.34.98,8.36-.43,16.72-.85,25.66-1.31-1.82-3.76-3.45-7.13-5.23-10.82-7.29,3.92-14.03,7.53-20.77,11.15Zm-34.81-46.34c-8.14,3.85-15.78,7.47-23.42,11.08.04.43.08.85.13,1.28,1.84.73,3.99,2.46,5.48,2.01,6.14-1.86,12.09-4.38,18.37-6.76-.15-2.02-.31-4.32-.55-7.61Zm-77.77,195.85l1.12-.28c.53-4.59,1.08-9.17,1.55-13.76.05-.53-.15-1.24-.5-1.63-4.16-4.65-8.37-9.25-12.56-13.86-.22.07-.44.13-.66.2,3.68,9.78,7.36,19.56,11.04,29.34Zm153.37-200.91c5.86,4.37,11.85,8.85,17.86,13.31.38.28.93.61,1.34.55,3.53-.52,7.06-1.12,11.29-1.81-9.67-6.92-20.02-9.87-30.49-12.04Zm-67.93,83.37l-.83-.22c-2.32,6.65-4.64,13.3-7.05,20.23h11.16c-1.13-6.87-2.2-13.44-3.28-20.01Zm-16.71-37.99c.09-.22.18-.44.26-.66-3.59-2.79-7.15-5.61-10.79-8.33-.43-.32-1.5-.41-1.84-.11-3.21,2.83-6.32,5.76-9.94,9.1h22.3Zm184.35,35.6c.3-.19.6-.39.9-.58-4.89-8.54-9.78-17.09-14.67-25.63,1.06,6.61,2.59,12.87,4.21,19.12.18.7.77,1.44,1.38,1.85,2.69,1.81,5.45,3.51,8.18,5.25Zm-159.41-45.55c2.95-4.19,5.4-7.68,8.17-11.61h-9.03c.27,3.7.53,7.21.86,11.61Zm-50.19,49.33c1.62,2.08,2.89,3.71,4.33,5.56,3.03-3.6,5.77-6.85,8.51-10.11-.13-.17-.25-.34-.38-.51-4,1.62-7.99,3.24-12.46,5.05Zm26.68-56.53c3.33,2.64,6.2,4.93,9.72,7.73-.33-4.02-.6-7.17-.89-10.64-3.01.99-5.59,1.85-8.83,2.92Zm39.5,8.46c.16.13.32.27.48.4,3.87-2.09,7.75-4.19,12.09-6.53-2.11-1.1-3.77-1.97-5.62-2.94-2.43,3.16-4.69,6.11-6.96,9.07Zm-50.68,61.53c1.81.8,3.3,1.45,5.07,2.23,1.26-3.93,2.41-7.52,3.56-11.12-.2-.11-.39-.22-.58-.33-2.57,2.95-5.14,5.89-8.04,9.22Zm-70.41,8.41c5.44-4.25,6.1-6.71,3.38-12.48-1.15,4.25-2.21,8.18-3.38,12.48Z"/></g><text class="cls-3" transform="translate(67.23 137.65)"><tspan x="0" y="0">The Cre8ors </tspan><tspan x="0" y="85.07">World Comes </tspan><tspan x="0" y="170.14">to Life.</tspan></text></svg>