<?xml version="1.0" encoding="UTF-8"?><svg id="Layer_1" xmlns="http://www.w3.org/2000/svg" viewBox="0 0 565.22 722.92"><path d="m100.25,254.47c27.22-57.23,54.43-114.46,82.14-172.72-9.34,1.71-17.5,3.19-25.65,4.71-4.19.78-8.35,1.71-12.55,2.44-11,1.92-20.15-6.46-18.52-17.47,1.87-12.68,5.06-25.1,10.82-36.62,4.96-9.92,13.09-16.94,22.68-22.27,11.18-6.22,23.41-9.31,35.95-11,28.83-3.87,56.93-.29,84.47,8.72,32.34,10.59,61.62,26.5,86.27,50.14,6.78,6.5,12.84,13.89,18.47,21.44,12.08,16.2,16.95,34.7,16.38,54.83-.66,23.07-6.38,45.03-14.23,66.52-9.13,24.99-21.46,48.44-35.86,70.75-10.24,15.87-21.32,31.21-32.04,46.78-1.04,1.51-2.12,2.98-3.69,5.2,7.18,1.28,13.8,2.43,20.41,3.63,34.28,6.23,68.66,12.11,102.02,22.39,12.18,3.76,24.19,8.36,35.77,13.69,35.27,16.22,60.68,42.57,77.47,77.37,5.15,10.68,10.01,21.48,12.4,33.22,4.02,19.68,2.35,39.08-2.75,58.3-5.17,19.48-13.26,37.79-24.17,54.68-13.98,21.64-29.16,42.39-45.91,62.08-28.3,33.26-64.29,52.94-106.19,63-31.81,7.64-64.05,10.34-96.65,7.59-36.05-3.04-70.46-12.01-102.26-29.72-19.96-11.12-37.15-25.72-52.56-42.47-17.27-18.77-24.27-41.12-23.27-66.32,1.1-27.83,6.35-54.76,17.3-80.47,4.37-10.27,9.91-19.85,16.64-28.8,20.29-26.96,40.43-54.02,60.62-81.05.99-1.32,1.89-2.71,3.12-4.49-1.47-.49-2.58-.99-3.74-1.23-36.32-7.52-72.41-15.84-107.25-28.83-16.18-6.04-32.06-12.68-46.6-22.14-10.79-7.02-20.66-15.11-28.52-25.41-18.64-24.45-25.32-51.48-17.66-81.63,9.69-38.17,27.58-71.68,55.75-99.6,8.15-8.08,16.99-12.89,28.67-11.61,7.72.85,15.48,1.45,23.18,2.42,4.62.58,7.47,3.37,9.14,7.85,3.49,9.36,2.7,17.77-2.97,26.33-7.14,10.79-13.81,21.97-19.73,33.47-3.43,6.65-5.55,14.13-7.26,21.47-2.83,12.14-.64,23.92,4.52,35.18,1.46,3.19,3.02,6.32,4.53,9.49.43.05.86.09,1.3.14Zm112.71,335.39c5.59,12.55,16.49,25.45,26.48,31.68,9.01-6.41,197.93-173.24,200.29-176.98-9.96-7.38-20.49-13.8-31.97-19.08-64.99,54.84-129.81,109.54-194.8,164.38Zm237.37-136.49c-4.11,4.65-7.78,8.8-11.44,12.96-3.67,4.18-7.33,8.37-10.99,12.56-3.66,4.19-7.32,8.37-10.99,12.56-3.66,4.18-7.34,8.36-11,12.54-3.66,4.18-7.31,8.38-10.98,12.56-3.66,4.18-7.34,8.36-11,12.54-3.66,4.18-7.32,8.38-10.98,12.56-3.66,4.19-7.33,8.37-10.99,12.55-3.66,4.18-7.32,8.37-10.99,12.56-3.66,4.19-7.32,8.37-10.99,12.55-3.67,4.18-7.34,8.36-11,12.54-3.66,4.18-7.31,8.38-10.98,12.56-3.66,4.18-7.34,8.36-11,12.54-3.66,4.18-7.36,8.34-10.97,12.57-3.53,4.12-7.37,8.01-10.87,12.83,12.44,3.28,24.22,4.22,36.05,5.06,4.9.35,8.14-1.16,11.32-5,37.28-44.94,74.74-89.73,112.16-134.56,7.25-8.68,14.48-17.37,21.74-26.04,1.34-1.6,2.58-3,1.31-5.39-4.48-8.38-9.88-16.03-17.4-23.07ZM284.02,112.3c-53.1,58.42-105.66,116.25-158.23,174.09,5.29,4.62,15.01,9.74,22.49,11.86,50.23-53.19,100.58-106.49,151.08-159.96-2.57-4.73-4.84-9.17-7.36-13.46-2.34-3.98-4.95-7.8-7.98-12.52Zm-81.66,429.75c64.54-40.88,128.3-81.27,192.72-122.08-2.09-1-3.48-1.84-4.99-2.35-9.11-3.08-18.28-6.01-27.37-9.16-3.25-1.13-6.05-1.15-8.71,1.3-1.08.99-2.44,1.67-3.67,2.5-45.67,30.68-91.29,61.45-137.09,91.94-4.89,3.26-7.73,6.88-8.51,12.64-1.08,8.01-2.68,15.95-2.38,25.22Zm48.19-457.68c-6.55-3.35-12.93-5.38-19.8-6.27-4.25-.55-6.6.73-8.96,4.42-37.74,59.21-75.66,118.31-113.53,177.44-1.08,1.69-2.08,3.43-3.44,5.68,4.3,5.16,8.51,10.21,13.16,15.78,44.47-66.11,88.4-131.4,132.57-197.06Zm58.43,100.23c-.37-.24-.73-.48-1.1-.72-49.54,39.34-99.07,78.68-149.02,118.35,1.52.71,2.43,1.28,3.43,1.57,7.09,2.12,14.24,4.07,21.29,6.31,2.82.89,4.84.26,7.08-1.54,8.95-7.19,18.05-14.2,27.09-21.29,26.83-21.03,53.66-42.04,80.44-63.13,1.68-1.32,3.62-2.95,4.26-4.83,3.83-11.25,5.96-22.86,6.52-34.73Zm80.95,453.47c2.94-.82,4.68-1.21,6.36-1.78,20.02-6.79,36.55-18.61,49.84-34.94,21.24-26.1,32.67-55.65,31.07-89.67-.17-3.57-.49-7.11-2.07-11.46-28.52,46.15-56.51,91.44-85.19,137.85Zm-54.13-234.92c-20.81-5.25-41.44-7.35-62.16-8.77-2.85-.2-4.4.93-5.95,3.04-13.3,18.07-25.93,36.57-37,56.09-.78,1.37-1.4,2.84-2.1,4.26.21.22.42.45.63.67,35.53-18.43,71.05-36.85,106.58-55.28Zm-86.16-78.85c8.29-14.26,16.22-27.86,24.12-41.48.24-.41.26-.96.41-1.53-6.61,1.93-63.93,31.28-67.08,34.52,14.23,2.84,28.15,5.62,42.56,8.49Z"/></svg>