<?xml version="1.0" encoding="UTF-8"?>
<svg id="Layer_1"
    xmlns="http://www.w3.org/2000/svg" viewBox="0 0 742.52 511.65">
    <defs>
        <style>.cls-1{fill:#fff;}.cls-2{letter-spacing:-.05em;}.cls-3{fill:#a688e2;stroke:#000;stroke-miterlimit:10;stroke-width:3px;}.cls-4{font-family:Eigerdals-Hea, Eigerdals;font-size:80.9px;}</style>
    </defs>
    <g>
        <g>
            <path d="m63.07,16.57h632.95c24.56,0,44.51,19.94,44.51,44.51v404.07c0,24.56-19.94,44.51-44.51,44.51H63.07c-24.56,0-44.5-19.94-44.5-44.5V61.08c0-24.56,19.94-44.51,44.51-44.51Z"/>
            <path d="m696.01,18.57c23.44,0,42.51,19.07,42.51,42.51v404.07c0,23.44-19.07,42.51-42.51,42.51H63.07c-23.44,0-42.51-19.07-42.51-42.51V61.08c0-23.44,19.07-42.51,42.51-42.51h632.95m0-4H63.07c-25.68,0-46.51,20.82-46.51,46.51v404.07c0,25.68,20.82,46.51,46.51,46.51h632.95c25.68,0,46.51-20.82,46.51-46.51V61.08c0-25.68-20.82-46.51-46.51-46.51h0Z"/>
        </g>
        <rect class="cls-3" x="1.5" y="1.5" width="725.96" height="497.08" rx="30.78" ry="30.78"/>
    </g>
    <g id="Ff7MNO.tif">
        <g>
            <path class="cls-1" d="m642.96,286.9c-.31,1.81-.54,3.63-.93,5.42-1.74,7.91-5.94,14.21-12.77,18.59-1.78,1.14-2.43,2.43-2.63,4.44-2.74,26.96-5.53,53.91-8.36,80.85-.33,3.12-.58,6.33-1.5,9.3-2.06,6.65-7.26,10.26-14.21,10.29-9.47.04-18.94.03-28.42,0-8.43-.02-14.53-5.24-15.5-13.65-1.65-14.38-3.07-28.78-4.57-43.18-1.45-13.85-2.82-27.71-4.37-41.56-.3-2.68.13-4.57,2.16-6.6,6.58-6.61,9.87-14.82,9.93-24.13.12-17.97.13-35.93,0-53.9-.07-9.18-3.43-17.18-9.67-23.95-.58-.63-1.15-1.28-2.38-2.65,4.48-.85,8.35-2.17,12.24-2.23,17.31-.23,34.62-.23,51.93-.06,14.9.14,26.9,11.36,28.51,26.22.09.85.35,1.69.53,2.53,0,18.09,0,36.17,0,54.26Z"/>
            <path class="cls-1" d="m440.78,259.52c0-8.39-.04-16.77,0-25.16.11-18.19,12.43-30.48,30.63-30.52,15.9-.04,31.8-.04,47.7,0,18.03.04,30.45,12.3,30.56,30.26.1,17.21.02,34.42.02,51.62,0,10.99-4.68,19.41-13.72,25.61-1.15.79-1.96,2.74-2.12,4.24-3.08,28.68-5.94,57.38-9.1,86.05-1.04,9.45-6.86,14.17-16.33,14.17-9.04,0-18.08.02-27.12,0-8.51-.02-14.51-5.04-15.53-13.59-1.68-14.16-3.06-28.35-4.53-42.53-1.57-15.16-3.08-30.32-4.73-45.47-.11-.99-.94-2.19-1.79-2.75-9.58-6.38-14.19-15.25-13.99-26.77.14-8.38.03-16.77.03-25.16Z"/>
            <path class="cls-1" d="m441.06,206.01c-5.99,6-9.88,11.84-11.34,18.99-.61,2.97-1.02,6.03-1.04,9.05-.1,17.1-.03,34.2-.05,51.3-.01,10.3,3.52,19.11,10.77,26.48.9.92,1.55,2.65,1.42,3.92-2.4,24.05-4.94,48.08-7.45,72.11-.49,4.66-.9,9.32-1.49,13.96-1.13,8.83-7,13.95-15.9,13.96-9.26.01-18.52.02-27.77,0-8.07-.02-14.05-4.8-15.18-12.84-1.36-9.7-2.23-19.46-3.24-29.21-2.04-19.71-4-39.42-6.12-59.12-.13-1.18-1.05-2.64-2.04-3.31-9.23-6.21-13.8-14.82-13.8-25.9,0-16.99-.07-33.98.02-50.98.1-18.24,12.46-30.55,30.6-30.6,16.12-.04,32.24-.15,48.36.09,4.45.07,8.89,1.27,14.26,2.09Z"/>
            <path class="cls-1" d="m628.19,152.3c-.02,22.17-17.92,40.03-40.09,40.03-22.16,0-40.03-17.9-40.02-40.08.01-22.19,17.86-40.01,40.07-40,22.18,0,40.06,17.9,40.04,40.05Z"/>
            <path class="cls-1" d="m402.24,192.32c-22.15-.06-40.04-18.03-39.97-40.14.08-22.18,17.97-39.98,40.16-39.94,22.2.04,39.98,17.91,39.94,40.13-.04,22.17-17.96,40.01-40.13,39.95Z"/>
            <path class="cls-1" d="m495.37,192.32c-22.15.09-40.11-17.76-40.17-39.92-.06-22.21,17.72-40.11,39.9-40.16,22.24-.05,40.1,17.69,40.17,39.9.07,22.2-17.7,40.1-39.9,40.18Z"/>
        </g>
    </g>
    <text class="cls-4" transform="translate(65.38 144.83)">
        <tspan x="0" y="0">Creating a </tspan>
        <tspan x="0" y="85.07">Community </tspan>
        <tspan class="cls-2" x="0" y="170.14">F</tspan>
        <tspan x="41.99" y="170.14">ounded on </tspan>
        <tspan x="0" y="255.21">Empathy.</tspan>
    </text>
</svg>