<svg xmlns="http://www.w3.org/2000/svg" fill="none" viewBox="0 0 52.57 33.97">
<path d="M39.95 2H14.62C7.65017 2 2 7.65017 2 14.62V21.35C2 28.3198 7.65017 33.97 14.62 33.97H39.95C46.9198 33.97 52.57 28.3198 52.57 21.35V14.62C52.57 7.65017 46.9198 2 39.95 2Z" fill="black"/>
<path d="M37.95 1H12.62C6.20245 1 1 6.20245 1 12.62V19.35C1 25.7675 6.20245 30.97 12.62 30.97H37.95C44.3675 30.97 49.57 25.7675 49.57 19.35V12.62C49.57 6.20245 44.3675 1 37.95 1Z" fill="white" stroke="black" stroke-width="2" stroke-miterlimit="10"/>
<path d="M43.2405 14.4399H38.1405V9.33993C38.1405 8.82993 37.7305 8.42993 37.2305 8.42993C36.7205 8.42993 36.3205 8.83993 36.3205 9.33993V14.4399H31.2205C30.7105 14.4399 30.3105 14.8499 30.3105 15.3499C30.3105 15.8599 30.7205 16.2599 31.2205 16.2599H36.3205V21.3599C36.3205 21.8699 36.7305 22.2699 37.2305 22.2699C37.7405 22.2699 38.1405 21.8599 38.1405 21.3599V16.2599H43.2405C43.7505 16.2599 44.1505 15.8499 44.1505 15.3499C44.1505 14.8399 43.7405 14.4399 43.2405 14.4399Z" fill="black"/>
<path d="M27.4202 9.47997C26.6502 9.81997 25.8202 10.05 24.9402 10.16C25.8302 9.62997 26.5102 8.77997 26.8402 7.77997C26.0102 8.26997 25.0902 8.62997 24.1002 8.82997C23.3102 7.98997 22.1902 7.46997 20.9502 7.46997C18.1702 7.46997 16.1202 10.07 16.7502 12.76C13.1702 12.58 9.99016 10.86 7.87016 8.25997C6.74016 10.2 7.28016 12.73 9.20016 14.01C8.49016 13.99 7.83016 13.79 7.25016 13.47C7.20016 15.47 8.63016 17.33 10.7102 17.75C10.1002 17.91 9.44016 17.95 8.76016 17.82C9.31016 19.53 10.9002 20.78 12.7902 20.81C10.9802 22.23 8.70016 22.87 6.41016 22.6C8.32016 23.82 10.5802 24.54 13.0202 24.54C21.0202 24.54 25.5402 17.78 25.2702 11.72C26.1102 11.11 26.8402 10.35 27.4202 9.48997V9.47997Z" fill="black"/>
<mask id="mask0_3_429" style="mask-type:luminance" maskUnits="userSpaceOnUse" x="0" y="0" width="51" height="32">
<path d="M12.62 0H37.94C44.91 0 50.56 5.66 50.56 12.62V19.35C50.56 26.32 44.9 31.97 37.94 31.97H12.62C5.66 31.98 0 26.32 0 19.35V12.62C0 5.66 5.66 0 12.62 0Z" fill="white"/>
</mask>
<g mask="url(#mask0_3_429)">
<path d="M50.6602 -0.47998H-0.0898438V32.46H50.6602V-0.47998Z" fill="url(#paint0_linear_3_429)"/>
</g>
<defs>
<linearGradient id="paint0_linear_3_429" x1="44.1202" y1="40.12" x2="5.39016" y2="-9.48998" gradientUnits="userSpaceOnUse">
<stop stop-color="white" stop-opacity="0"/>
<stop offset="0.15" stop-color="white" stop-opacity="0.01"/>
<stop offset="0.28" stop-color="white" stop-opacity="0.06"/>
<stop offset="0.4" stop-color="white" stop-opacity="0.13"/>
<stop offset="0.52" stop-color="white" stop-opacity="0.23"/>
<stop offset="0.64" stop-color="white" stop-opacity="0.36"/>
<stop offset="0.75" stop-color="white" stop-opacity="0.51"/>
<stop offset="0.87" stop-color="white" stop-opacity="0.7"/>
<stop offset="0.98" stop-color="white" stop-opacity="0.91"/>
<stop offset="1" stop-color="white" stop-opacity="0.96"/>
</linearGradient>
</defs>
</svg>