<svg width="22" height="22" viewBox="0 0 22 22" fill="none" xmlns="http://www.w3.org/2000/svg">
<g filter="url(#filter0_d_2834_10388)">
<path d="M10.9998 14.6668C10.7857 14.6673 10.5781 14.5927 10.4132 14.456L4.91318 9.87267C4.72598 9.71708 4.60826 9.49349 4.58591 9.2511C4.56356 9.00871 4.63842 8.76737 4.79401 8.58017C4.94961 8.39297 5.17319 8.27525 5.41558 8.2529C5.65797 8.23055 5.89931 8.30541 6.08651 8.461L10.9998 12.5677L15.9132 8.60767C16.0069 8.53153 16.1148 8.47467 16.2306 8.44035C16.3465 8.40604 16.4679 8.39495 16.588 8.40773C16.7081 8.42051 16.8245 8.4569 16.9305 8.51481C17.0365 8.57272 17.13 8.65101 17.2057 8.74517C17.2896 8.83942 17.3532 8.95 17.3924 9.06997C17.4317 9.18993 17.4457 9.31671 17.4336 9.44235C17.4216 9.56799 17.3837 9.68979 17.3224 9.80012C17.2611 9.91045 17.1777 10.0069 17.0773 10.0835L11.5773 14.511C11.4077 14.6261 11.2044 14.6809 10.9998 14.6668Z" fill="white"/>
</g>
<defs>
<filter id="filter0_d_2834_10388" x="0.582031" y="6.24902" width="20.856" height="14.4199" filterUnits="userSpaceOnUse" color-interpolation-filters="sRGB">
<feFlood flood-opacity="0" result="BackgroundImageFix"/>
<feColorMatrix in="SourceAlpha" type="matrix" values="0 0 0 0 0 0 0 0 0 0 0 0 0 0 0 0 0 0 127 0" result="hardAlpha"/>
<feOffset dy="2"/>
<feGaussianBlur stdDeviation="2"/>
<feComposite in2="hardAlpha" operator="out"/>
<feColorMatrix type="matrix" values="0 0 0 0 0 0 0 0 0 0 0 0 0 0 0 0 0 0 0.68 0"/>
<feBlend mode="normal" in2="BackgroundImageFix" result="effect1_dropShadow_2834_10388"/>
<feBlend mode="normal" in="SourceGraphic" in2="effect1_dropShadow_2834_10388" result="shape"/>
</filter>
</defs>
</svg>
