<svg width="22" height="22" viewBox="0 0 22 22" fill="none" xmlns="http://www.w3.org/2000/svg">
<g filter="url(#filter0_d_2907_11107)">
<path d="M10.9998 5.33316C10.7857 5.33274 10.5781 5.40734 10.4132 5.54399L4.91318 10.1273C4.72598 10.2829 4.60826 10.5065 4.58591 10.7489C4.56356 10.9913 4.63842 11.2326 4.79401 11.4198C4.94961 11.607 5.17319 11.7247 5.41558 11.7471C5.65797 11.7694 5.89931 11.6946 6.08651 11.539L10.9998 7.43233L15.9132 11.3923C16.0069 11.4685 16.1148 11.5253 16.2306 11.5596C16.3465 11.594 16.4679 11.605 16.588 11.5923C16.7081 11.5795 16.8245 11.5431 16.9305 11.4852C17.0365 11.4273 17.13 11.349 17.2057 11.2548C17.2896 11.1606 17.3532 11.05 17.3924 10.93C17.4317 10.8101 17.4457 10.6833 17.4336 10.5576C17.4216 10.432 17.3837 10.3102 17.3224 10.1999C17.2611 10.0896 17.1777 9.99308 17.0773 9.9165L11.5773 5.489C11.4077 5.37394 11.2044 5.31907 10.9998 5.33316Z" fill="white"/>
</g>
<defs>
<filter id="filter0_d_2907_11107" x="0.582031" y="3.33105" width="20.856" height="14.4199" filterUnits="userSpaceOnUse" color-interpolation-filters="sRGB">
<feFlood flood-opacity="0" result="BackgroundImageFix"/>
<feColorMatrix in="SourceAlpha" type="matrix" values="0 0 0 0 0 0 0 0 0 0 0 0 0 0 0 0 0 0 127 0" result="hardAlpha"/>
<feOffset dy="2"/>
<feGaussianBlur stdDeviation="2"/>
<feComposite in2="hardAlpha" operator="out"/>
<feColorMatrix type="matrix" values="0 0 0 0 0 0 0 0 0 0 0 0 0 0 0 0 0 0 0.68 0"/>
<feBlend mode="normal" in2="BackgroundImageFix" result="effect1_dropShadow_2907_11107"/>
<feBlend mode="normal" in="SourceGraphic" in2="effect1_dropShadow_2907_11107" result="shape"/>
</filter>
</defs>
</svg>
