<svg width="25" height="25" viewBox="0 0 25 25" fill="none" xmlns="http://www.w3.org/2000/svg">
<path d="M12.4281 2.07129C10.3798 2.07129 8.37736 2.67871 6.67419 3.81673C4.97101 4.95476 3.64355 6.57228 2.85966 8.46475C2.07578 10.3572 1.87068 12.4396 2.2703 14.4487C2.66992 16.4577 3.65631 18.3031 5.10475 19.7515C6.55318 21.2 8.39859 22.1864 10.4076 22.586C12.4167 22.9856 14.4991 22.7805 16.3915 21.9966C18.284 21.2127 19.9015 19.8853 21.0396 18.1821C22.1776 16.4789 22.785 14.4765 22.785 12.4281C22.785 11.0681 22.5171 9.7213 21.9966 8.46475C21.4761 7.20819 20.7133 6.06646 19.7515 5.10474C18.7898 4.14302 17.6481 3.38014 16.3915 2.85966C15.135 2.33918 13.7882 2.07129 12.4281 2.07129ZM13.4638 16.5709C13.4638 16.8456 13.3547 17.109 13.1605 17.3032C12.9663 17.4975 12.7028 17.6066 12.4281 17.6066C12.1535 17.6066 11.89 17.4975 11.6958 17.3032C11.5016 17.109 11.3925 16.8456 11.3925 16.5709V11.3925C11.3925 11.1178 11.5016 10.8543 11.6958 10.6601C11.89 10.4659 12.1535 10.3568 12.4281 10.3568C12.7028 10.3568 12.9663 10.4659 13.1605 10.6601C13.3547 10.8543 13.4638 11.1178 13.4638 11.3925V16.5709ZM12.4281 9.32109C12.2233 9.32109 12.0231 9.26034 11.8527 9.14654C11.6824 9.03274 11.5497 8.87099 11.4713 8.68174C11.3929 8.49249 11.3724 8.28425 11.4124 8.08335C11.4523 7.88244 11.551 7.6979 11.6958 7.55306C11.8406 7.40822 12.0252 7.30958 12.2261 7.26962C12.427 7.22965 12.6352 7.25016 12.8245 7.32855C13.0137 7.40694 13.1755 7.53969 13.2893 7.71C13.4031 7.88032 13.4638 8.08056 13.4638 8.2854C13.4638 8.56008 13.3547 8.82351 13.1605 9.01774C12.9663 9.21197 12.7028 9.32109 12.4281 9.32109Z" fill="black"/>
</svg>
