<svg width="26" height="26" viewBox="0 0 26 26" fill="none" xmlns="http://www.w3.org/2000/svg">
<g clip-path="url(#clip0_2851_10542)">
<path d="M13.0001 2.16663C8.80758 2.16663 5.41675 5.55746 5.41675 9.74996C5.41675 11.635 5.95841 13.4008 6.94425 14.9933C7.97341 16.6616 9.32758 18.0916 10.3676 19.76C10.8767 20.5725 11.2451 21.3308 11.6351 22.2083C11.9167 22.8041 12.1442 23.8333 13.0001 23.8333C13.8559 23.8333 14.0834 22.8041 14.3542 22.2083C14.7551 21.3308 15.1126 20.5725 15.6217 19.76C16.6617 18.1025 18.0159 16.6725 19.0451 14.9933C20.0417 13.4008 20.5834 11.635 20.5834 9.74996C20.5834 5.55746 17.1926 2.16663 13.0001 2.16663ZM13.0001 12.7291C11.5051 12.7291 10.2917 11.5158 10.2917 10.0208C10.2917 8.52579 11.5051 7.31246 13.0001 7.31246C14.4951 7.31246 15.7084 8.52579 15.7084 10.0208C15.7084 11.5158 14.4951 12.7291 13.0001 12.7291Z" fill="black"/>
</g>
<defs>
<clipPath id="clip0_2851_10542">
<rect width="26" height="26" fill="white"/>
</clipPath>
</defs>
</svg>
