<svg width="23" height="19" viewBox="0 0 23 19" fill="none" xmlns="http://www.w3.org/2000/svg">
<path d="M8.60729 19.0001H5.94529C5.78311 18.9794 5.62055 18.9598 5.45857 18.9378C3.51767 18.6749 1.71752 18.0155 0.0571477 16.9627C0.0353312 16.9488 0.0189205 16.9262 0 16.9076C0.0250986 16.907 0.0501973 16.9057 0.0751028 16.9059C0.655847 16.9131 1.23929 16.9607 1.81695 16.9206C3.6756 16.791 5.34524 16.1299 6.83378 14.9954C6.86525 14.9713 6.8915 14.9399 6.92008 14.9121C6.87992 14.906 6.83996 14.8964 6.79961 14.8945C4.90138 14.8032 3.21417 13.5266 2.57879 11.7066C2.53129 11.5704 2.55909 11.5657 2.68189 11.5863C3.30781 11.6917 3.93025 11.6643 4.5471 11.5136C4.5693 11.5081 4.5888 11.4911 4.60965 11.4795C4.58764 11.4697 4.56641 11.4578 4.54362 11.4501C4.27565 11.3614 4.00072 11.2904 3.74066 11.1823C2.04071 10.4751 0.846982 8.64317 0.876135 6.79559C0.876328 6.77991 0.935214 6.74503 0.949308 6.75248C1.55554 7.07442 2.19883 7.2592 2.88171 7.30192C2.91144 7.30368 2.94175 7.29663 2.97168 7.29349C2.94967 7.27252 2.92959 7.24862 2.90507 7.23098C0.955293 5.83447 0.339604 3.13295 1.48545 1.01084C1.53526 0.918747 1.55476 0.890334 1.63643 0.990071C2.83769 2.45654 4.27623 3.62282 5.95571 4.47969C7.6128 5.32501 9.36855 5.79939 11.2204 5.90344C11.2428 5.90462 11.2932 5.84525 11.2888 5.82252C11.171 5.22096 11.1409 4.61489 11.2591 4.01393C11.6336 2.11148 12.7198 0.80157 14.5483 0.234304C16.357 -0.326888 17.9646 0.133979 19.3275 1.46701C19.3592 1.49797 19.4242 1.51834 19.4667 1.50972C20.4654 1.30359 21.4057 0.939125 22.2893 0.423589C22.3148 0.408697 22.3447 0.401839 22.3725 0.391257C22.3658 0.418886 22.3615 0.447494 22.3523 0.474143C21.9883 1.51501 21.3464 2.33388 20.4386 2.94072C20.4112 2.95895 20.3886 2.98462 20.3639 3.00676C20.3957 3.00597 20.428 3.00852 20.4592 3.00401C21.3091 2.88292 22.1308 2.65856 22.9197 2.31311C22.9446 2.30233 22.9728 2.29959 22.9996 2.29312C22.9861 2.3182 22.9745 2.34465 22.9587 2.36817C22.4023 3.1882 21.7462 3.91615 20.963 4.51555C20.7411 4.68524 20.6631 4.84768 20.6681 5.13513C20.7106 7.60446 20.126 9.92623 18.9398 12.075C16.8601 15.8417 13.7344 18.1415 9.51701 18.8679C9.21506 18.9198 8.91079 18.9565 8.60729 19.0001Z" fill="black"/>
</svg>
