<svg width="16" height="20" viewBox="0 0 16 20" fill="none" xmlns="http://www.w3.org/2000/svg">
<path d="M14.4165 17.3334H1.58317C1.34006 17.3334 1.1069 17.43 0.93499 17.6019C0.763081 17.7738 0.666504 18.0069 0.666504 18.25C0.666504 18.4932 0.763081 18.7263 0.93499 18.8982C1.1069 19.0701 1.34006 19.1667 1.58317 19.1667H14.4165C14.6596 19.1667 14.8928 19.0701 15.0647 18.8982C15.2366 18.7263 15.3332 18.4932 15.3332 18.25C15.3332 18.0069 15.2366 17.7738 15.0647 17.6019C14.8928 17.43 14.6596 17.3334 14.4165 17.3334Z" fill="black"/>
<path d="M1.58312 15.5H1.66562L5.48812 15.1516C5.90685 15.1099 6.29848 14.9254 6.59728 14.6291L14.8473 6.37912C15.1675 6.04084 15.3405 5.58942 15.3285 5.12378C15.3165 4.65813 15.1204 4.21625 14.7831 3.89495L12.2715 1.38328C11.9436 1.07537 11.5141 0.898697 11.0645 0.886865C10.6149 0.875034 10.1767 1.02887 9.83312 1.31912L1.58312 9.56912C1.28682 9.86792 1.10233 10.2596 1.06062 10.6783L0.66645 14.5008C0.654102 14.635 0.671523 14.7704 0.717473 14.8971C0.763423 15.0239 0.836769 15.139 0.932284 15.2341C1.01794 15.3191 1.11952 15.3863 1.2312 15.4319C1.34289 15.4775 1.46248 15.5006 1.58312 15.5ZM10.9973 2.66662L13.4998 5.16912L11.6665 6.95662L9.20978 4.49995L10.9973 2.66662ZM2.83895 10.8341L7.99978 5.70995L10.4748 8.18495L5.34145 13.3183L2.59145 13.575L2.83895 10.8341Z" fill="black"/>
</svg>
