<svg width="21" height="21" viewBox="0 0 21 21" fill="none" xmlns="http://www.w3.org/2000/svg">
<path d="M10.4281 0.0712891C8.37975 0.0712891 6.37736 0.678708 4.67419 1.81673C2.97101 2.95476 1.64355 4.57228 0.859662 6.46475C0.0757765 8.35721 -0.129324 10.4396 0.270298 12.4487C0.669919 14.4577 1.65631 16.3031 3.10475 17.7515C4.55318 19.2 6.39859 20.1864 8.40762 20.586C10.4167 20.9856 12.4991 20.7805 14.3915 19.9966C16.284 19.2127 17.9015 17.8853 19.0396 16.1821C20.1776 14.4789 20.785 12.4765 20.785 10.4281C20.785 9.06806 20.5171 7.7213 19.9966 6.46475C19.4761 5.20819 18.7133 4.06646 17.7515 3.10474C16.7898 2.14302 15.6481 1.38014 14.3915 0.859658C13.135 0.339177 11.7882 0.0712891 10.4281 0.0712891ZM11.4638 14.5709C11.4638 14.8456 11.3547 15.109 11.1605 15.3032C10.9663 15.4975 10.7028 15.6066 10.4281 15.6066C10.1535 15.6066 9.89003 15.4975 9.69581 15.3032C9.50158 15.109 9.39246 14.8456 9.39246 14.5709V9.39246C9.39246 9.11777 9.50158 8.85434 9.69581 8.66012C9.89003 8.46589 10.1535 8.35677 10.4281 8.35677C10.7028 8.35677 10.9663 8.46589 11.1605 8.66012C11.3547 8.85434 11.4638 9.11777 11.4638 9.39246V14.5709ZM10.4281 7.32109C10.2233 7.32109 10.0231 7.26034 9.85275 7.14654C9.68243 7.03274 9.54969 6.87099 9.4713 6.68174C9.39291 6.49249 9.3724 6.28425 9.41236 6.08335C9.45232 5.88244 9.55096 5.6979 9.69581 5.55306C9.84065 5.40822 10.0252 5.30958 10.2261 5.26962C10.427 5.22965 10.6352 5.25016 10.8245 5.32855C11.0137 5.40694 11.1755 5.53969 11.2893 5.71C11.4031 5.88032 11.4638 6.08056 11.4638 6.2854C11.4638 6.56008 11.3547 6.82351 11.1605 7.01774C10.9663 7.21197 10.7028 7.32109 10.4281 7.32109Z" fill="white"/>
</svg>
