<svg width="16" height="18" viewBox="0 0 16 18" fill="none" xmlns="http://www.w3.org/2000/svg">
<path d="M15.1974 7.57331L8.70421 0.93698C8.62592 0.858044 8.53277 0.795391 8.43015 0.752635C8.32752 0.709879 8.21744 0.687866 8.10627 0.687866C7.99509 0.687866 7.88501 0.709879 7.78239 0.752635C7.67976 0.795391 7.58662 0.858044 7.50833 0.93698L1.01517 7.58173C0.858051 7.74011 0.733963 7.92813 0.65011 8.13487C0.566258 8.34161 0.524312 8.56295 0.526708 8.78603V15.8434C0.526056 16.2746 0.690741 16.6895 0.986851 17.0029C1.28296 17.3162 1.68795 17.5041 2.11842 17.5278H14.0941C14.5246 17.5041 14.9296 17.3162 15.2257 17.0029C15.5218 16.6895 15.6865 16.2746 15.6858 15.8434V8.78603C15.6865 8.33373 15.5113 7.89888 15.1974 7.57331ZM6.42192 15.8434V10.7904H9.79061V15.8434H6.42192ZM14.0015 15.8434H11.475V9.94823C11.475 9.72488 11.3862 9.51067 11.2283 9.35273C11.0704 9.19479 10.8561 9.10606 10.6328 9.10606H5.57975C5.35639 9.10606 5.14218 9.19479 4.98424 9.35273C4.8263 9.51067 4.73758 9.72488 4.73758 9.94823V15.8434H2.21106V8.75235L8.10627 2.73081L14.0015 8.78603V15.8434Z" fill="black"/>
</svg>
