<svg width="14" height="17" viewBox="0 0 14 17" fill="none" xmlns="http://www.w3.org/2000/svg">
<path d="M10.9999 4.9838H10.1537V3.38458C10.1537 2.48694 9.79716 1.62605 9.16242 0.991321C8.52769 0.356589 7.66681 0 6.76916 0C5.87152 0 5.01063 0.356589 4.3759 0.991321C3.74117 1.62605 3.38458 2.48694 3.38458 3.38458V4.9838H2.53844C1.8652 4.9838 1.21954 5.25124 0.743491 5.72729C0.267442 6.20334 0 6.849 0 7.52223V14.2914C0 14.9646 0.267442 15.6103 0.743491 16.0863C1.21954 16.5624 1.8652 16.8298 2.53844 16.8298H10.9999C11.6731 16.8298 12.3188 16.5624 12.7948 16.0863C13.2709 15.6103 13.5383 14.9646 13.5383 14.2914V7.52223C13.5383 6.849 13.2709 6.20334 12.7948 5.72729C12.3188 5.25124 11.6731 4.9838 10.9999 4.9838ZM5.07687 3.38458C5.06549 2.92368 5.23717 2.47705 5.55434 2.14244C5.8715 1.80783 6.30832 1.6125 6.76916 1.59922C7.23001 1.6125 7.66682 1.80783 7.98399 2.14244C8.30116 2.47705 8.47284 2.92368 8.46145 3.38458V4.9838H5.07687V3.38458ZM11.846 14.2914C11.846 14.5158 11.7569 14.731 11.5982 14.8897C11.4395 15.0484 11.2243 15.1375 10.9999 15.1375H2.53844C2.31402 15.1375 2.0988 15.0484 1.94012 14.8897C1.78144 14.731 1.69229 14.5158 1.69229 14.2914V7.52223C1.69229 7.29782 1.78144 7.0826 1.94012 6.92392C2.0988 6.76524 2.31402 6.67609 2.53844 6.67609H10.9999C11.2243 6.67609 11.4395 6.76524 11.5982 6.92392C11.7569 7.0826 11.846 7.29782 11.846 7.52223V14.2914Z" fill="white"/>
<path d="M6.76915 8.36841C6.2671 8.36841 5.77631 8.51729 5.35887 8.79621C4.94143 9.07514 4.61607 9.47159 4.42394 9.93543C4.23181 10.3993 4.18154 10.9097 4.27949 11.4021C4.37744 11.8945 4.6192 12.3468 4.9742 12.7018C5.32921 13.0568 5.78152 13.2986 6.27393 13.3965C6.76634 13.4945 7.27673 13.4442 7.74057 13.2521C8.20441 13.0599 8.60086 12.7346 8.87978 12.3171C9.15871 11.8997 9.30759 11.4089 9.30759 10.9068C9.30759 10.2336 9.04015 9.58795 8.5641 9.1119C8.08805 8.63585 7.44239 8.36841 6.76915 8.36841ZM6.76915 11.753C6.6018 11.753 6.43821 11.7034 6.29906 11.6104C6.15991 11.5174 6.05146 11.3853 5.98741 11.2307C5.92337 11.076 5.90662 10.9059 5.93926 10.7418C5.97191 10.5776 6.0525 10.4269 6.17084 10.3085C6.28917 10.1902 6.43994 10.1096 6.60408 10.077C6.76821 10.0443 6.93834 10.0611 7.09296 10.1251C7.24757 10.1892 7.37972 10.2976 7.4727 10.4368C7.56567 10.5759 7.6153 10.7395 7.6153 10.9068C7.6153 11.1313 7.52615 11.3465 7.36747 11.5052C7.20878 11.6638 6.99356 11.753 6.76915 11.753Z" fill="white"/>
</svg>
