<svg width="17" height="17" viewBox="0 0 17 17" fill="none" xmlns="http://www.w3.org/2000/svg">
<path d="M8.4998 9.91671C9.2822 9.91671 9.91646 9.28244 9.91646 8.50004C9.91646 7.71764 9.2822 7.08337 8.4998 7.08337C7.71739 7.08337 7.08313 7.71764 7.08313 8.50004C7.08313 9.28244 7.71739 9.91671 8.4998 9.91671Z" fill="black"/>
<path d="M13.4583 9.91671C14.2407 9.91671 14.875 9.28244 14.875 8.50004C14.875 7.71764 14.2407 7.08337 13.4583 7.08337C12.6759 7.08337 12.0416 7.71764 12.0416 8.50004C12.0416 9.28244 12.6759 9.91671 13.4583 9.91671Z" fill="black"/>
<path d="M3.54167 9.91671C4.32407 9.91671 4.95833 9.28244 4.95833 8.50004C4.95833 7.71764 4.32407 7.08337 3.54167 7.08337C2.75926 7.08337 2.125 7.71764 2.125 8.50004C2.125 9.28244 2.75926 9.91671 3.54167 9.91671Z" fill="black"/>
</svg>
