<svg width="15" height="17" viewBox="0 0 15 17" fill="none" xmlns="http://www.w3.org/2000/svg">
<path d="M11.05 5.09916L9.7 5.1V3.4C9.7 2.94913 9.87911 2.51673 10.1979 2.19792C10.5167 1.87911 10.9491 1.7 11.4 1.7C11.8509 1.7 12.2833 1.87911 12.6021 2.19792C12.9209 2.51673 13.1 2.94913 13.1 3.4C13.1 3.62543 13.1896 3.84163 13.349 4.00104C13.5084 4.16045 13.7246 4.25 13.95 4.25C14.1754 4.25 14.3916 4.16045 14.551 4.00104C14.7104 3.84163 14.8 3.62543 14.8 3.4C14.8 2.49826 14.4418 1.63346 13.8042 0.995837C13.1665 0.358213 12.3017 0 11.4 0C10.4983 0 9.63346 0.358213 8.99584 0.995837C8.35821 1.63346 8 2.49826 8 3.4V5.1L2.55 5.09916C1.8737 5.09916 1.2251 5.36782 0.746878 5.84603C0.26866 6.32425 0 6.97285 0 7.64916V14.4492C0 15.1255 0.26866 15.7741 0.746878 16.2523C1.2251 16.7305 1.8737 16.9992 2.55 16.9992H11.05C11.7263 16.9992 12.3749 16.7305 12.8531 16.2523C13.3313 15.7741 13.6 15.1255 13.6 14.4492V7.64916C13.6 6.97285 13.3313 6.32425 12.8531 5.84603C12.3749 5.36782 11.7263 5.09916 11.05 5.09916ZM11.9 14.4492C11.9 14.6746 11.8104 14.8908 11.651 15.0502C11.4916 15.2096 11.2754 15.2992 11.05 15.2992H2.55C2.32457 15.2992 2.10837 15.2096 1.94896 15.0502C1.78955 14.8908 1.7 14.6746 1.7 14.4492V7.64916C1.7 7.42372 1.78955 7.20752 1.94896 7.04811C2.10837 6.88871 2.32457 6.79916 2.55 6.79916H11.05C11.2754 6.79916 11.4916 6.88871 11.651 7.04811C11.8104 7.20752 11.9 7.42372 11.9 7.64916V14.4492Z" fill="white"/>
<path d="M6.80049 8.50024C6.29615 8.50024 5.80313 8.6498 5.38379 8.93C4.96444 9.21019 4.6376 9.60845 4.4446 10.0744C4.25159 10.5404 4.20109 11.0531 4.29949 11.5477C4.39788 12.0424 4.64074 12.4967 4.99737 12.8534C5.35399 13.21 5.80836 13.4529 6.30301 13.5512C6.79766 13.6496 7.31038 13.5991 7.77633 13.4061C8.24228 13.2131 8.64054 12.8863 8.92074 12.4669C9.20093 12.0476 9.35049 11.5546 9.35049 11.0502C9.35049 10.3739 9.08183 9.72534 8.60361 9.24712C8.12539 8.7689 7.47679 8.50024 6.80049 8.50024ZM6.80049 11.9002C6.63238 11.9002 6.46804 11.8504 6.32825 11.757C6.18847 11.6636 6.07953 11.5308 6.01519 11.3755C5.95086 11.2202 5.93402 11.0493 5.96682 10.8844C5.99962 10.7195 6.08057 10.5681 6.19945 10.4492C6.31832 10.3303 6.46978 10.2494 6.63466 10.2166C6.79955 10.1838 6.97045 10.2006 7.12577 10.2649C7.28109 10.3293 7.41384 10.4382 7.50724 10.578C7.60064 10.7178 7.65049 10.8821 7.65049 11.0502C7.65049 11.2757 7.56094 11.4919 7.40153 11.6513C7.24212 11.8107 7.02592 11.9002 6.80049 11.9002Z" fill="white"/>
</svg>
