<svg width="21" height="21" viewBox="0 0 21 21" fill="none" xmlns="http://www.w3.org/2000/svg">
<path d="M17.1974 8.57343L10.7042 1.9371C10.6259 1.85817 10.5328 1.79551 10.4301 1.75276C10.3275 1.71 10.2174 1.68799 10.1063 1.68799C9.99509 1.68799 9.88501 1.71 9.78239 1.75276C9.67976 1.79551 9.58662 1.85817 9.50833 1.9371L3.01517 8.58185C2.85805 8.74023 2.73396 8.92826 2.65011 9.135C2.56626 9.34173 2.52431 9.56307 2.52671 9.78616V16.8436C2.52606 17.2747 2.69074 17.6896 2.98685 18.003C3.28296 18.3163 3.68795 18.5042 4.11842 18.5279H16.0941C16.5246 18.5042 16.9296 18.3163 17.2257 18.003C17.5218 17.6896 17.6865 17.2747 17.6858 16.8436V9.78616C17.6865 9.33385 17.5113 8.899 17.1974 8.57343ZM8.42192 16.8436V11.7905H11.7906V16.8436H8.42192ZM16.0015 16.8436H13.475V10.9484C13.475 10.725 13.3862 10.5108 13.2283 10.3528C13.0704 10.1949 12.8561 10.1062 12.6328 10.1062H7.57975C7.35639 10.1062 7.14218 10.1949 6.98424 10.3528C6.8263 10.5108 6.73758 10.725 6.73758 10.9484V16.8436H4.21106V9.75247L10.1063 3.73093L16.0015 9.78616V16.8436Z" fill="white"/>
</svg>
