<?xml version="1.0" encoding="UTF-8"?><svg id="Layer_1" xmlns="http://www.w3.org/2000/svg" viewBox="0 0 134.67 120.3"><defs><style>.cls-1{fill:#ffbc00;stroke-miterlimit:10;}.cls-1,.cls-2,.cls-3{stroke:#000;stroke-width:4px;}.cls-2{fill:#fff;}.cls-2,.cls-3{stroke-linecap:round;stroke-linejoin:round;}.cls-4{font-family:Eigerdals-Hea, Eigerdals;font-size:24px;}</style></defs><path class="cls-3" d="m123.85,37.7v45.89c0,7.87-6.37,14.24-14.24,14.24h-14.27c1.68,14.34,7.52,20.46,7.52,20.46-19.36-6.35-23.85-10.4-29.37-20.46H20.2c-7.86,0-14.24-6.37-14.24-14.24v-45.89c0-7.87,6.38-14.24,14.24-14.24h89.41c7.86,0,14.24,6.37,14.24,14.24Z"/><path class="cls-2" d="m119.89,33.33v45.89c0,7.87-6.37,14.24-14.24,14.24h-14.27c1.68,14.34,7.52,20.46,7.52,20.46-19.36-6.35-23.85-10.4-29.37-20.46H16.24c-7.86,0-14.24-6.37-14.24-14.24v-45.89c0-7.87,6.38-14.24,14.24-14.24h89.41c7.86,0,14.24,6.37,14.24,14.24Z"/><circle class="cls-1" cx="111.92" cy="22.75" r="20.75"/><text class="cls-4" transform="translate(105.11 30.9)"><tspan x="0" y="0">2</tspan></text></svg>