<?xml version="1.0" encoding="UTF-8"?><svg id="Layer_1" xmlns="http://www.w3.org/2000/svg" viewBox="0 0 125.85 103.21"><defs><style>.cls-1{fill:#fff;}.cls-1,.cls-2{stroke:#000;stroke-linecap:round;stroke-linejoin:round;stroke-width:4px;}</style></defs><path class="cls-2" d="m123.85,20.61v45.89c0,7.87-6.37,14.24-14.24,14.24h-14.27c1.68,14.34,7.52,20.46,7.52,20.46-19.36-6.35-23.85-10.4-29.37-20.46H20.2c-7.86,0-14.24-6.37-14.24-14.24V20.61c0-7.87,6.38-14.24,14.24-14.24h89.41c7.86,0,14.24,6.37,14.24,14.24Z"/><path class="cls-1" d="m119.89,16.24v45.89c0,7.87-6.37,14.24-14.24,14.24h-14.27c1.68,14.34,7.52,20.46,7.52,20.46-19.36-6.35-23.85-10.4-29.37-20.46H16.24c-7.86,0-14.24-6.37-14.24-14.24V16.24c0-7.87,6.38-14.24,14.24-14.24h89.41c7.86,0,14.24,6.37,14.24,14.24Z"/></svg>