<svg xmlns="http://www.w3.org/2000/svg" fill="none" viewBox="0.69 0.03 50.57 31.97">
<path d="M37.3104 1.03003H14.6404C7.48834 1.03003 1.69043 6.82794 1.69043 13.98V18.05C1.69043 25.2021 7.48834 31 14.6404 31H37.3104C44.4625 31 50.2604 25.2021 50.2604 18.05V13.98C50.2604 6.82794 44.4625 1.03003 37.3104 1.03003Z" fill="#CCCCCC"/>
<mask id="mask0_3_455" style="mask-type:luminance" maskUnits="userSpaceOnUse" x="0" y="0" width="50" height="31">
<path d="M37.8602 0.52002H12.5302C6.11261 0.52002 0.910156 5.72247 0.910156 12.14V18.87C0.910156 25.2876 6.11261 30.49 12.5302 30.49H37.8602C44.2777 30.49 49.4802 25.2876 49.4802 18.87V12.14C49.4802 5.72247 44.2777 0.52002 37.8602 0.52002Z" fill="white"/>
</mask>
<g mask="url(#mask0_3_455)">
<path d="M41.4002 3.79004H16.0702C9.65265 3.79004 4.4502 8.99249 4.4502 15.41V22.14C4.4502 28.5576 9.65265 33.76 16.0702 33.76H41.4002C47.8177 33.76 53.0202 28.5576 53.0202 22.14V15.41C53.0202 8.99249 47.8177 3.79004 41.4002 3.79004Z" fill="white"/>
<path d="M46.6907 17.22H41.5907V12.12C41.5907 11.61 41.1807 11.21 40.6807 11.21C40.1707 11.21 39.7707 11.62 39.7707 12.12V17.22H34.6707C34.1607 17.22 33.7607 17.63 33.7607 18.13C33.7607 18.64 34.1707 19.04 34.6707 19.04H39.7707V24.14C39.7707 24.65 40.1807 25.05 40.6807 25.05C41.1907 25.05 41.5907 24.64 41.5907 24.14V19.04H46.6907C47.2007 19.04 47.6007 18.63 47.6007 18.13C47.6007 17.62 47.1907 17.22 46.6907 17.22Z" fill="black"/>
<path d="M30.8606 12.26C30.0906 12.6 29.2606 12.83 28.3806 12.94C29.2706 12.41 29.9506 11.56 30.2806 10.56C29.4506 11.05 28.5306 11.41 27.5406 11.61C26.7506 10.77 25.6306 10.25 24.3906 10.25C21.6106 10.25 19.5606 12.85 20.1906 15.54C16.6106 15.36 13.4306 13.64 11.3106 11.04C10.1806 12.98 10.7206 15.51 12.6406 16.79C11.9306 16.77 11.2706 16.57 10.6906 16.25C10.6406 18.25 12.0706 20.11 14.1506 20.53C13.5406 20.69 12.8806 20.73 12.2006 20.6C12.7506 22.31 14.3406 23.56 16.2306 23.59C14.4206 25.01 12.1406 25.65 9.85059 25.38C11.7606 26.6 14.0206 27.32 16.4606 27.32C24.4606 27.32 28.9806 20.56 28.7106 14.5C29.5506 13.89 30.2806 13.13 30.8606 12.27V12.26Z" fill="black"/>
</g>
<path d="M38.6404 1.03003H13.3104C6.89288 1.03003 1.69043 6.23248 1.69043 12.65V19.38C1.69043 25.7976 6.89288 31 13.3104 31H38.6404C45.058 31 50.2604 25.7976 50.2604 19.38V12.65C50.2604 6.23248 45.058 1.03003 38.6404 1.03003Z" stroke="black" stroke-width="2" stroke-miterlimit="10"/>
<g opacity="0.5">
<path d="M38.6395 1.03003H13.3095C6.89191 1.03003 1.68945 6.23248 1.68945 12.65V20.2C1.68945 26.6176 6.89191 31.82 13.3095 31.82H38.6395C45.057 31.82 50.2595 26.6176 50.2595 20.2V12.65C50.2595 6.23248 45.057 1.03003 38.6395 1.03003Z" fill="url(#paint0_radial_3_455)"/>
</g>
<defs>
<radialGradient id="paint0_radial_3_455" cx="0" cy="0" r="1" gradientUnits="userSpaceOnUse" gradientTransform="translate(29.9415 24.4) scale(31.4592 31.4592)">
<stop offset="0.33" stop-opacity="0"/>
<stop offset="0.95" stop-opacity="0.82"/>
<stop offset="1"/>
</radialGradient>
</defs>
</svg>