<svg width="21" height="18" viewBox="0 0 21 18" fill="none" xmlns="http://www.w3.org/2000/svg">
<path d="M7.85896 17.5H5.4284C5.28032 17.4814 5.13189 17.4639 4.98399 17.4442C3.21184 17.209 1.5682 16.619 0.0521792 15.677C0.0322594 15.6646 0.0172755 15.6444 0 15.6278C0.0229165 15.6272 0.0458331 15.626 0.0685733 15.6262C0.598827 15.6327 1.13155 15.6753 1.65898 15.6393C3.35604 15.5234 4.88052 14.9319 6.23964 13.9168C6.26838 13.8953 6.29235 13.8672 6.31844 13.8423C6.28177 13.8369 6.24528 13.8283 6.20844 13.8265C4.47525 13.7448 2.93473 12.6026 2.35459 10.9743C2.31122 10.8524 2.3366 10.8482 2.44872 10.8666C3.02022 10.9609 3.58855 10.9364 4.15177 10.8016C4.17204 10.7967 4.18985 10.7814 4.20889 10.7711C4.18879 10.7623 4.1694 10.7516 4.1486 10.7448C3.90392 10.6653 3.65289 10.6019 3.41544 10.5051C1.86329 9.87237 0.773345 8.23331 0.799963 6.58022C0.800139 6.56619 0.853905 6.53498 0.866774 6.54165C1.4203 6.8297 2.00766 6.99502 2.63117 7.03324C2.65832 7.03482 2.68599 7.02851 2.71332 7.0257C2.69322 7.00694 2.67489 6.98556 2.6525 6.96978C0.872238 5.72027 0.310078 3.30314 1.35631 1.40443C1.40179 1.32203 1.41959 1.29661 1.49416 1.38585C2.59098 2.69794 3.90445 3.74144 5.43792 4.50811C6.95094 5.26444 8.55403 5.68889 10.2449 5.78199C10.2654 5.78304 10.3114 5.72992 10.3073 5.70958C10.1998 5.17135 10.1723 4.62908 10.2802 4.09138C10.6222 2.3892 11.6139 1.21719 13.2835 0.709639C14.9349 0.207523 16.4028 0.619875 17.6471 1.81257C17.676 1.84028 17.7355 1.85851 17.7742 1.85079C18.6861 1.66636 19.5446 1.34026 20.3515 0.878998C20.3747 0.865673 20.4021 0.859537 20.4274 0.85007C20.4213 0.87479 20.4174 0.900386 20.4089 0.92423C20.0766 1.85553 19.4905 2.58819 18.6616 3.13115C18.6366 3.14746 18.616 3.17042 18.5934 3.19024C18.6225 3.18953 18.6519 3.19181 18.6805 3.18778C19.4565 3.07943 20.2067 2.87869 20.927 2.5696C20.9498 2.55996 20.9755 2.55751 21 2.55172C20.9877 2.57416 20.9771 2.59783 20.9626 2.61887C20.4546 3.35258 19.8556 4.00389 19.1404 4.5402C18.9379 4.69202 18.8666 4.83736 18.8712 5.09456C18.91 7.30394 18.3762 9.3813 17.2932 11.3039C15.3943 14.674 12.5403 16.7318 8.68959 17.3817C8.41389 17.4281 8.13607 17.4609 7.85896 17.5Z" fill="black"/>
</svg>
