<svg width="21" height="17" viewBox="0 0 21 17" fill="none" xmlns="http://www.w3.org/2000/svg">
<path d="M7.85896 17H5.4284C5.28032 16.9814 5.13189 16.9639 4.98399 16.9442C3.21184 16.709 1.5682 16.119 0.0521792 15.177C0.0322594 15.1646 0.0172755 15.1444 0 15.1278C0.0229165 15.1272 0.0458331 15.126 0.0685733 15.1262C0.598827 15.1327 1.13155 15.1753 1.65898 15.1393C3.35604 15.0234 4.88052 14.4319 6.23964 13.4168C6.26838 13.3953 6.29235 13.3672 6.31844 13.3423C6.28177 13.3369 6.24528 13.3283 6.20844 13.3265C4.47525 13.2448 2.93473 12.1026 2.35459 10.4743C2.31122 10.3524 2.3366 10.3482 2.44872 10.3666C3.02022 10.4609 3.58855 10.4364 4.15177 10.3016C4.17204 10.2967 4.18985 10.2814 4.20889 10.2711C4.18879 10.2623 4.1694 10.2516 4.1486 10.2448C3.90392 10.1653 3.65289 10.1019 3.41544 10.0051C1.86329 9.37237 0.773345 7.73331 0.799963 6.08022C0.800139 6.06619 0.853905 6.03498 0.866774 6.04165C1.4203 6.3297 2.00766 6.49502 2.63117 6.53324C2.65832 6.53482 2.68599 6.52851 2.71332 6.5257C2.69322 6.50694 2.67489 6.48556 2.6525 6.46978C0.872238 5.22027 0.310078 2.80314 1.35631 0.90443C1.40179 0.82203 1.41959 0.796609 1.49416 0.885847C2.59098 2.19794 3.90445 3.24144 5.43792 4.00811C6.95094 4.76444 8.55403 5.18889 10.2449 5.28199C10.2654 5.28304 10.3114 5.22992 10.3073 5.20958C10.1998 4.67135 10.1723 4.12908 10.2802 3.59138C10.6222 1.8892 11.6139 0.717189 13.2835 0.209639C14.9349 -0.292477 16.4028 0.119875 17.6471 1.31257C17.676 1.34028 17.7355 1.35851 17.7742 1.35079C18.6861 1.16636 19.5446 0.840263 20.3515 0.378998C20.3747 0.365673 20.4021 0.359537 20.4274 0.35007C20.4213 0.37479 20.4174 0.400386 20.4089 0.42423C20.0766 1.35553 19.4905 2.08819 18.6616 2.63115C18.6366 2.64746 18.616 2.67042 18.5934 2.69024C18.6225 2.68953 18.6519 2.69181 18.6805 2.68778C19.4565 2.57943 20.2067 2.37869 20.927 2.0696C20.9498 2.05996 20.9755 2.05751 21 2.05172C20.9877 2.07416 20.9771 2.09783 20.9626 2.11887C20.4546 2.85258 19.8556 3.50389 19.1404 4.0402C18.9379 4.19202 18.8666 4.33736 18.8712 4.59456C18.91 6.80394 18.3762 8.8813 17.2932 10.8039C15.3943 14.174 12.5403 16.2318 8.68959 16.8817C8.41389 16.9281 8.13607 16.9609 7.85896 17Z" fill="white"/>
</svg>
