<svg width="120" height="22" viewBox="0 0 120 22" fill="none" xmlns="http://www.w3.org/2000/svg">
<path d="M119.996 15.8797C119.983 15.9824 119.961 16.0851 119.957 16.1878C119.927 16.8896 119.777 17.5614 119.495 18.199C118.968 19.3886 118.044 20.1331 116.816 20.514C116.037 20.7579 115.236 20.8349 114.427 20.8349C113.4 20.8349 112.373 20.8349 111.346 20.8349C109.582 20.8349 107.823 20.8435 106.06 20.8435C105.867 20.8435 105.67 20.8478 105.482 20.8306C105.003 20.7793 104.712 20.484 104.656 20.0005C104.643 19.8935 104.639 19.7865 104.639 19.6796C104.639 18.721 104.639 17.7625 104.639 16.7997C104.639 16.6542 104.656 16.5045 104.686 16.3633C104.763 16.0209 104.99 15.8198 105.324 15.7514C105.473 15.7214 105.628 15.7086 105.782 15.7086C108.11 15.7086 110.438 15.7086 112.767 15.7086C112.891 15.7086 113.019 15.6914 113.143 15.6658C113.447 15.5973 113.627 15.4005 113.695 15.1009C113.704 15.0624 113.708 15.0239 113.713 14.9811C113.764 14.3521 113.533 14.0397 112.908 13.937C112.377 13.8514 111.838 13.7872 111.303 13.7145C110.511 13.6032 109.719 13.4792 108.927 13.3722C108.397 13.2994 107.875 13.2053 107.365 13.0341C106.685 12.8031 106.077 12.4564 105.61 11.8959C105.195 11.3995 104.96 10.8176 104.819 10.1928C104.677 9.5809 104.635 8.95187 104.63 8.32712C104.622 7.47558 104.635 6.61976 104.664 5.76822C104.682 5.21622 104.789 4.67277 104.964 4.14217C105.405 2.78997 106.317 1.92559 107.678 1.52336C108.251 1.35219 108.838 1.28373 109.432 1.24522C110.871 1.15536 112.313 1.13824 113.755 1.1468C115.176 1.15536 116.597 1.16819 118.018 1.17675C118.044 1.17675 118.07 1.17675 118.1 1.17675C118.677 1.20243 118.986 1.50196 118.994 2.08392C119.003 2.61025 118.99 3.13658 118.994 3.66291C118.994 4.12077 119.016 4.58291 119.02 5.04077C119.02 5.20766 119.02 5.37454 118.99 5.53715C118.909 5.99929 118.6 6.29027 118.104 6.35446C117.834 6.38869 117.56 6.39297 117.286 6.39297C115.579 6.39725 113.871 6.40153 112.163 6.40581C111.851 6.40581 111.555 6.45716 111.269 6.58981C110.965 6.73102 110.875 6.98776 110.862 7.2873C110.849 7.58256 110.982 7.81363 111.243 7.93772C111.418 8.0233 111.62 8.07465 111.812 8.10461C112.809 8.2501 113.807 8.38275 114.804 8.52396C115.497 8.62238 116.199 8.67801 116.871 8.87912C117.175 8.96899 117.483 9.07168 117.77 9.20434C118.849 9.69643 119.508 10.5394 119.799 11.6819C119.897 12.0756 119.966 12.4778 119.966 12.8844C119.966 12.9614 119.987 13.0384 120 13.1154V15.8754L119.996 15.8797Z" fill="white"/>
<path d="M51.9382 11.2455C51.8826 11.2112 51.8398 11.1856 51.7927 11.1599C50.6371 10.5779 49.9009 9.65792 49.5328 8.42554C49.3188 7.71093 49.2204 6.98348 49.1348 6.24748C49.1091 6.02925 49.0834 5.81101 49.0663 5.59278C49.0064 4.81398 49.2461 4.13361 49.7468 3.54309C50.1706 3.04244 50.6927 2.66588 51.2577 2.34067C52.7771 1.46345 54.395 0.830145 56.0985 0.432189C57.2199 0.166885 58.3626 0 59.5225 0C59.8136 0 60.1089 0.0256746 60.4 0.0684655C61.5855 0.231071 62.4501 0.860098 62.9894 1.91704C63.1606 2.25508 63.3018 2.61025 63.4302 2.96541C63.6057 3.46607 63.7555 3.97956 63.9139 4.48877C64.0894 5.04505 64.1279 5.61417 64.0081 6.18757C63.9182 6.6326 63.8069 7.06907 63.7042 7.50981C63.6742 7.62963 63.6485 7.75372 63.6229 7.88637C63.6785 7.89493 63.7127 7.90349 63.7512 7.90777C65.0823 8.01903 66.0411 8.69512 66.7002 9.83764C66.9741 10.3126 67.1796 10.8218 67.338 11.3439C67.5948 12.1869 67.8387 13.0298 68.0827 13.8771C68.2411 14.4248 68.3395 14.9811 68.3181 15.5502C68.271 16.6928 67.7831 17.6128 66.88 18.306C66.0069 18.9778 65.061 19.5426 64.0637 20.0091C62.9594 20.5225 61.8209 20.9376 60.6525 21.2757C59.0346 21.7464 57.3911 22.0202 55.7004 21.9988C55.2382 21.9946 54.7845 21.9518 54.3308 21.8576C53.1024 21.6009 52.2207 20.9034 51.6772 19.7823C51.4931 19.4057 51.339 19.012 51.2106 18.6141C50.941 17.754 50.6927 16.8896 50.4488 16.0252C50.3075 15.5246 50.2348 15.0111 50.2305 14.4847C50.2219 13.3208 50.6628 12.3623 51.5274 11.5878C51.5916 11.5322 51.6558 11.4723 51.7242 11.4166C51.7884 11.361 51.8569 11.3097 51.9382 11.2455ZM59.7922 16.3633C60.1089 16.2435 60.4342 16.1322 60.7466 15.9995C60.9906 15.8968 61.2174 15.7514 61.41 15.5631C61.6283 15.3448 61.761 15.0881 61.7439 14.78C61.7225 14.3735 61.6626 13.9712 61.5256 13.5861C61.2902 12.9357 60.8836 12.6533 60.1902 12.6661C59.9933 12.6661 59.7879 12.6832 59.5953 12.7303C59.0988 12.8501 58.598 12.9828 58.1101 13.1325C57.772 13.2352 57.4467 13.3722 57.1471 13.569C56.7234 13.8472 56.5479 14.2366 56.6164 14.7329C56.6848 15.2207 56.8518 15.6743 57.0658 16.1151C57.2199 16.4317 57.4852 16.6115 57.8362 16.6457C57.986 16.6628 58.1443 16.6628 58.2941 16.6457C58.8035 16.6072 59.2957 16.4831 59.7879 16.3633H59.7922ZM56.5008 5.47724C56.5008 5.47724 56.5051 5.49864 56.5094 5.5072C56.3168 5.56282 56.1242 5.61845 55.9358 5.67836C55.8545 5.70404 55.7775 5.74683 55.7004 5.78534C55.2168 6.01641 55.0327 6.34162 55.1055 6.85939C55.174 7.34293 55.3109 7.80935 55.5164 8.25438C55.7347 8.71652 56.0257 8.8834 56.5393 8.84917C56.5864 8.84917 56.6335 8.84917 56.6763 8.83205C57.0957 8.7208 57.5152 8.61382 57.9303 8.49401C58.0588 8.45549 58.1743 8.38703 58.2941 8.32712C58.6965 8.12172 58.8506 7.78795 58.7949 7.35577C58.7264 6.838 58.5809 6.33734 58.3626 5.86664C58.1443 5.4045 57.8405 5.23761 57.3311 5.31036C57.0572 5.34887 56.7833 5.42161 56.5094 5.47724H56.5008Z" fill="white"/>
<path d="M84.1116 10.9117C84.1116 12.3837 84.1116 13.8557 84.1116 15.3277C84.1116 16.0167 84.0388 16.697 83.8847 17.3689C83.5509 18.7895 82.712 19.778 81.3723 20.3514C80.6875 20.6424 79.9727 20.8264 79.2408 20.9547C78.0809 21.1644 76.9168 21.2799 75.7397 21.2885C74.002 21.3013 72.29 21.1173 70.6165 20.6338C70.2398 20.5268 69.876 20.3728 69.5208 20.2016C68.3438 19.6325 67.6119 18.6911 67.2952 17.4288C67.1454 16.8297 67.0854 16.2221 67.0812 15.6059C67.0812 14.519 67.0769 13.4321 67.0726 12.3495C67.0726 10.7448 67.064 9.13587 67.064 7.53121C67.064 7.00488 67.0726 6.47855 67.094 5.95222C67.1154 5.44729 67.1924 4.94663 67.3251 4.45454C67.6632 3.20504 68.4251 2.31927 69.5893 1.75871C70.2912 1.42066 71.0402 1.2281 71.8021 1.08261C73.0176 0.847261 74.2417 0.718888 75.4787 0.714609C77.1864 0.71033 78.8728 0.894331 80.5206 1.36931C80.9015 1.48057 81.2782 1.63034 81.6377 1.8015C82.8618 2.38346 83.6065 3.35481 83.9104 4.67277C84.0517 5.27185 84.103 5.88376 84.1073 6.49567C84.1073 7.96768 84.1073 9.43969 84.1073 10.9117H84.1116ZM73.3001 10.9117C73.3001 11.391 73.3001 11.8702 73.3001 12.3495C73.3001 12.9828 73.3001 13.6161 73.3044 14.2494C73.3044 14.5446 73.3429 14.8356 73.4328 15.118C73.5398 15.4561 73.7623 15.6914 74.109 15.7984C74.1989 15.8284 74.2888 15.8541 74.3787 15.8712C75.239 16.0124 76.095 15.9781 76.9467 15.8155C77.5588 15.6957 77.8841 15.2849 77.9097 14.6602C77.9097 14.5789 77.9097 14.5019 77.9097 14.4206C77.9097 14.1082 77.9055 13.7958 77.9055 13.4792C77.9055 11.7461 77.9097 10.0131 77.9055 8.28005C77.9055 7.92916 77.8755 7.574 77.8241 7.22739C77.7257 6.57697 77.4175 6.27315 76.7712 6.14478C76.6985 6.13194 76.6257 6.11483 76.553 6.11055C76.0607 6.09771 75.5685 6.07632 75.0721 6.08487C74.7254 6.09343 74.383 6.1619 74.0534 6.27315C73.6468 6.41009 73.4157 6.69251 73.3472 7.11186C73.3215 7.27018 73.3044 7.42851 73.3044 7.58684C73.3044 8.69084 73.3044 9.79913 73.3044 10.9031L73.3001 10.9117Z" fill="white"/>
<path d="M30.3838 10.1029C30.5635 10.1586 30.7176 10.2056 30.8674 10.257C32.2114 10.7191 33.0075 11.652 33.2857 13.0384C33.3969 13.5819 33.4184 14.1339 33.4141 14.6901C33.4098 16.2905 33.4141 17.8866 33.4055 19.487C33.4055 19.6796 33.4012 19.8764 33.3627 20.0647C33.2771 20.5225 32.9818 20.7836 32.5153 20.8349C32.404 20.8478 32.2884 20.852 32.1771 20.852C30.9017 20.852 29.6305 20.852 28.355 20.852C28.2352 20.852 28.1153 20.852 27.9955 20.8306C27.5504 20.7579 27.285 20.4883 27.208 20.0433C27.1866 19.9106 27.1737 19.778 27.1737 19.6453C27.1737 18.3445 27.1737 17.0479 27.1737 15.7471C27.1737 15.5802 27.1566 15.4133 27.1224 15.2507C27.0282 14.8185 26.7457 14.5746 26.3049 14.5233C26.1979 14.5104 26.0909 14.5061 25.9839 14.5061C24.824 14.5061 23.6598 14.5147 22.4999 14.5147C22.4357 14.5147 22.3672 14.5147 22.2773 14.5147C22.2773 14.6046 22.273 14.6816 22.273 14.7586C22.273 16.1964 22.273 17.6384 22.273 19.0762C22.273 19.3843 22.2516 19.6881 22.2388 19.9962C22.2388 20.0561 22.226 20.116 22.2131 20.1717C22.1275 20.5696 21.9478 20.7451 21.5411 20.7964C21.2886 20.8264 21.0361 20.8392 20.7836 20.8435C19.5937 20.8478 18.4081 20.852 17.2183 20.8435C17.0642 20.8435 16.9101 20.8264 16.7646 20.7964C16.4093 20.7194 16.191 20.4883 16.1183 20.1374C16.084 19.9705 16.0712 19.7951 16.0712 19.6197C16.0712 17.433 16.0712 15.2464 16.0755 13.0641C16.0755 9.9275 16.0755 6.78665 16.0755 3.65007C16.0755 3.21788 16.0755 2.78569 16.0755 2.34922C16.0755 2.22941 16.0798 2.10959 16.1012 1.98978C16.1868 1.47201 16.4778 1.2067 17.0043 1.16819C17.1969 1.15536 17.3895 1.16391 17.5864 1.16391C19.354 1.16391 21.1217 1.15108 22.8936 1.15963C24.2462 1.16391 25.6029 1.18531 26.9554 1.20243C27.5504 1.21098 28.1367 1.28801 28.7146 1.44206C30.1441 1.82717 31.0386 2.73862 31.411 4.16784C31.5437 4.67277 31.6079 5.18626 31.6293 5.70831C31.6592 6.40581 31.6635 7.10758 31.5779 7.80507C31.518 8.31 31.3554 8.77643 31.0686 9.20006C30.8931 9.46108 30.7005 9.70499 30.5122 9.95746C30.4779 10.0045 30.4394 10.0516 30.3923 10.1158L30.3838 10.1029ZM22.2987 6.31167C22.2987 6.77809 22.2987 7.24451 22.2987 7.71093C22.2987 8.11744 22.2987 8.52396 22.3116 8.93047C22.3201 9.19578 22.4314 9.41401 22.6882 9.51671C23.0734 9.67504 23.48 9.75206 23.8995 9.72639C24.61 9.67931 25.0936 9.31987 25.359 8.66089C25.4917 8.32712 25.5345 7.97623 25.5302 7.62107C25.5302 7.33437 25.5131 7.04767 25.4275 6.76953C25.329 6.4486 25.1193 6.24748 24.7983 6.15762C24.7298 6.13622 24.657 6.11911 24.5843 6.11055C24.2847 6.08915 23.9851 6.06776 23.6855 6.0592C23.2318 6.05064 22.7781 6.0592 22.2987 6.0592V6.31167Z" fill="white"/>
<path d="M91.8885 14.5233C91.8885 14.6131 91.8885 14.6901 91.8885 14.7714C91.8885 16.3034 91.8885 17.8353 91.8842 19.3672C91.8842 19.5983 91.8714 19.8336 91.8457 20.0647C91.7943 20.5354 91.5931 20.7536 91.1223 20.7921C90.6173 20.8306 90.108 20.8306 89.6029 20.8349C88.7341 20.8435 87.8695 20.8392 87.0006 20.8392C86.8594 20.8392 86.7181 20.8392 86.5812 20.8306C86.0804 20.7836 85.7765 20.484 85.7252 19.9877C85.7123 19.8507 85.7123 19.7095 85.7123 19.5683C85.7123 14.8228 85.7123 10.0816 85.7166 5.33603C85.7166 4.35184 85.7166 3.36337 85.7123 2.37918C85.7123 2.2722 85.7123 2.16522 85.7252 2.05825C85.7722 1.51908 86.0847 1.21098 86.624 1.16391C86.7181 1.15536 86.8123 1.15536 86.9022 1.15536C88.7383 1.15536 90.5702 1.1468 92.4064 1.15536C93.7931 1.15964 95.1798 1.18103 96.5709 1.19815C97.1744 1.2067 97.7693 1.27945 98.3514 1.43778C99.7852 1.82717 100.667 2.74718 101.022 4.1764C101.142 4.65138 101.215 5.13064 101.219 5.61845C101.219 6.32878 101.21 7.04339 101.185 7.75372C101.163 8.45977 100.907 9.07596 100.41 9.58945C100.26 9.74778 100.11 9.90611 99.9436 10.0815C100.033 10.1115 100.102 10.1286 100.166 10.1543C100.453 10.2656 100.748 10.3554 101.022 10.4881C102.054 10.9973 102.657 11.8445 102.905 12.9571C103.025 13.5091 103.055 14.0654 103.038 14.626C102.987 16.2435 103.008 17.8609 103.03 19.4827C103.03 19.6796 103.03 19.885 102.991 20.0775C102.905 20.5268 102.631 20.7707 102.173 20.8264C102.062 20.8392 101.947 20.8435 101.835 20.8435C100.594 20.8435 99.3529 20.8435 98.1117 20.8349C97.9277 20.8349 97.7351 20.8306 97.5553 20.7964C97.1615 20.7237 96.9432 20.4669 96.8662 20.0861C96.8448 19.9705 96.8277 19.8464 96.8277 19.7309C96.8277 18.4001 96.8362 17.065 96.8405 15.7342C96.8405 15.6144 96.8362 15.4946 96.8191 15.3748C96.7506 14.8741 96.4425 14.5746 95.9374 14.5147C95.839 14.5019 95.7363 14.4976 95.6378 14.4976C94.4565 14.4976 93.2752 14.5019 92.0939 14.5061C92.034 14.5061 91.9783 14.5147 91.9013 14.519L91.8885 14.5233ZM92.0169 9.52099C92.3208 9.53383 92.599 9.54238 92.8772 9.55522C93.1768 9.57234 93.4764 9.61513 93.7717 9.61513C94.4651 9.61513 94.8974 9.28564 95.0857 8.6181C95.1413 8.4127 95.1756 8.20303 95.1884 7.98907C95.2184 7.58684 95.1713 7.19316 95.0172 6.8166C94.8332 6.37157 94.5121 6.08487 94.0199 6.02925C93.8017 6.00357 93.5834 6.00785 93.3651 6.01213C92.9414 6.02497 92.5134 6.05064 92.0896 6.07632C92.0639 6.07632 92.0425 6.08915 92.0169 6.09343V9.52099Z" fill="white"/>
<path d="M41.2167 6.28599V8.45121C41.2937 8.45121 41.3707 8.45977 41.4478 8.45977C42.9758 8.45977 44.5038 8.45977 46.0317 8.45977C46.3185 8.45977 46.6053 8.47261 46.8878 8.5154C47.2173 8.56247 47.3671 8.72508 47.4142 9.05029C47.4442 9.25568 47.457 9.46108 47.457 9.66648C47.4656 10.5266 47.4656 11.3867 47.4656 12.2468C47.4656 12.3067 47.4656 12.3666 47.457 12.4265C47.4228 12.9443 47.1189 13.2609 46.5967 13.308C46.4383 13.3251 46.2757 13.3208 46.1173 13.3208C44.8034 13.3208 43.4894 13.3208 42.1754 13.3294C41.9357 13.3294 41.696 13.3465 41.4563 13.3636C41.2894 13.3722 41.2124 13.4321 41.191 13.6032C41.1396 14.0183 41.0754 14.4377 41.0626 14.8527C41.0412 15.3919 41.2595 15.6315 41.7987 15.6658C42.3637 15.7 42.933 15.7086 43.4979 15.7086C45.1415 15.7086 46.7808 15.7 48.4243 15.7C48.6169 15.7 48.8138 15.7128 48.9978 15.7556C49.3745 15.8327 49.6099 16.0723 49.6826 16.4488C49.7083 16.5858 49.7212 16.727 49.7212 16.8639C49.7212 17.7882 49.7083 18.7168 49.704 19.6411C49.704 19.7523 49.704 19.8678 49.6955 19.9791C49.6484 20.4798 49.3445 20.7793 48.8437 20.8221C48.7581 20.8306 48.6683 20.8264 48.5827 20.8264C46.8364 20.8264 45.0858 20.8264 43.3396 20.8264C41.1995 20.8264 39.0552 20.8264 36.9152 20.8264C36.6755 20.8264 36.4358 20.8264 36.1961 20.8264C36.1105 20.8264 36.0206 20.8264 35.935 20.8178C35.3872 20.7836 35.0619 20.4712 35.0148 19.9277C35.0063 19.8336 35.0063 19.7395 35.0063 19.6496C35.0063 13.8643 35.0063 8.08321 35.0063 2.29787C35.0063 2.22941 35.0063 2.16522 35.0063 2.09676C35.0362 1.51908 35.3572 1.18959 35.935 1.1468C36.0206 1.14252 36.1105 1.14252 36.1961 1.14252C38.4988 1.14252 40.8015 1.14252 43.1042 1.14252C44.8676 1.14252 46.6267 1.13824 48.3901 1.13824C48.5741 1.13824 48.7667 1.13824 48.9465 1.17247C49.4258 1.25805 49.6784 1.54903 49.704 2.03685C49.7169 2.32355 49.704 2.61025 49.704 2.89695C49.704 3.603 49.704 4.30905 49.7083 5.0151C49.7083 5.12208 49.7083 5.22906 49.7083 5.33603C49.6826 5.90087 49.3745 6.23036 48.8095 6.26032C48.45 6.28171 48.0905 6.26888 47.7309 6.26888C46.2885 6.26888 44.8462 6.26888 43.4081 6.26888C42.7618 6.26888 42.1155 6.26888 41.4649 6.26888C41.3921 6.26888 41.3194 6.26888 41.2209 6.26888L41.2167 6.28599Z" fill="white"/>
<path d="M0.00808459 11.0144C0.00808459 9.67076 -0.000475564 8.32284 0.00808459 6.97921C0.0123647 6.21325 0.0765658 5.44729 0.282009 4.70273C0.517414 3.85547 0.911181 3.10662 1.58315 2.52039C2.18664 1.99406 2.89714 1.69452 3.67183 1.51908C4.20256 1.39926 4.74185 1.36075 5.27686 1.31796C7.21573 1.17247 9.15461 1.17675 11.0978 1.18103C11.8853 1.18103 12.6728 1.19387 13.4604 1.19387C13.593 1.19387 13.7086 1.2281 13.8199 1.29657C14.0082 1.4121 14.1666 1.56615 14.2907 1.75015C14.372 1.86996 14.4063 1.99834 14.4191 2.14383C14.5047 3.14941 14.4662 4.155 14.4533 5.16059C14.4533 5.34031 14.4448 5.52003 14.4234 5.69976C14.3763 6.04636 14.1623 6.26888 13.8285 6.35018C13.6444 6.39725 13.4475 6.41436 13.2549 6.41436C12.0351 6.41436 10.811 6.41009 9.59117 6.41436C8.94916 6.41436 8.31143 6.4272 7.66942 6.4486C7.47682 6.45288 7.28421 6.49139 7.09589 6.53418C6.70212 6.62832 6.4496 6.88079 6.36828 7.27446C6.31264 7.54833 6.2784 7.82647 6.2784 8.10461C6.26983 10.0644 6.26983 12.02 6.2784 13.9798C6.2784 14.2494 6.31264 14.5233 6.364 14.7928C6.44104 15.1737 6.68072 15.4261 7.06165 15.5117C7.34413 15.5759 7.63946 15.6187 7.9305 15.6273C8.85072 15.6444 9.77094 15.6444 10.6912 15.6487C11.5472 15.6487 12.3989 15.6487 13.2549 15.6529C13.4604 15.6529 13.6658 15.6829 13.8713 15.7214C14.1452 15.7727 14.3249 15.9396 14.3806 16.2178C14.4148 16.3804 14.4448 16.5473 14.4448 16.7099C14.4533 17.7625 14.4491 18.8152 14.4491 19.8678C14.4491 19.9406 14.4405 20.0133 14.4277 20.0861C14.3378 20.5825 14.0681 20.8221 13.5631 20.8178C11.6499 20.8092 9.73242 20.805 7.81922 20.775C6.84765 20.7579 5.87179 20.6894 4.90021 20.6295C4.28816 20.591 3.68039 20.4969 3.09402 20.3043C1.61311 19.8165 0.692897 18.7981 0.277729 17.3089C0.0808459 16.6115 0.00808459 15.8968 0.00380451 15.1737C-0.00475564 13.7872 0.00380451 12.4008 0.00380451 11.0187L0.00808459 11.0144Z" fill="white"/>
</svg>
