<svg width="346" height="693" viewBox="0 0 346 693" fill="none" xmlns="http://www.w3.org/2000/svg">
<mask id="mask0_2176_908" style="mask-type:luminance" maskUnits="userSpaceOnUse" x="0" y="0" width="346" height="693">
<path d="M345.894 0H0V692.14H345.894V0Z" fill="white"/>
</mask>
<g mask="url(#mask0_2176_908)">
<path d="M179.195 359.455L198.849 369.033L248.095 452.476L239.344 538.391L198.3 541.67L190.098 541.401C190.098 541.401 87.6328 542.353 88.5948 541.401C89.5568 540.449 92.422 541.401 92.422 541.401H-13.1357C-13.1357 541.401 1.6351 489.962 3.54869 473.277C5.46228 456.593 13.3959 416.387 13.3959 416.387L72.4793 368.764L179.195 359.455Z" fill="#004C93"/>
<path d="M8.80322 444.087L-3.96094 509.387L17.2023 512.304L55.1328 475.46L13.3958 416.366L8.80322 444.087Z" fill="#E93F45"/>
<path d="M6.55862 689.409L5.82422 714.038C5.82422 714.038 62.0113 726.067 134.231 726.067C206.451 726.067 243.306 715.858 243.306 715.858L236.738 654.21L22.9741 652.017L6.55862 689.409Z" fill="#F2C443"/>
<path d="M41.0342 661.781C41.0342 661.781 62.3733 677.1 133.776 677.1C205.179 677.1 232.041 651.386 232.041 651.386L212.843 562.192H89.1842L41.0342 661.781Z" fill="#F2C443"/>
<path d="M208.199 529.081C200.289 534 194.523 541.719 192.053 550.7C189.601 559.716 189.984 569.268 193.149 578.059C193.149 578.059 212.574 627.306 216.402 645.635C220.229 663.964 220.777 677.917 222.97 684.755C225.163 691.592 244.588 724.154 257.994 726.895C271.399 729.636 285.074 721.723 290.546 716.22C296.017 710.717 303.144 703.642 304.23 684.765C305.316 665.888 304.499 657.137 301.768 649.751C299.038 642.366 294.373 611.48 296.297 589.561C298.221 567.643 300.672 555.634 295.748 540.584C290.825 525.534 284.256 524.716 280.15 522.803C276.044 520.889 270.572 522.803 270.572 522.803L208.199 529.081Z" fill="#E93F45"/>
<path d="M92.9486 326.024H177.446C177.446 326.024 179.691 340.278 179.412 351.304C179.133 362.33 178.005 365.423 174.933 368.64C171.861 371.857 171.447 372.281 166.42 374.515C161.393 376.749 152.973 380.411 152.973 380.411C152.973 380.411 138.389 388.593 129.731 389.007C121.073 389.421 101.72 378.042 101.72 377.629C101.72 377.215 89.3076 347.125 89.3076 347.125L92.9486 326.024Z" fill="#E93F45"/>
<path d="M67.1107 217.922L44.6752 225.948C44.6752 225.948 41.572 226.124 41.3962 223.755C41.3289 223.108 41.4275 222.454 41.6826 221.855C41.9378 221.256 42.3411 220.732 42.8547 220.332L44.6752 217.963L53.9845 203.182C53.9845 203.182 47.5921 194.245 36.4726 199.355C25.3531 204.464 26.4392 235.837 33.9177 247.877C41.3962 259.917 47.5921 264.655 56.6739 264.293C61.9781 264.139 67.1438 262.564 71.6309 259.731L76.42 302.047C76.42 302.047 77.6923 309.888 79.1508 312.256C80.6093 314.625 86.3914 317.728 86.3914 317.728L93.6941 315.908L92.5976 319.921C92.5976 319.921 113.202 327.772 143.851 325.031C174.499 322.29 178.875 311.708 178.875 311.708L180.147 307.695L186.26 258.407L188.267 260.6L190.822 262.244C190.822 262.244 190.997 257.859 194.649 257.859C198.3 257.859 197.752 264.799 197.752 264.799C197.752 264.799 205.779 266.62 214.302 259.69C222.825 252.759 227.635 243.822 230.18 225.4C232.724 206.978 225.246 199.541 217.953 197.855C210.661 196.169 204.279 203.875 204.279 203.875L215.585 220.104C215.585 220.104 218.688 223.021 216.309 225.028C213.93 227.034 208.654 223.021 208.654 223.021L190.956 217.735L188.401 221.749L187.863 231.782L150.471 224.666L144.999 224.49C144.999 224.49 146.271 211.54 129.68 211.54C113.089 211.54 111.62 223.207 111.62 223.207L71.8585 231.596L69.8518 219.018L67.1107 217.922Z" fill="#06EEF4"/>
<path d="M93.1984 253.483C98.3341 253.483 102.497 249.32 102.497 244.184C102.497 239.049 98.3341 234.885 93.1984 234.885C88.0627 234.885 83.8994 239.049 83.8994 244.184C83.8994 249.32 88.0627 253.483 93.1984 253.483Z" fill="white"/>
<path d="M165.79 253.483C170.926 253.483 175.089 249.32 175.089 244.184C175.089 239.049 170.926 234.885 165.79 234.885C160.655 234.885 156.491 239.049 156.491 244.184C156.491 249.32 160.655 253.483 165.79 253.483Z" fill="white"/>
<path d="M274.957 456.313C274.957 456.313 286.17 490.51 289.18 504.463C292.19 518.417 294.652 535.102 294.652 535.102L295.748 540.573C295.748 540.573 291.373 525.254 283.16 523.341C274.947 521.427 270.571 522.793 270.571 522.793L262.917 508.57L274.957 456.313Z" fill="#E93F45"/>
<path d="M31.725 492.692C27.8173 493.093 24.0473 494.356 20.6878 496.392C17.3283 498.428 14.4631 501.185 12.2995 504.463C4.9141 515.676 0.269768 530.178 -0.27845 535.929C-0.826668 541.68 -12.3392 538.66 -12.3392 539.477C-12.3392 540.294 -19.4557 560.547 -29.034 576.963C-38.6123 593.378 -39.957 627.874 -41.5913 640.163C-43.2256 652.451 -44.8806 681.538 -22.9726 692.512C-7.58112 700.208 0.817986 693.236 6.57944 689.409C12.3409 685.582 27.6496 675.962 35.304 664.512C42.9583 653.061 50.0645 633.874 56.3534 623.737C62.6424 613.6 89.4534 581.059 96.5698 569.298C103.686 557.537 111.62 551.786 112.437 539.746C113.254 527.706 112.985 523.33 107.793 518.676C104.755 515.922 100.925 514.199 96.8491 513.752L31.725 492.692Z" fill="#E93F45"/>
<path d="M73.3164 216.091C73.3164 216.091 98.8447 211.167 108.154 210.991C108.154 210.991 109.613 224.117 93.7453 226.672C77.878 229.227 73.3164 216.091 73.3164 216.091Z" fill="white"/>
<path d="M161.26 469.874C161.467 470.484 163.122 490.044 163.122 490.044L206.565 507.556L205.448 488.844L161.26 469.874Z" fill="#07F29C"/>
<path d="M149.374 211.353C149.374 211.353 173.082 213.36 183.663 216.463C183.663 216.463 180.198 230.5 165.241 227.407C150.284 224.314 149.374 211.353 149.374 211.353Z" fill="white"/>
<path d="M264.014 502.819C264.014 502.819 269.486 503.098 271.399 507.991C273.313 512.883 274.958 527.416 274.958 527.416L276.323 544.09C276.323 544.09 269.486 543.542 265.1 546.831C260.714 550.121 257.446 559.689 257.446 559.689C257.446 559.689 252.791 553.669 242.965 554.765C233.138 555.861 230.107 562.15 230.107 562.15C230.107 562.15 224.935 555.851 218.884 553.389C212.833 550.927 211.499 552.355 211.499 552.355C211.499 552.355 206.327 543.046 207.361 537.305C208.396 531.564 264.014 502.819 264.014 502.819Z" fill="#E93F45"/>
<mask id="mask1_2176_908" style="mask-type:luminance" maskUnits="userSpaceOnUse" x="207" y="502" width="70" height="61">
<path d="M264.014 502.819C264.014 502.819 269.486 503.098 271.399 507.991C273.313 512.883 274.958 527.416 274.958 527.416L276.323 544.09C276.323 544.09 269.486 543.542 265.1 546.831C260.714 550.121 257.446 559.689 257.446 559.689C257.446 559.689 252.791 553.669 242.965 554.765C233.138 555.861 230.107 562.15 230.107 562.15C230.107 562.15 224.935 555.851 218.884 553.389C212.833 550.927 211.499 552.355 211.499 552.355C211.499 552.355 206.327 543.046 207.361 537.305C208.396 531.564 264.014 502.819 264.014 502.819Z" fill="white"/>
</mask>
<g mask="url(#mask1_2176_908)">
<path d="M264.52 516.752C264.52 516.752 264.52 521.365 265.078 531.181C265.637 540.998 265.999 546.562 265.999 546.562" stroke="#991922" stroke-width="1.6" stroke-linecap="round" stroke-linejoin="round"/>
<path d="M256.225 523.372L257.331 557.951" stroke="#991922" stroke-width="1.6" stroke-linecap="round" stroke-linejoin="round"/>
<path d="M246.749 526.661V555.21" stroke="#991922" stroke-width="1.6" stroke-linecap="round" stroke-linejoin="round"/>
<path d="M236.261 523.744L235.972 558.706" stroke="#991922" stroke-width="1.6" stroke-linecap="round" stroke-linejoin="round"/>
<path d="M227.82 520.248L226.072 558.996" stroke="#991922" stroke-width="1.6" stroke-linecap="round" stroke-linejoin="round"/>
<path d="M222.628 518.045C222.628 518.045 221.449 524.354 219.949 533.943C219.036 540.114 218.453 546.329 218.201 552.562" stroke="#991922" stroke-width="1.6" stroke-linecap="round" stroke-linejoin="round"/>
<path d="M217.415 513.411C215.565 518.467 214.18 523.681 213.278 528.988C212.011 535.873 211.141 542.826 210.671 549.81" stroke="#991922" stroke-width="1.6" stroke-linecap="round" stroke-linejoin="round"/>
</g>
<path d="M65.8383 186.725L42.8545 220.332C42.8545 220.332 88.4496 205.013 130.59 205.013C172.73 205.013 215.584 220.145 215.584 220.145L192.052 186.549C192.052 186.549 167.062 179.071 131.138 179.795C109.216 180.273 87.3725 182.591 65.8383 186.725Z" fill="#004C93"/>
<path d="M97.9345 486.403C97.9345 486.403 100.396 496.251 99.8481 505.022C99.2999 513.794 98.4827 522.255 97.1174 526.082C95.752 529.909 88.9044 537.026 88.9044 537.026C88.9044 537.026 83.1637 534.015 78.7883 534.564C74.4129 535.112 67.8446 539.736 67.8446 539.736C67.8446 539.736 64.5553 529.609 57.7181 526.599C50.8809 523.589 42.9473 526.878 42.9473 526.878C42.9473 526.878 46.2262 513.742 38.0237 509.087C29.8211 504.432 32.0036 506.087 32.0036 506.087C32.0036 506.087 29.8107 500.067 31.4554 496.23C33.1 492.392 35.2826 486.383 35.2826 486.383L97.9345 486.403Z" fill="#E93F45"/>
<mask id="mask2_2176_908" style="mask-type:luminance" maskUnits="userSpaceOnUse" x="30" y="486" width="70" height="54">
<path d="M97.9345 486.403C97.9345 486.403 100.396 496.251 99.8481 505.022C99.2999 513.794 98.4827 522.255 97.1174 526.082C95.752 529.909 88.9044 537.026 88.9044 537.026C88.9044 537.026 83.1637 534.015 78.7883 534.564C74.4129 535.112 67.8446 539.736 67.8446 539.736C67.8446 539.736 64.5553 529.609 57.7181 526.599C50.8809 523.589 42.9473 526.878 42.9473 526.878C42.9473 526.878 46.2262 513.742 38.0237 509.087C29.8211 504.432 32.0036 506.087 32.0036 506.087C32.0036 506.087 29.8107 500.067 31.4554 496.23C33.1 492.392 35.2826 486.383 35.2826 486.383L97.9345 486.403Z" fill="white"/>
</mask>
<g mask="url(#mask2_2176_908)">
<path d="M39.3574 483.259L36.4404 508.022" stroke="#991922" stroke-width="2" stroke-miterlimit="10"/>
<path d="M45.4709 493.158L43.1436 521.706" stroke="#991922" stroke-width="2" stroke-miterlimit="10"/>
<path d="M53.921 491.12L50.4248 526.951" stroke="#991922" stroke-width="2" stroke-miterlimit="10"/>
<path d="M62.6615 498.702L60.0342 531.326" stroke="#991922" stroke-width="2" stroke-miterlimit="10"/>
<path d="M70.5229 503.646L69.0645 542.394" stroke="#991922" stroke-width="2" stroke-miterlimit="10"/>
<path d="M79.5534 505.984L78.6846 536.27" stroke="#991922" stroke-width="2" stroke-miterlimit="10"/>
<path d="M89.4515 501.898L88.293 535.981" stroke="#991922" stroke-width="2" stroke-miterlimit="10"/>
<path d="M97.0341 489.372L96.1445 526.961" stroke="#991922" stroke-width="2" stroke-miterlimit="10"/>
</g>
<path d="M148.257 332.737V417.649C148.257 417.649 147.844 421.559 149.799 421.559C151.753 421.559 152.126 418.207 152.126 418.207V332.458C152.073 331.946 151.853 331.466 151.5 331.091C151.146 330.717 150.679 330.47 150.171 330.389C148.402 330.079 148.257 332.737 148.257 332.737Z" fill="#F2C443"/>
<path d="M106.013 332.737V417.649C106.013 417.649 105.589 421.559 107.554 421.559C109.52 421.559 109.923 418.207 109.923 418.207V332.458C109.87 331.946 109.65 331.466 109.297 331.091C108.943 330.717 108.476 330.47 107.968 330.389C106.158 330.079 106.013 332.737 106.013 332.737Z" fill="#F2C443"/>
<path d="M46.8684 224.117C46.8684 224.117 86.2676 209.895 131.139 209.895C176.01 209.895 209.927 223.569 209.927 223.569C209.927 223.569 214.302 227.583 216.309 225.028C218.316 222.473 217.592 221.749 213.392 219.928C209.192 218.108 169.804 204.816 126.939 204.816C84.0748 204.816 42.855 220.332 42.855 220.332C42.855 220.332 40.6621 222.152 41.3965 223.797C42.131 225.441 44.6755 225.99 44.6755 225.99L46.8684 224.117Z" fill="#F2C443"/>
<path d="M20.4197 348.79C20.2129 343.225 21.4541 331.496 21.4541 331.496L93.7568 315.866C93.7568 315.866 90.7467 330.348 92.0397 342.977C93.3327 355.607 58.526 375.974 58.526 375.974C58.526 375.974 24.9606 371.236 24.7538 370.409C24.5469 369.581 21.8679 358.876 21.4541 354.966C21.2564 352.885 20.9107 350.822 20.4197 348.79Z" fill="#07F29C"/>
<path d="M66.3871 167.579C66.3871 168.127 65.8389 186.725 65.8389 186.725C65.8389 186.725 84.9851 179.246 131.139 179.795C177.292 180.343 192.053 186.549 192.053 186.549L192.601 171.033L152.478 142.216L67.8455 144.409L66.3871 167.579Z" fill="#D33A4D"/>
<path d="M56.1362 346.66L6.20706 383.007C6.20706 383.007 -2.53339 386.928 0.455947 398.885C0.455947 398.885 3.68319 405.329 5.9795 411.298C8.2758 417.266 12.1857 427.403 13.1167 434.767C13.9552 441.773 15.654 448.648 18.1747 455.238C20.2435 460.068 31.9733 469.502 42.9997 478.708C54.0261 487.914 78.427 503.326 81.6542 504.701C84.8814 506.077 87.8604 507.008 87.8604 507.008C87.8604 507.008 97.5215 496.882 97.2939 482.39C97.0057 473.438 93.8634 464.812 88.3259 457.772L90.8498 445.359C90.8498 445.359 105.331 438.688 110.182 427.413C115.033 416.138 112.706 411.535 110.865 409.694C109.024 407.853 104.193 410.853 104.193 410.853L77.9925 423.731C77.9925 423.731 100.749 402.795 105.827 392.213C110.906 381.632 107.669 376.574 106.521 373.812C105.372 371.05 101.225 369.436 101.225 369.436L98.4628 370.357C98.4628 370.357 106.055 361.617 101.69 351.035C97.3249 340.453 94.7804 341.602 92.029 342.977C89.2775 344.353 64.4215 364.378 64.4215 364.378C64.4215 364.378 65.7973 356.559 64.6491 351.263C63.501 345.967 62.8079 346.204 60.2737 345.284C59.5273 345.044 58.7241 345.049 57.9802 345.296C57.2364 345.543 56.5906 346.021 56.1362 346.66Z" fill="#06EEF4"/>
<path d="M210.051 390.6L183.157 382.552C181.288 382.743 179.501 383.416 177.969 384.503C176.437 385.591 175.213 387.057 174.417 388.759C170.507 396.816 178.792 403.023 178.792 403.023C178.792 403.023 161.073 397.044 157.619 397.271C157.619 397.271 148.423 399.34 147.275 406.477C146.904 408.479 147.046 410.542 147.688 412.474C148.331 414.406 149.452 416.143 150.947 417.524L167.497 427.868L159.439 426.482C157.326 426.259 155.204 426.813 153.469 428.041C151.735 429.269 150.507 431.086 150.016 433.154C147.947 440.746 152.312 443.053 154.153 444.884C156.116 446.63 158.189 448.247 160.36 449.724L168.417 452.941C168.417 452.941 162.666 454.317 160.598 459.841C158.529 465.364 163.587 471.115 163.587 471.115C163.587 471.115 173.931 478.252 184.057 482.162C191.062 484.78 198.207 487.007 205.458 488.834C205.458 488.834 209.368 506.78 220.177 514.6C230.987 522.42 232.59 521.044 232.59 521.044C232.59 521.044 236.727 528.864 248.24 526.103C259.753 523.341 261.118 518.738 261.118 518.738L272.858 463.295C272.858 463.295 279.292 437.291 277.223 430.392C275.154 423.493 272.393 420.503 272.393 420.503L225.691 428.551L213.495 393.589L212.12 391.52L210.051 390.6Z" fill="#06EEF4"/>
<path d="M64.69 311.729L5.58594 326.758L7.03406 336.843C7.03406 336.843 12.3818 352.7 16.0952 360.531C19.8086 368.361 22.3014 369.995 22.3014 369.995L24.7735 367.533C24.7735 367.533 20.0361 352.493 20.243 345.294C20.3978 340.675 20.8088 336.069 21.4739 331.496L66.5725 322.021L64.69 311.729Z" fill="#07F29C"/>
<path d="M-7.79883 341.581L5.18255 338.498L24.7425 370.409L16.302 374.526L-2.02703 352.907L-7.79883 341.581Z" fill="#07F29C"/>
<path d="M106.903 393.889C107.524 394.303 134.697 425.189 134.697 425.189C134.697 425.189 128.729 436.712 112.251 447.014C95.7735 457.317 88.3467 457.782 88.3467 457.782C88.3467 457.782 92.0808 447.014 92.8979 446.601C93.7151 446.187 105.879 438.905 110.203 427.413C114.527 415.921 112.613 411.515 110.886 409.694C109.158 407.874 104.214 410.853 104.214 410.853L93.1048 416.128L106.903 393.889Z" fill="#07F29C"/>
<path d="M127.498 437.746L130.994 442.484C124.724 449.154 116.856 454.113 108.134 456.893C93.7254 461.423 91.0464 461.03 91.0464 461.03L88.3467 457.793C95.209 456.498 101.735 453.816 107.524 449.911C116.833 443.518 125.636 436.526 125.636 436.526L127.498 437.746Z" fill="#07F29C"/>
<path d="M5.18255 338.498C4.97567 338.085 -7.79883 341.602 -7.79883 341.602C-4.0083 349.05 0.546771 356.083 5.79283 362.589C14.4402 373.295 16.3021 374.526 16.3021 374.526C16.3021 374.526 22.5083 370.616 22.2704 369.995C22.0325 369.374 5.18255 338.498 5.18255 338.498Z" fill="#00AA6A"/>
<path d="M90.4258 458.755L91.0464 461.02C91.0464 461.02 101.39 461.423 113.699 454.224C126.008 447.025 130.994 442.484 130.994 442.484C130.994 442.484 125.822 435.067 125.636 436.516C125.45 437.964 110.606 448.245 102.787 452.776C98.868 455.161 94.7286 457.164 90.4258 458.755Z" fill="#00AA6A"/>
<path d="M196.48 385.242L254.953 376.791C254.953 376.791 267.52 358.876 266.9 358.876C266.279 358.876 260.931 359.289 260.931 359.289L262.162 355.586L261.955 351.676L199.562 358.265L198.528 360.117H193.997L187.408 382.976L196.48 385.242Z" fill="#00AA6A"/>
<path d="M196.479 385.242L211.354 391.003L227.366 427.847L284.194 413.646C284.194 413.646 280.057 399.433 271.016 389.348C261.976 379.263 254.953 376.781 254.953 376.781L196.479 385.242Z" fill="#07F29C"/>
<path d="M187.418 382.976L185.153 382.563C185.153 382.563 190.708 351.469 184.946 338.498C184.946 338.498 203.886 336.233 215.626 333.554C227.366 330.875 233.541 329.024 236.634 327.782C238.679 326.945 240.672 325.984 242.602 324.907C244.692 329.291 245.881 334.05 246.098 338.902C246.305 346.525 246.098 353.528 246.098 353.528L199.552 358.265L198.517 360.117H193.987L187.418 382.976Z" fill="#07F29C"/>
<path d="M157.556 451.338L141.906 486.962L173.62 497.875L167.652 492.31L163.121 490.044L159.822 452.362L157.556 451.338Z" fill="#00AA6A"/>
<path d="M134.065 327.565C131.479 326.117 126.007 326.944 126.007 326.944C126.007 326.944 121.249 327.669 120.215 331.692C119.181 335.716 122.284 338.829 122.284 338.829V366.82H136.237V338.25C136.237 338.25 137.882 334.216 137.882 332.147C137.882 330.079 136.61 329.013 134.065 327.565ZM133.548 343.681C133.445 346.68 132.514 347.301 131.066 348.128C130.101 348.55 129.03 348.667 127.997 348.464C126.963 348.26 126.017 347.746 125.283 346.991C123.939 345.336 124.559 336.347 124.559 336.347L126.214 335.83L126.628 341.198L131.272 341.302L131.376 335.933L133.445 336.037C133.445 336.037 133.652 340.681 133.507 343.681H133.548ZM133.103 364.647H125.087V355.959H133.103V364.647Z" fill="white"/>
<path d="M126.836 342.388V415.952L131.17 420.286V342.439L126.836 342.388Z" fill="white"/>
<path d="M126.732 435.316L131.79 430.671L130.994 442.484L126.318 436.867L126.732 435.316Z" fill="white"/>
<path d="M127.145 446.373L131.479 443.477V540.708H126.938C126.938 540.708 127.145 446.27 127.145 446.373Z" fill="white"/>
<path d="M148.123 336.181C148.123 336.181 145.02 335.768 145.33 331.992C145.343 331.333 145.503 330.685 145.799 330.096C146.096 329.507 146.521 328.992 147.044 328.59C147.566 328.187 148.173 327.908 148.818 327.772C149.463 327.635 150.131 327.646 150.771 327.803C152.726 328.227 154.681 329.344 154.547 332.137C154.522 332.931 154.335 333.712 153.999 334.432C153.663 335.153 153.184 335.797 152.592 336.326C152.592 336.326 152.871 330.461 150.213 330.317C147.554 330.172 148.123 336.181 148.123 336.181Z" fill="white"/>
<path d="M105.879 336.181C105.879 336.181 102.776 335.768 103.076 331.992C103.09 331.332 103.251 330.684 103.549 330.095C103.847 329.506 104.273 328.992 104.797 328.59C105.32 328.188 105.927 327.908 106.572 327.772C107.218 327.636 107.886 327.646 108.527 327.803C110.482 328.227 112.437 329.344 112.303 332.137C112.278 332.931 112.091 333.712 111.755 334.432C111.419 335.153 110.94 335.797 110.348 336.326C110.348 336.326 110.627 330.461 107.969 330.317C105.31 330.172 105.879 336.181 105.879 336.181Z" fill="white"/>
<path d="M106.965 564.105H189.591C189.531 560.278 190.18 556.473 191.505 552.882C193.697 547.142 195.88 541.67 195.88 541.67H112.437C112.437 541.67 109.975 549.055 108.3 551.248C106.624 553.441 103.376 560.826 103.376 560.826L106.965 564.105Z" fill="#F2C443"/>
<path d="M112.738 211.022H108.476C108.476 211.022 106.945 225.772 92.195 227.303C77.4448 228.834 74.1348 216.608 74.1348 216.608L68.7871 218.387L69.3043 234.409C69.3043 234.409 87.1162 227.572 113.369 225.4L112.738 211.022Z" fill="black"/>
<path d="M83.8574 214.984C84.71 216.466 85.9598 217.68 87.4658 218.49C88.9718 219.3 90.6741 219.673 92.3806 219.566C97.9766 219.049 98.3593 212.326 98.3593 212.326C98.3593 212.326 85.6469 214.343 83.8574 214.984Z" fill="black"/>
<path d="M145.826 211.022H150.057C150.057 211.022 151.588 225.772 166.338 227.303C181.088 228.834 184.398 216.618 184.398 216.618L189.746 218.397L188.401 234.42C188.401 234.42 171.416 227.583 145.164 225.41L145.826 211.022Z" fill="black"/>
<path d="M174.696 214.984C173.844 216.466 172.594 217.68 171.088 218.49C169.582 219.3 167.88 219.673 166.173 219.566C160.577 219.049 160.194 212.326 160.194 212.326C160.194 212.326 172.917 214.343 174.696 214.984Z" fill="black"/>
<path d="M114.216 225.007C114.216 225.007 112.551 211.912 129.287 212.419V209.988L112.737 211.022L114.216 225.007Z" fill="black"/>
<path d="M144.348 225.007C144.348 225.007 146.013 211.912 129.287 212.419V209.988L145.837 211.022L144.348 225.007Z" fill="black"/>
<path d="M115.106 251.725C115.106 251.725 117.63 257.828 129.236 257.828C140.842 257.828 143.438 251.363 143.438 251.363L115.106 251.725Z" fill="black"/>
<path d="M129.287 275.619C129.287 275.619 132.473 278.515 138.503 276.033C143.251 274.067 141.813 270.344 141.813 270.344L129.287 275.619Z" fill="black"/>
<path d="M108.113 395.492C105.325 404.973 99.0398 413.04 90.529 418.062L77.7959 424L95.1734 406.415L106.303 393.206L108.113 395.492Z" fill="black"/>
<path d="M114.103 419.966C113.625 424.405 112.258 428.702 110.082 432.601C107.907 436.501 104.968 439.921 101.442 442.66C89.0293 452.476 89.4638 450.842 89.4638 450.842L90.0637 445.825C90.0637 445.825 102.145 439.412 107.648 432.833C110.801 429.124 113.015 424.711 114.103 419.966Z" fill="black"/>
<path d="M93.0423 445.659C93.4584 449.521 93.1069 453.426 92.0079 457.151L89.5565 458.186L88.0566 456.582L89.9806 449.042L93.0423 445.659Z" fill="black"/>
<path d="M126.991 438.491C126.991 438.491 106.458 455.227 90.0637 458.703L89.0293 458.165C93.7044 456.867 98.1825 454.943 102.342 452.445C109.458 448.225 119.833 441.481 121.167 440.519C122.564 439.393 123.903 438.199 125.181 436.94L126.991 438.491Z" fill="black"/>
<path d="M90.4663 458.01L93.0419 460.254L90.9007 460.73L89.5664 458.217L90.4663 458.01Z" fill="black"/>
<path d="M65.6629 353.114C65.6629 353.114 68.6522 359.765 66.5111 363.116L64.1113 364.74C64.1113 364.74 65.8801 354.666 65.6629 353.114Z" fill="black"/>
<path d="M2.81445 339.016C2.94892 339.274 8.08975 358.42 21.7124 370.367L22.7468 369.923C22.7468 369.923 18.5059 363.437 14.8442 358.358C11.1825 353.28 7.20019 337.857 7.20019 337.857L2.81445 339.016Z" fill="black"/>
<path d="M21.2979 358.348C21.2979 358.348 23.0459 368.268 23.439 369.457L24.5975 368.578L21.2979 358.348Z" fill="black"/>
<path d="M211.086 390.879L223.591 434.561C223.686 434.895 223.905 435.18 224.203 435.359C224.501 435.538 224.855 435.596 225.195 435.523L275.021 424.931C275.021 424.931 273.024 418.507 269.983 417.204L227.677 426.234L211.086 390.879Z" fill="black"/>
<path d="M186.964 356.134L183.229 356.827C184.054 360.979 184.521 365.194 184.626 369.426C184.533 374.598 183.933 382.108 183.933 382.108L185.753 382.459L186.964 356.134Z" fill="black"/>
<path d="M131.169 342.367H127.229V344.601H131.169V342.367Z" fill="black"/>
<path d="M131.551 367.73H126.752V370.398H131.551V367.73Z" fill="black"/>
<path d="M131.335 356.321H126.535V358.989H131.335V356.321Z" fill="black"/>
<path d="M160.401 450.097C160.401 450.231 160.681 458.424 160.681 458.424C161.605 456.809 163.129 455.623 164.922 455.124C168.221 453.955 169.99 453.169 169.99 453.169L160.401 450.097Z" fill="black"/>
<path d="M158.073 448.928L159.056 462.52L161.104 458.424L160.214 449.673L158.073 448.928Z" fill="black"/>
<path d="M163.194 426.813L163.525 425.603L166.732 427.796L163.194 426.813Z" fill="black"/>
<path d="M161.29 468.902C161.29 468.902 159.563 473.97 166.783 478.211C174.003 482.452 202.396 489.589 205.23 489.527L205.096 488.731C205.096 488.731 191.732 485.007 183.726 482.069C175.72 479.132 170.279 474.953 166.783 472.76C164.845 471.634 163.007 470.343 161.29 468.902Z" fill="black"/>
<path d="M164.59 491.43L164.735 495.061L184.75 502.229L184.977 499.209L164.59 491.43Z" fill="black"/>
<path d="M156.262 486.31L156.025 489.475C156.012 489.649 156.058 489.822 156.155 489.967C156.253 490.111 156.396 490.219 156.562 490.272L165.665 493.292L165.758 491.617L162.727 490.179L162.076 487.241L156.262 486.31Z" fill="black"/>
<path d="M101.535 562.999H189.426L189.87 565.791H99.6318L101.535 562.999Z" fill="black"/>
<path d="M34.7966 664.45C34.7966 664.45 41.4476 655.978 43.2681 651.665C45.0886 647.352 53.6118 625.506 62.0834 615.048C70.5549 604.591 79.6677 590.751 87.8599 581.659C96.0522 572.566 106.055 556.503 106.055 556.503C106.055 556.503 115.023 562.223 109.913 579.911C105.217 596.192 75.4164 616.9 62.8281 632.984C53.0326 645.459 44.3852 662.081 44.3852 662.081C44.3852 662.081 37.4446 697.757 6.59961 705.452L6.86855 689.192C6.86855 689.192 19.281 681.207 23.946 677.08C27.887 673.625 34.7966 664.45 34.7966 664.45Z" fill="black"/>
<path d="M190.397 568.036C190.397 568.036 184.274 570.105 184.253 579.88C184.253 593.678 205.737 620.334 216.318 657.995C218.294 665.019 221.49 675.58 221.49 675.58C221.49 675.58 219.37 663.167 218.873 657.147C218.116 648.737 216.316 640.454 213.515 632.488C210.309 623.592 190.397 568.036 190.397 568.036Z" fill="black"/>
<path d="M34.208 488.596C34.208 488.596 56.9642 508.425 88.1402 508.249C88.1402 508.249 63.5532 494.44 53.9128 487.831C44.2725 481.221 37.3111 475.336 37.3111 475.336L34.208 488.596Z" fill="black"/>
<path d="M220.321 672.673C220.321 672.673 220.601 697.043 229.31 711.979C236.426 724.216 240.316 729.005 240.316 729.005L251.425 727.619L250.608 723.906C250.608 723.906 248.539 719.913 240.409 711.783C232.279 703.653 227.489 693.878 225.566 690.433C223.642 686.989 220.321 672.673 220.321 672.673Z" fill="black"/>
<path d="M232.807 521.893C232.807 521.893 226.518 541.328 207.269 540.067C207.42 534.745 208.166 529.458 209.492 524.303C210.61 519.484 212.437 514.859 214.913 510.577C214.913 510.577 221.781 518.024 225.07 519.276C227.213 520.059 229.463 520.516 231.742 520.631L232.807 521.893Z" fill="black"/>
<path d="M109.943 144.088C109.943 144.088 108.123 167.03 100.406 180.901L89.3594 182.163C89.3594 182.163 102.217 163.71 105.185 155.683C108.154 147.657 109.943 144.088 109.943 144.088Z" fill="black"/>
<path d="M74.5479 181.543C74.5479 181.543 76.8028 190.397 86.4225 185.815C94.0872 182.174 97.1489 170.537 97.1489 170.537H96.8489C96.8489 170.537 89.7324 179.164 85.9259 180.943C83.3257 182.156 80.5164 182.859 77.651 183.012C76.6166 183.022 74.5479 181.543 74.5479 181.543Z" fill="black"/>
<path d="M138.399 143.374C138.399 143.374 161.507 155.301 169.306 167.651C176.878 179.639 185.856 182.008 192.011 175.223L191.545 165.913C191.545 165.913 188.701 172.223 182.236 171.427C175.771 170.63 169.472 161.021 169.472 161.021C169.472 161.021 158.27 152.829 152.436 149.353C148.437 147.036 144.29 144.984 140.023 143.209L138.399 143.374Z" fill="black"/>
<path d="M67.0898 169.978C67.6044 170.919 68.3699 171.699 69.3013 172.23C70.2327 172.762 71.2934 173.024 72.3651 172.988L72.6858 169.006L67.1933 167.175L67.0898 169.978Z" fill="black"/>
<path d="M138.792 325.714C138.792 325.714 154.659 323.707 163.42 320.79C172.182 317.873 175.45 315.68 175.45 315.68L175.088 325.9L138.792 325.714Z" fill="black"/>
<path d="M82.9776 316.415L82.8018 318.421L85.5325 317.325L82.9776 316.415Z" fill="black"/>
<path d="M92.8353 320.79L92.2871 326.076L119.646 325.527C119.646 325.527 100.676 323.159 98.3382 322.062C96.5822 321.351 94.7251 320.922 92.8353 320.79Z" fill="black"/>
<path d="M68.0518 220.197L68.5586 261.52L71.8479 259.741L68.0518 220.197Z" fill="black"/>
<path d="M189.726 219.442V261.52L186.437 259.741L189.726 219.442Z" fill="black"/>
<path d="M124.373 112.488C124.996 113.929 126.017 115.163 127.315 116.046C128.614 116.929 130.137 117.424 131.707 117.474C150.77 118.105 158.755 120.577 169.803 124.052C171.375 124.549 172.988 125.087 174.695 125.573C185.122 128.738 204.868 148.184 209.46 151.939C211.16 153.331 213.343 153.991 215.529 153.774C217.715 153.557 219.726 152.48 221.118 150.78C222.51 149.081 223.17 146.898 222.953 144.712C222.736 142.526 221.659 140.515 219.959 139.123C219.183 138.492 196.613 116.139 179.505 109.716C177.891 109.106 176.278 108.682 174.747 108.247C163.369 104.689 153.563 101.617 132.244 100.913C131.156 100.876 130.071 101.054 129.051 101.437C128.032 101.82 127.098 102.401 126.303 103.145C125.508 103.89 124.868 104.785 124.42 105.777C123.972 106.77 123.724 107.841 123.69 108.93C123.649 110.152 123.882 111.368 124.373 112.488Z" fill="url(#paint0_linear_2176_908)" stroke="black" stroke-width="1.6" stroke-linecap="round" stroke-linejoin="round"/>
<path d="M130.125 126.514C132.141 126.515 134.088 125.78 135.6 124.446C137.112 123.113 138.085 121.274 138.337 119.273C140.107 107.282 142.706 95.4268 146.116 83.7945C151.877 63.8932 169.327 50.136 169.503 49.9912C170.395 49.3378 171.147 48.5123 171.715 47.5634C172.282 46.6145 172.654 45.5615 172.808 44.4666C172.961 43.3716 172.894 42.257 172.61 41.1885C172.326 40.1199 171.83 39.1192 171.153 38.2454C170.475 37.3716 169.63 36.6424 168.666 36.1009C167.701 35.5595 166.639 35.2167 165.54 35.0928C164.441 34.969 163.329 35.0665 162.269 35.3798C161.208 35.6931 160.221 36.2157 159.366 36.9167C158.477 37.6098 137.469 54.1804 130.228 79.1812C126.574 91.6372 123.809 104.337 121.953 117.184C121.808 118.267 121.879 119.369 122.162 120.425C122.445 121.48 122.934 122.469 123.602 123.335C124.269 124.201 125.102 124.925 126.051 125.467C127 126.01 128.047 126.358 129.132 126.493C129.462 126.523 129.793 126.53 130.125 126.514Z" fill="url(#paint1_linear_2176_908)" stroke="black" stroke-width="1.6" stroke-linecap="round" stroke-linejoin="round"/>
<path d="M125.636 39.4406C125.636 39.4406 135.979 85.7495 133.818 116.874L125.636 39.4406Z" fill="white"/>
<path d="M125.636 39.4406C125.636 39.4406 135.979 85.7495 133.818 116.874" stroke="black" stroke-width="1.6" stroke-linecap="round" stroke-linejoin="round"/>
<path d="M133.383 125.169H133.228C132.143 125.093 131.084 124.804 130.111 124.318C129.137 123.833 128.27 123.16 127.557 122.338C126.844 121.517 126.3 120.563 125.956 119.531C125.612 118.5 125.475 117.41 125.553 116.326C127.621 86.7631 117.65 41.7473 117.557 41.3025C117.075 39.1599 117.465 36.9139 118.639 35.0585C119.814 33.203 121.678 31.8902 123.82 31.4087C125.963 30.9273 128.209 31.3166 130.064 32.4912C131.92 33.6658 133.232 35.5293 133.714 37.6718C134.159 39.6061 144.358 85.5322 142.082 117.494C141.928 119.659 140.93 121.676 139.303 123.112C137.675 124.547 135.55 125.286 133.383 125.169Z" fill="url(#paint2_linear_2176_908)" stroke="black" stroke-width="1.6" stroke-linecap="round" stroke-linejoin="round"/>
<path d="M136.611 120.784C138.069 121.364 139.662 121.517 141.204 121.226C142.746 120.935 144.174 120.211 145.32 119.139C159.294 106.116 166.711 102.248 176.951 96.8897L181.492 94.5106C191.112 89.3387 208.541 86.7528 214.447 86.1736C216.633 85.9596 218.645 84.8858 220.04 83.1885C221.435 81.4911 222.098 79.3092 221.884 77.1228C221.67 74.9364 220.596 72.9245 218.899 71.5298C217.202 70.135 215.02 69.4717 212.833 69.6857C211.799 69.7788 188.215 72.1578 173.703 79.8846L169.286 82.2016C158.736 87.7148 149.633 92.4729 134.025 107.027C133.229 107.769 132.587 108.661 132.137 109.652C131.686 110.642 131.436 111.712 131.399 112.8C131.363 113.887 131.541 114.971 131.924 115.99C132.307 117.009 132.887 117.942 133.632 118.736C134.457 119.635 135.475 120.335 136.611 120.784Z" fill="url(#paint3_linear_2176_908)" stroke="black" stroke-width="1.6" stroke-linecap="round" stroke-linejoin="round"/>
<path d="M128.977 133.238C130.539 133.163 132.049 132.648 133.33 131.751C134.612 130.854 135.613 129.612 136.217 128.169C143.592 110.585 148.774 104.006 155.943 94.9244C156.977 93.621 158.011 92.2971 159.097 90.8903C165.779 82.274 180.602 72.7371 185.753 69.7891C186.698 69.2458 187.526 68.5217 188.191 67.6581C188.856 66.7946 189.345 65.8086 189.628 64.7564C189.912 63.7041 189.986 62.6063 189.846 61.5255C189.705 60.4448 189.353 59.4023 188.81 58.4576C188.266 57.5128 187.542 56.6843 186.679 56.0195C185.815 55.3546 184.829 54.8663 183.777 54.5824C182.725 54.2986 181.627 54.2248 180.546 54.3652C179.465 54.5057 178.423 54.8576 177.478 55.401C176.609 55.8975 156.036 67.7514 145.961 80.7431C144.927 82.1085 143.892 83.4014 142.858 84.6634C135.483 93.9727 129.121 102.093 120.867 121.756C120.324 123.044 120.116 124.448 120.262 125.838C120.409 127.228 120.905 128.558 121.704 129.704C122.503 130.851 123.58 131.776 124.834 132.394C126.087 133.012 127.477 133.302 128.873 133.238H128.977Z" fill="url(#paint4_linear_2176_908)" stroke="black" stroke-width="1.6" stroke-linecap="round" stroke-linejoin="round"/>
<path d="M219.691 140.933C221.237 140.936 222.753 140.505 224.066 139.691C225.38 138.876 226.439 137.71 227.124 136.324C227.808 134.939 228.091 133.389 227.94 131.851C227.79 130.312 227.211 128.847 226.27 127.621C223.581 124.094 199.273 93.1763 174.551 93.1763C148.578 93.1763 124.219 115.798 123.195 116.76C121.593 118.269 120.656 120.352 120.59 122.552C120.524 124.752 121.334 126.888 122.843 128.49C124.352 130.092 126.435 131.029 128.635 131.095C130.835 131.161 132.971 130.35 134.573 128.841C134.832 128.593 155.26 109.747 174.593 109.747C188.671 109.747 207.62 130.434 213.154 137.675C213.922 138.682 214.911 139.5 216.044 140.064C217.177 140.629 218.425 140.927 219.691 140.933Z" fill="url(#paint5_linear_2176_908)" stroke="black" stroke-width="1.6" stroke-linecap="round" stroke-linejoin="round"/>
<path d="M135.597 326.024H92.9082" stroke="black" stroke-width="1.6" stroke-linecap="round" stroke-linejoin="round"/>
<path d="M121.932 326.024H174.198" stroke="black" stroke-width="1.6" stroke-linecap="round" stroke-linejoin="round"/>
<path d="M215.853 220.932C214.405 220.29 179.867 205.219 129.286 205.219C78.7056 205.219 44.1576 220.332 42.7094 220.932C42.4106 221.067 42.1414 221.261 41.9173 221.501C41.6932 221.741 41.5186 222.022 41.4033 222.33C41.288 222.637 41.2344 222.964 41.2456 223.292C41.2567 223.62 41.3324 223.943 41.4682 224.242C41.604 224.54 41.7974 224.81 42.0373 225.034C42.2771 225.258 42.5588 225.432 42.8661 225.548C43.1735 225.663 43.5005 225.717 43.8286 225.705C44.1567 225.694 44.4793 225.619 44.7782 225.483C45.1195 225.328 79.8641 210.184 129.338 210.184C178.812 210.184 213.546 225.328 213.888 225.483C214.214 225.624 214.567 225.695 214.922 225.69C215.496 225.7 216.056 225.51 216.506 225.154C216.956 224.797 217.269 224.296 217.391 223.735C217.513 223.174 217.437 222.588 217.175 222.077C216.914 221.566 216.483 221.161 215.956 220.932H215.853Z" stroke="black" stroke-width="1.6" stroke-linecap="round" stroke-linejoin="round"/>
<path d="M42.71 220.932L66.1799 186.735" stroke="black" stroke-width="1.6" stroke-linecap="round" stroke-linejoin="round"/>
<path d="M72.7788 177.105C72.1272 176.454 73.4305 161.414 75.3958 150.946C75.3958 150.946 100.81 142.899 129.256 142.899" stroke="black" stroke-width="1.6" stroke-linecap="round" stroke-linejoin="round"/>
<path d="M54.3984 203.678C48.9472 198.962 43.0203 196.5 36.8141 199.013C15.8887 207.526 32.2318 284.701 71.8069 259.845" stroke="black" stroke-width="1.6" stroke-linecap="round" stroke-linejoin="round"/>
<path d="M68.4655 220.735C68.0724 219.877 68.0827 220.249 66.707 218.211" stroke="black" stroke-width="1.6" stroke-linecap="round" stroke-linejoin="round"/>
<path d="M70.5143 244.846C70.5143 244.846 64.9287 227.003 50.7578 228.079" stroke="black" stroke-width="1.6" stroke-linecap="round" stroke-linejoin="round"/>
<path d="M64.9278 235.392C64.9278 235.392 57.1803 234.74 51.5947 240.336" stroke="black" stroke-width="1.6" stroke-linecap="round" stroke-linejoin="round"/>
<path d="M204.093 203.316C209.544 198.61 215.223 196.541 221.429 199.013C242.365 207.526 226.012 284.701 186.437 259.845" stroke="black" stroke-width="1.6" stroke-linecap="round" stroke-linejoin="round"/>
<path d="M188.846 221.8C189.31 220.412 190.118 219.163 191.194 218.17" stroke="black" stroke-width="1.6" stroke-linecap="round" stroke-linejoin="round"/>
<path d="M187.698 244.536C187.698 244.536 192.787 226.952 206.979 228.079" stroke="black" stroke-width="1.6" stroke-linecap="round" stroke-linejoin="round"/>
<path d="M192.787 235.392C192.787 235.392 200.524 234.74 206.12 240.336" stroke="black" stroke-width="1.6" stroke-linecap="round" stroke-linejoin="round"/>
<path d="M145.66 211.105L143.529 248.911C143.477 249.824 143.076 250.682 142.411 251.309C141.745 251.936 140.865 252.285 139.951 252.283H118.301C117.387 252.285 116.506 251.936 115.841 251.309C115.175 250.682 114.775 249.824 114.722 248.911L112.581 210.836" stroke="black" stroke-width="1.6" stroke-linecap="round" stroke-linejoin="round"/>
<path d="M128.17 252.397C128.17 252.397 124.746 267.044 136.383 266.496" stroke="black" stroke-width="1.6" stroke-linecap="round" stroke-linejoin="round"/>
<path d="M144.885 263.227C144.482 263.227 118.354 274.171 118.354 274.171" stroke="black" stroke-width="1.6" stroke-linecap="round" stroke-linejoin="round"/>
<path d="M141.699 269.837C138.141 271.295 132.958 273.447 128.479 275.309" stroke="black" stroke-width="1.6" stroke-linecap="round" stroke-linejoin="round"/>
<path d="M108.092 211.384C107.667 215.285 105.964 218.935 103.249 221.768C100.534 224.6 96.9595 226.456 93.0807 227.046C89.2019 227.636 85.2368 226.927 81.8025 225.03C78.3683 223.133 75.6574 220.154 74.0918 216.556" stroke="black" stroke-width="1.6" stroke-linecap="round" stroke-linejoin="round"/>
<path d="M98.3899 212.895C98.218 214.574 97.4943 216.149 96.3321 217.373C95.1699 218.597 93.6348 219.401 91.9667 219.66C90.2987 219.919 88.5919 219.618 87.1133 218.804C85.6347 217.989 84.4678 216.708 83.7949 215.16" stroke="black" stroke-width="1.6" stroke-linecap="round" stroke-linejoin="round"/>
<path d="M150.16 211.384C150.585 215.285 152.288 218.935 155.002 221.768C157.717 224.6 161.292 226.456 165.171 227.046C169.05 227.636 173.015 226.927 176.449 225.03C179.884 223.133 182.594 220.154 184.16 216.556" stroke="black" stroke-width="1.6" stroke-linecap="round" stroke-linejoin="round"/>
<path d="M159.863 212.895C160.035 214.574 160.759 216.149 161.921 217.373C163.083 218.597 164.618 219.401 166.286 219.66C167.954 219.919 169.661 219.618 171.14 218.804C172.618 217.989 173.785 216.708 174.458 215.16" stroke="black" stroke-width="1.6" stroke-linecap="round" stroke-linejoin="round"/>
<path d="M131.242 102.237C130.82 103.75 129.977 105.112 128.81 106.163C127.643 107.215 126.201 107.912 124.653 108.175C105.838 111.361 98.2661 114.919 87.7879 119.832C86.2984 120.535 84.7572 121.259 83.1436 121.994C73.2446 126.545 60.5839 138.813 56.5395 143.157C55.0444 144.766 52.9713 145.715 50.7764 145.796C48.5815 145.876 46.4445 145.082 44.8356 143.586C43.2266 142.091 42.2775 140.018 42.197 137.823C42.1165 135.628 42.9112 133.491 44.4063 131.882C45.089 131.148 61.2976 113.802 76.2339 106.944L80.7542 104.875C91.5323 99.8169 100.842 95.4519 121.87 91.8833C123.242 91.6495 124.65 91.7653 125.965 92.22C127.28 92.6747 128.459 93.4536 129.393 94.4846C130.328 95.5157 130.987 96.7657 131.31 98.119C131.633 99.4723 131.609 100.885 131.242 102.227V102.237Z" fill="url(#paint6_linear_2176_908)" stroke="black" stroke-width="1.6" stroke-linecap="round" stroke-linejoin="round"/>
<path d="M127.581 126.514C125.566 126.512 123.622 125.776 122.112 124.443C120.602 123.11 119.63 121.272 119.378 119.273C117.602 107.283 115.004 95.4283 111.6 83.7945C105.838 63.8932 88.3779 50.136 88.2021 49.9912C86.5352 48.6245 85.4674 46.6612 85.2259 44.5192C84.9845 42.3772 85.5884 40.2255 86.9092 38.5219C88.23 36.8184 90.1634 35.6975 92.298 35.3977C94.4326 35.0979 96.6 35.6429 98.3389 36.9167C99.2388 37.6098 120.237 54.1804 127.477 79.1812C131.127 91.638 133.893 104.337 135.752 117.184C135.897 118.267 135.826 119.369 135.543 120.424C135.26 121.48 134.771 122.469 134.103 123.335C133.436 124.201 132.604 124.925 131.654 125.467C130.705 126.01 129.658 126.358 128.574 126.493C128.243 126.523 127.912 126.53 127.581 126.514Z" fill="url(#paint7_linear_2176_908)" stroke="black" stroke-width="1.6" stroke-linecap="round" stroke-linejoin="round"/>
<path d="M119.243 121.88C117.784 122.459 116.19 122.61 114.648 122.317C113.106 122.024 111.679 121.299 110.533 120.225C96.59 107.213 89.1736 103.334 78.9126 97.9861C77.4438 97.2207 75.9439 96.4345 74.3717 95.5967C64.752 90.4248 47.3229 87.8492 41.4166 87.3217C40.3299 87.2158 39.2747 86.8968 38.3113 86.3831C37.3479 85.8693 36.4951 85.1709 35.8016 84.3275C35.1081 83.4842 34.5875 82.5125 34.2696 81.468C33.9516 80.4235 33.8425 79.3266 33.9484 78.2399C34.0544 77.1532 34.3733 76.0981 34.8871 75.1346C35.4008 74.1712 36.0993 73.3184 36.9426 72.6249C38.6458 71.2244 40.8355 70.5578 43.0302 70.7718C44.0646 70.8752 67.6483 73.2542 82.1605 80.981L86.5773 83.298C97.1279 88.8009 106.23 93.559 121.839 108.123C122.635 108.865 123.276 109.757 123.727 110.748C124.177 111.739 124.428 112.808 124.464 113.896C124.501 114.984 124.323 116.068 123.94 117.086C123.556 118.105 122.976 119.038 122.232 119.832C121.397 120.724 120.376 121.423 119.243 121.88Z" fill="url(#paint8_linear_2176_908)" stroke="black" stroke-width="1.6" stroke-linecap="round" stroke-linejoin="round"/>
<path d="M128.738 133.238C127.176 133.163 125.666 132.648 124.384 131.751C123.103 130.854 122.102 129.612 121.497 128.169C114.112 110.585 108.93 104.006 101.762 94.9244C100.727 93.621 99.6929 92.297 98.6585 90.8903C91.9765 82.274 77.1539 72.7371 72.0131 69.7891C70.1051 68.6918 68.7112 66.8814 68.138 64.7564C67.5647 62.6313 67.8592 60.3655 68.9565 58.4576C70.0539 56.5496 71.8642 55.1556 73.9893 54.5824C76.1143 54.0092 78.3801 54.3036 80.2881 55.401C81.1569 55.8975 101.731 67.7514 111.805 80.7431C112.84 82.1085 113.874 83.4014 114.909 84.6634C122.284 93.9727 128.655 102.093 136.91 121.756C137.333 122.76 137.553 123.837 137.559 124.926C137.565 126.015 137.356 127.094 136.944 128.103C136.531 129.111 135.924 130.027 135.157 130.8C134.39 131.573 133.477 132.187 132.472 132.607C131.294 133.107 130.015 133.323 128.738 133.238Z" fill="url(#paint9_linear_2176_908)" stroke="black" stroke-width="1.6" stroke-linecap="round" stroke-linejoin="round"/>
<path d="M16.7681 451.752C16.7681 451.752 9.11378 410.894 1.10774 401.409C1.10774 401.409 -4.36409 391.562 7.67601 381.756C17.5025 373.708 46.9822 353.735 57.2431 345.884C57.727 345.521 58.2876 345.275 58.8817 345.163C59.4759 345.051 60.0878 345.077 60.6704 345.239C61.2529 345.401 61.7905 345.694 62.2418 346.096C62.6931 346.499 63.0461 346.999 63.2735 347.559C64.4814 350.369 65.0896 353.4 65.0593 356.458C65.0291 359.516 64.3609 362.534 63.0977 365.32" stroke="black" stroke-width="1.6" stroke-linecap="round" stroke-linejoin="round"/>
<path d="M41.583 450.655C41.583 449.869 43.0725 432.668 43.9207 422.934C44.2926 418.725 46.3112 414.833 49.5373 412.104L99.1872 370.109C99.843 369.556 100.688 369.281 101.543 369.341C102.399 369.401 103.197 369.791 103.769 370.429C107.442 374.567 113.141 384.094 102.89 397.034C94.4077 407.694 84.8554 417.458 74.383 426.172" stroke="black" stroke-width="1.6" stroke-linecap="round" stroke-linejoin="round"/>
<path d="M62.7354 457.586L67.6279 433.795C67.9232 432.351 68.542 430.994 69.4378 429.824C70.3336 428.654 71.4831 427.702 72.7998 427.041L107.306 409.622C107.762 409.389 108.263 409.256 108.774 409.232C109.285 409.208 109.796 409.293 110.272 409.482C110.748 409.671 111.178 409.96 111.533 410.328C111.889 410.696 112.161 411.136 112.334 411.618C114.63 418.011 115.602 431.975 90.0945 445.939" stroke="black" stroke-width="1.6" stroke-linecap="round" stroke-linejoin="round"/>
<path d="M89.0292 437.55C89.0292 437.55 92.6806 450.324 86.1123 457.979" stroke="black" stroke-width="1.6" stroke-linecap="round" stroke-linejoin="round"/>
<path d="M87.4053 456.582C87.4053 456.582 109.427 480.207 88.2742 507.567C88.2742 507.567 81.7887 506.532 60.1806 491.875C38.5726 477.218 26.9669 465.25 26.9669 465.25L25.7257 464.061C20.7193 459.241 16.1267 455.051 16.4163 448.101L19.5194 405.422C19.6776 403.247 20.2983 401.131 21.3401 399.215C22.3818 397.3 23.8206 395.628 25.5602 394.313C40.1862 383.256 79.5855 353.352 91.6669 342.998C92.0656 342.656 92.5301 342.399 93.0319 342.243C93.5336 342.087 94.0619 342.036 94.5843 342.092C95.1066 342.149 95.6119 342.311 96.069 342.57C96.5261 342.829 96.9254 343.179 97.2422 343.598C100.852 348.397 106.934 362.289 96.5388 372.229" stroke="black" stroke-width="1.6" stroke-linecap="round" stroke-linejoin="round"/>
<path d="M31.7046 147.491C30.1589 147.494 28.6435 147.063 27.3299 146.249C26.0163 145.434 24.9572 144.268 24.2724 142.882C23.5877 141.497 23.3047 139.947 23.4555 138.409C23.6064 136.87 24.185 135.405 25.126 134.179C27.8153 130.652 58.4431 93.1763 83.1646 93.1763C109.138 93.1763 133.507 115.798 134.532 116.76C136.134 118.269 137.071 120.352 137.137 122.552C137.203 124.752 136.392 126.888 134.883 128.49C133.374 130.092 131.291 131.029 129.091 131.095C126.891 131.161 124.756 130.35 123.153 128.841C122.895 128.593 102.466 109.747 83.1336 109.747C69.0558 109.747 43.8274 136.982 38.2625 144.233C37.4927 145.243 36.5007 146.062 35.3636 146.627C34.2264 147.192 32.9744 147.488 31.7046 147.491Z" fill="url(#paint10_linear_2176_908)" stroke="black" stroke-width="1.6" stroke-linecap="round" stroke-linejoin="round"/>
<path d="M88.8428 536.767C92.8136 533.598 95.6781 529.253 97.0247 524.355C97.0247 524.355 102.134 505.736 97.3867 487.51" stroke="black" stroke-width="1.6" stroke-linecap="round" stroke-linejoin="round"/>
<path d="M37.5685 475.46L32.5414 494.078C31.3662 497.987 31.1638 502.124 31.9518 506.129" stroke="black" stroke-width="1.6" stroke-linecap="round" stroke-linejoin="round"/>
<path d="M147.843 382.19C142.639 384.898 137.213 387.154 131.624 388.934" stroke="black" stroke-width="1.6" stroke-linecap="round" stroke-linejoin="round"/>
<path d="M174.2 326.024H177.531C177.531 326.024 181.668 343.794 178.234 362.341C176.662 370.76 163.877 376.108 152.292 380.297" stroke="black" stroke-width="1.6" stroke-linecap="round" stroke-linejoin="round"/>
<path d="M109.147 381.766C114.902 384.484 120.815 386.85 126.856 388.852" stroke="black" stroke-width="1.6" stroke-linecap="round" stroke-linejoin="round"/>
<path d="M106.086 392.606L135.048 425.324C135.048 425.324 122.294 446.28 89.2256 458.237" stroke="black" stroke-width="1.6" stroke-linecap="round" stroke-linejoin="round"/>
<path d="M25.1464 368.092C25.1464 368.092 17.4196 350.176 21.6295 331.216L93.9632 316.528C91.9623 325.218 91.1996 334.147 91.6979 343.05" stroke="black" stroke-width="1.6" stroke-linecap="round" stroke-linejoin="round"/>
<path d="M22.684 369.499C22.684 369.499 8.28557 352.638 5.48242 326.303L65.476 311.553C65.476 311.553 65.476 318.225 66.5104 322.093" stroke="black" stroke-width="1.6" stroke-linecap="round" stroke-linejoin="round"/>
<path d="M16.3652 374.763C15.3101 373.357 1.26334 359.972 -8.20117 342.108L6.89032 337.536" stroke="black" stroke-width="1.6" stroke-linecap="round" stroke-linejoin="round"/>
<path d="M211.622 390.672L185.67 383.059C185.67 383.059 178.429 379.956 174.178 389.183C169.926 398.409 181.087 403.736 181.087 403.736L224.345 419.117" stroke="black" stroke-width="1.6" stroke-linecap="round" stroke-linejoin="round"/>
<path d="M181.088 403.736C178.409 404.119 161.559 397.985 161.559 397.985C161.559 397.985 151.608 395.306 147.781 405.226C143.561 416.19 157.349 422.076 170.755 428.965C184.16 435.854 226.611 447.345 226.611 447.345" stroke="black" stroke-width="1.6" stroke-linecap="round" stroke-linejoin="round"/>
<path d="M184.129 434.364C182.981 434.364 160.008 426.327 160.008 426.327C160.008 426.327 151.877 425.137 149.664 433.568C147.368 442.38 157.318 448.887 167.248 452.331C177.178 455.776 221.615 471.477 221.615 471.477" stroke="black" stroke-width="1.6" stroke-linecap="round" stroke-linejoin="round"/>
<path d="M172.813 454.338C172.813 454.338 163.028 451.979 160.401 460.41C157.773 468.84 165.769 472.274 172.275 476.484C178.782 480.694 194.866 486.827 205.593 488.741C205.593 488.741 207.93 505.663 220.56 515.686C223.228 517.764 226.283 519.292 229.547 520.18C232.811 521.067 236.218 521.298 239.572 520.858C241.586 520.656 243.558 520.143 245.416 519.338" stroke="black" stroke-width="1.6" stroke-linecap="round" stroke-linejoin="round"/>
<path d="M211.644 552.458C208.872 548.498 207.447 543.751 207.579 538.918C207.872 528.909 210.448 519.098 215.109 510.235" stroke="black" stroke-width="1.6" stroke-linecap="round" stroke-linejoin="round"/>
<path d="M208.457 528.451C187.273 544.742 189.839 564.654 189.839 564.654C198.165 599.005 215.522 628.94 218.729 654.034C221.935 679.128 219.68 689.885 246.564 719.199C259.328 733.132 272.495 727.319 281.257 722.716C288.983 718.651 297.672 712.372 300.403 701.925C310.747 662.619 300.475 654.541 297.103 629.695C294.859 613.062 296.71 586.758 298.386 569.608C299.524 557.878 297.134 535.474 288.797 527.106C283.274 521.582 274.316 522.141 274.316 522.141" stroke="black" stroke-width="1.6" stroke-linecap="round" stroke-linejoin="round"/>
<path d="M210.93 389.007L227.635 426.348L284.308 413.677C284.308 413.677 275.64 386.007 254.974 377.008L195.652 385.831" stroke="black" stroke-width="1.6" stroke-linecap="round" stroke-linejoin="round"/>
<path d="M194.245 384.9L205.965 363.675L267.292 358.679L254.963 377.008" stroke="black" stroke-width="1.6" stroke-linecap="round" stroke-linejoin="round"/>
<path d="M190.625 383.68L199.293 358.338L262.628 352.007L261.18 355.628" stroke="black" stroke-width="1.6" stroke-linecap="round" stroke-linejoin="round"/>
<path d="M185.671 383.059C185.671 383.059 189.963 349.67 184.295 338.343C184.295 338.343 231.959 332.344 242.965 325.01C246.108 334.102 247.134 343.793 245.964 353.342" stroke="black" stroke-width="1.6" stroke-linecap="round" stroke-linejoin="round"/>
<path d="M161.312 468.167L162.625 490.013L206.627 507.349L205.583 488.741" stroke="black" stroke-width="1.6" stroke-linecap="round" stroke-linejoin="round"/>
<path d="M160.287 449.673L160.825 458.806" stroke="black" stroke-width="1.6" stroke-linecap="round" stroke-linejoin="round"/>
<path d="M161.684 487.2L154.847 485.566C154.847 485.566 157.857 449.724 158.126 448.628L158.86 486.569" stroke="black" stroke-width="1.6" stroke-linecap="round" stroke-linejoin="round"/>
<path d="M157.856 450.562C157.576 451.928 141.709 486.952 141.709 486.952L184.666 502.271L185.215 499.54" stroke="black" stroke-width="1.6" stroke-linecap="round" stroke-linejoin="round"/>
<path d="M183.849 381.89C183.849 381.89 185.484 365.206 182.753 356.724L186.89 356.176" stroke="black" stroke-width="1.6" stroke-linecap="round" stroke-linejoin="round"/>
<path d="M187.863 383.173L194.059 359.827L198.435 360.189" stroke="black" stroke-width="1.6" stroke-linecap="round" stroke-linejoin="round"/>
<path d="M125.843 436.795L131.676 443.001C131.676 443.001 113.854 457.968 90.9531 460.823" stroke="black" stroke-width="1.6" stroke-linecap="round" stroke-linejoin="round"/>
<path d="M192.415 384.083L201.9 361.099L262.825 355.266L261.366 358.731" stroke="black" stroke-width="1.6" stroke-linecap="round" stroke-linejoin="round"/>
<path d="M131.48 329.075H126.649V341.664H131.48V329.075Z" stroke="black" stroke-width="1.6" stroke-linecap="round" stroke-linejoin="round"/>
<path d="M131.614 333.285H135.835V367.326H122.543V333.285H126.67" stroke="black" stroke-width="1.6" stroke-linecap="round" stroke-linejoin="round"/>
<path d="M133.6 355.834H124.963V365.133H133.6V355.834Z" stroke="black" stroke-width="1.6" stroke-linecap="round" stroke-linejoin="round"/>
<path d="M132.151 335.912H133.506V343.422C133.506 346.525 131.944 348.232 129.203 348.232C126.473 348.232 124.569 346.525 124.569 343.422V335.902H126.638" stroke="black" stroke-width="1.6" stroke-linecap="round" stroke-linejoin="round"/>
<path d="M122.305 339.191C121.54 337.961 115.768 326.934 129.06 326.934" stroke="black" stroke-width="1.6" stroke-linecap="round" stroke-linejoin="round"/>
<path d="M136.01 339.191C136.776 337.961 142.548 326.934 129.256 326.934" stroke="black" stroke-width="1.6" stroke-linecap="round" stroke-linejoin="round"/>
<path d="M126.979 347.601V344.87V341.912" stroke="black" stroke-width="1.6" stroke-linecap="round" stroke-linejoin="round"/>
<path d="M126.979 364.927V360.551V355.99" stroke="black" stroke-width="1.6" stroke-linecap="round" stroke-linejoin="round"/>
<path d="M126.979 415.89V367.388" stroke="black" stroke-width="1.6" stroke-linecap="round" stroke-linejoin="round"/>
<path d="M126.979 437.674V435.492" stroke="black" stroke-width="1.6" stroke-linecap="round" stroke-linejoin="round"/>
<path d="M131.5 430.433V537.563H126.979V446.601" stroke="black" stroke-width="1.6" stroke-linecap="round" stroke-linejoin="round"/>
<path d="M131.5 367.482V421.072" stroke="black" stroke-width="1.6" stroke-linecap="round" stroke-linejoin="round"/>
<path d="M131.5 356.083V360.737V364.834" stroke="black" stroke-width="1.6" stroke-linecap="round" stroke-linejoin="round"/>
<path d="M131.5 341.767V345.139V347.694" stroke="black" stroke-width="1.6" stroke-linecap="round" stroke-linejoin="round"/>
<path d="M202.593 177.86C204.11 178.089 205.66 177.925 207.096 177.384C208.531 176.842 209.804 175.942 210.792 174.768C211.78 173.594 212.45 172.187 212.739 170.68C213.027 169.173 212.925 167.617 212.44 166.162C209.337 156.645 203.627 147.119 195.611 137.851C190.258 131.672 183.641 126.715 176.206 123.315C168.772 119.916 160.694 118.153 152.519 118.146H134.79C132.463 118.225 130.257 119.205 128.639 120.879C127.021 122.553 126.116 124.791 126.116 127.119C126.116 129.448 127.021 131.685 128.639 133.359C130.257 135.033 132.463 136.013 134.79 136.092H152.529C158.138 136.096 163.681 137.304 168.783 139.635C173.885 141.965 178.427 145.364 182.102 149.601C188.567 157.059 193.056 164.527 195.456 171.799C195.97 173.37 196.908 174.768 198.168 175.838C199.428 176.908 200.96 177.608 202.593 177.86Z" fill="url(#paint11_linear_2176_908)" stroke="black" stroke-width="1.6" stroke-linecap="round" stroke-linejoin="round"/>
<path d="M147.43 336.44C146.577 335.876 145.933 335.049 145.595 334.084C145.257 333.119 145.245 332.07 145.56 331.098C145.875 330.125 146.5 329.283 147.34 328.699C148.179 328.116 149.187 327.824 150.208 327.868C151.23 327.912 152.208 328.289 152.995 328.943C153.781 329.596 154.332 330.489 154.562 331.485C154.793 332.481 154.691 333.525 154.271 334.457C153.852 335.39 153.138 336.159 152.24 336.647" stroke="black" stroke-width="1.6" stroke-linecap="round" stroke-linejoin="round"/>
<path d="M147.988 403.974V332.758C147.988 330.927 148.919 330.379 150.057 330.379C151.195 330.379 152.126 330.927 152.126 332.758V399.361" stroke="black" stroke-width="1.6" stroke-linecap="round" stroke-linejoin="round"/>
<path d="M152.126 418.352C152.126 420.183 151.195 421.662 150.057 421.662C148.919 421.662 147.988 420.183 147.988 418.352V413.635" stroke="black" stroke-width="1.6" stroke-linecap="round" stroke-linejoin="round"/>
<path d="M183.447 171.489C184.976 171.448 186.463 170.985 187.745 170.15C189.027 169.315 190.052 168.141 190.706 166.759C191.361 165.376 191.62 163.84 191.454 162.319C191.288 160.799 190.704 159.354 189.767 158.145C189.001 157.163 170.62 133.817 138.72 125.811C136.589 125.276 134.332 125.609 132.447 126.738C130.561 127.867 129.201 129.699 128.666 131.831C128.131 133.962 128.465 136.219 129.594 138.105C130.723 139.99 132.555 141.35 134.686 141.885C160.866 148.453 176.527 168.117 176.682 168.313C177.481 169.336 178.51 170.156 179.685 170.708C180.861 171.26 182.149 171.527 183.447 171.489Z" fill="url(#paint12_linear_2176_908)" stroke="black" stroke-width="1.6" stroke-linecap="round" stroke-linejoin="round"/>
<path d="M150.077 421.662V428.354" stroke="black" stroke-width="1.6" stroke-linecap="round" stroke-linejoin="round"/>
<path d="M110.813 336.44C111.665 335.876 112.308 335.048 112.645 334.083C112.982 333.119 112.993 332.07 112.678 331.098C112.362 330.126 111.737 329.285 110.898 328.702C110.059 328.119 109.051 327.827 108.031 327.871C107.01 327.915 106.031 328.292 105.245 328.945C104.459 329.597 103.908 330.489 103.677 331.485C103.446 332.48 103.547 333.524 103.965 334.456C104.383 335.388 105.096 336.158 105.993 336.647" stroke="black" stroke-width="1.6" stroke-linecap="round" stroke-linejoin="round"/>
<path d="M110.234 397.282V332.758C110.234 330.927 109.303 330.379 108.165 330.379C107.028 330.379 106.097 330.927 106.097 332.758V373.419" stroke="black" stroke-width="1.6" stroke-linecap="round" stroke-linejoin="round"/>
<path d="M112.737 270.157C112.737 270.157 118.147 271.905 120.443 279.208" stroke="black" stroke-width="1.6" stroke-linecap="round" stroke-linejoin="round"/>
<path d="M11.1829 427.144C11.1829 427.144 -3.92933 533.809 -23.21 565.812C-42.4907 597.816 -43.0493 652.306 -41.3943 667.181" stroke="black" stroke-width="1.6" stroke-linecap="round" stroke-linejoin="round"/>
<path d="M179.464 359.02L183.674 361.348" stroke="black" stroke-width="1.6" stroke-linecap="round" stroke-linejoin="round"/>
<path d="M73.6892 169.016C72.1546 169.111 70.6239 168.776 69.2689 168.049C67.9139 167.323 66.7882 166.233 66.0181 164.902C65.2479 163.571 64.8638 162.052 64.9088 160.515C64.9538 158.978 65.4261 157.484 66.2728 156.201C66.9555 155.166 83.3606 130.341 114.495 119.77C116.583 119.059 118.867 119.207 120.846 120.181C122.825 121.155 124.335 122.875 125.046 124.963C125.756 127.05 125.608 129.335 124.635 131.313C123.661 133.292 121.941 134.803 119.853 135.513C94.3043 144.212 80.3092 165.096 80.1748 165.303C79.4608 166.387 78.5017 167.289 77.3751 167.934C76.2484 168.579 74.9858 168.95 73.6892 169.016Z" fill="url(#paint13_linear_2176_908)" stroke="black" stroke-width="1.6" stroke-linecap="round" stroke-linejoin="round"/>
<path d="M48.4919 178.833C46.9619 178.929 45.4327 178.632 44.0503 177.969C42.6679 177.307 41.4784 176.301 40.5955 175.047C39.7126 173.794 39.1658 172.335 39.0071 170.81C38.8485 169.286 39.0834 167.746 39.6894 166.337C43.6407 157.121 54.1706 139.816 62.9317 131.272C68.7919 125.574 75.8081 121.202 83.5051 118.452C91.2021 115.702 99.4002 114.638 107.544 115.333L125.232 116.822C127.547 117.093 129.665 118.253 131.14 120.057C132.615 121.861 133.331 124.168 133.136 126.49C132.941 128.812 131.851 130.968 130.097 132.501C128.342 134.034 126.059 134.825 123.732 134.706L106.055 133.217C100.466 132.74 94.8402 133.47 89.5578 135.356C84.2755 137.242 79.4601 140.241 75.4373 144.15C68.3415 151.029 59.177 166.379 56.167 173.413C55.516 174.939 54.4535 176.254 53.0982 177.211C51.7428 178.168 50.148 178.73 48.4919 178.833Z" fill="url(#paint14_linear_2176_908)" stroke="black" stroke-width="1.6" stroke-linecap="round" stroke-linejoin="round"/>
<path d="M112.416 541.318H195.973" stroke="black" stroke-width="1.6" stroke-linecap="round" stroke-linejoin="round"/>
<path d="M101.711 562.502H189.271" stroke="black" stroke-width="1.6" stroke-linecap="round" stroke-linejoin="round"/>
<path d="M42.7822 662.764C42.7822 662.764 58.4943 676.542 127.849 676.542" stroke="black" stroke-width="1.6" stroke-linecap="round" stroke-linejoin="round"/>
<path d="M217.695 659.743C217.695 659.743 197.204 676.542 127.85 676.542" stroke="black" stroke-width="1.6" stroke-linecap="round" stroke-linejoin="round"/>
<path d="M131.51 537.563H126.979V540.998H131.51V537.563Z" stroke="black" stroke-width="1.6" stroke-linecap="round" stroke-linejoin="round"/>
<path d="M19.5293 506.967C22.0346 505.863 24.7646 505.366 27.4981 505.514C30.2316 505.662 32.8917 506.453 35.263 507.821C37.6342 509.188 39.6499 511.096 41.1467 513.388C42.6435 515.68 43.5793 518.292 43.8784 521.013C44.0996 522.834 43.9554 524.68 43.4543 526.444" stroke="black" stroke-width="1.6" stroke-linecap="round" stroke-linejoin="round"/>
<path d="M36.5859 531.678C39.1249 528.563 42.662 526.42 46.5989 525.612C50.5358 524.804 54.6308 525.381 58.1915 527.244C61.7522 529.108 64.5599 532.144 66.1398 535.84C67.7197 539.535 67.9748 543.663 66.862 547.524" stroke="black" stroke-width="1.6" stroke-linecap="round" stroke-linejoin="round"/>
<path d="M67.5977 540.46C69.3778 538.565 71.5587 537.093 73.981 536.149C76.4033 535.206 79.0057 534.816 81.5982 535.007C84.1906 535.198 86.7076 535.966 88.9651 537.255C91.2227 538.544 93.1637 540.321 94.6465 542.456" stroke="black" stroke-width="1.6" stroke-linecap="round" stroke-linejoin="round"/>
<path d="M95.4424 529.133C96.6297 529.114 97.8036 529.387 98.8607 529.928C99.9177 530.469 100.825 531.262 101.504 532.236" stroke="black" stroke-width="1.6" stroke-linecap="round" stroke-linejoin="round"/>
<path d="M26.2529 498.795C28.0483 498.764 29.7864 499.427 31.1041 500.647" stroke="black" stroke-width="1.6" stroke-linecap="round" stroke-linejoin="round"/>
<path d="M199.127 561.033C200.507 558.674 202.422 556.672 204.718 555.189C207.013 553.707 209.626 552.784 212.343 552.496C215.061 552.208 217.809 552.563 220.364 553.532C222.92 554.501 225.211 556.057 227.055 558.075C228.304 559.417 229.271 560.997 229.9 562.719" stroke="black" stroke-width="1.6" stroke-linecap="round" stroke-linejoin="round"/>
<path d="M227.428 570.984C227.648 566.969 229.249 563.153 231.96 560.183C234.67 557.213 238.324 555.271 242.302 554.685C246.281 554.1 250.339 554.907 253.79 556.971C257.242 559.034 259.874 562.227 261.241 566.009" stroke="black" stroke-width="1.6" stroke-linecap="round" stroke-linejoin="round"/>
<path d="M257.704 559.864C258.029 557.286 258.927 554.813 260.331 552.625C261.735 550.438 263.61 548.593 265.819 547.223C268.028 545.854 270.515 544.996 273.098 544.712C275.682 544.427 278.296 544.724 280.75 545.58" stroke="black" stroke-width="1.6" stroke-linecap="round" stroke-linejoin="round"/>
<path d="M276.25 535.102C277.274 534.5 278.429 534.158 279.615 534.104C280.801 534.05 281.982 534.286 283.056 534.791" stroke="black" stroke-width="1.6" stroke-linecap="round" stroke-linejoin="round"/>
<path d="M201.538 546.842C202.304 545.935 203.281 545.231 204.383 544.791C205.485 544.351 206.678 544.188 207.858 544.318" stroke="black" stroke-width="1.6" stroke-linecap="round" stroke-linejoin="round"/>
<path d="M-41.7773 661.812C-41.7857 666.227 -40.9241 670.601 -39.2415 674.683C-37.559 678.765 -35.0886 682.476 -31.9714 685.603C-24.9894 692.585 -14.263 701.584 1.81117 692.285C36.2661 672.342 41.9448 653.868 52.4954 630.884C62.2082 609.783 87.6641 583.603 105.859 556.027C110.534 549.038 112.963 540.788 112.82 532.381C112.634 524.106 109.717 515.314 99.0836 513.628" stroke="black" stroke-width="1.6" stroke-linecap="round" stroke-linejoin="round"/>
<path d="M32.3871 493.023C27.9496 491.544 23.0777 495.092 20.316 496.964C4.2625 508.053 1.69725 527.22 1.33522 528.833C-2.27474 545.652 -8.14997 569.67 -14.9665 584.172C-18.0696 590.761 -21.6278 596.647 -25.124 602.677" stroke="black" stroke-width="1.6" stroke-linecap="round" stroke-linejoin="round"/>
<path d="M274.44 455.796C274.44 455.796 290.215 499.24 295.873 541.349" stroke="black" stroke-width="1.6" stroke-linecap="round" stroke-linejoin="round"/>
<path d="M232.807 521.334C232.807 521.334 235.227 525.989 242.975 526.506C242.975 526.506 255.832 528.688 267.055 512.935" stroke="black" stroke-width="1.6" stroke-linecap="round" stroke-linejoin="round"/>
<path d="M264.956 503.181C265.287 503.429 271.721 501.702 273.531 515.966C275.341 530.23 276.086 544.328 276.086 544.328" stroke="black" stroke-width="1.6" stroke-linecap="round" stroke-linejoin="round"/>
<path d="M260.849 519.751C260.849 519.751 271.192 473.722 272.227 467.681C277.202 438.957 282.57 429.409 269.93 417.131" stroke="black" stroke-width="1.6" stroke-linecap="round" stroke-linejoin="round"/>
<path d="M7.36452 689.089L5.64746 714.762C5.64746 714.762 56.7558 725.488 129.286 725.933" stroke="black" stroke-width="1.6" stroke-linecap="round" stroke-linejoin="round"/>
<path d="M80.4753 183.094C78.6659 183.107 76.9022 182.526 75.4545 181.44C74.0068 180.355 72.9548 178.825 72.4595 177.084C71.9643 175.344 72.0531 173.489 72.7125 171.804C73.3718 170.119 74.5653 168.697 76.1102 167.755C84.6024 162.5 91.2224 150.894 94.0049 141.719C97.3045 130.879 106.966 129.845 115.447 129.7L129.598 129.452C134.159 129.4 136.838 131.831 136.838 136.413C136.838 140.995 134.211 142.164 129.598 142.247C129.598 142.247 113.565 142.412 113.048 142.433C110.4 142.516 109.81 143.53 109.81 143.53C109.719 143.658 109.653 143.801 109.614 143.954C106.035 155.766 97.7803 173.816 84.7886 181.853C83.4926 182.656 81.9999 183.086 80.4753 183.094Z" fill="url(#paint15_linear_2176_908)" stroke="black" stroke-width="1.6" stroke-linecap="round" stroke-linejoin="round"/>
<path d="M129.1 179.484C91.5731 179.484 66.1792 186.725 66.1792 186.725C66.1792 186.725 65.7655 173.547 66.8723 165.975" stroke="black" stroke-width="1.6" stroke-linecap="round" stroke-linejoin="round"/>
<path d="M215.967 220.932L192.486 186.735" stroke="black" stroke-width="1.6" stroke-linecap="round" stroke-linejoin="round"/>
<path d="M129.577 179.484C167.104 179.484 192.488 186.725 192.488 186.725C192.488 186.725 192.808 172.854 191.702 165.282" stroke="black" stroke-width="1.6" stroke-linecap="round" stroke-linejoin="round"/>
<path d="M129.256 142.899L139.031 143.054" stroke="black" stroke-width="1.6" stroke-linecap="round" stroke-linejoin="round"/>
<path d="M128.604 325.196C178.015 324.907 179.712 309.95 179.712 309.102C179.712 309.102 185.36 284.277 189.104 218.149" stroke="black" stroke-width="1.6" stroke-linecap="round" stroke-linejoin="round"/>
<path d="M85.8318 317.77C78.5912 313.756 78.0946 309.546 78.0946 309.102C78.0946 309.102 72.447 284.277 68.7129 218.149" stroke="black" stroke-width="1.6" stroke-linecap="round" stroke-linejoin="round"/>
<path d="M129.204 325.196C111.971 325.093 100.727 323.055 93.1455 320.604" stroke="black" stroke-width="1.6" stroke-linecap="round" stroke-linejoin="round"/>
<path d="M175.482 315.877V325.196" stroke="black" stroke-width="1.6" stroke-linecap="round" stroke-linejoin="round"/>
<path d="M82.8945 315.877V318.132" stroke="black" stroke-width="1.6" stroke-linecap="round" stroke-linejoin="round"/>
<path d="M127.26 367.781L131.149 371.671" stroke="black" stroke-width="1.6" stroke-linecap="round" stroke-linejoin="round"/>
<path d="M128.926 368.123L129.702 367.368" stroke="black" stroke-width="1.6" stroke-linecap="round" stroke-linejoin="round"/>
<path d="M127.26 361.161L130.477 364.14" stroke="black" stroke-width="1.6" stroke-linecap="round" stroke-linejoin="round"/>
<path d="M128.926 361.492L131.15 359.269" stroke="black" stroke-width="1.6" stroke-linecap="round" stroke-linejoin="round"/>
<path d="M127.26 373.584L131.149 377.474" stroke="black" stroke-width="1.6" stroke-linecap="round" stroke-linejoin="round"/>
<path d="M128.926 373.915L131.15 371.691" stroke="black" stroke-width="1.6" stroke-linecap="round" stroke-linejoin="round"/>
<path d="M127.26 379.387L131.149 383.276" stroke="black" stroke-width="1.6" stroke-linecap="round" stroke-linejoin="round"/>
<path d="M128.926 379.718L131.15 377.494" stroke="black" stroke-width="1.6" stroke-linecap="round" stroke-linejoin="round"/>
<path d="M127.26 385.18L131.149 389.069" stroke="black" stroke-width="1.6" stroke-linecap="round" stroke-linejoin="round"/>
<path d="M128.926 385.521L131.15 383.297" stroke="black" stroke-width="1.6" stroke-linecap="round" stroke-linejoin="round"/>
<path d="M127.26 390.982L131.149 394.872" stroke="black" stroke-width="1.6" stroke-linecap="round" stroke-linejoin="round"/>
<path d="M128.926 391.313L131.15 389.09" stroke="black" stroke-width="1.6" stroke-linecap="round" stroke-linejoin="round"/>
<path d="M127.26 396.775L131.149 400.664" stroke="black" stroke-width="1.6" stroke-linecap="round" stroke-linejoin="round"/>
<path d="M128.926 397.116L131.15 394.892" stroke="black" stroke-width="1.6" stroke-linecap="round" stroke-linejoin="round"/>
<path d="M127.26 402.578L131.149 406.467" stroke="black" stroke-width="1.6" stroke-linecap="round" stroke-linejoin="round"/>
<path d="M128.926 402.909L131.15 400.685" stroke="black" stroke-width="1.6" stroke-linecap="round" stroke-linejoin="round"/>
<path d="M127.26 408.381L131.149 412.27" stroke="black" stroke-width="1.6" stroke-linecap="round" stroke-linejoin="round"/>
<path d="M128.926 408.712L131.15 406.488" stroke="black" stroke-width="1.6" stroke-linecap="round" stroke-linejoin="round"/>
<path d="M127.26 414.173L131.149 418.062" stroke="black" stroke-width="1.6" stroke-linecap="round" stroke-linejoin="round"/>
<path d="M128.926 414.504L131.15 412.291" stroke="black" stroke-width="1.6" stroke-linecap="round" stroke-linejoin="round"/>
<path d="M127.26 448.969L131.149 452.859" stroke="black" stroke-width="1.6" stroke-linecap="round" stroke-linejoin="round"/>
<path d="M128.926 449.3L131.15 447.076" stroke="black" stroke-width="1.6" stroke-linecap="round" stroke-linejoin="round"/>
<path d="M128.945 445.09L131.149 447.056" stroke="black" stroke-width="1.6" stroke-linecap="round" stroke-linejoin="round"/>
<path d="M127.26 435.709L131.149 439.598" stroke="black" stroke-width="1.6" stroke-linecap="round" stroke-linejoin="round"/>
<path d="M128.926 436.05L131.15 433.826" stroke="black" stroke-width="1.6" stroke-linecap="round" stroke-linejoin="round"/>
<path d="M127.26 454.762L131.149 458.651" stroke="black" stroke-width="1.6" stroke-linecap="round" stroke-linejoin="round"/>
<path d="M128.926 455.103L131.15 452.879" stroke="black" stroke-width="1.6" stroke-linecap="round" stroke-linejoin="round"/>
<path d="M127.26 460.565L131.149 464.454" stroke="black" stroke-width="1.6" stroke-linecap="round" stroke-linejoin="round"/>
<path d="M128.926 460.896L131.15 458.672" stroke="black" stroke-width="1.6" stroke-linecap="round" stroke-linejoin="round"/>
<path d="M127.26 466.367L131.149 470.257" stroke="black" stroke-width="1.6" stroke-linecap="round" stroke-linejoin="round"/>
<path d="M128.926 466.699L131.15 464.475" stroke="black" stroke-width="1.6" stroke-linecap="round" stroke-linejoin="round"/>
<path d="M127.26 472.16L131.149 476.049" stroke="black" stroke-width="1.6" stroke-linecap="round" stroke-linejoin="round"/>
<path d="M128.926 472.491L131.15 470.277" stroke="black" stroke-width="1.6" stroke-linecap="round" stroke-linejoin="round"/>
<path d="M127.26 477.963L131.149 481.852" stroke="black" stroke-width="1.6" stroke-linecap="round" stroke-linejoin="round"/>
<path d="M128.926 478.294L131.15 476.07" stroke="black" stroke-width="1.6" stroke-linecap="round" stroke-linejoin="round"/>
<path d="M127.26 483.755L131.149 487.645" stroke="black" stroke-width="1.6" stroke-linecap="round" stroke-linejoin="round"/>
<path d="M128.926 484.097L131.15 481.873" stroke="black" stroke-width="1.6" stroke-linecap="round" stroke-linejoin="round"/>
<path d="M127.26 489.558L131.149 493.447" stroke="black" stroke-width="1.6" stroke-linecap="round" stroke-linejoin="round"/>
<path d="M128.926 489.889L131.15 487.665" stroke="black" stroke-width="1.6" stroke-linecap="round" stroke-linejoin="round"/>
<path d="M127.26 495.361L131.149 499.25" stroke="black" stroke-width="1.6" stroke-linecap="round" stroke-linejoin="round"/>
<path d="M128.926 495.692L131.15 493.468" stroke="black" stroke-width="1.6" stroke-linecap="round" stroke-linejoin="round"/>
<path d="M127.26 501.153L131.149 505.043" stroke="black" stroke-width="1.6" stroke-linecap="round" stroke-linejoin="round"/>
<path d="M128.926 501.484L131.15 499.271" stroke="black" stroke-width="1.6" stroke-linecap="round" stroke-linejoin="round"/>
<path d="M127.26 506.956L131.149 510.846" stroke="black" stroke-width="1.6" stroke-linecap="round" stroke-linejoin="round"/>
<path d="M128.926 507.287L131.15 505.063" stroke="black" stroke-width="1.6" stroke-linecap="round" stroke-linejoin="round"/>
<path d="M127.26 512.749L131.149 516.638" stroke="black" stroke-width="1.6" stroke-linecap="round" stroke-linejoin="round"/>
<path d="M128.926 513.09L131.15 510.866" stroke="black" stroke-width="1.6" stroke-linecap="round" stroke-linejoin="round"/>
<path d="M127.26 518.552L131.149 522.441" stroke="black" stroke-width="1.6" stroke-linecap="round" stroke-linejoin="round"/>
<path d="M128.926 518.883L131.15 516.659" stroke="black" stroke-width="1.6" stroke-linecap="round" stroke-linejoin="round"/>
<path d="M127.26 524.354L131.149 528.244" stroke="black" stroke-width="1.6" stroke-linecap="round" stroke-linejoin="round"/>
<path d="M128.926 524.685L131.15 522.462" stroke="black" stroke-width="1.6" stroke-linecap="round" stroke-linejoin="round"/>
<path d="M127.26 530.147L131.149 534.036" stroke="black" stroke-width="1.6" stroke-linecap="round" stroke-linejoin="round"/>
<path d="M128.926 530.478L131.15 528.264" stroke="black" stroke-width="1.6" stroke-linecap="round" stroke-linejoin="round"/>
<path d="M127.486 537.294L131.148 534.057" stroke="black" stroke-width="1.6" stroke-linecap="round" stroke-linejoin="round"/>
<path d="M127.591 344.032L130.973 347.415" stroke="black" stroke-width="1.6" stroke-linecap="round" stroke-linejoin="round"/>
<path d="M194.39 268.285C194.009 268.285 193.632 268.21 193.28 268.064C192.928 267.918 192.608 267.703 192.339 267.433C192.07 267.163 191.857 266.843 191.712 266.49C191.567 266.138 191.493 265.76 191.494 265.379V260.558C191.494 259.79 191.799 259.054 192.342 258.51C192.886 257.967 193.622 257.662 194.39 257.662C195.159 257.662 195.895 257.967 196.438 258.51C196.982 259.054 197.287 259.79 197.287 260.558V265.379C197.288 265.76 197.214 266.138 197.069 266.49C196.924 266.843 196.711 267.163 196.442 267.433C196.173 267.703 195.853 267.918 195.501 268.064C195.149 268.21 194.772 268.285 194.39 268.285Z" fill="#E1E514" stroke="black" stroke-width="1.6" stroke-linecap="round" stroke-linejoin="round"/>
<path d="M77.7957 110.243C77.7957 110.243 55.1947 126.793 45.6474 144.378L42.7305 139.651C47.4181 133.68 52.6315 128.141 58.3081 123.101C64.2181 117.987 70.7691 113.665 77.7957 110.243Z" fill="black"/>
<path d="M80.1325 140.054C80.1325 140.054 69.0233 155.052 66.4891 164.6C66.4891 164.6 63.1791 160.7 65.9098 156.418C68.6406 152.136 80.1325 140.054 80.1325 140.054Z" fill="black"/>
<path d="M191.752 117.453C191.752 117.453 205.457 129.99 209.098 137.52C211.819 143.167 219.618 146.281 222.545 144.533L221.573 141.026C221.573 141.026 219.039 142.392 214.953 139.661C210.867 136.93 200.741 124.073 200.741 124.073L191.752 117.453Z" fill="black"/>
<path d="M177.345 78.6847C176.755 78.8812 160.795 95.6381 160.795 95.6381L149.872 99.3101L166.608 83.1635L171.108 80.6914L177.345 78.6847Z" fill="black"/>
<path d="M252.378 377.06L254.446 372.85C250.578 373.212 250.04 371.381 249.823 369.074C249.647 367.14 251.085 364.244 251.085 364.244L214.985 367.213C213.951 376.667 203.431 375.829 203.431 375.829L198.601 385.066" stroke="black" stroke-width="1.6" stroke-linecap="round" stroke-linejoin="round"/>
<path d="M164.353 474.529L164.777 479.576C164.777 479.576 171.076 480.838 170.238 487.976L195.87 498.061C195.87 498.061 196.077 490.499 201.745 492.806V488.4" stroke="black" stroke-width="1.6" stroke-linecap="round" stroke-linejoin="round"/>
<path d="M157.215 457.937L148.392 479.359C148.392 479.359 152.798 480.394 151.753 486.3L157.846 489.031" stroke="black" stroke-width="1.6" stroke-linecap="round" stroke-linejoin="round"/>
<path d="M211.416 389.452L224.439 412.353C224.439 412.353 234.938 408.36 236.851 419.914L269.837 412.559C269.837 412.559 264.79 403.736 272.94 398.689C272.94 398.689 269.268 387.745 252.781 377.474" stroke="black" stroke-width="1.6" stroke-linecap="round" stroke-linejoin="round"/>
<path d="M189.363 376.212C190.303 368.122 190.794 359.986 190.832 351.842C202.603 350.373 200.079 340.081 200.079 340.081C210.423 338.819 231.173 333.358 231.173 333.358C231.173 333.358 233.479 342.812 242.302 339.657C242.302 339.657 244.371 344.911 243.14 353.104" stroke="black" stroke-width="1.6" stroke-linecap="round" stroke-linejoin="round"/>
<path d="M88.0974 345.749C87.6733 341.767 87.2596 335.044 87.2596 335.044C75.7056 336.926 76.7503 324.7 76.7503 324.7L34.5273 333.316C37.0511 346.763 24.8662 347.187 24.8662 347.187C24.8662 347.187 25.4868 359.155 27.9693 366.085" stroke="black" stroke-width="1.6" stroke-linecap="round" stroke-linejoin="round"/>
<path d="M106.375 399.113L121.29 415.497C121.29 415.497 114.567 424.744 122.552 433.774C122.552 433.774 113.305 444.915 91.459 453.738" stroke="black" stroke-width="1.6" stroke-linecap="round" stroke-linejoin="round"/>
<path d="M23.1808 364.875C15.4127 353.104 11.8027 337.981 11.8027 337.981C19.5812 334.619 15.5885 327.265 15.5885 327.265L55.9291 317.397C55.9291 317.397 55.2981 322.228 60.9768 323.066" stroke="black" stroke-width="1.6" stroke-linecap="round" stroke-linejoin="round"/>
<path d="M5.32785 342.605C5.32785 342.605 5.53473 347.011 0.0732422 348.904C4.74381 357.812 11.0089 365.788 18.5575 372.436" stroke="black" stroke-width="1.6" stroke-linecap="round" stroke-linejoin="round"/>
<path d="M121.095 440.922C121.095 440.922 120.474 444.025 121.312 445.752C121.312 445.752 112.903 453.521 89.5879 458.165" stroke="black" stroke-width="1.6" stroke-linecap="round" stroke-linejoin="round"/>
<path d="M247.463 379.077C248.022 382.935 245.302 386.39 236.592 387.931C227.883 389.472 217.767 387.3 217.208 383.442" stroke="black" stroke-width="1.6" stroke-linecap="round" stroke-linejoin="round"/>
<path d="M243.668 395.203L248.778 406.146" stroke="black" stroke-width="1.6" stroke-linecap="round" stroke-linejoin="round"/>
<path d="M219.96 346.329L222.153 355.441" stroke="black" stroke-width="1.6" stroke-linecap="round" stroke-linejoin="round"/>
<path d="M57.2637 338.664L57.9981 344.498" stroke="black" stroke-width="1.6" stroke-linecap="round" stroke-linejoin="round"/>
<path d="M232.631 373.977L231.969 379.325" stroke="black" stroke-width="1.6" stroke-linecap="round" stroke-linejoin="round"/>
<path d="M183.85 483.393V487.22" stroke="black" stroke-width="1.6" stroke-linecap="round" stroke-linejoin="round"/>
<path d="M148.495 395.42L145.898 392.317C145.617 391.968 145.464 391.534 145.464 391.086C145.463 390.817 145.519 390.551 145.628 390.305C145.737 390.059 145.896 389.839 146.095 389.658C146.272 389.498 146.48 389.375 146.707 389.298C146.933 389.22 147.173 389.191 147.412 389.21C147.651 389.229 147.883 389.298 148.094 389.41C148.305 389.523 148.491 389.678 148.639 389.865L151.246 393.041L148.495 395.42Z" fill="#F2C443" stroke="black" stroke-width="1.6" stroke-linecap="round" stroke-linejoin="round"/>
<path d="M147.791 398.13C147.522 398.13 147.256 398.074 147.01 397.966C146.764 397.857 146.544 397.698 146.363 397.499C146.202 397.322 146.08 397.113 146.002 396.887C145.925 396.66 145.896 396.42 145.915 396.182C145.934 395.943 146.002 395.711 146.115 395.5C146.228 395.289 146.383 395.103 146.57 394.954L151.794 390.662C152.18 390.352 152.668 390.2 153.162 390.237C153.655 390.273 154.116 390.495 154.452 390.858C154.613 391.035 154.736 391.244 154.813 391.47C154.89 391.697 154.92 391.937 154.901 392.175C154.881 392.414 154.813 392.646 154.7 392.857C154.588 393.068 154.433 393.254 154.245 393.403L149.022 397.696C148.673 397.976 148.239 398.13 147.791 398.13Z" fill="#F2C443" stroke="black" stroke-width="1.6" stroke-linecap="round" stroke-linejoin="round"/>
<mask id="mask3_2176_908" style="mask-type:luminance" maskUnits="userSpaceOnUse" x="106" y="386" width="12" height="13">
<path d="M109.074 386.359C108.497 388.364 107.75 390.315 106.84 392.193L112.136 398.171L117.059 388.045L109.074 386.359Z" fill="white"/>
</mask>
<g mask="url(#mask3_2176_908)">
<path d="M107.947 393.972L105.351 390.807C105.039 390.422 104.886 389.932 104.922 389.438C104.959 388.944 105.182 388.483 105.548 388.148C105.726 387.989 105.934 387.867 106.16 387.791C106.387 387.714 106.626 387.685 106.864 387.704C107.103 387.724 107.334 387.791 107.545 387.903C107.756 388.015 107.943 388.169 108.092 388.355L110.699 391.531L107.947 393.972Z" fill="#F2C443" stroke="black" stroke-width="1.6" stroke-linecap="round" stroke-linejoin="round"/>
<path d="M107.245 396.671C106.975 396.674 106.709 396.62 106.463 396.511C106.216 396.402 105.996 396.242 105.817 396.04C105.656 395.865 105.533 395.658 105.455 395.433C105.377 395.207 105.346 394.968 105.365 394.731C105.383 394.493 105.45 394.262 105.562 394.051C105.674 393.84 105.827 393.655 106.014 393.506L111.248 389.214C111.633 388.902 112.122 388.748 112.616 388.785C113.11 388.821 113.571 389.045 113.906 389.41C114.066 389.588 114.187 389.796 114.264 390.023C114.34 390.249 114.369 390.489 114.35 390.727C114.33 390.965 114.263 391.197 114.151 391.408C114.039 391.619 113.885 391.805 113.699 391.955L108.527 396.237C108.165 396.529 107.71 396.683 107.245 396.671Z" fill="#F2C443" stroke="black" stroke-width="1.6" stroke-linecap="round" stroke-linejoin="round"/>
</g>
<path d="M122.584 163.958C122.617 162.939 122.857 161.936 123.29 161.013C123.723 160.089 124.339 159.263 125.102 158.585C125.865 157.908 126.758 157.393 127.726 157.072C128.695 156.751 129.718 156.63 130.735 156.718C132.488 156.708 134.196 157.283 135.586 158.352C135.636 158.399 135.673 158.458 135.695 158.523C135.717 158.588 135.722 158.657 135.71 158.724C135.628 159.259 135.456 159.777 135.203 160.255C134.841 160.99 134.365 161.672 134.003 161.662C133.952 161.65 133.903 161.629 133.858 161.6C132.915 160.891 131.779 160.484 130.6 160.431C129.567 160.398 128.561 160.772 127.801 161.473C127.041 162.174 126.587 163.146 126.537 164.179C126.486 165.212 126.844 166.223 127.533 166.994C128.221 167.766 129.186 168.236 130.217 168.303C131.392 168.354 132.557 168.063 133.569 167.465C133.622 167.446 133.681 167.446 133.734 167.465C134.055 167.465 134.458 168.044 134.769 168.892C134.975 169.403 135.093 169.945 135.12 170.496C135.12 170.682 135.069 170.837 134.955 170.889C133.466 171.814 131.714 172.224 129.969 172.058C128.942 172.044 127.928 171.819 126.991 171.398C126.054 170.977 125.213 170.368 124.521 169.609C123.829 168.849 123.3 167.956 122.967 166.984C122.633 166.013 122.503 164.983 122.584 163.958Z" fill="white"/>
<path d="M129.019 147.501L130.053 150.232L132.959 150.067L130.694 151.898L131.739 154.628L129.308 153.025L127.043 154.866L127.808 152.053L125.367 150.47L128.263 150.325L129.019 147.501Z" fill="white"/>
</g>
<defs>
<linearGradient id="paint0_linear_2176_908" x1="136.641" y1="116.253" x2="232.92" y2="140.571" gradientUnits="userSpaceOnUse">
<stop offset="0.32"/>
<stop offset="0.44" stop-color="#040304"/>
<stop offset="0.54" stop-color="#0F0E0E"/>
<stop offset="0.65" stop-color="#211F20"/>
<stop offset="0.75" stop-color="#3C383A"/>
<stop offset="0.84" stop-color="#5E585B"/>
<stop offset="0.94" stop-color="#877E82"/>
<stop offset="0.99" stop-color="#9E9499"/>
</linearGradient>
<linearGradient id="paint1_linear_2176_908" x1="131.769" y1="103.065" x2="162.811" y2="43.7022" gradientUnits="userSpaceOnUse">
<stop offset="0.25"/>
<stop offset="0.35" stop-color="#0D0C0D"/>
<stop offset="0.53" stop-color="#302D2E"/>
<stop offset="0.78" stop-color="#676164"/>
<stop offset="1" stop-color="#9E9499"/>
</linearGradient>
<linearGradient id="paint2_linear_2176_908" x1="129.897" y1="78.1675" x2="129.783" y2="34.6515" gradientUnits="userSpaceOnUse">
<stop offset="0.08"/>
<stop offset="0.24" stop-color="#040304"/>
<stop offset="0.39" stop-color="#0F0E0E"/>
<stop offset="0.53" stop-color="#211F20"/>
<stop offset="0.66" stop-color="#3C383A"/>
<stop offset="0.8" stop-color="#5E585B"/>
<stop offset="0.93" stop-color="#877E82"/>
<stop offset="1" stop-color="#9E9499"/>
</linearGradient>
<linearGradient id="paint3_linear_2176_908" x1="142.393" y1="105.806" x2="227.48" y2="74.9093" gradientUnits="userSpaceOnUse">
<stop offset="0.3"/>
<stop offset="0.38" stop-color="#070707"/>
<stop offset="0.49" stop-color="#1C1A1B"/>
<stop offset="0.62" stop-color="#3D393B"/>
<stop offset="0.76" stop-color="#6A6467"/>
<stop offset="0.91" stop-color="#9E9499"/>
</linearGradient>
<linearGradient id="paint4_linear_2176_908" x1="120.319" y1="93.7762" x2="189.953" y2="93.7762" gradientUnits="userSpaceOnUse">
<stop offset="0.4"/>
<stop offset="0.5" stop-color="#040304"/>
<stop offset="0.6" stop-color="#0F0E0E"/>
<stop offset="0.69" stop-color="#211F20"/>
<stop offset="0.78" stop-color="#3C383A"/>
<stop offset="0.87" stop-color="#5E585B"/>
<stop offset="0.96" stop-color="#877E82"/>
<stop offset="1" stop-color="#9E9499"/>
</linearGradient>
<linearGradient id="paint5_linear_2176_908" x1="125.843" y1="117.06" x2="233.242" y2="117.06" gradientUnits="userSpaceOnUse">
<stop offset="0.09"/>
<stop offset="0.23" stop-color="#171516"/>
<stop offset="0.53" stop-color="#514C4E"/>
<stop offset="0.89" stop-color="#9E9499"/>
</linearGradient>
<linearGradient id="paint6_linear_2176_908" x1="37.1036" y1="138.047" x2="86.4846" y2="116.512" gradientUnits="userSpaceOnUse">
<stop stop-color="#9E9499"/>
<stop offset="0.09" stop-color="#877E82"/>
<stop offset="0.32" stop-color="#4D484B"/>
<stop offset="0.52" stop-color="#232122"/>
<stop offset="0.67" stop-color="#0A0909"/>
<stop offset="0.77"/>
</linearGradient>
<linearGradient id="paint7_linear_2176_908" x1="85.0058" y1="80.8465" x2="135.876" y2="80.8465" gradientUnits="userSpaceOnUse">
<stop stop-color="#9E9499"/>
<stop offset="0.6"/>
</linearGradient>
<linearGradient id="paint8_linear_2176_908" x1="29.6971" y1="79.957" x2="116.202" y2="106.602" gradientUnits="userSpaceOnUse">
<stop stop-color="#9E9499"/>
<stop offset="0.08" stop-color="#837B7F"/>
<stop offset="0.23" stop-color="#554F52"/>
<stop offset="0.37" stop-color="#302D2E"/>
<stop offset="0.51" stop-color="#161415"/>
<stop offset="0.63" stop-color="#060505"/>
<stop offset="0.72"/>
</linearGradient>
<linearGradient id="paint9_linear_2176_908" x1="71.7442" y1="60.8418" x2="135.337" y2="122.852" gradientUnits="userSpaceOnUse">
<stop stop-color="#9E9499"/>
<stop offset="0.03" stop-color="#978D92"/>
<stop offset="0.3" stop-color="#575154"/>
<stop offset="0.53" stop-color="#282526"/>
<stop offset="0.7" stop-color="#0B0A0A"/>
<stop offset="0.81"/>
</linearGradient>
<linearGradient id="paint10_linear_2176_908" x1="27.9084" y1="122.273" x2="141.369" y2="114.733" gradientUnits="userSpaceOnUse">
<stop stop-color="#9E9499"/>
<stop offset="0.14" stop-color="#7E767A"/>
<stop offset="0.39" stop-color="#484446"/>
<stop offset="0.61" stop-color="#211F20"/>
<stop offset="0.79" stop-color="#090809"/>
<stop offset="0.89"/>
</linearGradient>
<linearGradient id="paint11_linear_2176_908" x1="129.68" y1="128.417" x2="211.313" y2="158.755" gradientUnits="userSpaceOnUse">
<stop offset="0.19"/>
<stop offset="0.3" stop-color="#0E0D0D"/>
<stop offset="0.5" stop-color="#322F30"/>
<stop offset="0.77" stop-color="#6C6569"/>
<stop offset="0.97" stop-color="#9E9499"/>
</linearGradient>
<linearGradient id="paint12_linear_2176_908" x1="189.632" y1="169.306" x2="136.321" y2="129.4" gradientUnits="userSpaceOnUse">
<stop stop-color="#9E9499"/>
<stop offset="0.21" stop-color="#6B6468"/>
<stop offset="0.55" stop-color="#1E1C1D"/>
<stop offset="0.71"/>
</linearGradient>
<linearGradient id="paint13_linear_2176_908" x1="64.9591" y1="144.202" x2="125.47" y2="144.202" gradientUnits="userSpaceOnUse">
<stop stop-color="#9E9499"/>
<stop offset="0.6"/>
</linearGradient>
<linearGradient id="paint14_linear_2176_908" x1="38.9653" y1="146.995" x2="133.435" y2="146.995" gradientUnits="userSpaceOnUse">
<stop stop-color="#9E9499"/>
<stop offset="0.6"/>
</linearGradient>
<linearGradient id="paint15_linear_2176_908" x1="70.6591" y1="183.146" x2="147.399" y2="107.492" gradientUnits="userSpaceOnUse">
<stop stop-color="#9E9499"/>
<stop offset="0.1" stop-color="#9A9095"/>
<stop offset="0.2" stop-color="#8D8488"/>
<stop offset="0.31" stop-color="#776F73"/>
<stop offset="0.42" stop-color="#595356"/>
<stop offset="0.53" stop-color="#322E30"/>
<stop offset="0.64" stop-color="#030202"/>
<stop offset="0.65"/>
</linearGradient>
</defs>
</svg>
